  0
SECTION
  2
HEADER
  9
$ANGBASE
  50
0.0
  9
$ANGDIR
  70
1
  9
$MEASUREMENT
  70
1
  0
ENDSEC
  0
SECTION
  2
TABLES
  0
TABLE
  2
LTYPE
  70
4
  0
LTYPE
  5
40F
  2
CONTINUOUS
  70
0
  3
Solid line
  72
65
  73
0
  40
0.0
  0
LTYPE
  5
410
  2
DASHDOT
 70
0
  3
Dash Dot ____ _ ____ _
 72
65
 73
4
 40
2.0
 49
1.25
 49
-0.25
 49
0.25
 49
-0.25
  0
LTYPE
  5
411
  2
DASHED
 70
0
  3
Dashed __ __ __ __ __
 72
65
 73
2
 40
0.75
 49
0.5
 49
-0.25
  0
LTYPE
  5
43B
  2
DOTTED
 70
0
  3
Dotted .  .  .  .
 72
65
 73
2
 40
0.2
 49
0.0
 49
-0.2
  0
ENDTAB
  0
TABLE
  2
STYLE
  70
4
  0
STYLE
  2
KICAD
  70
0
  40
0
  41
1
  42
1
  50
0
  71
0
  3
isocp.shx
  0
STYLE
  2
KICADB
  70
0
  40
0
  41
1
  42
1
  50
0
  71
0
  3
isocp.shx
  0
STYLE
  2
KICADI
  70
0
  40
0
  41
1
  42
1
  50
15
  71
0
  3
isocp.shx
  0
STYLE
  2
KICADBI
  70
0
  40
0
  41
1
  42
1
  50
15
  71
0
  3
isocp.shx
  0
ENDTAB
  0
TABLE
  2
LAYER
  70
1
  0
LAYER
  2
BLACK
  70
0
  62
7
  6
CONTINUOUS
  0
ENDTAB
  0
ENDSEC
  0
SECTION
  2
ENTITIES
0
LINE
8
BLACK
6
CONTINUOUS
10
108.691
20
-122.083
11
108.719
21
-122.091
0
LINE
8
BLACK
6
CONTINUOUS
10
108.719
20
-122.091
11
108.744
21
-122.105
0
LINE
8
BLACK
6
CONTINUOUS
10
108.744
20
-122.105
11
108.767
21
-122.123
0
LINE
8
BLACK
6
CONTINUOUS
10
108.767
20
-122.123
11
108.785
21
-122.146
0
LINE
8
BLACK
6
CONTINUOUS
10
108.785
20
-122.146
11
108.799
21
-122.171
0
LINE
8
BLACK
6
CONTINUOUS
10
108.799
20
-122.171
11
108.807
21
-122.199
0
LINE
8
BLACK
6
CONTINUOUS
10
108.807
20
-122.199
11
108.81
21
-122.227
0
LINE
8
BLACK
6
CONTINUOUS
10
108.81
20
-122.227
11
108.81
21
-122.572
0
LINE
8
BLACK
6
CONTINUOUS
10
108.81
20
-122.572
11
108.807
21
-122.601
0
LINE
8
BLACK
6
CONTINUOUS
10
108.807
20
-122.601
11
108.799
21
-122.629
0
LINE
8
BLACK
6
CONTINUOUS
10
108.799
20
-122.629
11
108.785
21
-122.654
0
LINE
8
BLACK
6
CONTINUOUS
10
108.785
20
-122.654
11
108.767
21
-122.677
0
LINE
8
BLACK
6
CONTINUOUS
10
108.767
20
-122.677
11
108.744
21
-122.695
0
LINE
8
BLACK
6
CONTINUOUS
10
108.744
20
-122.695
11
108.719
21
-122.709
0
LINE
8
BLACK
6
CONTINUOUS
10
108.719
20
-122.709
11
108.691
21
-122.717
0
LINE
8
BLACK
6
CONTINUOUS
10
108.691
20
-122.717
11
108.662
21
-122.72
0
LINE
8
BLACK
6
CONTINUOUS
10
108.662
20
-122.72
11
108.367
21
-122.72
0
LINE
8
BLACK
6
CONTINUOUS
10
108.367
20
-122.72
11
108.339
21
-122.717
0
LINE
8
BLACK
6
CONTINUOUS
10
108.339
20
-122.717
11
108.311
21
-122.709
0
LINE
8
BLACK
6
CONTINUOUS
10
108.311
20
-122.709
11
108.286
21
-122.695
0
LINE
8
BLACK
6
CONTINUOUS
10
108.286
20
-122.695
11
108.263
21
-122.677
0
LINE
8
BLACK
6
CONTINUOUS
10
108.263
20
-122.677
11
108.245
21
-122.654
0
LINE
8
BLACK
6
CONTINUOUS
10
108.245
20
-122.654
11
108.231
21
-122.629
0
LINE
8
BLACK
6
CONTINUOUS
10
108.231
20
-122.629
11
108.223
21
-122.601
0
LINE
8
BLACK
6
CONTINUOUS
10
108.223
20
-122.601
11
108.22
21
-122.572
0
LINE
8
BLACK
6
CONTINUOUS
10
108.22
20
-122.572
11
108.22
21
-122.227
0
LINE
8
BLACK
6
CONTINUOUS
10
108.22
20
-122.227
11
108.223
21
-122.199
0
LINE
8
BLACK
6
CONTINUOUS
10
108.223
20
-122.199
11
108.231
21
-122.171
0
LINE
8
BLACK
6
CONTINUOUS
10
108.231
20
-122.171
11
108.245
21
-122.146
0
LINE
8
BLACK
6
CONTINUOUS
10
108.245
20
-122.146
11
108.263
21
-122.123
0
LINE
8
BLACK
6
CONTINUOUS
10
108.263
20
-122.123
11
108.286
21
-122.105
0
LINE
8
BLACK
6
CONTINUOUS
10
108.286
20
-122.105
11
108.311
21
-122.091
0
LINE
8
BLACK
6
CONTINUOUS
10
108.311
20
-122.091
11
108.339
21
-122.083
0
LINE
8
BLACK
6
CONTINUOUS
10
108.339
20
-122.083
11
108.367
21
-122.08
0
LINE
8
BLACK
6
CONTINUOUS
10
108.367
20
-122.08
11
108.662
21
-122.08
0
LINE
8
BLACK
6
CONTINUOUS
10
108.662
20
-122.08
11
108.691
21
-122.083
0
LINE
8
BLACK
6
CONTINUOUS
10
109.661
20
-122.083
11
109.689
21
-122.091
0
LINE
8
BLACK
6
CONTINUOUS
10
109.689
20
-122.091
11
109.714
21
-122.105
0
LINE
8
BLACK
6
CONTINUOUS
10
109.714
20
-122.105
11
109.737
21
-122.123
0
LINE
8
BLACK
6
CONTINUOUS
10
109.737
20
-122.123
11
109.755
21
-122.146
0
LINE
8
BLACK
6
CONTINUOUS
10
109.755
20
-122.146
11
109.769
21
-122.171
0
LINE
8
BLACK
6
CONTINUOUS
10
109.769
20
-122.171
11
109.777
21
-122.199
0
LINE
8
BLACK
6
CONTINUOUS
10
109.777
20
-122.199
11
109.78
21
-122.227
0
LINE
8
BLACK
6
CONTINUOUS
10
109.78
20
-122.227
11
109.78
21
-122.572
0
LINE
8
BLACK
6
CONTINUOUS
10
109.78
20
-122.572
11
109.777
21
-122.601
0
LINE
8
BLACK
6
CONTINUOUS
10
109.777
20
-122.601
11
109.769
21
-122.629
0
LINE
8
BLACK
6
CONTINUOUS
10
109.769
20
-122.629
11
109.755
21
-122.654
0
LINE
8
BLACK
6
CONTINUOUS
10
109.755
20
-122.654
11
109.737
21
-122.677
0
LINE
8
BLACK
6
CONTINUOUS
10
109.737
20
-122.677
11
109.714
21
-122.695
0
LINE
8
BLACK
6
CONTINUOUS
10
109.714
20
-122.695
11
109.689
21
-122.709
0
LINE
8
BLACK
6
CONTINUOUS
10
109.689
20
-122.709
11
109.661
21
-122.717
0
LINE
8
BLACK
6
CONTINUOUS
10
109.661
20
-122.717
11
109.632
21
-122.72
0
LINE
8
BLACK
6
CONTINUOUS
10
109.632
20
-122.72
11
109.337
21
-122.72
0
LINE
8
BLACK
6
CONTINUOUS
10
109.337
20
-122.72
11
109.309
21
-122.717
0
LINE
8
BLACK
6
CONTINUOUS
10
109.309
20
-122.717
11
109.281
21
-122.709
0
LINE
8
BLACK
6
CONTINUOUS
10
109.281
20
-122.709
11
109.256
21
-122.695
0
LINE
8
BLACK
6
CONTINUOUS
10
109.256
20
-122.695
11
109.233
21
-122.677
0
LINE
8
BLACK
6
CONTINUOUS
10
109.233
20
-122.677
11
109.215
21
-122.654
0
LINE
8
BLACK
6
CONTINUOUS
10
109.215
20
-122.654
11
109.201
21
-122.629
0
LINE
8
BLACK
6
CONTINUOUS
10
109.201
20
-122.629
11
109.193
21
-122.601
0
LINE
8
BLACK
6
CONTINUOUS
10
109.193
20
-122.601
11
109.19
21
-122.572
0
LINE
8
BLACK
6
CONTINUOUS
10
109.19
20
-122.572
11
109.19
21
-122.227
0
LINE
8
BLACK
6
CONTINUOUS
10
109.19
20
-122.227
11
109.193
21
-122.199
0
LINE
8
BLACK
6
CONTINUOUS
10
109.193
20
-122.199
11
109.201
21
-122.171
0
LINE
8
BLACK
6
CONTINUOUS
10
109.201
20
-122.171
11
109.215
21
-122.146
0
LINE
8
BLACK
6
CONTINUOUS
10
109.215
20
-122.146
11
109.233
21
-122.123
0
LINE
8
BLACK
6
CONTINUOUS
10
109.233
20
-122.123
11
109.256
21
-122.105
0
LINE
8
BLACK
6
CONTINUOUS
10
109.256
20
-122.105
11
109.281
21
-122.091
0
LINE
8
BLACK
6
CONTINUOUS
10
109.281
20
-122.091
11
109.309
21
-122.083
0
LINE
8
BLACK
6
CONTINUOUS
10
109.309
20
-122.083
11
109.337
21
-122.08
0
LINE
8
BLACK
6
CONTINUOUS
10
109.337
20
-122.08
11
109.632
21
-122.08
0
LINE
8
BLACK
6
CONTINUOUS
10
109.632
20
-122.08
11
109.661
21
-122.083
0
LINE
8
BLACK
6
CONTINUOUS
10
108.2
20
-121.487
11
107.85
21
-121.487
0
LINE
8
BLACK
6
CONTINUOUS
10
107.85
20
-121.487
11
107.85
21
-120.837
0
LINE
8
BLACK
6
CONTINUOUS
10
107.85
20
-120.837
11
108.2
21
-120.837
0
LINE
8
BLACK
6
CONTINUOUS
10
108.2
20
-120.837
11
108.2
21
-121.487
0
LINE
8
BLACK
6
CONTINUOUS
10
108.85
20
-121.487
11
108.5
21
-121.487
0
LINE
8
BLACK
6
CONTINUOUS
10
108.5
20
-121.487
11
108.5
21
-120.837
0
LINE
8
BLACK
6
CONTINUOUS
10
108.5
20
-120.837
11
108.85
21
-120.837
0
LINE
8
BLACK
6
CONTINUOUS
10
108.85
20
-120.837
11
108.85
21
-121.487
0
LINE
8
BLACK
6
CONTINUOUS
10
109.5
20
-121.487
11
109.15
21
-121.487
0
LINE
8
BLACK
6
CONTINUOUS
10
109.15
20
-121.487
11
109.15
21
-120.837
0
LINE
8
BLACK
6
CONTINUOUS
10
109.15
20
-120.837
11
109.5
21
-120.837
0
LINE
8
BLACK
6
CONTINUOUS
10
109.5
20
-120.837
11
109.5
21
-121.487
0
LINE
8
BLACK
6
CONTINUOUS
10
110.15
20
-121.487
11
109.8
21
-121.487
0
LINE
8
BLACK
6
CONTINUOUS
10
109.8
20
-121.487
11
109.8
21
-120.837
0
LINE
8
BLACK
6
CONTINUOUS
10
109.8
20
-120.837
11
110.15
21
-120.837
0
LINE
8
BLACK
6
CONTINUOUS
10
110.15
20
-120.837
11
110.15
21
-121.487
0
LINE
8
BLACK
6
CONTINUOUS
10
108.9
20
-120.3
11
107.9
21
-120.3
0
LINE
8
BLACK
6
CONTINUOUS
10
107.9
20
-120.3
11
107.9
21
-119.7
0
LINE
8
BLACK
6
CONTINUOUS
10
107.9
20
-119.7
11
108.9
21
-119.7
0
LINE
8
BLACK
6
CONTINUOUS
10
108.9
20
-119.7
11
108.9
21
-120.3
0
LINE
8
BLACK
6
CONTINUOUS
10
110.1
20
-120.3
11
109.1
21
-120.3
0
LINE
8
BLACK
6
CONTINUOUS
10
109.1
20
-120.3
11
109.1
21
-119.7
0
LINE
8
BLACK
6
CONTINUOUS
10
109.1
20
-119.7
11
110.1
21
-119.7
0
LINE
8
BLACK
6
CONTINUOUS
10
110.1
20
-119.7
11
110.1
21
-120.3
0
LINE
8
BLACK
6
CONTINUOUS
10
108.9
20
-119.525
11
107.9
21
-119.525
0
LINE
8
BLACK
6
CONTINUOUS
10
107.9
20
-119.525
11
107.9
21
-118.925
0
LINE
8
BLACK
6
CONTINUOUS
10
107.9
20
-118.925
11
108.9
21
-118.925
0
LINE
8
BLACK
6
CONTINUOUS
10
108.9
20
-118.925
11
108.9
21
-119.525
0
LINE
8
BLACK
6
CONTINUOUS
10
110.1
20
-119.525
11
109.1
21
-119.525
0
LINE
8
BLACK
6
CONTINUOUS
10
109.1
20
-119.525
11
109.1
21
-118.925
0
LINE
8
BLACK
6
CONTINUOUS
10
109.1
20
-118.925
11
110.1
21
-118.925
0
LINE
8
BLACK
6
CONTINUOUS
10
110.1
20
-118.925
11
110.1
21
-119.525
0
LINE
8
BLACK
6
CONTINUOUS
10
111.601
20
-118.793
11
111.629
21
-118.801
0
LINE
8
BLACK
6
CONTINUOUS
10
111.629
20
-118.801
11
111.654
21
-118.815
0
LINE
8
BLACK
6
CONTINUOUS
10
111.654
20
-118.815
11
111.677
21
-118.833
0
LINE
8
BLACK
6
CONTINUOUS
10
111.677
20
-118.833
11
111.695
21
-118.856
0
LINE
8
BLACK
6
CONTINUOUS
10
111.695
20
-118.856
11
111.709
21
-118.881
0
LINE
8
BLACK
6
CONTINUOUS
10
111.709
20
-118.881
11
111.717
21
-118.909
0
LINE
8
BLACK
6
CONTINUOUS
10
111.717
20
-118.909
11
111.72
21
-118.938
0
LINE
8
BLACK
6
CONTINUOUS
10
111.72
20
-118.938
11
111.72
21
-119.233
0
LINE
8
BLACK
6
CONTINUOUS
10
111.72
20
-119.233
11
111.717
21
-119.261
0
LINE
8
BLACK
6
CONTINUOUS
10
111.717
20
-119.261
11
111.709
21
-119.289
0
LINE
8
BLACK
6
CONTINUOUS
10
111.709
20
-119.289
11
111.695
21
-119.314
0
LINE
8
BLACK
6
CONTINUOUS
10
111.695
20
-119.314
11
111.677
21
-119.337
0
LINE
8
BLACK
6
CONTINUOUS
10
111.677
20
-119.337
11
111.654
21
-119.355
0
LINE
8
BLACK
6
CONTINUOUS
10
111.654
20
-119.355
11
111.629
21
-119.369
0
LINE
8
BLACK
6
CONTINUOUS
10
111.629
20
-119.369
11
111.601
21
-119.377
0
LINE
8
BLACK
6
CONTINUOUS
10
111.601
20
-119.377
11
111.572
21
-119.38
0
LINE
8
BLACK
6
CONTINUOUS
10
111.572
20
-119.38
11
111.227
21
-119.38
0
LINE
8
BLACK
6
CONTINUOUS
10
111.227
20
-119.38
11
111.199
21
-119.377
0
LINE
8
BLACK
6
CONTINUOUS
10
111.199
20
-119.377
11
111.171
21
-119.369
0
LINE
8
BLACK
6
CONTINUOUS
10
111.171
20
-119.369
11
111.146
21
-119.355
0
LINE
8
BLACK
6
CONTINUOUS
10
111.146
20
-119.355
11
111.123
21
-119.337
0
LINE
8
BLACK
6
CONTINUOUS
10
111.123
20
-119.337
11
111.105
21
-119.314
0
LINE
8
BLACK
6
CONTINUOUS
10
111.105
20
-119.314
11
111.091
21
-119.289
0
LINE
8
BLACK
6
CONTINUOUS
10
111.091
20
-119.289
11
111.083
21
-119.261
0
LINE
8
BLACK
6
CONTINUOUS
10
111.083
20
-119.261
11
111.08
21
-119.233
0
LINE
8
BLACK
6
CONTINUOUS
10
111.08
20
-119.233
11
111.08
21
-118.938
0
LINE
8
BLACK
6
CONTINUOUS
10
111.08
20
-118.938
11
111.083
21
-118.909
0
LINE
8
BLACK
6
CONTINUOUS
10
111.083
20
-118.909
11
111.091
21
-118.881
0
LINE
8
BLACK
6
CONTINUOUS
10
111.091
20
-118.881
11
111.105
21
-118.856
0
LINE
8
BLACK
6
CONTINUOUS
10
111.105
20
-118.856
11
111.123
21
-118.833
0
LINE
8
BLACK
6
CONTINUOUS
10
111.123
20
-118.833
11
111.146
21
-118.815
0
LINE
8
BLACK
6
CONTINUOUS
10
111.146
20
-118.815
11
111.171
21
-118.801
0
LINE
8
BLACK
6
CONTINUOUS
10
111.171
20
-118.801
11
111.199
21
-118.793
0
LINE
8
BLACK
6
CONTINUOUS
10
111.199
20
-118.793
11
111.227
21
-118.79
0
LINE
8
BLACK
6
CONTINUOUS
10
111.227
20
-118.79
11
111.572
21
-118.79
0
LINE
8
BLACK
6
CONTINUOUS
10
111.572
20
-118.79
11
111.601
21
-118.793
0
LINE
8
BLACK
6
CONTINUOUS
10
127.95
20
-118.65
11
126.05
21
-118.65
0
LINE
8
BLACK
6
CONTINUOUS
10
126.05
20
-118.65
11
126.05
21
-116.85
0
LINE
8
BLACK
6
CONTINUOUS
10
126.05
20
-116.85
11
127.95
21
-116.85
0
LINE
8
BLACK
6
CONTINUOUS
10
127.95
20
-116.85
11
127.95
21
-118.65
0
LINE
8
BLACK
6
CONTINUOUS
10
111.601
20
-117.823
11
111.629
21
-117.831
0
LINE
8
BLACK
6
CONTINUOUS
10
111.629
20
-117.831
11
111.654
21
-117.845
0
LINE
8
BLACK
6
CONTINUOUS
10
111.654
20
-117.845
11
111.677
21
-117.863
0
LINE
8
BLACK
6
CONTINUOUS
10
111.677
20
-117.863
11
111.695
21
-117.886
0
LINE
8
BLACK
6
CONTINUOUS
10
111.695
20
-117.886
11
111.709
21
-117.911
0
LINE
8
BLACK
6
CONTINUOUS
10
111.709
20
-117.911
11
111.717
21
-117.939
0
LINE
8
BLACK
6
CONTINUOUS
10
111.717
20
-117.939
11
111.72
21
-117.968
0
LINE
8
BLACK
6
CONTINUOUS
10
111.72
20
-117.968
11
111.72
21
-118.262
0
LINE
8
BLACK
6
CONTINUOUS
10
111.72
20
-118.262
11
111.717
21
-118.291
0
LINE
8
BLACK
6
CONTINUOUS
10
111.717
20
-118.291
11
111.709
21
-118.319
0
LINE
8
BLACK
6
CONTINUOUS
10
111.709
20
-118.319
11
111.695
21
-118.344
0
LINE
8
BLACK
6
CONTINUOUS
10
111.695
20
-118.344
11
111.677
21
-118.367
0
LINE
8
BLACK
6
CONTINUOUS
10
111.677
20
-118.367
11
111.654
21
-118.385
0
LINE
8
BLACK
6
CONTINUOUS
10
111.654
20
-118.385
11
111.629
21
-118.399
0
LINE
8
BLACK
6
CONTINUOUS
10
111.629
20
-118.399
11
111.601
21
-118.407
0
LINE
8
BLACK
6
CONTINUOUS
10
111.601
20
-118.407
11
111.572
21
-118.41
0
LINE
8
BLACK
6
CONTINUOUS
10
111.572
20
-118.41
11
111.227
21
-118.41
0
LINE
8
BLACK
6
CONTINUOUS
10
111.227
20
-118.41
11
111.199
21
-118.407
0
LINE
8
BLACK
6
CONTINUOUS
10
111.199
20
-118.407
11
111.171
21
-118.399
0
LINE
8
BLACK
6
CONTINUOUS
10
111.171
20
-118.399
11
111.146
21
-118.385
0
LINE
8
BLACK
6
CONTINUOUS
10
111.146
20
-118.385
11
111.123
21
-118.367
0
LINE
8
BLACK
6
CONTINUOUS
10
111.123
20
-118.367
11
111.105
21
-118.344
0
LINE
8
BLACK
6
CONTINUOUS
10
111.105
20
-118.344
11
111.091
21
-118.319
0
LINE
8
BLACK
6
CONTINUOUS
10
111.091
20
-118.319
11
111.083
21
-118.291
0
LINE
8
BLACK
6
CONTINUOUS
10
111.083
20
-118.291
11
111.08
21
-118.262
0
LINE
8
BLACK
6
CONTINUOUS
10
111.08
20
-118.262
11
111.08
21
-117.968
0
LINE
8
BLACK
6
CONTINUOUS
10
111.08
20
-117.968
11
111.083
21
-117.939
0
LINE
8
BLACK
6
CONTINUOUS
10
111.083
20
-117.939
11
111.091
21
-117.911
0
LINE
8
BLACK
6
CONTINUOUS
10
111.091
20
-117.911
11
111.105
21
-117.886
0
LINE
8
BLACK
6
CONTINUOUS
10
111.105
20
-117.886
11
111.123
21
-117.863
0
LINE
8
BLACK
6
CONTINUOUS
10
111.123
20
-117.863
11
111.146
21
-117.845
0
LINE
8
BLACK
6
CONTINUOUS
10
111.146
20
-117.845
11
111.171
21
-117.831
0
LINE
8
BLACK
6
CONTINUOUS
10
111.171
20
-117.831
11
111.199
21
-117.823
0
LINE
8
BLACK
6
CONTINUOUS
10
111.199
20
-117.823
11
111.227
21
-117.82
0
LINE
8
BLACK
6
CONTINUOUS
10
111.227
20
-117.82
11
111.572
21
-117.82
0
LINE
8
BLACK
6
CONTINUOUS
10
111.572
20
-117.82
11
111.601
21
-117.823
0
LINE
8
BLACK
6
CONTINUOUS
10
110.15
20
-118.387
11
109.8
21
-118.387
0
LINE
8
BLACK
6
CONTINUOUS
10
109.8
20
-118.387
11
109.8
21
-117.737
0
LINE
8
BLACK
6
CONTINUOUS
10
109.8
20
-117.737
11
110.15
21
-117.737
0
LINE
8
BLACK
6
CONTINUOUS
10
110.15
20
-117.737
11
110.15
21
-118.387
0
LINE
8
BLACK
6
CONTINUOUS
10
109.5
20
-118.387
11
109.15
21
-118.387
0
LINE
8
BLACK
6
CONTINUOUS
10
109.15
20
-118.387
11
109.15
21
-117.737
0
LINE
8
BLACK
6
CONTINUOUS
10
109.15
20
-117.737
11
109.5
21
-117.737
0
LINE
8
BLACK
6
CONTINUOUS
10
109.5
20
-117.737
11
109.5
21
-118.387
0
LINE
8
BLACK
6
CONTINUOUS
10
108.85
20
-118.387
11
108.5
21
-118.387
0
LINE
8
BLACK
6
CONTINUOUS
10
108.5
20
-118.387
11
108.5
21
-117.737
0
LINE
8
BLACK
6
CONTINUOUS
10
108.5
20
-117.737
11
108.85
21
-117.737
0
LINE
8
BLACK
6
CONTINUOUS
10
108.85
20
-117.737
11
108.85
21
-118.387
0
LINE
8
BLACK
6
CONTINUOUS
10
108.2
20
-118.387
11
107.85
21
-118.387
0
LINE
8
BLACK
6
CONTINUOUS
10
107.85
20
-118.387
11
107.85
21
-117.737
0
LINE
8
BLACK
6
CONTINUOUS
10
107.85
20
-117.737
11
108.2
21
-117.737
0
LINE
8
BLACK
6
CONTINUOUS
10
108.2
20
-117.737
11
108.2
21
-118.387
0
LINE
8
BLACK
6
CONTINUOUS
10
125
20
-118.1
11
123.65
21
-118.1
0
LINE
8
BLACK
6
CONTINUOUS
10
123.65
20
-118.1
11
123.65
21
-117.7
0
LINE
8
BLACK
6
CONTINUOUS
10
123.65
20
-117.7
11
125
21
-117.7
0
LINE
8
BLACK
6
CONTINUOUS
10
125
20
-117.7
11
125
21
-118.1
0
LINE
8
BLACK
6
CONTINUOUS
10
121.691
20
-117.283
11
121.719
21
-117.291
0
LINE
8
BLACK
6
CONTINUOUS
10
121.719
20
-117.291
11
121.744
21
-117.305
0
LINE
8
BLACK
6
CONTINUOUS
10
121.744
20
-117.305
11
121.767
21
-117.323
0
LINE
8
BLACK
6
CONTINUOUS
10
121.767
20
-117.323
11
121.785
21
-117.346
0
LINE
8
BLACK
6
CONTINUOUS
10
121.785
20
-117.346
11
121.799
21
-117.371
0
LINE
8
BLACK
6
CONTINUOUS
10
121.799
20
-117.371
11
121.807
21
-117.399
0
LINE
8
BLACK
6
CONTINUOUS
10
121.807
20
-117.399
11
121.81
21
-117.427
0
LINE
8
BLACK
6
CONTINUOUS
10
121.81
20
-117.427
11
121.81
21
-117.772
0
LINE
8
BLACK
6
CONTINUOUS
10
121.81
20
-117.772
11
121.807
21
-117.801
0
LINE
8
BLACK
6
CONTINUOUS
10
121.807
20
-117.801
11
121.799
21
-117.829
0
LINE
8
BLACK
6
CONTINUOUS
10
121.799
20
-117.829
11
121.785
21
-117.854
0
LINE
8
BLACK
6
CONTINUOUS
10
121.785
20
-117.854
11
121.767
21
-117.877
0
LINE
8
BLACK
6
CONTINUOUS
10
121.767
20
-117.877
11
121.744
21
-117.895
0
LINE
8
BLACK
6
CONTINUOUS
10
121.744
20
-117.895
11
121.719
21
-117.909
0
LINE
8
BLACK
6
CONTINUOUS
10
121.719
20
-117.909
11
121.691
21
-117.917
0
LINE
8
BLACK
6
CONTINUOUS
10
121.691
20
-117.917
11
121.662
21
-117.92
0
LINE
8
BLACK
6
CONTINUOUS
10
121.662
20
-117.92
11
121.367
21
-117.92
0
LINE
8
BLACK
6
CONTINUOUS
10
121.367
20
-117.92
11
121.339
21
-117.917
0
LINE
8
BLACK
6
CONTINUOUS
10
121.339
20
-117.917
11
121.311
21
-117.909
0
LINE
8
BLACK
6
CONTINUOUS
10
121.311
20
-117.909
11
121.286
21
-117.895
0
LINE
8
BLACK
6
CONTINUOUS
10
121.286
20
-117.895
11
121.263
21
-117.877
0
LINE
8
BLACK
6
CONTINUOUS
10
121.263
20
-117.877
11
121.245
21
-117.854
0
LINE
8
BLACK
6
CONTINUOUS
10
121.245
20
-117.854
11
121.231
21
-117.829
0
LINE
8
BLACK
6
CONTINUOUS
10
121.231
20
-117.829
11
121.223
21
-117.801
0
LINE
8
BLACK
6
CONTINUOUS
10
121.223
20
-117.801
11
121.22
21
-117.772
0
LINE
8
BLACK
6
CONTINUOUS
10
121.22
20
-117.772
11
121.22
21
-117.427
0
LINE
8
BLACK
6
CONTINUOUS
10
121.22
20
-117.427
11
121.223
21
-117.399
0
LINE
8
BLACK
6
CONTINUOUS
10
121.223
20
-117.399
11
121.231
21
-117.371
0
LINE
8
BLACK
6
CONTINUOUS
10
121.231
20
-117.371
11
121.245
21
-117.346
0
LINE
8
BLACK
6
CONTINUOUS
10
121.245
20
-117.346
11
121.263
21
-117.323
0
LINE
8
BLACK
6
CONTINUOUS
10
121.263
20
-117.323
11
121.286
21
-117.305
0
LINE
8
BLACK
6
CONTINUOUS
10
121.286
20
-117.305
11
121.311
21
-117.291
0
LINE
8
BLACK
6
CONTINUOUS
10
121.311
20
-117.291
11
121.339
21
-117.283
0
LINE
8
BLACK
6
CONTINUOUS
10
121.339
20
-117.283
11
121.367
21
-117.28
0
LINE
8
BLACK
6
CONTINUOUS
10
121.367
20
-117.28
11
121.662
21
-117.28
0
LINE
8
BLACK
6
CONTINUOUS
10
121.662
20
-117.28
11
121.691
21
-117.283
0
LINE
8
BLACK
6
CONTINUOUS
10
122.661
20
-117.283
11
122.689
21
-117.291
0
LINE
8
BLACK
6
CONTINUOUS
10
122.689
20
-117.291
11
122.714
21
-117.305
0
LINE
8
BLACK
6
CONTINUOUS
10
122.714
20
-117.305
11
122.737
21
-117.323
0
LINE
8
BLACK
6
CONTINUOUS
10
122.737
20
-117.323
11
122.755
21
-117.346
0
LINE
8
BLACK
6
CONTINUOUS
10
122.755
20
-117.346
11
122.769
21
-117.371
0
LINE
8
BLACK
6
CONTINUOUS
10
122.769
20
-117.371
11
122.777
21
-117.399
0
LINE
8
BLACK
6
CONTINUOUS
10
122.777
20
-117.399
11
122.78
21
-117.427
0
LINE
8
BLACK
6
CONTINUOUS
10
122.78
20
-117.427
11
122.78
21
-117.772
0
LINE
8
BLACK
6
CONTINUOUS
10
122.78
20
-117.772
11
122.777
21
-117.801
0
LINE
8
BLACK
6
CONTINUOUS
10
122.777
20
-117.801
11
122.769
21
-117.829
0
LINE
8
BLACK
6
CONTINUOUS
10
122.769
20
-117.829
11
122.755
21
-117.854
0
LINE
8
BLACK
6
CONTINUOUS
10
122.755
20
-117.854
11
122.737
21
-117.877
0
LINE
8
BLACK
6
CONTINUOUS
10
122.737
20
-117.877
11
122.714
21
-117.895
0
LINE
8
BLACK
6
CONTINUOUS
10
122.714
20
-117.895
11
122.689
21
-117.909
0
LINE
8
BLACK
6
CONTINUOUS
10
122.689
20
-117.909
11
122.661
21
-117.917
0
LINE
8
BLACK
6
CONTINUOUS
10
122.661
20
-117.917
11
122.632
21
-117.92
0
LINE
8
BLACK
6
CONTINUOUS
10
122.632
20
-117.92
11
122.337
21
-117.92
0
LINE
8
BLACK
6
CONTINUOUS
10
122.337
20
-117.92
11
122.309
21
-117.917
0
LINE
8
BLACK
6
CONTINUOUS
10
122.309
20
-117.917
11
122.281
21
-117.909
0
LINE
8
BLACK
6
CONTINUOUS
10
122.281
20
-117.909
11
122.256
21
-117.895
0
LINE
8
BLACK
6
CONTINUOUS
10
122.256
20
-117.895
11
122.233
21
-117.877
0
LINE
8
BLACK
6
CONTINUOUS
10
122.233
20
-117.877
11
122.215
21
-117.854
0
LINE
8
BLACK
6
CONTINUOUS
10
122.215
20
-117.854
11
122.201
21
-117.829
0
LINE
8
BLACK
6
CONTINUOUS
10
122.201
20
-117.829
11
122.193
21
-117.801
0
LINE
8
BLACK
6
CONTINUOUS
10
122.193
20
-117.801
11
122.19
21
-117.772
0
LINE
8
BLACK
6
CONTINUOUS
10
122.19
20
-117.772
11
122.19
21
-117.427
0
LINE
8
BLACK
6
CONTINUOUS
10
122.19
20
-117.427
11
122.193
21
-117.399
0
LINE
8
BLACK
6
CONTINUOUS
10
122.193
20
-117.399
11
122.201
21
-117.371
0
LINE
8
BLACK
6
CONTINUOUS
10
122.201
20
-117.371
11
122.215
21
-117.346
0
LINE
8
BLACK
6
CONTINUOUS
10
122.215
20
-117.346
11
122.233
21
-117.323
0
LINE
8
BLACK
6
CONTINUOUS
10
122.233
20
-117.323
11
122.256
21
-117.305
0
LINE
8
BLACK
6
CONTINUOUS
10
122.256
20
-117.305
11
122.281
21
-117.291
0
LINE
8
BLACK
6
CONTINUOUS
10
122.281
20
-117.291
11
122.309
21
-117.283
0
LINE
8
BLACK
6
CONTINUOUS
10
122.309
20
-117.283
11
122.337
21
-117.28
0
LINE
8
BLACK
6
CONTINUOUS
10
122.337
20
-117.28
11
122.632
21
-117.28
0
LINE
8
BLACK
6
CONTINUOUS
10
122.632
20
-117.28
11
122.661
21
-117.283
0
LINE
8
BLACK
6
CONTINUOUS
10
125
20
-117.45
11
123.65
21
-117.45
0
LINE
8
BLACK
6
CONTINUOUS
10
123.65
20
-117.45
11
123.65
21
-117.05
0
LINE
8
BLACK
6
CONTINUOUS
10
123.65
20
-117.05
11
125
21
-117.05
0
LINE
8
BLACK
6
CONTINUOUS
10
125
20
-117.05
11
125
21
-117.45
0
LINE
8
BLACK
6
CONTINUOUS
10
125
20
-116.8
11
123.65
21
-116.8
0
LINE
8
BLACK
6
CONTINUOUS
10
123.65
20
-116.8
11
123.65
21
-116.4
0
LINE
8
BLACK
6
CONTINUOUS
10
123.65
20
-116.4
11
125
21
-116.4
0
LINE
8
BLACK
6
CONTINUOUS
10
125
20
-116.4
11
125
21
-116.8
0
LINE
8
BLACK
6
CONTINUOUS
10
109.201
20
-116.093
11
109.229
21
-116.101
0
LINE
8
BLACK
6
CONTINUOUS
10
109.229
20
-116.101
11
109.254
21
-116.115
0
LINE
8
BLACK
6
CONTINUOUS
10
109.254
20
-116.115
11
109.277
21
-116.133
0
LINE
8
BLACK
6
CONTINUOUS
10
109.277
20
-116.133
11
109.295
21
-116.156
0
LINE
8
BLACK
6
CONTINUOUS
10
109.295
20
-116.156
11
109.309
21
-116.181
0
LINE
8
BLACK
6
CONTINUOUS
10
109.309
20
-116.181
11
109.317
21
-116.209
0
LINE
8
BLACK
6
CONTINUOUS
10
109.317
20
-116.209
11
109.32
21
-116.237
0
LINE
8
BLACK
6
CONTINUOUS
10
109.32
20
-116.237
11
109.32
21
-116.532
0
LINE
8
BLACK
6
CONTINUOUS
10
109.32
20
-116.532
11
109.317
21
-116.561
0
LINE
8
BLACK
6
CONTINUOUS
10
109.317
20
-116.561
11
109.309
21
-116.589
0
LINE
8
BLACK
6
CONTINUOUS
10
109.309
20
-116.589
11
109.295
21
-116.614
0
LINE
8
BLACK
6
CONTINUOUS
10
109.295
20
-116.614
11
109.277
21
-116.637
0
LINE
8
BLACK
6
CONTINUOUS
10
109.277
20
-116.637
11
109.254
21
-116.655
0
LINE
8
BLACK
6
CONTINUOUS
10
109.254
20
-116.655
11
109.229
21
-116.669
0
LINE
8
BLACK
6
CONTINUOUS
10
109.229
20
-116.669
11
109.201
21
-116.677
0
LINE
8
BLACK
6
CONTINUOUS
10
109.201
20
-116.677
11
109.172
21
-116.68
0
LINE
8
BLACK
6
CONTINUOUS
10
109.172
20
-116.68
11
108.828
21
-116.68
0
LINE
8
BLACK
6
CONTINUOUS
10
108.828
20
-116.68
11
108.799
21
-116.677
0
LINE
8
BLACK
6
CONTINUOUS
10
108.799
20
-116.677
11
108.771
21
-116.669
0
LINE
8
BLACK
6
CONTINUOUS
10
108.771
20
-116.669
11
108.746
21
-116.655
0
LINE
8
BLACK
6
CONTINUOUS
10
108.746
20
-116.655
11
108.723
21
-116.637
0
LINE
8
BLACK
6
CONTINUOUS
10
108.723
20
-116.637
11
108.705
21
-116.614
0
LINE
8
BLACK
6
CONTINUOUS
10
108.705
20
-116.614
11
108.691
21
-116.589
0
LINE
8
BLACK
6
CONTINUOUS
10
108.691
20
-116.589
11
108.683
21
-116.561
0
LINE
8
BLACK
6
CONTINUOUS
10
108.683
20
-116.561
11
108.68
21
-116.532
0
LINE
8
BLACK
6
CONTINUOUS
10
108.68
20
-116.532
11
108.68
21
-116.237
0
LINE
8
BLACK
6
CONTINUOUS
10
108.68
20
-116.237
11
108.683
21
-116.209
0
LINE
8
BLACK
6
CONTINUOUS
10
108.683
20
-116.209
11
108.691
21
-116.181
0
LINE
8
BLACK
6
CONTINUOUS
10
108.691
20
-116.181
11
108.705
21
-116.156
0
LINE
8
BLACK
6
CONTINUOUS
10
108.705
20
-116.156
11
108.723
21
-116.133
0
LINE
8
BLACK
6
CONTINUOUS
10
108.723
20
-116.133
11
108.746
21
-116.115
0
LINE
8
BLACK
6
CONTINUOUS
10
108.746
20
-116.115
11
108.771
21
-116.101
0
LINE
8
BLACK
6
CONTINUOUS
10
108.771
20
-116.101
11
108.799
21
-116.093
0
LINE
8
BLACK
6
CONTINUOUS
10
108.799
20
-116.093
11
108.828
21
-116.09
0
LINE
8
BLACK
6
CONTINUOUS
10
108.828
20
-116.09
11
109.172
21
-116.09
0
LINE
8
BLACK
6
CONTINUOUS
10
109.172
20
-116.09
11
109.201
21
-116.093
0
LINE
8
BLACK
6
CONTINUOUS
10
110.701
20
-116.093
11
110.729
21
-116.101
0
LINE
8
BLACK
6
CONTINUOUS
10
110.729
20
-116.101
11
110.754
21
-116.115
0
LINE
8
BLACK
6
CONTINUOUS
10
110.754
20
-116.115
11
110.777
21
-116.133
0
LINE
8
BLACK
6
CONTINUOUS
10
110.777
20
-116.133
11
110.795
21
-116.156
0
LINE
8
BLACK
6
CONTINUOUS
10
110.795
20
-116.156
11
110.809
21
-116.181
0
LINE
8
BLACK
6
CONTINUOUS
10
110.809
20
-116.181
11
110.817
21
-116.209
0
LINE
8
BLACK
6
CONTINUOUS
10
110.817
20
-116.209
11
110.82
21
-116.237
0
LINE
8
BLACK
6
CONTINUOUS
10
110.82
20
-116.237
11
110.82
21
-116.532
0
LINE
8
BLACK
6
CONTINUOUS
10
110.82
20
-116.532
11
110.817
21
-116.561
0
LINE
8
BLACK
6
CONTINUOUS
10
110.817
20
-116.561
11
110.809
21
-116.589
0
LINE
8
BLACK
6
CONTINUOUS
10
110.809
20
-116.589
11
110.795
21
-116.614
0
LINE
8
BLACK
6
CONTINUOUS
10
110.795
20
-116.614
11
110.777
21
-116.637
0
LINE
8
BLACK
6
CONTINUOUS
10
110.777
20
-116.637
11
110.754
21
-116.655
0
LINE
8
BLACK
6
CONTINUOUS
10
110.754
20
-116.655
11
110.729
21
-116.669
0
LINE
8
BLACK
6
CONTINUOUS
10
110.729
20
-116.669
11
110.701
21
-116.677
0
LINE
8
BLACK
6
CONTINUOUS
10
110.701
20
-116.677
11
110.672
21
-116.68
0
LINE
8
BLACK
6
CONTINUOUS
10
110.672
20
-116.68
11
110.328
21
-116.68
0
LINE
8
BLACK
6
CONTINUOUS
10
110.328
20
-116.68
11
110.299
21
-116.677
0
LINE
8
BLACK
6
CONTINUOUS
10
110.299
20
-116.677
11
110.271
21
-116.669
0
LINE
8
BLACK
6
CONTINUOUS
10
110.271
20
-116.669
11
110.246
21
-116.655
0
LINE
8
BLACK
6
CONTINUOUS
10
110.246
20
-116.655
11
110.223
21
-116.637
0
LINE
8
BLACK
6
CONTINUOUS
10
110.223
20
-116.637
11
110.205
21
-116.614
0
LINE
8
BLACK
6
CONTINUOUS
10
110.205
20
-116.614
11
110.191
21
-116.589
0
LINE
8
BLACK
6
CONTINUOUS
10
110.191
20
-116.589
11
110.183
21
-116.561
0
LINE
8
BLACK
6
CONTINUOUS
10
110.183
20
-116.561
11
110.18
21
-116.532
0
LINE
8
BLACK
6
CONTINUOUS
10
110.18
20
-116.532
11
110.18
21
-116.237
0
LINE
8
BLACK
6
CONTINUOUS
10
110.18
20
-116.237
11
110.183
21
-116.209
0
LINE
8
BLACK
6
CONTINUOUS
10
110.183
20
-116.209
11
110.191
21
-116.181
0
LINE
8
BLACK
6
CONTINUOUS
10
110.191
20
-116.181
11
110.205
21
-116.156
0
LINE
8
BLACK
6
CONTINUOUS
10
110.205
20
-116.156
11
110.223
21
-116.133
0
LINE
8
BLACK
6
CONTINUOUS
10
110.223
20
-116.133
11
110.246
21
-116.115
0
LINE
8
BLACK
6
CONTINUOUS
10
110.246
20
-116.115
11
110.271
21
-116.101
0
LINE
8
BLACK
6
CONTINUOUS
10
110.271
20
-116.101
11
110.299
21
-116.093
0
LINE
8
BLACK
6
CONTINUOUS
10
110.299
20
-116.093
11
110.328
21
-116.09
0
LINE
8
BLACK
6
CONTINUOUS
10
110.328
20
-116.09
11
110.672
21
-116.09
0
LINE
8
BLACK
6
CONTINUOUS
10
110.672
20
-116.09
11
110.701
21
-116.093
0
LINE
8
BLACK
6
CONTINUOUS
10
107.701
20
-116.093
11
107.729
21
-116.101
0
LINE
8
BLACK
6
CONTINUOUS
10
107.729
20
-116.101
11
107.754
21
-116.115
0
LINE
8
BLACK
6
CONTINUOUS
10
107.754
20
-116.115
11
107.777
21
-116.133
0
LINE
8
BLACK
6
CONTINUOUS
10
107.777
20
-116.133
11
107.795
21
-116.156
0
LINE
8
BLACK
6
CONTINUOUS
10
107.795
20
-116.156
11
107.809
21
-116.181
0
LINE
8
BLACK
6
CONTINUOUS
10
107.809
20
-116.181
11
107.817
21
-116.209
0
LINE
8
BLACK
6
CONTINUOUS
10
107.817
20
-116.209
11
107.82
21
-116.237
0
LINE
8
BLACK
6
CONTINUOUS
10
107.82
20
-116.237
11
107.82
21
-116.532
0
LINE
8
BLACK
6
CONTINUOUS
10
107.82
20
-116.532
11
107.817
21
-116.561
0
LINE
8
BLACK
6
CONTINUOUS
10
107.817
20
-116.561
11
107.809
21
-116.589
0
LINE
8
BLACK
6
CONTINUOUS
10
107.809
20
-116.589
11
107.795
21
-116.614
0
LINE
8
BLACK
6
CONTINUOUS
10
107.795
20
-116.614
11
107.777
21
-116.637
0
LINE
8
BLACK
6
CONTINUOUS
10
107.777
20
-116.637
11
107.754
21
-116.655
0
LINE
8
BLACK
6
CONTINUOUS
10
107.754
20
-116.655
11
107.729
21
-116.669
0
LINE
8
BLACK
6
CONTINUOUS
10
107.729
20
-116.669
11
107.701
21
-116.677
0
LINE
8
BLACK
6
CONTINUOUS
10
107.701
20
-116.677
11
107.672
21
-116.68
0
LINE
8
BLACK
6
CONTINUOUS
10
107.672
20
-116.68
11
107.328
21
-116.68
0
LINE
8
BLACK
6
CONTINUOUS
10
107.328
20
-116.68
11
107.299
21
-116.677
0
LINE
8
BLACK
6
CONTINUOUS
10
107.299
20
-116.677
11
107.271
21
-116.669
0
LINE
8
BLACK
6
CONTINUOUS
10
107.271
20
-116.669
11
107.246
21
-116.655
0
LINE
8
BLACK
6
CONTINUOUS
10
107.246
20
-116.655
11
107.223
21
-116.637
0
LINE
8
BLACK
6
CONTINUOUS
10
107.223
20
-116.637
11
107.205
21
-116.614
0
LINE
8
BLACK
6
CONTINUOUS
10
107.205
20
-116.614
11
107.191
21
-116.589
0
LINE
8
BLACK
6
CONTINUOUS
10
107.191
20
-116.589
11
107.183
21
-116.561
0
LINE
8
BLACK
6
CONTINUOUS
10
107.183
20
-116.561
11
107.18
21
-116.532
0
LINE
8
BLACK
6
CONTINUOUS
10
107.18
20
-116.532
11
107.18
21
-116.237
0
LINE
8
BLACK
6
CONTINUOUS
10
107.18
20
-116.237
11
107.183
21
-116.209
0
LINE
8
BLACK
6
CONTINUOUS
10
107.183
20
-116.209
11
107.191
21
-116.181
0
LINE
8
BLACK
6
CONTINUOUS
10
107.191
20
-116.181
11
107.205
21
-116.156
0
LINE
8
BLACK
6
CONTINUOUS
10
107.205
20
-116.156
11
107.223
21
-116.133
0
LINE
8
BLACK
6
CONTINUOUS
10
107.223
20
-116.133
11
107.246
21
-116.115
0
LINE
8
BLACK
6
CONTINUOUS
10
107.246
20
-116.115
11
107.271
21
-116.101
0
LINE
8
BLACK
6
CONTINUOUS
10
107.271
20
-116.101
11
107.299
21
-116.093
0
LINE
8
BLACK
6
CONTINUOUS
10
107.299
20
-116.093
11
107.328
21
-116.09
0
LINE
8
BLACK
6
CONTINUOUS
10
107.328
20
-116.09
11
107.672
21
-116.09
0
LINE
8
BLACK
6
CONTINUOUS
10
107.672
20
-116.09
11
107.701
21
-116.093
0
LINE
8
BLACK
6
CONTINUOUS
10
121.691
20
-115.983
11
121.719
21
-115.991
0
LINE
8
BLACK
6
CONTINUOUS
10
121.719
20
-115.991
11
121.744
21
-116.005
0
LINE
8
BLACK
6
CONTINUOUS
10
121.744
20
-116.005
11
121.767
21
-116.023
0
LINE
8
BLACK
6
CONTINUOUS
10
121.767
20
-116.023
11
121.785
21
-116.046
0
LINE
8
BLACK
6
CONTINUOUS
10
121.785
20
-116.046
11
121.799
21
-116.071
0
LINE
8
BLACK
6
CONTINUOUS
10
121.799
20
-116.071
11
121.807
21
-116.099
0
LINE
8
BLACK
6
CONTINUOUS
10
121.807
20
-116.099
11
121.81
21
-116.127
0
LINE
8
BLACK
6
CONTINUOUS
10
121.81
20
-116.127
11
121.81
21
-116.472
0
LINE
8
BLACK
6
CONTINUOUS
10
121.81
20
-116.472
11
121.807
21
-116.501
0
LINE
8
BLACK
6
CONTINUOUS
10
121.807
20
-116.501
11
121.799
21
-116.529
0
LINE
8
BLACK
6
CONTINUOUS
10
121.799
20
-116.529
11
121.785
21
-116.554
0
LINE
8
BLACK
6
CONTINUOUS
10
121.785
20
-116.554
11
121.767
21
-116.577
0
LINE
8
BLACK
6
CONTINUOUS
10
121.767
20
-116.577
11
121.744
21
-116.595
0
LINE
8
BLACK
6
CONTINUOUS
10
121.744
20
-116.595
11
121.719
21
-116.609
0
LINE
8
BLACK
6
CONTINUOUS
10
121.719
20
-116.609
11
121.691
21
-116.617
0
LINE
8
BLACK
6
CONTINUOUS
10
121.691
20
-116.617
11
121.662
21
-116.62
0
LINE
8
BLACK
6
CONTINUOUS
10
121.662
20
-116.62
11
121.367
21
-116.62
0
LINE
8
BLACK
6
CONTINUOUS
10
121.367
20
-116.62
11
121.339
21
-116.617
0
LINE
8
BLACK
6
CONTINUOUS
10
121.339
20
-116.617
11
121.311
21
-116.609
0
LINE
8
BLACK
6
CONTINUOUS
10
121.311
20
-116.609
11
121.286
21
-116.595
0
LINE
8
BLACK
6
CONTINUOUS
10
121.286
20
-116.595
11
121.263
21
-116.577
0
LINE
8
BLACK
6
CONTINUOUS
10
121.263
20
-116.577
11
121.245
21
-116.554
0
LINE
8
BLACK
6
CONTINUOUS
10
121.245
20
-116.554
11
121.231
21
-116.529
0
LINE
8
BLACK
6
CONTINUOUS
10
121.231
20
-116.529
11
121.223
21
-116.501
0
LINE
8
BLACK
6
CONTINUOUS
10
121.223
20
-116.501
11
121.22
21
-116.472
0
LINE
8
BLACK
6
CONTINUOUS
10
121.22
20
-116.472
11
121.22
21
-116.127
0
LINE
8
BLACK
6
CONTINUOUS
10
121.22
20
-116.127
11
121.223
21
-116.099
0
LINE
8
BLACK
6
CONTINUOUS
10
121.223
20
-116.099
11
121.231
21
-116.071
0
LINE
8
BLACK
6
CONTINUOUS
10
121.231
20
-116.071
11
121.245
21
-116.046
0
LINE
8
BLACK
6
CONTINUOUS
10
121.245
20
-116.046
11
121.263
21
-116.023
0
LINE
8
BLACK
6
CONTINUOUS
10
121.263
20
-116.023
11
121.286
21
-116.005
0
LINE
8
BLACK
6
CONTINUOUS
10
121.286
20
-116.005
11
121.311
21
-115.991
0
LINE
8
BLACK
6
CONTINUOUS
10
121.311
20
-115.991
11
121.339
21
-115.983
0
LINE
8
BLACK
6
CONTINUOUS
10
121.339
20
-115.983
11
121.367
21
-115.98
0
LINE
8
BLACK
6
CONTINUOUS
10
121.367
20
-115.98
11
121.662
21
-115.98
0
LINE
8
BLACK
6
CONTINUOUS
10
121.662
20
-115.98
11
121.691
21
-115.983
0
LINE
8
BLACK
6
CONTINUOUS
10
122.661
20
-115.983
11
122.689
21
-115.991
0
LINE
8
BLACK
6
CONTINUOUS
10
122.689
20
-115.991
11
122.714
21
-116.005
0
LINE
8
BLACK
6
CONTINUOUS
10
122.714
20
-116.005
11
122.737
21
-116.023
0
LINE
8
BLACK
6
CONTINUOUS
10
122.737
20
-116.023
11
122.755
21
-116.046
0
LINE
8
BLACK
6
CONTINUOUS
10
122.755
20
-116.046
11
122.769
21
-116.071
0
LINE
8
BLACK
6
CONTINUOUS
10
122.769
20
-116.071
11
122.777
21
-116.099
0
LINE
8
BLACK
6
CONTINUOUS
10
122.777
20
-116.099
11
122.78
21
-116.127
0
LINE
8
BLACK
6
CONTINUOUS
10
122.78
20
-116.127
11
122.78
21
-116.472
0
LINE
8
BLACK
6
CONTINUOUS
10
122.78
20
-116.472
11
122.777
21
-116.501
0
LINE
8
BLACK
6
CONTINUOUS
10
122.777
20
-116.501
11
122.769
21
-116.529
0
LINE
8
BLACK
6
CONTINUOUS
10
122.769
20
-116.529
11
122.755
21
-116.554
0
LINE
8
BLACK
6
CONTINUOUS
10
122.755
20
-116.554
11
122.737
21
-116.577
0
LINE
8
BLACK
6
CONTINUOUS
10
122.737
20
-116.577
11
122.714
21
-116.595
0
LINE
8
BLACK
6
CONTINUOUS
10
122.714
20
-116.595
11
122.689
21
-116.609
0
LINE
8
BLACK
6
CONTINUOUS
10
122.689
20
-116.609
11
122.661
21
-116.617
0
LINE
8
BLACK
6
CONTINUOUS
10
122.661
20
-116.617
11
122.632
21
-116.62
0
LINE
8
BLACK
6
CONTINUOUS
10
122.632
20
-116.62
11
122.337
21
-116.62
0
LINE
8
BLACK
6
CONTINUOUS
10
122.337
20
-116.62
11
122.309
21
-116.617
0
LINE
8
BLACK
6
CONTINUOUS
10
122.309
20
-116.617
11
122.281
21
-116.609
0
LINE
8
BLACK
6
CONTINUOUS
10
122.281
20
-116.609
11
122.256
21
-116.595
0
LINE
8
BLACK
6
CONTINUOUS
10
122.256
20
-116.595
11
122.233
21
-116.577
0
LINE
8
BLACK
6
CONTINUOUS
10
122.233
20
-116.577
11
122.215
21
-116.554
0
LINE
8
BLACK
6
CONTINUOUS
10
122.215
20
-116.554
11
122.201
21
-116.529
0
LINE
8
BLACK
6
CONTINUOUS
10
122.201
20
-116.529
11
122.193
21
-116.501
0
LINE
8
BLACK
6
CONTINUOUS
10
122.193
20
-116.501
11
122.19
21
-116.472
0
LINE
8
BLACK
6
CONTINUOUS
10
122.19
20
-116.472
11
122.19
21
-116.127
0
LINE
8
BLACK
6
CONTINUOUS
10
122.19
20
-116.127
11
122.193
21
-116.099
0
LINE
8
BLACK
6
CONTINUOUS
10
122.193
20
-116.099
11
122.201
21
-116.071
0
LINE
8
BLACK
6
CONTINUOUS
10
122.201
20
-116.071
11
122.215
21
-116.046
0
LINE
8
BLACK
6
CONTINUOUS
10
122.215
20
-116.046
11
122.233
21
-116.023
0
LINE
8
BLACK
6
CONTINUOUS
10
122.233
20
-116.023
11
122.256
21
-116.005
0
LINE
8
BLACK
6
CONTINUOUS
10
122.256
20
-116.005
11
122.281
21
-115.991
0
LINE
8
BLACK
6
CONTINUOUS
10
122.281
20
-115.991
11
122.309
21
-115.983
0
LINE
8
BLACK
6
CONTINUOUS
10
122.309
20
-115.983
11
122.337
21
-115.98
0
LINE
8
BLACK
6
CONTINUOUS
10
122.337
20
-115.98
11
122.632
21
-115.98
0
LINE
8
BLACK
6
CONTINUOUS
10
122.632
20
-115.98
11
122.661
21
-115.983
0
LINE
8
BLACK
6
CONTINUOUS
10
127.95
20
-116.35
11
126.05
21
-116.35
0
LINE
8
BLACK
6
CONTINUOUS
10
126.05
20
-116.35
11
126.05
21
-114.55
0
LINE
8
BLACK
6
CONTINUOUS
10
126.05
20
-114.55
11
127.95
21
-114.55
0
LINE
8
BLACK
6
CONTINUOUS
10
127.95
20
-114.55
11
127.95
21
-116.35
0
LINE
8
BLACK
6
CONTINUOUS
10
125
20
-116.15
11
123.65
21
-116.15
0
LINE
8
BLACK
6
CONTINUOUS
10
123.65
20
-116.15
11
123.65
21
-115.75
0
LINE
8
BLACK
6
CONTINUOUS
10
123.65
20
-115.75
11
125
21
-115.75
0
LINE
8
BLACK
6
CONTINUOUS
10
125
20
-115.75
11
125
21
-116.15
0
LINE
8
BLACK
6
CONTINUOUS
10
107.701
20
-115.123
11
107.729
21
-115.131
0
LINE
8
BLACK
6
CONTINUOUS
10
107.729
20
-115.131
11
107.754
21
-115.145
0
LINE
8
BLACK
6
CONTINUOUS
10
107.754
20
-115.145
11
107.777
21
-115.163
0
LINE
8
BLACK
6
CONTINUOUS
10
107.777
20
-115.163
11
107.795
21
-115.186
0
LINE
8
BLACK
6
CONTINUOUS
10
107.795
20
-115.186
11
107.809
21
-115.211
0
LINE
8
BLACK
6
CONTINUOUS
10
107.809
20
-115.211
11
107.817
21
-115.239
0
LINE
8
BLACK
6
CONTINUOUS
10
107.817
20
-115.239
11
107.82
21
-115.267
0
LINE
8
BLACK
6
CONTINUOUS
10
107.82
20
-115.267
11
107.82
21
-115.562
0
LINE
8
BLACK
6
CONTINUOUS
10
107.82
20
-115.562
11
107.817
21
-115.591
0
LINE
8
BLACK
6
CONTINUOUS
10
107.817
20
-115.591
11
107.809
21
-115.619
0
LINE
8
BLACK
6
CONTINUOUS
10
107.809
20
-115.619
11
107.795
21
-115.644
0
LINE
8
BLACK
6
CONTINUOUS
10
107.795
20
-115.644
11
107.777
21
-115.667
0
LINE
8
BLACK
6
CONTINUOUS
10
107.777
20
-115.667
11
107.754
21
-115.685
0
LINE
8
BLACK
6
CONTINUOUS
10
107.754
20
-115.685
11
107.729
21
-115.699
0
LINE
8
BLACK
6
CONTINUOUS
10
107.729
20
-115.699
11
107.701
21
-115.707
0
LINE
8
BLACK
6
CONTINUOUS
10
107.701
20
-115.707
11
107.672
21
-115.71
0
LINE
8
BLACK
6
CONTINUOUS
10
107.672
20
-115.71
11
107.328
21
-115.71
0
LINE
8
BLACK
6
CONTINUOUS
10
107.328
20
-115.71
11
107.299
21
-115.707
0
LINE
8
BLACK
6
CONTINUOUS
10
107.299
20
-115.707
11
107.271
21
-115.699
0
LINE
8
BLACK
6
CONTINUOUS
10
107.271
20
-115.699
11
107.246
21
-115.685
0
LINE
8
BLACK
6
CONTINUOUS
10
107.246
20
-115.685
11
107.223
21
-115.667
0
LINE
8
BLACK
6
CONTINUOUS
10
107.223
20
-115.667
11
107.205
21
-115.644
0
LINE
8
BLACK
6
CONTINUOUS
10
107.205
20
-115.644
11
107.191
21
-115.619
0
LINE
8
BLACK
6
CONTINUOUS
10
107.191
20
-115.619
11
107.183
21
-115.591
0
LINE
8
BLACK
6
CONTINUOUS
10
107.183
20
-115.591
11
107.18
21
-115.562
0
LINE
8
BLACK
6
CONTINUOUS
10
107.18
20
-115.562
11
107.18
21
-115.267
0
LINE
8
BLACK
6
CONTINUOUS
10
107.18
20
-115.267
11
107.183
21
-115.239
0
LINE
8
BLACK
6
CONTINUOUS
10
107.183
20
-115.239
11
107.191
21
-115.211
0
LINE
8
BLACK
6
CONTINUOUS
10
107.191
20
-115.211
11
107.205
21
-115.186
0
LINE
8
BLACK
6
CONTINUOUS
10
107.205
20
-115.186
11
107.223
21
-115.163
0
LINE
8
BLACK
6
CONTINUOUS
10
107.223
20
-115.163
11
107.246
21
-115.145
0
LINE
8
BLACK
6
CONTINUOUS
10
107.246
20
-115.145
11
107.271
21
-115.131
0
LINE
8
BLACK
6
CONTINUOUS
10
107.271
20
-115.131
11
107.299
21
-115.123
0
LINE
8
BLACK
6
CONTINUOUS
10
107.299
20
-115.123
11
107.328
21
-115.12
0
LINE
8
BLACK
6
CONTINUOUS
10
107.328
20
-115.12
11
107.672
21
-115.12
0
LINE
8
BLACK
6
CONTINUOUS
10
107.672
20
-115.12
11
107.701
21
-115.123
0
LINE
8
BLACK
6
CONTINUOUS
10
110.701
20
-115.123
11
110.729
21
-115.131
0
LINE
8
BLACK
6
CONTINUOUS
10
110.729
20
-115.131
11
110.754
21
-115.145
0
LINE
8
BLACK
6
CONTINUOUS
10
110.754
20
-115.145
11
110.777
21
-115.163
0
LINE
8
BLACK
6
CONTINUOUS
10
110.777
20
-115.163
11
110.795
21
-115.186
0
LINE
8
BLACK
6
CONTINUOUS
10
110.795
20
-115.186
11
110.809
21
-115.211
0
LINE
8
BLACK
6
CONTINUOUS
10
110.809
20
-115.211
11
110.817
21
-115.239
0
LINE
8
BLACK
6
CONTINUOUS
10
110.817
20
-115.239
11
110.82
21
-115.267
0
LINE
8
BLACK
6
CONTINUOUS
10
110.82
20
-115.267
11
110.82
21
-115.562
0
LINE
8
BLACK
6
CONTINUOUS
10
110.82
20
-115.562
11
110.817
21
-115.591
0
LINE
8
BLACK
6
CONTINUOUS
10
110.817
20
-115.591
11
110.809
21
-115.619
0
LINE
8
BLACK
6
CONTINUOUS
10
110.809
20
-115.619
11
110.795
21
-115.644
0
LINE
8
BLACK
6
CONTINUOUS
10
110.795
20
-115.644
11
110.777
21
-115.667
0
LINE
8
BLACK
6
CONTINUOUS
10
110.777
20
-115.667
11
110.754
21
-115.685
0
LINE
8
BLACK
6
CONTINUOUS
10
110.754
20
-115.685
11
110.729
21
-115.699
0
LINE
8
BLACK
6
CONTINUOUS
10
110.729
20
-115.699
11
110.701
21
-115.707
0
LINE
8
BLACK
6
CONTINUOUS
10
110.701
20
-115.707
11
110.672
21
-115.71
0
LINE
8
BLACK
6
CONTINUOUS
10
110.672
20
-115.71
11
110.328
21
-115.71
0
LINE
8
BLACK
6
CONTINUOUS
10
110.328
20
-115.71
11
110.299
21
-115.707
0
LINE
8
BLACK
6
CONTINUOUS
10
110.299
20
-115.707
11
110.271
21
-115.699
0
LINE
8
BLACK
6
CONTINUOUS
10
110.271
20
-115.699
11
110.246
21
-115.685
0
LINE
8
BLACK
6
CONTINUOUS
10
110.246
20
-115.685
11
110.223
21
-115.667
0
LINE
8
BLACK
6
CONTINUOUS
10
110.223
20
-115.667
11
110.205
21
-115.644
0
LINE
8
BLACK
6
CONTINUOUS
10
110.205
20
-115.644
11
110.191
21
-115.619
0
LINE
8
BLACK
6
CONTINUOUS
10
110.191
20
-115.619
11
110.183
21
-115.591
0
LINE
8
BLACK
6
CONTINUOUS
10
110.183
20
-115.591
11
110.18
21
-115.562
0
LINE
8
BLACK
6
CONTINUOUS
10
110.18
20
-115.562
11
110.18
21
-115.267
0
LINE
8
BLACK
6
CONTINUOUS
10
110.18
20
-115.267
11
110.183
21
-115.239
0
LINE
8
BLACK
6
CONTINUOUS
10
110.183
20
-115.239
11
110.191
21
-115.211
0
LINE
8
BLACK
6
CONTINUOUS
10
110.191
20
-115.211
11
110.205
21
-115.186
0
LINE
8
BLACK
6
CONTINUOUS
10
110.205
20
-115.186
11
110.223
21
-115.163
0
LINE
8
BLACK
6
CONTINUOUS
10
110.223
20
-115.163
11
110.246
21
-115.145
0
LINE
8
BLACK
6
CONTINUOUS
10
110.246
20
-115.145
11
110.271
21
-115.131
0
LINE
8
BLACK
6
CONTINUOUS
10
110.271
20
-115.131
11
110.299
21
-115.123
0
LINE
8
BLACK
6
CONTINUOUS
10
110.299
20
-115.123
11
110.328
21
-115.12
0
LINE
8
BLACK
6
CONTINUOUS
10
110.328
20
-115.12
11
110.672
21
-115.12
0
LINE
8
BLACK
6
CONTINUOUS
10
110.672
20
-115.12
11
110.701
21
-115.123
0
LINE
8
BLACK
6
CONTINUOUS
10
109.201
20
-115.123
11
109.229
21
-115.131
0
LINE
8
BLACK
6
CONTINUOUS
10
109.229
20
-115.131
11
109.254
21
-115.145
0
LINE
8
BLACK
6
CONTINUOUS
10
109.254
20
-115.145
11
109.277
21
-115.163
0
LINE
8
BLACK
6
CONTINUOUS
10
109.277
20
-115.163
11
109.295
21
-115.186
0
LINE
8
BLACK
6
CONTINUOUS
10
109.295
20
-115.186
11
109.309
21
-115.211
0
LINE
8
BLACK
6
CONTINUOUS
10
109.309
20
-115.211
11
109.317
21
-115.239
0
LINE
8
BLACK
6
CONTINUOUS
10
109.317
20
-115.239
11
109.32
21
-115.267
0
LINE
8
BLACK
6
CONTINUOUS
10
109.32
20
-115.267
11
109.32
21
-115.562
0
LINE
8
BLACK
6
CONTINUOUS
10
109.32
20
-115.562
11
109.317
21
-115.591
0
LINE
8
BLACK
6
CONTINUOUS
10
109.317
20
-115.591
11
109.309
21
-115.619
0
LINE
8
BLACK
6
CONTINUOUS
10
109.309
20
-115.619
11
109.295
21
-115.644
0
LINE
8
BLACK
6
CONTINUOUS
10
109.295
20
-115.644
11
109.277
21
-115.667
0
LINE
8
BLACK
6
CONTINUOUS
10
109.277
20
-115.667
11
109.254
21
-115.685
0
LINE
8
BLACK
6
CONTINUOUS
10
109.254
20
-115.685
11
109.229
21
-115.699
0
LINE
8
BLACK
6
CONTINUOUS
10
109.229
20
-115.699
11
109.201
21
-115.707
0
LINE
8
BLACK
6
CONTINUOUS
10
109.201
20
-115.707
11
109.172
21
-115.71
0
LINE
8
BLACK
6
CONTINUOUS
10
109.172
20
-115.71
11
108.828
21
-115.71
0
LINE
8
BLACK
6
CONTINUOUS
10
108.828
20
-115.71
11
108.799
21
-115.707
0
LINE
8
BLACK
6
CONTINUOUS
10
108.799
20
-115.707
11
108.771
21
-115.699
0
LINE
8
BLACK
6
CONTINUOUS
10
108.771
20
-115.699
11
108.746
21
-115.685
0
LINE
8
BLACK
6
CONTINUOUS
10
108.746
20
-115.685
11
108.723
21
-115.667
0
LINE
8
BLACK
6
CONTINUOUS
10
108.723
20
-115.667
11
108.705
21
-115.644
0
LINE
8
BLACK
6
CONTINUOUS
10
108.705
20
-115.644
11
108.691
21
-115.619
0
LINE
8
BLACK
6
CONTINUOUS
10
108.691
20
-115.619
11
108.683
21
-115.591
0
LINE
8
BLACK
6
CONTINUOUS
10
108.683
20
-115.591
11
108.68
21
-115.562
0
LINE
8
BLACK
6
CONTINUOUS
10
108.68
20
-115.562
11
108.68
21
-115.267
0
LINE
8
BLACK
6
CONTINUOUS
10
108.68
20
-115.267
11
108.683
21
-115.239
0
LINE
8
BLACK
6
CONTINUOUS
10
108.683
20
-115.239
11
108.691
21
-115.211
0
LINE
8
BLACK
6
CONTINUOUS
10
108.691
20
-115.211
11
108.705
21
-115.186
0
LINE
8
BLACK
6
CONTINUOUS
10
108.705
20
-115.186
11
108.723
21
-115.163
0
LINE
8
BLACK
6
CONTINUOUS
10
108.723
20
-115.163
11
108.746
21
-115.145
0
LINE
8
BLACK
6
CONTINUOUS
10
108.746
20
-115.145
11
108.771
21
-115.131
0
LINE
8
BLACK
6
CONTINUOUS
10
108.771
20
-115.131
11
108.799
21
-115.123
0
LINE
8
BLACK
6
CONTINUOUS
10
108.799
20
-115.123
11
108.828
21
-115.12
0
LINE
8
BLACK
6
CONTINUOUS
10
108.828
20
-115.12
11
109.172
21
-115.12
0
LINE
8
BLACK
6
CONTINUOUS
10
109.172
20
-115.12
11
109.201
21
-115.123
0
LINE
8
BLACK
6
CONTINUOUS
10
125
20
-115.5
11
123.65
21
-115.5
0
LINE
8
BLACK
6
CONTINUOUS
10
123.65
20
-115.5
11
123.65
21
-115.1
0
LINE
8
BLACK
6
CONTINUOUS
10
123.65
20
-115.1
11
125
21
-115.1
0
LINE
8
BLACK
6
CONTINUOUS
10
125
20
-115.1
11
125
21
-115.5
0
LINE
8
BLACK
6
CONTINUOUS
10
120.3
20
-114.675
11
119.7
21
-114.675
0
LINE
8
BLACK
6
CONTINUOUS
10
119.7
20
-114.675
11
119.7
21
-114.125
0
LINE
8
BLACK
6
CONTINUOUS
10
119.7
20
-114.125
11
120.3
21
-114.125
0
LINE
8
BLACK
6
CONTINUOUS
10
120.3
20
-114.125
11
120.3
21
-114.675
0
LINE
8
BLACK
6
CONTINUOUS
10
121.7
20
-114.675
11
121.1
21
-114.675
0
LINE
8
BLACK
6
CONTINUOUS
10
121.1
20
-114.675
11
121.1
21
-114.125
0
LINE
8
BLACK
6
CONTINUOUS
10
121.1
20
-114.125
11
121.7
21
-114.125
0
LINE
8
BLACK
6
CONTINUOUS
10
121.7
20
-114.125
11
121.7
21
-114.675
0
LINE
8
BLACK
6
CONTINUOUS
10
121.7
20
-113.875
11
121.1
21
-113.875
0
LINE
8
BLACK
6
CONTINUOUS
10
121.1
20
-113.875
11
121.1
21
-113.325
0
LINE
8
BLACK
6
CONTINUOUS
10
121.1
20
-113.325
11
121.7
21
-113.325
0
LINE
8
BLACK
6
CONTINUOUS
10
121.7
20
-113.325
11
121.7
21
-113.875
0
LINE
8
BLACK
6
CONTINUOUS
10
120.3
20
-113.875
11
119.7
21
-113.875
0
LINE
8
BLACK
6
CONTINUOUS
10
119.7
20
-113.875
11
119.7
21
-113.325
0
LINE
8
BLACK
6
CONTINUOUS
10
119.7
20
-113.325
11
120.3
21
-113.325
0
LINE
8
BLACK
6
CONTINUOUS
10
120.3
20
-113.325
11
120.3
21
-113.875
0
LINE
8
BLACK
6
CONTINUOUS
10
116.754
20
-110.905
11
116.8
21
-110.919
0
LINE
8
BLACK
6
CONTINUOUS
10
116.8
20
-110.919
11
116.842
21
-110.941
0
LINE
8
BLACK
6
CONTINUOUS
10
116.842
20
-110.941
11
116.879
21
-110.971
0
LINE
8
BLACK
6
CONTINUOUS
10
116.879
20
-110.971
11
116.909
21
-111.008
0
LINE
8
BLACK
6
CONTINUOUS
10
116.909
20
-111.008
11
116.931
21
-111.05
0
LINE
8
BLACK
6
CONTINUOUS
10
116.931
20
-111.05
11
116.945
21
-111.096
0
LINE
8
BLACK
6
CONTINUOUS
10
116.945
20
-111.096
11
116.95
21
-111.144
0
LINE
8
BLACK
6
CONTINUOUS
10
116.95
20
-111.144
11
116.95
21
-112.056
0
LINE
8
BLACK
6
CONTINUOUS
10
116.95
20
-112.056
11
116.945
21
-112.104
0
LINE
8
BLACK
6
CONTINUOUS
10
116.945
20
-112.104
11
116.931
21
-112.15
0
LINE
8
BLACK
6
CONTINUOUS
10
116.931
20
-112.15
11
116.909
21
-112.192
0
LINE
8
BLACK
6
CONTINUOUS
10
116.909
20
-112.192
11
116.879
21
-112.229
0
LINE
8
BLACK
6
CONTINUOUS
10
116.879
20
-112.229
11
116.842
21
-112.259
0
LINE
8
BLACK
6
CONTINUOUS
10
116.842
20
-112.259
11
116.8
21
-112.281
0
LINE
8
BLACK
6
CONTINUOUS
10
116.8
20
-112.281
11
116.754
21
-112.295
0
LINE
8
BLACK
6
CONTINUOUS
10
116.754
20
-112.295
11
116.706
21
-112.3
0
LINE
8
BLACK
6
CONTINUOUS
10
116.706
20
-112.3
11
116.219
21
-112.3
0
LINE
8
BLACK
6
CONTINUOUS
10
116.219
20
-112.3
11
116.171
21
-112.295
0
LINE
8
BLACK
6
CONTINUOUS
10
116.171
20
-112.295
11
116.125
21
-112.281
0
LINE
8
BLACK
6
CONTINUOUS
10
116.125
20
-112.281
11
116.083
21
-112.259
0
LINE
8
BLACK
6
CONTINUOUS
10
116.083
20
-112.259
11
116.046
21
-112.229
0
LINE
8
BLACK
6
CONTINUOUS
10
116.046
20
-112.229
11
116.016
21
-112.192
0
LINE
8
BLACK
6
CONTINUOUS
10
116.016
20
-112.192
11
115.994
21
-112.15
0
LINE
8
BLACK
6
CONTINUOUS
10
115.994
20
-112.15
11
115.98
21
-112.104
0
LINE
8
BLACK
6
CONTINUOUS
10
115.98
20
-112.104
11
115.975
21
-112.056
0
LINE
8
BLACK
6
CONTINUOUS
10
115.975
20
-112.056
11
115.975
21
-111.144
0
LINE
8
BLACK
6
CONTINUOUS
10
115.975
20
-111.144
11
115.98
21
-111.096
0
LINE
8
BLACK
6
CONTINUOUS
10
115.98
20
-111.096
11
115.994
21
-111.05
0
LINE
8
BLACK
6
CONTINUOUS
10
115.994
20
-111.05
11
116.016
21
-111.008
0
LINE
8
BLACK
6
CONTINUOUS
10
116.016
20
-111.008
11
116.046
21
-110.971
0
LINE
8
BLACK
6
CONTINUOUS
10
116.046
20
-110.971
11
116.083
21
-110.941
0
LINE
8
BLACK
6
CONTINUOUS
10
116.083
20
-110.941
11
116.125
21
-110.919
0
LINE
8
BLACK
6
CONTINUOUS
10
116.125
20
-110.919
11
116.171
21
-110.905
0
LINE
8
BLACK
6
CONTINUOUS
10
116.171
20
-110.905
11
116.219
21
-110.9
0
LINE
8
BLACK
6
CONTINUOUS
10
116.219
20
-110.9
11
116.706
21
-110.9
0
LINE
8
BLACK
6
CONTINUOUS
10
116.706
20
-110.9
11
116.754
21
-110.905
0
LINE
8
BLACK
6
CONTINUOUS
10
118.629
20
-110.905
11
118.675
21
-110.919
0
LINE
8
BLACK
6
CONTINUOUS
10
118.675
20
-110.919
11
118.717
21
-110.941
0
LINE
8
BLACK
6
CONTINUOUS
10
118.717
20
-110.941
11
118.754
21
-110.971
0
LINE
8
BLACK
6
CONTINUOUS
10
118.754
20
-110.971
11
118.784
21
-111.008
0
LINE
8
BLACK
6
CONTINUOUS
10
118.784
20
-111.008
11
118.806
21
-111.05
0
LINE
8
BLACK
6
CONTINUOUS
10
118.806
20
-111.05
11
118.82
21
-111.096
0
LINE
8
BLACK
6
CONTINUOUS
10
118.82
20
-111.096
11
118.825
21
-111.144
0
LINE
8
BLACK
6
CONTINUOUS
10
118.825
20
-111.144
11
118.825
21
-112.056
0
LINE
8
BLACK
6
CONTINUOUS
10
118.825
20
-112.056
11
118.82
21
-112.104
0
LINE
8
BLACK
6
CONTINUOUS
10
118.82
20
-112.104
11
118.806
21
-112.15
0
LINE
8
BLACK
6
CONTINUOUS
10
118.806
20
-112.15
11
118.784
21
-112.192
0
LINE
8
BLACK
6
CONTINUOUS
10
118.784
20
-112.192
11
118.754
21
-112.229
0
LINE
8
BLACK
6
CONTINUOUS
10
118.754
20
-112.229
11
118.717
21
-112.259
0
LINE
8
BLACK
6
CONTINUOUS
10
118.717
20
-112.259
11
118.675
21
-112.281
0
LINE
8
BLACK
6
CONTINUOUS
10
118.675
20
-112.281
11
118.629
21
-112.295
0
LINE
8
BLACK
6
CONTINUOUS
10
118.629
20
-112.295
11
118.581
21
-112.3
0
LINE
8
BLACK
6
CONTINUOUS
10
118.581
20
-112.3
11
118.094
21
-112.3
0
LINE
8
BLACK
6
CONTINUOUS
10
118.094
20
-112.3
11
118.046
21
-112.295
0
LINE
8
BLACK
6
CONTINUOUS
10
118.046
20
-112.295
11
118
21
-112.281
0
LINE
8
BLACK
6
CONTINUOUS
10
118
20
-112.281
11
117.958
21
-112.259
0
LINE
8
BLACK
6
CONTINUOUS
10
117.958
20
-112.259
11
117.921
21
-112.229
0
LINE
8
BLACK
6
CONTINUOUS
10
117.921
20
-112.229
11
117.891
21
-112.192
0
LINE
8
BLACK
6
CONTINUOUS
10
117.891
20
-112.192
11
117.869
21
-112.15
0
LINE
8
BLACK
6
CONTINUOUS
10
117.869
20
-112.15
11
117.855
21
-112.104
0
LINE
8
BLACK
6
CONTINUOUS
10
117.855
20
-112.104
11
117.85
21
-112.056
0
LINE
8
BLACK
6
CONTINUOUS
10
117.85
20
-112.056
11
117.85
21
-111.144
0
LINE
8
BLACK
6
CONTINUOUS
10
117.85
20
-111.144
11
117.855
21
-111.096
0
LINE
8
BLACK
6
CONTINUOUS
10
117.855
20
-111.096
11
117.869
21
-111.05
0
LINE
8
BLACK
6
CONTINUOUS
10
117.869
20
-111.05
11
117.891
21
-111.008
0
LINE
8
BLACK
6
CONTINUOUS
10
117.891
20
-111.008
11
117.921
21
-110.971
0
LINE
8
BLACK
6
CONTINUOUS
10
117.921
20
-110.971
11
117.958
21
-110.941
0
LINE
8
BLACK
6
CONTINUOUS
10
117.958
20
-110.941
11
118
21
-110.919
0
LINE
8
BLACK
6
CONTINUOUS
10
118
20
-110.919
11
118.046
21
-110.905
0
LINE
8
BLACK
6
CONTINUOUS
10
118.046
20
-110.905
11
118.094
21
-110.9
0
LINE
8
BLACK
6
CONTINUOUS
10
118.094
20
-110.9
11
118.581
21
-110.9
0
LINE
8
BLACK
6
CONTINUOUS
10
118.581
20
-110.9
11
118.629
21
-110.905
0
LINE
8
BLACK
6
CONTINUOUS
10
125.705
20
-109.495
11
125.065
21
-109.495
0
LINE
8
BLACK
6
CONTINUOUS
10
125.065
20
-109.495
11
125.065
21
-108.495
0
LINE
8
BLACK
6
CONTINUOUS
10
125.065
20
-108.495
11
125.705
21
-108.495
0
LINE
8
BLACK
6
CONTINUOUS
10
125.705
20
-108.495
11
125.705
21
-109.495
0
LINE
8
BLACK
6
CONTINUOUS
10
126.535
20
-109.495
11
125.895
21
-109.495
0
LINE
8
BLACK
6
CONTINUOUS
10
125.895
20
-109.495
11
125.895
21
-108.495
0
LINE
8
BLACK
6
CONTINUOUS
10
125.895
20
-108.495
11
126.535
21
-108.495
0
LINE
8
BLACK
6
CONTINUOUS
10
126.535
20
-108.495
11
126.535
21
-109.495
0
LINE
8
BLACK
6
CONTINUOUS
10
124.75
20
-109.275
11
124.05
21
-109.275
0
LINE
8
BLACK
6
CONTINUOUS
10
124.05
20
-109.275
11
124.05
21
-109.025
0
LINE
8
BLACK
6
CONTINUOUS
10
124.05
20
-109.025
11
124.75
21
-109.025
0
LINE
8
BLACK
6
CONTINUOUS
10
124.75
20
-109.025
11
124.75
21
-109.275
0
LINE
8
BLACK
6
CONTINUOUS
10
127.55
20
-109.275
11
126.85
21
-109.275
0
LINE
8
BLACK
6
CONTINUOUS
10
126.85
20
-109.275
11
126.85
21
-109.025
0
LINE
8
BLACK
6
CONTINUOUS
10
126.85
20
-109.025
11
127.55
21
-109.025
0
LINE
8
BLACK
6
CONTINUOUS
10
127.55
20
-109.025
11
127.55
21
-109.275
0
LINE
8
BLACK
6
CONTINUOUS
10
129.099
20
-108.254
11
129.14
21
-108.267
0
LINE
8
BLACK
6
CONTINUOUS
10
129.14
20
-108.267
11
129.178
21
-108.287
0
LINE
8
BLACK
6
CONTINUOUS
10
129.178
20
-108.287
11
129.211
21
-108.314
0
LINE
8
BLACK
6
CONTINUOUS
10
129.211
20
-108.314
11
129.238
21
-108.347
0
LINE
8
BLACK
6
CONTINUOUS
10
129.238
20
-108.347
11
129.258
21
-108.385
0
LINE
8
BLACK
6
CONTINUOUS
10
129.258
20
-108.385
11
129.271
21
-108.426
0
LINE
8
BLACK
6
CONTINUOUS
10
129.271
20
-108.426
11
129.275
21
-108.469
0
LINE
8
BLACK
6
CONTINUOUS
10
129.275
20
-108.469
11
129.275
21
-108.906
0
LINE
8
BLACK
6
CONTINUOUS
10
129.275
20
-108.906
11
129.271
21
-108.949
0
LINE
8
BLACK
6
CONTINUOUS
10
129.271
20
-108.949
11
129.258
21
-108.99
0
LINE
8
BLACK
6
CONTINUOUS
10
129.258
20
-108.99
11
129.238
21
-109.028
0
LINE
8
BLACK
6
CONTINUOUS
10
129.238
20
-109.028
11
129.211
21
-109.061
0
LINE
8
BLACK
6
CONTINUOUS
10
129.211
20
-109.061
11
129.178
21
-109.088
0
LINE
8
BLACK
6
CONTINUOUS
10
129.178
20
-109.088
11
129.14
21
-109.108
0
LINE
8
BLACK
6
CONTINUOUS
10
129.14
20
-109.108
11
129.099
21
-109.121
0
LINE
8
BLACK
6
CONTINUOUS
10
129.099
20
-109.121
11
129.056
21
-109.125
0
LINE
8
BLACK
6
CONTINUOUS
10
129.056
20
-109.125
11
128.544
21
-109.125
0
LINE
8
BLACK
6
CONTINUOUS
10
128.544
20
-109.125
11
128.501
21
-109.121
0
LINE
8
BLACK
6
CONTINUOUS
10
128.501
20
-109.121
11
128.46
21
-109.108
0
LINE
8
BLACK
6
CONTINUOUS
10
128.46
20
-109.108
11
128.422
21
-109.088
0
LINE
8
BLACK
6
CONTINUOUS
10
128.422
20
-109.088
11
128.389
21
-109.061
0
LINE
8
BLACK
6
CONTINUOUS
10
128.389
20
-109.061
11
128.362
21
-109.028
0
LINE
8
BLACK
6
CONTINUOUS
10
128.362
20
-109.028
11
128.342
21
-108.99
0
LINE
8
BLACK
6
CONTINUOUS
10
128.342
20
-108.99
11
128.329
21
-108.949
0
LINE
8
BLACK
6
CONTINUOUS
10
128.329
20
-108.949
11
128.325
21
-108.906
0
LINE
8
BLACK
6
CONTINUOUS
10
128.325
20
-108.906
11
128.325
21
-108.469
0
LINE
8
BLACK
6
CONTINUOUS
10
128.325
20
-108.469
11
128.329
21
-108.426
0
LINE
8
BLACK
6
CONTINUOUS
10
128.329
20
-108.426
11
128.342
21
-108.385
0
LINE
8
BLACK
6
CONTINUOUS
10
128.342
20
-108.385
11
128.362
21
-108.347
0
LINE
8
BLACK
6
CONTINUOUS
10
128.362
20
-108.347
11
128.389
21
-108.314
0
LINE
8
BLACK
6
CONTINUOUS
10
128.389
20
-108.314
11
128.422
21
-108.287
0
LINE
8
BLACK
6
CONTINUOUS
10
128.422
20
-108.287
11
128.46
21
-108.267
0
LINE
8
BLACK
6
CONTINUOUS
10
128.46
20
-108.267
11
128.501
21
-108.254
0
LINE
8
BLACK
6
CONTINUOUS
10
128.501
20
-108.254
11
128.544
21
-108.25
0
LINE
8
BLACK
6
CONTINUOUS
10
128.544
20
-108.25
11
129.056
21
-108.25
0
LINE
8
BLACK
6
CONTINUOUS
10
129.056
20
-108.25
11
129.099
21
-108.254
0
LINE
8
BLACK
6
CONTINUOUS
10
101.399
20
-108.254
11
101.44
21
-108.267
0
LINE
8
BLACK
6
CONTINUOUS
10
101.44
20
-108.267
11
101.478
21
-108.287
0
LINE
8
BLACK
6
CONTINUOUS
10
101.478
20
-108.287
11
101.511
21
-108.314
0
LINE
8
BLACK
6
CONTINUOUS
10
101.511
20
-108.314
11
101.538
21
-108.347
0
LINE
8
BLACK
6
CONTINUOUS
10
101.538
20
-108.347
11
101.558
21
-108.385
0
LINE
8
BLACK
6
CONTINUOUS
10
101.558
20
-108.385
11
101.571
21
-108.426
0
LINE
8
BLACK
6
CONTINUOUS
10
101.571
20
-108.426
11
101.575
21
-108.469
0
LINE
8
BLACK
6
CONTINUOUS
10
101.575
20
-108.469
11
101.575
21
-108.906
0
LINE
8
BLACK
6
CONTINUOUS
10
101.575
20
-108.906
11
101.571
21
-108.949
0
LINE
8
BLACK
6
CONTINUOUS
10
101.571
20
-108.949
11
101.558
21
-108.99
0
LINE
8
BLACK
6
CONTINUOUS
10
101.558
20
-108.99
11
101.538
21
-109.028
0
LINE
8
BLACK
6
CONTINUOUS
10
101.538
20
-109.028
11
101.511
21
-109.061
0
LINE
8
BLACK
6
CONTINUOUS
10
101.511
20
-109.061
11
101.478
21
-109.088
0
LINE
8
BLACK
6
CONTINUOUS
10
101.478
20
-109.088
11
101.44
21
-109.108
0
LINE
8
BLACK
6
CONTINUOUS
10
101.44
20
-109.108
11
101.399
21
-109.121
0
LINE
8
BLACK
6
CONTINUOUS
10
101.399
20
-109.121
11
101.356
21
-109.125
0
LINE
8
BLACK
6
CONTINUOUS
10
101.356
20
-109.125
11
100.844
21
-109.125
0
LINE
8
BLACK
6
CONTINUOUS
10
100.844
20
-109.125
11
100.801
21
-109.121
0
LINE
8
BLACK
6
CONTINUOUS
10
100.801
20
-109.121
11
100.76
21
-109.108
0
LINE
8
BLACK
6
CONTINUOUS
10
100.76
20
-109.108
11
100.722
21
-109.088
0
LINE
8
BLACK
6
CONTINUOUS
10
100.722
20
-109.088
11
100.689
21
-109.061
0
LINE
8
BLACK
6
CONTINUOUS
10
100.689
20
-109.061
11
100.662
21
-109.028
0
LINE
8
BLACK
6
CONTINUOUS
10
100.662
20
-109.028
11
100.642
21
-108.99
0
LINE
8
BLACK
6
CONTINUOUS
10
100.642
20
-108.99
11
100.629
21
-108.949
0
LINE
8
BLACK
6
CONTINUOUS
10
100.629
20
-108.949
11
100.625
21
-108.906
0
LINE
8
BLACK
6
CONTINUOUS
10
100.625
20
-108.906
11
100.625
21
-108.469
0
LINE
8
BLACK
6
CONTINUOUS
10
100.625
20
-108.469
11
100.629
21
-108.426
0
LINE
8
BLACK
6
CONTINUOUS
10
100.629
20
-108.426
11
100.642
21
-108.385
0
LINE
8
BLACK
6
CONTINUOUS
10
100.642
20
-108.385
11
100.662
21
-108.347
0
LINE
8
BLACK
6
CONTINUOUS
10
100.662
20
-108.347
11
100.689
21
-108.314
0
LINE
8
BLACK
6
CONTINUOUS
10
100.689
20
-108.314
11
100.722
21
-108.287
0
LINE
8
BLACK
6
CONTINUOUS
10
100.722
20
-108.287
11
100.76
21
-108.267
0
LINE
8
BLACK
6
CONTINUOUS
10
100.76
20
-108.267
11
100.801
21
-108.254
0
LINE
8
BLACK
6
CONTINUOUS
10
100.801
20
-108.254
11
100.844
21
-108.25
0
LINE
8
BLACK
6
CONTINUOUS
10
100.844
20
-108.25
11
101.356
21
-108.25
0
LINE
8
BLACK
6
CONTINUOUS
10
101.356
20
-108.25
11
101.399
21
-108.254
0
LINE
8
BLACK
6
CONTINUOUS
10
107.599
20
-108.254
11
107.64
21
-108.267
0
LINE
8
BLACK
6
CONTINUOUS
10
107.64
20
-108.267
11
107.678
21
-108.287
0
LINE
8
BLACK
6
CONTINUOUS
10
107.678
20
-108.287
11
107.711
21
-108.314
0
LINE
8
BLACK
6
CONTINUOUS
10
107.711
20
-108.314
11
107.738
21
-108.347
0
LINE
8
BLACK
6
CONTINUOUS
10
107.738
20
-108.347
11
107.758
21
-108.385
0
LINE
8
BLACK
6
CONTINUOUS
10
107.758
20
-108.385
11
107.771
21
-108.426
0
LINE
8
BLACK
6
CONTINUOUS
10
107.771
20
-108.426
11
107.775
21
-108.469
0
LINE
8
BLACK
6
CONTINUOUS
10
107.775
20
-108.469
11
107.775
21
-108.906
0
LINE
8
BLACK
6
CONTINUOUS
10
107.775
20
-108.906
11
107.771
21
-108.949
0
LINE
8
BLACK
6
CONTINUOUS
10
107.771
20
-108.949
11
107.758
21
-108.99
0
LINE
8
BLACK
6
CONTINUOUS
10
107.758
20
-108.99
11
107.738
21
-109.028
0
LINE
8
BLACK
6
CONTINUOUS
10
107.738
20
-109.028
11
107.711
21
-109.061
0
LINE
8
BLACK
6
CONTINUOUS
10
107.711
20
-109.061
11
107.678
21
-109.088
0
LINE
8
BLACK
6
CONTINUOUS
10
107.678
20
-109.088
11
107.64
21
-109.108
0
LINE
8
BLACK
6
CONTINUOUS
10
107.64
20
-109.108
11
107.599
21
-109.121
0
LINE
8
BLACK
6
CONTINUOUS
10
107.599
20
-109.121
11
107.556
21
-109.125
0
LINE
8
BLACK
6
CONTINUOUS
10
107.556
20
-109.125
11
107.044
21
-109.125
0
LINE
8
BLACK
6
CONTINUOUS
10
107.044
20
-109.125
11
107.001
21
-109.121
0
LINE
8
BLACK
6
CONTINUOUS
10
107.001
20
-109.121
11
106.96
21
-109.108
0
LINE
8
BLACK
6
CONTINUOUS
10
106.96
20
-109.108
11
106.922
21
-109.088
0
LINE
8
BLACK
6
CONTINUOUS
10
106.922
20
-109.088
11
106.889
21
-109.061
0
LINE
8
BLACK
6
CONTINUOUS
10
106.889
20
-109.061
11
106.862
21
-109.028
0
LINE
8
BLACK
6
CONTINUOUS
10
106.862
20
-109.028
11
106.842
21
-108.99
0
LINE
8
BLACK
6
CONTINUOUS
10
106.842
20
-108.99
11
106.829
21
-108.949
0
LINE
8
BLACK
6
CONTINUOUS
10
106.829
20
-108.949
11
106.825
21
-108.906
0
LINE
8
BLACK
6
CONTINUOUS
10
106.825
20
-108.906
11
106.825
21
-108.469
0
LINE
8
BLACK
6
CONTINUOUS
10
106.825
20
-108.469
11
106.829
21
-108.426
0
LINE
8
BLACK
6
CONTINUOUS
10
106.829
20
-108.426
11
106.842
21
-108.385
0
LINE
8
BLACK
6
CONTINUOUS
10
106.842
20
-108.385
11
106.862
21
-108.347
0
LINE
8
BLACK
6
CONTINUOUS
10
106.862
20
-108.347
11
106.889
21
-108.314
0
LINE
8
BLACK
6
CONTINUOUS
10
106.889
20
-108.314
11
106.922
21
-108.287
0
LINE
8
BLACK
6
CONTINUOUS
10
106.922
20
-108.287
11
106.96
21
-108.267
0
LINE
8
BLACK
6
CONTINUOUS
10
106.96
20
-108.267
11
107.001
21
-108.254
0
LINE
8
BLACK
6
CONTINUOUS
10
107.001
20
-108.254
11
107.044
21
-108.25
0
LINE
8
BLACK
6
CONTINUOUS
10
107.044
20
-108.25
11
107.556
21
-108.25
0
LINE
8
BLACK
6
CONTINUOUS
10
107.556
20
-108.25
11
107.599
21
-108.254
0
LINE
8
BLACK
6
CONTINUOUS
10
123.099
20
-108.254
11
123.14
21
-108.267
0
LINE
8
BLACK
6
CONTINUOUS
10
123.14
20
-108.267
11
123.178
21
-108.287
0
LINE
8
BLACK
6
CONTINUOUS
10
123.178
20
-108.287
11
123.211
21
-108.314
0
LINE
8
BLACK
6
CONTINUOUS
10
123.211
20
-108.314
11
123.238
21
-108.347
0
LINE
8
BLACK
6
CONTINUOUS
10
123.238
20
-108.347
11
123.258
21
-108.385
0
LINE
8
BLACK
6
CONTINUOUS
10
123.258
20
-108.385
11
123.271
21
-108.426
0
LINE
8
BLACK
6
CONTINUOUS
10
123.271
20
-108.426
11
123.275
21
-108.469
0
LINE
8
BLACK
6
CONTINUOUS
10
123.275
20
-108.469
11
123.275
21
-108.906
0
LINE
8
BLACK
6
CONTINUOUS
10
123.275
20
-108.906
11
123.271
21
-108.949
0
LINE
8
BLACK
6
CONTINUOUS
10
123.271
20
-108.949
11
123.258
21
-108.99
0
LINE
8
BLACK
6
CONTINUOUS
10
123.258
20
-108.99
11
123.238
21
-109.028
0
LINE
8
BLACK
6
CONTINUOUS
10
123.238
20
-109.028
11
123.211
21
-109.061
0
LINE
8
BLACK
6
CONTINUOUS
10
123.211
20
-109.061
11
123.178
21
-109.088
0
LINE
8
BLACK
6
CONTINUOUS
10
123.178
20
-109.088
11
123.14
21
-109.108
0
LINE
8
BLACK
6
CONTINUOUS
10
123.14
20
-109.108
11
123.099
21
-109.121
0
LINE
8
BLACK
6
CONTINUOUS
10
123.099
20
-109.121
11
123.056
21
-109.125
0
LINE
8
BLACK
6
CONTINUOUS
10
123.056
20
-109.125
11
122.544
21
-109.125
0
LINE
8
BLACK
6
CONTINUOUS
10
122.544
20
-109.125
11
122.501
21
-109.121
0
LINE
8
BLACK
6
CONTINUOUS
10
122.501
20
-109.121
11
122.46
21
-109.108
0
LINE
8
BLACK
6
CONTINUOUS
10
122.46
20
-109.108
11
122.422
21
-109.088
0
LINE
8
BLACK
6
CONTINUOUS
10
122.422
20
-109.088
11
122.389
21
-109.061
0
LINE
8
BLACK
6
CONTINUOUS
10
122.389
20
-109.061
11
122.362
21
-109.028
0
LINE
8
BLACK
6
CONTINUOUS
10
122.362
20
-109.028
11
122.342
21
-108.99
0
LINE
8
BLACK
6
CONTINUOUS
10
122.342
20
-108.99
11
122.329
21
-108.949
0
LINE
8
BLACK
6
CONTINUOUS
10
122.329
20
-108.949
11
122.325
21
-108.906
0
LINE
8
BLACK
6
CONTINUOUS
10
122.325
20
-108.906
11
122.325
21
-108.469
0
LINE
8
BLACK
6
CONTINUOUS
10
122.325
20
-108.469
11
122.329
21
-108.426
0
LINE
8
BLACK
6
CONTINUOUS
10
122.329
20
-108.426
11
122.342
21
-108.385
0
LINE
8
BLACK
6
CONTINUOUS
10
122.342
20
-108.385
11
122.362
21
-108.347
0
LINE
8
BLACK
6
CONTINUOUS
10
122.362
20
-108.347
11
122.389
21
-108.314
0
LINE
8
BLACK
6
CONTINUOUS
10
122.389
20
-108.314
11
122.422
21
-108.287
0
LINE
8
BLACK
6
CONTINUOUS
10
122.422
20
-108.287
11
122.46
21
-108.267
0
LINE
8
BLACK
6
CONTINUOUS
10
122.46
20
-108.267
11
122.501
21
-108.254
0
LINE
8
BLACK
6
CONTINUOUS
10
122.501
20
-108.254
11
122.544
21
-108.25
0
LINE
8
BLACK
6
CONTINUOUS
10
122.544
20
-108.25
11
123.056
21
-108.25
0
LINE
8
BLACK
6
CONTINUOUS
10
123.056
20
-108.25
11
123.099
21
-108.254
0
LINE
8
BLACK
6
CONTINUOUS
10
106.12
20
-109.075
11
104.9
21
-109.075
0
LINE
8
BLACK
6
CONTINUOUS
10
104.9
20
-109.075
11
104.9
21
-108.425
0
LINE
8
BLACK
6
CONTINUOUS
10
104.9
20
-108.425
11
106.12
21
-108.425
0
LINE
8
BLACK
6
CONTINUOUS
10
106.12
20
-108.425
11
106.12
21
-109.075
0
LINE
8
BLACK
6
CONTINUOUS
10
103.5
20
-109.075
11
102.28
21
-109.075
0
LINE
8
BLACK
6
CONTINUOUS
10
102.28
20
-109.075
11
102.28
21
-108.425
0
LINE
8
BLACK
6
CONTINUOUS
10
102.28
20
-108.425
11
103.5
21
-108.425
0
LINE
8
BLACK
6
CONTINUOUS
10
103.5
20
-108.425
11
103.5
21
-109.075
0
LINE
8
BLACK
6
CONTINUOUS
10
124.75
20
-108.775
11
124.05
21
-108.775
0
LINE
8
BLACK
6
CONTINUOUS
10
124.05
20
-108.775
11
124.05
21
-108.525
0
LINE
8
BLACK
6
CONTINUOUS
10
124.05
20
-108.525
11
124.75
21
-108.525
0
LINE
8
BLACK
6
CONTINUOUS
10
124.75
20
-108.525
11
124.75
21
-108.775
0
LINE
8
BLACK
6
CONTINUOUS
10
127.55
20
-108.775
11
126.85
21
-108.775
0
LINE
8
BLACK
6
CONTINUOUS
10
126.85
20
-108.775
11
126.85
21
-108.525
0
LINE
8
BLACK
6
CONTINUOUS
10
126.85
20
-108.525
11
127.55
21
-108.525
0
LINE
8
BLACK
6
CONTINUOUS
10
127.55
20
-108.525
11
127.55
21
-108.775
0
LINE
8
BLACK
6
CONTINUOUS
10
125.705
20
-108.305
11
125.065
21
-108.305
0
LINE
8
BLACK
6
CONTINUOUS
10
125.065
20
-108.305
11
125.065
21
-107.305
0
LINE
8
BLACK
6
CONTINUOUS
10
125.065
20
-107.305
11
125.705
21
-107.305
0
LINE
8
BLACK
6
CONTINUOUS
10
125.705
20
-107.305
11
125.705
21
-108.305
0
LINE
8
BLACK
6
CONTINUOUS
10
126.535
20
-108.305
11
125.895
21
-108.305
0
LINE
8
BLACK
6
CONTINUOUS
10
125.895
20
-108.305
11
125.895
21
-107.305
0
LINE
8
BLACK
6
CONTINUOUS
10
125.895
20
-107.305
11
126.535
21
-107.305
0
LINE
8
BLACK
6
CONTINUOUS
10
126.535
20
-107.305
11
126.535
21
-108.305
0
LINE
8
BLACK
6
CONTINUOUS
10
127.55
20
-108.275
11
126.85
21
-108.275
0
LINE
8
BLACK
6
CONTINUOUS
10
126.85
20
-108.275
11
126.85
21
-108.025
0
LINE
8
BLACK
6
CONTINUOUS
10
126.85
20
-108.025
11
127.55
21
-108.025
0
LINE
8
BLACK
6
CONTINUOUS
10
127.55
20
-108.025
11
127.55
21
-108.275
0
LINE
8
BLACK
6
CONTINUOUS
10
124.75
20
-108.275
11
124.05
21
-108.275
0
LINE
8
BLACK
6
CONTINUOUS
10
124.05
20
-108.275
11
124.05
21
-108.025
0
LINE
8
BLACK
6
CONTINUOUS
10
124.05
20
-108.025
11
124.75
21
-108.025
0
LINE
8
BLACK
6
CONTINUOUS
10
124.75
20
-108.025
11
124.75
21
-108.275
0
LINE
8
BLACK
6
CONTINUOUS
10
106.12
20
-108.125
11
104.9
21
-108.125
0
LINE
8
BLACK
6
CONTINUOUS
10
104.9
20
-108.125
11
104.9
21
-107.475
0
LINE
8
BLACK
6
CONTINUOUS
10
104.9
20
-107.475
11
106.12
21
-107.475
0
LINE
8
BLACK
6
CONTINUOUS
10
106.12
20
-107.475
11
106.12
21
-108.125
0
LINE
8
BLACK
6
CONTINUOUS
10
127.55
20
-107.775
11
126.85
21
-107.775
0
LINE
8
BLACK
6
CONTINUOUS
10
126.85
20
-107.775
11
126.85
21
-107.525
0
LINE
8
BLACK
6
CONTINUOUS
10
126.85
20
-107.525
11
127.55
21
-107.525
0
LINE
8
BLACK
6
CONTINUOUS
10
127.55
20
-107.525
11
127.55
21
-107.775
0
LINE
8
BLACK
6
CONTINUOUS
10
124.75
20
-107.775
11
124.05
21
-107.775
0
LINE
8
BLACK
6
CONTINUOUS
10
124.05
20
-107.775
11
124.05
21
-107.525
0
LINE
8
BLACK
6
CONTINUOUS
10
124.05
20
-107.525
11
124.75
21
-107.525
0
LINE
8
BLACK
6
CONTINUOUS
10
124.75
20
-107.525
11
124.75
21
-107.775
0
LINE
8
BLACK
6
CONTINUOUS
10
129.099
20
-106.679
11
129.14
21
-106.692
0
LINE
8
BLACK
6
CONTINUOUS
10
129.14
20
-106.692
11
129.178
21
-106.712
0
LINE
8
BLACK
6
CONTINUOUS
10
129.178
20
-106.712
11
129.211
21
-106.739
0
LINE
8
BLACK
6
CONTINUOUS
10
129.211
20
-106.739
11
129.238
21
-106.772
0
LINE
8
BLACK
6
CONTINUOUS
10
129.238
20
-106.772
11
129.258
21
-106.81
0
LINE
8
BLACK
6
CONTINUOUS
10
129.258
20
-106.81
11
129.271
21
-106.851
0
LINE
8
BLACK
6
CONTINUOUS
10
129.271
20
-106.851
11
129.275
21
-106.894
0
LINE
8
BLACK
6
CONTINUOUS
10
129.275
20
-106.894
11
129.275
21
-107.331
0
LINE
8
BLACK
6
CONTINUOUS
10
129.275
20
-107.331
11
129.271
21
-107.374
0
LINE
8
BLACK
6
CONTINUOUS
10
129.271
20
-107.374
11
129.258
21
-107.415
0
LINE
8
BLACK
6
CONTINUOUS
10
129.258
20
-107.415
11
129.238
21
-107.453
0
LINE
8
BLACK
6
CONTINUOUS
10
129.238
20
-107.453
11
129.211
21
-107.486
0
LINE
8
BLACK
6
CONTINUOUS
10
129.211
20
-107.486
11
129.178
21
-107.513
0
LINE
8
BLACK
6
CONTINUOUS
10
129.178
20
-107.513
11
129.14
21
-107.533
0
LINE
8
BLACK
6
CONTINUOUS
10
129.14
20
-107.533
11
129.099
21
-107.546
0
LINE
8
BLACK
6
CONTINUOUS
10
129.099
20
-107.546
11
129.056
21
-107.55
0
LINE
8
BLACK
6
CONTINUOUS
10
129.056
20
-107.55
11
128.544
21
-107.55
0
LINE
8
BLACK
6
CONTINUOUS
10
128.544
20
-107.55
11
128.501
21
-107.546
0
LINE
8
BLACK
6
CONTINUOUS
10
128.501
20
-107.546
11
128.46
21
-107.533
0
LINE
8
BLACK
6
CONTINUOUS
10
128.46
20
-107.533
11
128.422
21
-107.513
0
LINE
8
BLACK
6
CONTINUOUS
10
128.422
20
-107.513
11
128.389
21
-107.486
0
LINE
8
BLACK
6
CONTINUOUS
10
128.389
20
-107.486
11
128.362
21
-107.453
0
LINE
8
BLACK
6
CONTINUOUS
10
128.362
20
-107.453
11
128.342
21
-107.415
0
LINE
8
BLACK
6
CONTINUOUS
10
128.342
20
-107.415
11
128.329
21
-107.374
0
LINE
8
BLACK
6
CONTINUOUS
10
128.329
20
-107.374
11
128.325
21
-107.331
0
LINE
8
BLACK
6
CONTINUOUS
10
128.325
20
-107.331
11
128.325
21
-106.894
0
LINE
8
BLACK
6
CONTINUOUS
10
128.325
20
-106.894
11
128.329
21
-106.851
0
LINE
8
BLACK
6
CONTINUOUS
10
128.329
20
-106.851
11
128.342
21
-106.81
0
LINE
8
BLACK
6
CONTINUOUS
10
128.342
20
-106.81
11
128.362
21
-106.772
0
LINE
8
BLACK
6
CONTINUOUS
10
128.362
20
-106.772
11
128.389
21
-106.739
0
LINE
8
BLACK
6
CONTINUOUS
10
128.389
20
-106.739
11
128.422
21
-106.712
0
LINE
8
BLACK
6
CONTINUOUS
10
128.422
20
-106.712
11
128.46
21
-106.692
0
LINE
8
BLACK
6
CONTINUOUS
10
128.46
20
-106.692
11
128.501
21
-106.679
0
LINE
8
BLACK
6
CONTINUOUS
10
128.501
20
-106.679
11
128.544
21
-106.675
0
LINE
8
BLACK
6
CONTINUOUS
10
128.544
20
-106.675
11
129.056
21
-106.675
0
LINE
8
BLACK
6
CONTINUOUS
10
129.056
20
-106.675
11
129.099
21
-106.679
0
LINE
8
BLACK
6
CONTINUOUS
10
101.399
20
-106.679
11
101.44
21
-106.692
0
LINE
8
BLACK
6
CONTINUOUS
10
101.44
20
-106.692
11
101.478
21
-106.712
0
LINE
8
BLACK
6
CONTINUOUS
10
101.478
20
-106.712
11
101.511
21
-106.739
0
LINE
8
BLACK
6
CONTINUOUS
10
101.511
20
-106.739
11
101.538
21
-106.772
0
LINE
8
BLACK
6
CONTINUOUS
10
101.538
20
-106.772
11
101.558
21
-106.81
0
LINE
8
BLACK
6
CONTINUOUS
10
101.558
20
-106.81
11
101.571
21
-106.851
0
LINE
8
BLACK
6
CONTINUOUS
10
101.571
20
-106.851
11
101.575
21
-106.894
0
LINE
8
BLACK
6
CONTINUOUS
10
101.575
20
-106.894
11
101.575
21
-107.331
0
LINE
8
BLACK
6
CONTINUOUS
10
101.575
20
-107.331
11
101.571
21
-107.374
0
LINE
8
BLACK
6
CONTINUOUS
10
101.571
20
-107.374
11
101.558
21
-107.415
0
LINE
8
BLACK
6
CONTINUOUS
10
101.558
20
-107.415
11
101.538
21
-107.453
0
LINE
8
BLACK
6
CONTINUOUS
10
101.538
20
-107.453
11
101.511
21
-107.486
0
LINE
8
BLACK
6
CONTINUOUS
10
101.511
20
-107.486
11
101.478
21
-107.513
0
LINE
8
BLACK
6
CONTINUOUS
10
101.478
20
-107.513
11
101.44
21
-107.533
0
LINE
8
BLACK
6
CONTINUOUS
10
101.44
20
-107.533
11
101.399
21
-107.546
0
LINE
8
BLACK
6
CONTINUOUS
10
101.399
20
-107.546
11
101.356
21
-107.55
0
LINE
8
BLACK
6
CONTINUOUS
10
101.356
20
-107.55
11
100.844
21
-107.55
0
LINE
8
BLACK
6
CONTINUOUS
10
100.844
20
-107.55
11
100.801
21
-107.546
0
LINE
8
BLACK
6
CONTINUOUS
10
100.801
20
-107.546
11
100.76
21
-107.533
0
LINE
8
BLACK
6
CONTINUOUS
10
100.76
20
-107.533
11
100.722
21
-107.513
0
LINE
8
BLACK
6
CONTINUOUS
10
100.722
20
-107.513
11
100.689
21
-107.486
0
LINE
8
BLACK
6
CONTINUOUS
10
100.689
20
-107.486
11
100.662
21
-107.453
0
LINE
8
BLACK
6
CONTINUOUS
10
100.662
20
-107.453
11
100.642
21
-107.415
0
LINE
8
BLACK
6
CONTINUOUS
10
100.642
20
-107.415
11
100.629
21
-107.374
0
LINE
8
BLACK
6
CONTINUOUS
10
100.629
20
-107.374
11
100.625
21
-107.331
0
LINE
8
BLACK
6
CONTINUOUS
10
100.625
20
-107.331
11
100.625
21
-106.894
0
LINE
8
BLACK
6
CONTINUOUS
10
100.625
20
-106.894
11
100.629
21
-106.851
0
LINE
8
BLACK
6
CONTINUOUS
10
100.629
20
-106.851
11
100.642
21
-106.81
0
LINE
8
BLACK
6
CONTINUOUS
10
100.642
20
-106.81
11
100.662
21
-106.772
0
LINE
8
BLACK
6
CONTINUOUS
10
100.662
20
-106.772
11
100.689
21
-106.739
0
LINE
8
BLACK
6
CONTINUOUS
10
100.689
20
-106.739
11
100.722
21
-106.712
0
LINE
8
BLACK
6
CONTINUOUS
10
100.722
20
-106.712
11
100.76
21
-106.692
0
LINE
8
BLACK
6
CONTINUOUS
10
100.76
20
-106.692
11
100.801
21
-106.679
0
LINE
8
BLACK
6
CONTINUOUS
10
100.801
20
-106.679
11
100.844
21
-106.675
0
LINE
8
BLACK
6
CONTINUOUS
10
100.844
20
-106.675
11
101.356
21
-106.675
0
LINE
8
BLACK
6
CONTINUOUS
10
101.356
20
-106.675
11
101.399
21
-106.679
0
LINE
8
BLACK
6
CONTINUOUS
10
107.599
20
-106.679
11
107.64
21
-106.692
0
LINE
8
BLACK
6
CONTINUOUS
10
107.64
20
-106.692
11
107.678
21
-106.712
0
LINE
8
BLACK
6
CONTINUOUS
10
107.678
20
-106.712
11
107.711
21
-106.739
0
LINE
8
BLACK
6
CONTINUOUS
10
107.711
20
-106.739
11
107.738
21
-106.772
0
LINE
8
BLACK
6
CONTINUOUS
10
107.738
20
-106.772
11
107.758
21
-106.81
0
LINE
8
BLACK
6
CONTINUOUS
10
107.758
20
-106.81
11
107.771
21
-106.851
0
LINE
8
BLACK
6
CONTINUOUS
10
107.771
20
-106.851
11
107.775
21
-106.894
0
LINE
8
BLACK
6
CONTINUOUS
10
107.775
20
-106.894
11
107.775
21
-107.331
0
LINE
8
BLACK
6
CONTINUOUS
10
107.775
20
-107.331
11
107.771
21
-107.374
0
LINE
8
BLACK
6
CONTINUOUS
10
107.771
20
-107.374
11
107.758
21
-107.415
0
LINE
8
BLACK
6
CONTINUOUS
10
107.758
20
-107.415
11
107.738
21
-107.453
0
LINE
8
BLACK
6
CONTINUOUS
10
107.738
20
-107.453
11
107.711
21
-107.486
0
LINE
8
BLACK
6
CONTINUOUS
10
107.711
20
-107.486
11
107.678
21
-107.513
0
LINE
8
BLACK
6
CONTINUOUS
10
107.678
20
-107.513
11
107.64
21
-107.533
0
LINE
8
BLACK
6
CONTINUOUS
10
107.64
20
-107.533
11
107.599
21
-107.546
0
LINE
8
BLACK
6
CONTINUOUS
10
107.599
20
-107.546
11
107.556
21
-107.55
0
LINE
8
BLACK
6
CONTINUOUS
10
107.556
20
-107.55
11
107.044
21
-107.55
0
LINE
8
BLACK
6
CONTINUOUS
10
107.044
20
-107.55
11
107.001
21
-107.546
0
LINE
8
BLACK
6
CONTINUOUS
10
107.001
20
-107.546
11
106.96
21
-107.533
0
LINE
8
BLACK
6
CONTINUOUS
10
106.96
20
-107.533
11
106.922
21
-107.513
0
LINE
8
BLACK
6
CONTINUOUS
10
106.922
20
-107.513
11
106.889
21
-107.486
0
LINE
8
BLACK
6
CONTINUOUS
10
106.889
20
-107.486
11
106.862
21
-107.453
0
LINE
8
BLACK
6
CONTINUOUS
10
106.862
20
-107.453
11
106.842
21
-107.415
0
LINE
8
BLACK
6
CONTINUOUS
10
106.842
20
-107.415
11
106.829
21
-107.374
0
LINE
8
BLACK
6
CONTINUOUS
10
106.829
20
-107.374
11
106.825
21
-107.331
0
LINE
8
BLACK
6
CONTINUOUS
10
106.825
20
-107.331
11
106.825
21
-106.894
0
LINE
8
BLACK
6
CONTINUOUS
10
106.825
20
-106.894
11
106.829
21
-106.851
0
LINE
8
BLACK
6
CONTINUOUS
10
106.829
20
-106.851
11
106.842
21
-106.81
0
LINE
8
BLACK
6
CONTINUOUS
10
106.842
20
-106.81
11
106.862
21
-106.772
0
LINE
8
BLACK
6
CONTINUOUS
10
106.862
20
-106.772
11
106.889
21
-106.739
0
LINE
8
BLACK
6
CONTINUOUS
10
106.889
20
-106.739
11
106.922
21
-106.712
0
LINE
8
BLACK
6
CONTINUOUS
10
106.922
20
-106.712
11
106.96
21
-106.692
0
LINE
8
BLACK
6
CONTINUOUS
10
106.96
20
-106.692
11
107.001
21
-106.679
0
LINE
8
BLACK
6
CONTINUOUS
10
107.001
20
-106.679
11
107.044
21
-106.675
0
LINE
8
BLACK
6
CONTINUOUS
10
107.044
20
-106.675
11
107.556
21
-106.675
0
LINE
8
BLACK
6
CONTINUOUS
10
107.556
20
-106.675
11
107.599
21
-106.679
0
LINE
8
BLACK
6
CONTINUOUS
10
123.099
20
-106.679
11
123.14
21
-106.692
0
LINE
8
BLACK
6
CONTINUOUS
10
123.14
20
-106.692
11
123.178
21
-106.712
0
LINE
8
BLACK
6
CONTINUOUS
10
123.178
20
-106.712
11
123.211
21
-106.739
0
LINE
8
BLACK
6
CONTINUOUS
10
123.211
20
-106.739
11
123.238
21
-106.772
0
LINE
8
BLACK
6
CONTINUOUS
10
123.238
20
-106.772
11
123.258
21
-106.81
0
LINE
8
BLACK
6
CONTINUOUS
10
123.258
20
-106.81
11
123.271
21
-106.851
0
LINE
8
BLACK
6
CONTINUOUS
10
123.271
20
-106.851
11
123.275
21
-106.894
0
LINE
8
BLACK
6
CONTINUOUS
10
123.275
20
-106.894
11
123.275
21
-107.331
0
LINE
8
BLACK
6
CONTINUOUS
10
123.275
20
-107.331
11
123.271
21
-107.374
0
LINE
8
BLACK
6
CONTINUOUS
10
123.271
20
-107.374
11
123.258
21
-107.415
0
LINE
8
BLACK
6
CONTINUOUS
10
123.258
20
-107.415
11
123.238
21
-107.453
0
LINE
8
BLACK
6
CONTINUOUS
10
123.238
20
-107.453
11
123.211
21
-107.486
0
LINE
8
BLACK
6
CONTINUOUS
10
123.211
20
-107.486
11
123.178
21
-107.513
0
LINE
8
BLACK
6
CONTINUOUS
10
123.178
20
-107.513
11
123.14
21
-107.533
0
LINE
8
BLACK
6
CONTINUOUS
10
123.14
20
-107.533
11
123.099
21
-107.546
0
LINE
8
BLACK
6
CONTINUOUS
10
123.099
20
-107.546
11
123.056
21
-107.55
0
LINE
8
BLACK
6
CONTINUOUS
10
123.056
20
-107.55
11
122.544
21
-107.55
0
LINE
8
BLACK
6
CONTINUOUS
10
122.544
20
-107.55
11
122.501
21
-107.546
0
LINE
8
BLACK
6
CONTINUOUS
10
122.501
20
-107.546
11
122.46
21
-107.533
0
LINE
8
BLACK
6
CONTINUOUS
10
122.46
20
-107.533
11
122.422
21
-107.513
0
LINE
8
BLACK
6
CONTINUOUS
10
122.422
20
-107.513
11
122.389
21
-107.486
0
LINE
8
BLACK
6
CONTINUOUS
10
122.389
20
-107.486
11
122.362
21
-107.453
0
LINE
8
BLACK
6
CONTINUOUS
10
122.362
20
-107.453
11
122.342
21
-107.415
0
LINE
8
BLACK
6
CONTINUOUS
10
122.342
20
-107.415
11
122.329
21
-107.374
0
LINE
8
BLACK
6
CONTINUOUS
10
122.329
20
-107.374
11
122.325
21
-107.331
0
LINE
8
BLACK
6
CONTINUOUS
10
122.325
20
-107.331
11
122.325
21
-106.894
0
LINE
8
BLACK
6
CONTINUOUS
10
122.325
20
-106.894
11
122.329
21
-106.851
0
LINE
8
BLACK
6
CONTINUOUS
10
122.329
20
-106.851
11
122.342
21
-106.81
0
LINE
8
BLACK
6
CONTINUOUS
10
122.342
20
-106.81
11
122.362
21
-106.772
0
LINE
8
BLACK
6
CONTINUOUS
10
122.362
20
-106.772
11
122.389
21
-106.739
0
LINE
8
BLACK
6
CONTINUOUS
10
122.389
20
-106.739
11
122.422
21
-106.712
0
LINE
8
BLACK
6
CONTINUOUS
10
122.422
20
-106.712
11
122.46
21
-106.692
0
LINE
8
BLACK
6
CONTINUOUS
10
122.46
20
-106.692
11
122.501
21
-106.679
0
LINE
8
BLACK
6
CONTINUOUS
10
122.501
20
-106.679
11
122.544
21
-106.675
0
LINE
8
BLACK
6
CONTINUOUS
10
122.544
20
-106.675
11
123.056
21
-106.675
0
LINE
8
BLACK
6
CONTINUOUS
10
123.056
20
-106.675
11
123.099
21
-106.679
0
LINE
8
BLACK
6
CONTINUOUS
10
103.5
20
-107.175
11
102.28
21
-107.175
0
LINE
8
BLACK
6
CONTINUOUS
10
102.28
20
-107.175
11
102.28
21
-106.525
0
LINE
8
BLACK
6
CONTINUOUS
10
102.28
20
-106.525
11
103.5
21
-106.525
0
LINE
8
BLACK
6
CONTINUOUS
10
103.5
20
-106.525
11
103.5
21
-107.175
0
LINE
8
BLACK
6
CONTINUOUS
10
106.12
20
-107.175
11
104.9
21
-107.175
0
LINE
8
BLACK
6
CONTINUOUS
10
104.9
20
-107.175
11
104.9
21
-106.525
0
LINE
8
BLACK
6
CONTINUOUS
10
104.9
20
-106.525
11
106.12
21
-106.525
0
LINE
8
BLACK
6
CONTINUOUS
10
106.12
20
-106.525
11
106.12
21
-107.175
  0
ENDSEC
  0
EOF
