  0
SECTION
  2
HEADER
  9
$ANGBASE
  50
0.0
  9
$ANGDIR
  70
1
  9
$MEASUREMENT
  70
1
  0
ENDSEC
  0
SECTION
  2
TABLES
  0
TABLE
  2
LTYPE
  70
4
  0
LTYPE
  5
40F
  2
CONTINUOUS
  70
0
  3
Solid line
  72
65
  73
0
  40
0.0
  0
LTYPE
  5
410
  2
DASHDOT
 70
0
  3
Dash Dot ____ _ ____ _
 72
65
 73
4
 40
2.0
 49
1.25
 49
-0.25
 49
0.25
 49
-0.25
  0
LTYPE
  5
411
  2
DASHED
 70
0
  3
Dashed __ __ __ __ __
 72
65
 73
2
 40
0.75
 49
0.5
 49
-0.25
  0
LTYPE
  5
43B
  2
DOTTED
 70
0
  3
Dotted .  .  .  .
 72
65
 73
2
 40
0.2
 49
0.0
 49
-0.2
  0
ENDTAB
  0
TABLE
  2
STYLE
  70
4
  0
STYLE
  2
KICAD
  70
0
  40
0
  41
1
  42
1
  50
0
  71
0
  3
isocp.shx
  0
STYLE
  2
KICADB
  70
0
  40
0
  41
1
  42
1
  50
0
  71
0
  3
isocp.shx
  0
STYLE
  2
KICADI
  70
0
  40
0
  41
1
  42
1
  50
15
  71
0
  3
isocp.shx
  0
STYLE
  2
KICADBI
  70
0
  40
0
  41
1
  42
1
  50
15
  71
0
  3
isocp.shx
  0
ENDTAB
  0
TABLE
  2
LAYER
  70
1
  0
LAYER
  2
BLACK
  70
0
  62
7
  6
CONTINUOUS
  0
ENDTAB
  0
ENDSEC
  0
SECTION
  2
ENTITIES
0
LINE
8
BLACK
6
CONTINUOUS
10
125.375
20
-158.391
11
125.482
21
-158.412
0
LINE
8
BLACK
6
CONTINUOUS
10
125.482
20
-158.412
11
125.782
21
-158.537
0
LINE
8
BLACK
6
CONTINUOUS
10
125.782
20
-158.537
11
126.052
21
-158.718
0
LINE
8
BLACK
6
CONTINUOUS
10
126.052
20
-158.718
11
126.282
21
-158.948
0
LINE
8
BLACK
6
CONTINUOUS
10
126.282
20
-158.948
11
126.463
21
-159.218
0
LINE
8
BLACK
6
CONTINUOUS
10
126.463
20
-159.218
11
126.588
21
-159.518
0
LINE
8
BLACK
6
CONTINUOUS
10
126.588
20
-159.518
11
126.651
21
-159.837
0
LINE
8
BLACK
6
CONTINUOUS
10
126.651
20
-159.837
11
126.651
21
-160.163
0
LINE
8
BLACK
6
CONTINUOUS
10
126.651
20
-160.163
11
126.588
21
-160.482
0
LINE
8
BLACK
6
CONTINUOUS
10
126.588
20
-160.482
11
126.463
21
-160.782
0
LINE
8
BLACK
6
CONTINUOUS
10
126.463
20
-160.782
11
126.282
21
-161.052
0
LINE
8
BLACK
6
CONTINUOUS
10
126.282
20
-161.052
11
126.052
21
-161.282
0
LINE
8
BLACK
6
CONTINUOUS
10
126.052
20
-161.282
11
125.782
21
-161.463
0
LINE
8
BLACK
6
CONTINUOUS
10
125.782
20
-161.463
11
125.482
21
-161.588
0
LINE
8
BLACK
6
CONTINUOUS
10
125.482
20
-161.588
11
125.375
21
-161.609
0
LINE
8
BLACK
6
CONTINUOUS
10
125.375
20
-161.609
11
125.163
21
-161.651
0
LINE
8
BLACK
6
CONTINUOUS
10
125.163
20
-161.651
11
124.837
21
-161.651
0
LINE
8
BLACK
6
CONTINUOUS
10
124.837
20
-161.651
11
124.625
21
-161.609
0
LINE
8
BLACK
6
CONTINUOUS
10
124.625
20
-161.609
11
124.518
21
-161.588
0
LINE
8
BLACK
6
CONTINUOUS
10
124.518
20
-161.588
11
124.218
21
-161.463
0
LINE
8
BLACK
6
CONTINUOUS
10
124.218
20
-161.463
11
123.948
21
-161.282
0
LINE
8
BLACK
6
CONTINUOUS
10
123.948
20
-161.282
11
123.718
21
-161.052
0
LINE
8
BLACK
6
CONTINUOUS
10
123.718
20
-161.052
11
123.537
21
-160.782
0
LINE
8
BLACK
6
CONTINUOUS
10
123.537
20
-160.782
11
123.412
21
-160.482
0
LINE
8
BLACK
6
CONTINUOUS
10
123.412
20
-160.482
11
123.349
21
-160.163
0
LINE
8
BLACK
6
CONTINUOUS
10
123.349
20
-160.163
11
123.349
21
-159.837
0
LINE
8
BLACK
6
CONTINUOUS
10
123.349
20
-159.837
11
123.412
21
-159.518
0
LINE
8
BLACK
6
CONTINUOUS
10
123.412
20
-159.518
11
123.537
21
-159.218
0
LINE
8
BLACK
6
CONTINUOUS
10
123.537
20
-159.218
11
123.718
21
-158.948
0
LINE
8
BLACK
6
CONTINUOUS
10
123.718
20
-158.948
11
123.948
21
-158.718
0
LINE
8
BLACK
6
CONTINUOUS
10
123.948
20
-158.718
11
124.218
21
-158.537
0
LINE
8
BLACK
6
CONTINUOUS
10
124.218
20
-158.537
11
124.518
21
-158.412
0
LINE
8
BLACK
6
CONTINUOUS
10
124.518
20
-158.412
11
124.625
21
-158.391
0
LINE
8
BLACK
6
CONTINUOUS
10
124.625
20
-158.391
11
124.837
21
-158.349
0
LINE
8
BLACK
6
CONTINUOUS
10
124.837
20
-158.349
11
125.163
21
-158.349
0
LINE
8
BLACK
6
CONTINUOUS
10
125.163
20
-158.349
11
125.375
21
-158.391
0
LINE
8
BLACK
6
CONTINUOUS
10
105.375
20
-158.391
11
105.482
21
-158.412
0
LINE
8
BLACK
6
CONTINUOUS
10
105.482
20
-158.412
11
105.782
21
-158.537
0
LINE
8
BLACK
6
CONTINUOUS
10
105.782
20
-158.537
11
106.052
21
-158.718
0
LINE
8
BLACK
6
CONTINUOUS
10
106.052
20
-158.718
11
106.282
21
-158.948
0
LINE
8
BLACK
6
CONTINUOUS
10
106.282
20
-158.948
11
106.463
21
-159.218
0
LINE
8
BLACK
6
CONTINUOUS
10
106.463
20
-159.218
11
106.588
21
-159.518
0
LINE
8
BLACK
6
CONTINUOUS
10
106.588
20
-159.518
11
106.651
21
-159.837
0
LINE
8
BLACK
6
CONTINUOUS
10
106.651
20
-159.837
11
106.651
21
-160.163
0
LINE
8
BLACK
6
CONTINUOUS
10
106.651
20
-160.163
11
106.588
21
-160.482
0
LINE
8
BLACK
6
CONTINUOUS
10
106.588
20
-160.482
11
106.463
21
-160.782
0
LINE
8
BLACK
6
CONTINUOUS
10
106.463
20
-160.782
11
106.282
21
-161.052
0
LINE
8
BLACK
6
CONTINUOUS
10
106.282
20
-161.052
11
106.052
21
-161.282
0
LINE
8
BLACK
6
CONTINUOUS
10
106.052
20
-161.282
11
105.782
21
-161.463
0
LINE
8
BLACK
6
CONTINUOUS
10
105.782
20
-161.463
11
105.482
21
-161.588
0
LINE
8
BLACK
6
CONTINUOUS
10
105.482
20
-161.588
11
105.375
21
-161.609
0
LINE
8
BLACK
6
CONTINUOUS
10
105.375
20
-161.609
11
105.163
21
-161.651
0
LINE
8
BLACK
6
CONTINUOUS
10
105.163
20
-161.651
11
104.837
21
-161.651
0
LINE
8
BLACK
6
CONTINUOUS
10
104.837
20
-161.651
11
104.625
21
-161.609
0
LINE
8
BLACK
6
CONTINUOUS
10
104.625
20
-161.609
11
104.518
21
-161.588
0
LINE
8
BLACK
6
CONTINUOUS
10
104.518
20
-161.588
11
104.218
21
-161.463
0
LINE
8
BLACK
6
CONTINUOUS
10
104.218
20
-161.463
11
103.948
21
-161.282
0
LINE
8
BLACK
6
CONTINUOUS
10
103.948
20
-161.282
11
103.718
21
-161.052
0
LINE
8
BLACK
6
CONTINUOUS
10
103.718
20
-161.052
11
103.537
21
-160.782
0
LINE
8
BLACK
6
CONTINUOUS
10
103.537
20
-160.782
11
103.412
21
-160.482
0
LINE
8
BLACK
6
CONTINUOUS
10
103.412
20
-160.482
11
103.349
21
-160.163
0
LINE
8
BLACK
6
CONTINUOUS
10
103.349
20
-160.163
11
103.349
21
-159.837
0
LINE
8
BLACK
6
CONTINUOUS
10
103.349
20
-159.837
11
103.412
21
-159.518
0
LINE
8
BLACK
6
CONTINUOUS
10
103.412
20
-159.518
11
103.537
21
-159.218
0
LINE
8
BLACK
6
CONTINUOUS
10
103.537
20
-159.218
11
103.718
21
-158.948
0
LINE
8
BLACK
6
CONTINUOUS
10
103.718
20
-158.948
11
103.948
21
-158.718
0
LINE
8
BLACK
6
CONTINUOUS
10
103.948
20
-158.718
11
104.218
21
-158.537
0
LINE
8
BLACK
6
CONTINUOUS
10
104.218
20
-158.537
11
104.518
21
-158.412
0
LINE
8
BLACK
6
CONTINUOUS
10
104.518
20
-158.412
11
104.625
21
-158.391
0
LINE
8
BLACK
6
CONTINUOUS
10
104.625
20
-158.391
11
104.837
21
-158.349
0
LINE
8
BLACK
6
CONTINUOUS
10
104.837
20
-158.349
11
105.163
21
-158.349
0
LINE
8
BLACK
6
CONTINUOUS
10
105.163
20
-158.349
11
105.375
21
-158.391
0
LINE
8
BLACK
6
CONTINUOUS
10
103.951
20
-131.451
11
102.049
21
-131.451
0
LINE
8
BLACK
6
CONTINUOUS
10
102.049
20
-131.451
11
102.049
21
-129.549
0
LINE
8
BLACK
6
CONTINUOUS
10
102.049
20
-129.549
11
103.951
21
-129.549
0
LINE
8
BLACK
6
CONTINUOUS
10
103.951
20
-129.549
11
103.951
21
-131.451
0
LINE
8
BLACK
6
CONTINUOUS
10
115.066
20
-128.821
11
115.119
21
-128.831
0
LINE
8
BLACK
6
CONTINUOUS
10
115.119
20
-128.831
11
115.193
21
-128.862
0
LINE
8
BLACK
6
CONTINUOUS
10
115.193
20
-128.862
11
115.26
21
-128.907
0
LINE
8
BLACK
6
CONTINUOUS
10
115.26
20
-128.907
11
115.316
21
-128.963
0
LINE
8
BLACK
6
CONTINUOUS
10
115.316
20
-128.963
11
115.361
21
-129.03
0
LINE
8
BLACK
6
CONTINUOUS
10
115.361
20
-129.03
11
115.392
21
-129.104
0
LINE
8
BLACK
6
CONTINUOUS
10
115.392
20
-129.104
11
115.407
21
-129.183
0
LINE
8
BLACK
6
CONTINUOUS
10
115.407
20
-129.183
11
115.407
21
-129.263
0
LINE
8
BLACK
6
CONTINUOUS
10
115.407
20
-129.263
11
115.392
21
-129.342
0
LINE
8
BLACK
6
CONTINUOUS
10
115.392
20
-129.342
11
115.361
21
-129.416
0
LINE
8
BLACK
6
CONTINUOUS
10
115.361
20
-129.416
11
115.316
21
-129.482
0
LINE
8
BLACK
6
CONTINUOUS
10
115.316
20
-129.482
11
115.26
21
-129.539
0
LINE
8
BLACK
6
CONTINUOUS
10
115.26
20
-129.539
11
115.193
21
-129.584
0
LINE
8
BLACK
6
CONTINUOUS
10
115.193
20
-129.584
11
115.119
21
-129.614
0
LINE
8
BLACK
6
CONTINUOUS
10
115.119
20
-129.614
11
115.066
21
-129.625
0
LINE
8
BLACK
6
CONTINUOUS
10
115.066
20
-129.625
11
115.04
21
-129.63
0
LINE
8
BLACK
6
CONTINUOUS
10
115.04
20
-129.63
11
114.96
21
-129.63
0
LINE
8
BLACK
6
CONTINUOUS
10
114.96
20
-129.63
11
114.934
21
-129.625
0
LINE
8
BLACK
6
CONTINUOUS
10
114.934
20
-129.625
11
114.881
21
-129.614
0
LINE
8
BLACK
6
CONTINUOUS
10
114.881
20
-129.614
11
114.807
21
-129.584
0
LINE
8
BLACK
6
CONTINUOUS
10
114.807
20
-129.584
11
114.74
21
-129.539
0
LINE
8
BLACK
6
CONTINUOUS
10
114.74
20
-129.539
11
114.684
21
-129.482
0
LINE
8
BLACK
6
CONTINUOUS
10
114.684
20
-129.482
11
114.639
21
-129.416
0
LINE
8
BLACK
6
CONTINUOUS
10
114.639
20
-129.416
11
114.608
21
-129.342
0
LINE
8
BLACK
6
CONTINUOUS
10
114.608
20
-129.342
11
114.593
21
-129.263
0
LINE
8
BLACK
6
CONTINUOUS
10
114.593
20
-129.263
11
114.593
21
-129.183
0
LINE
8
BLACK
6
CONTINUOUS
10
114.593
20
-129.183
11
114.608
21
-129.104
0
LINE
8
BLACK
6
CONTINUOUS
10
114.608
20
-129.104
11
114.639
21
-129.03
0
LINE
8
BLACK
6
CONTINUOUS
10
114.639
20
-129.03
11
114.684
21
-128.963
0
LINE
8
BLACK
6
CONTINUOUS
10
114.684
20
-128.963
11
114.74
21
-128.907
0
LINE
8
BLACK
6
CONTINUOUS
10
114.74
20
-128.907
11
114.807
21
-128.862
0
LINE
8
BLACK
6
CONTINUOUS
10
114.807
20
-128.862
11
114.881
21
-128.831
0
LINE
8
BLACK
6
CONTINUOUS
10
114.881
20
-128.831
11
114.934
21
-128.821
0
LINE
8
BLACK
6
CONTINUOUS
10
114.934
20
-128.821
11
114.96
21
-128.816
0
LINE
8
BLACK
6
CONTINUOUS
10
114.96
20
-128.816
11
115.04
21
-128.816
0
LINE
8
BLACK
6
CONTINUOUS
10
115.04
20
-128.816
11
115.066
21
-128.821
0
LINE
8
BLACK
6
CONTINUOUS
10
103.277
20
-127.086
11
103.45
21
-127.157
0
LINE
8
BLACK
6
CONTINUOUS
10
103.45
20
-127.157
11
103.466
21
-127.168
0
LINE
8
BLACK
6
CONTINUOUS
10
103.466
20
-127.168
11
103.606
21
-127.261
0
LINE
8
BLACK
6
CONTINUOUS
10
103.606
20
-127.261
11
103.739
21
-127.394
0
LINE
8
BLACK
6
CONTINUOUS
10
103.739
20
-127.394
11
103.739
21
-127.394
0
LINE
8
BLACK
6
CONTINUOUS
10
103.739
20
-127.394
11
103.843
21
-127.55
0
LINE
8
BLACK
6
CONTINUOUS
10
103.843
20
-127.55
11
103.914
21
-127.723
0
LINE
8
BLACK
6
CONTINUOUS
10
103.914
20
-127.723
11
103.951
21
-127.906
0
LINE
8
BLACK
6
CONTINUOUS
10
103.951
20
-127.906
11
103.951
21
-128.094
0
LINE
8
BLACK
6
CONTINUOUS
10
103.951
20
-128.094
11
103.914
21
-128.277
0
LINE
8
BLACK
6
CONTINUOUS
10
103.914
20
-128.277
11
103.843
21
-128.45
0
LINE
8
BLACK
6
CONTINUOUS
10
103.843
20
-128.45
11
103.843
21
-128.45
0
LINE
8
BLACK
6
CONTINUOUS
10
103.843
20
-128.45
11
103.739
21
-128.606
0
LINE
8
BLACK
6
CONTINUOUS
10
103.739
20
-128.606
11
103.606
21
-128.739
0
LINE
8
BLACK
6
CONTINUOUS
10
103.606
20
-128.739
11
103.528
21
-128.791
0
LINE
8
BLACK
6
CONTINUOUS
10
103.528
20
-128.791
11
103.45
21
-128.843
0
LINE
8
BLACK
6
CONTINUOUS
10
103.45
20
-128.843
11
103.277
21
-128.914
0
LINE
8
BLACK
6
CONTINUOUS
10
103.277
20
-128.914
11
103.094
21
-128.951
0
LINE
8
BLACK
6
CONTINUOUS
10
103.094
20
-128.951
11
102.906
21
-128.951
0
LINE
8
BLACK
6
CONTINUOUS
10
102.906
20
-128.951
11
102.723
21
-128.914
0
LINE
8
BLACK
6
CONTINUOUS
10
102.723
20
-128.914
11
102.55
21
-128.843
0
LINE
8
BLACK
6
CONTINUOUS
10
102.55
20
-128.843
11
102.472
21
-128.791
0
LINE
8
BLACK
6
CONTINUOUS
10
102.472
20
-128.791
11
102.394
21
-128.739
0
LINE
8
BLACK
6
CONTINUOUS
10
102.394
20
-128.739
11
102.261
21
-128.606
0
LINE
8
BLACK
6
CONTINUOUS
10
102.261
20
-128.606
11
102.157
21
-128.45
0
LINE
8
BLACK
6
CONTINUOUS
10
102.157
20
-128.45
11
102.157
21
-128.45
0
LINE
8
BLACK
6
CONTINUOUS
10
102.157
20
-128.45
11
102.086
21
-128.277
0
LINE
8
BLACK
6
CONTINUOUS
10
102.086
20
-128.277
11
102.049
21
-128.094
0
LINE
8
BLACK
6
CONTINUOUS
10
102.049
20
-128.094
11
102.049
21
-127.906
0
LINE
8
BLACK
6
CONTINUOUS
10
102.049
20
-127.906
11
102.086
21
-127.723
0
LINE
8
BLACK
6
CONTINUOUS
10
102.086
20
-127.723
11
102.157
21
-127.55
0
LINE
8
BLACK
6
CONTINUOUS
10
102.157
20
-127.55
11
102.261
21
-127.394
0
LINE
8
BLACK
6
CONTINUOUS
10
102.261
20
-127.394
11
102.261
21
-127.394
0
LINE
8
BLACK
6
CONTINUOUS
10
102.261
20
-127.394
11
102.394
21
-127.261
0
LINE
8
BLACK
6
CONTINUOUS
10
102.394
20
-127.261
11
102.534
21
-127.168
0
LINE
8
BLACK
6
CONTINUOUS
10
102.534
20
-127.168
11
102.55
21
-127.157
0
LINE
8
BLACK
6
CONTINUOUS
10
102.55
20
-127.157
11
102.723
21
-127.086
0
LINE
8
BLACK
6
CONTINUOUS
10
102.723
20
-127.086
11
102.906
21
-127.049
0
LINE
8
BLACK
6
CONTINUOUS
10
102.906
20
-127.049
11
103.094
21
-127.049
0
LINE
8
BLACK
6
CONTINUOUS
10
103.094
20
-127.049
11
103.277
21
-127.086
0
LINE
8
BLACK
6
CONTINUOUS
10
116.074
20
-127.813
11
116.126
21
-127.824
0
LINE
8
BLACK
6
CONTINUOUS
10
116.126
20
-127.824
11
116.201
21
-127.854
0
LINE
8
BLACK
6
CONTINUOUS
10
116.201
20
-127.854
11
116.267
21
-127.899
0
LINE
8
BLACK
6
CONTINUOUS
10
116.267
20
-127.899
11
116.324
21
-127.956
0
LINE
8
BLACK
6
CONTINUOUS
10
116.324
20
-127.956
11
116.369
21
-128.022
0
LINE
8
BLACK
6
CONTINUOUS
10
116.369
20
-128.022
11
116.399
21
-128.096
0
LINE
8
BLACK
6
CONTINUOUS
10
116.399
20
-128.096
11
116.415
21
-128.175
0
LINE
8
BLACK
6
CONTINUOUS
10
116.415
20
-128.175
11
116.415
21
-128.255
0
LINE
8
BLACK
6
CONTINUOUS
10
116.415
20
-128.255
11
116.399
21
-128.334
0
LINE
8
BLACK
6
CONTINUOUS
10
116.399
20
-128.334
11
116.369
21
-128.408
0
LINE
8
BLACK
6
CONTINUOUS
10
116.369
20
-128.408
11
116.324
21
-128.475
0
LINE
8
BLACK
6
CONTINUOUS
10
116.324
20
-128.475
11
116.267
21
-128.532
0
LINE
8
BLACK
6
CONTINUOUS
10
116.267
20
-128.532
11
116.201
21
-128.576
0
LINE
8
BLACK
6
CONTINUOUS
10
116.201
20
-128.576
11
116.126
21
-128.607
0
LINE
8
BLACK
6
CONTINUOUS
10
116.126
20
-128.607
11
116.074
21
-128.617
0
LINE
8
BLACK
6
CONTINUOUS
10
116.074
20
-128.617
11
116.048
21
-128.623
0
LINE
8
BLACK
6
CONTINUOUS
10
116.048
20
-128.623
11
115.968
21
-128.623
0
LINE
8
BLACK
6
CONTINUOUS
10
115.968
20
-128.623
11
115.941
21
-128.617
0
LINE
8
BLACK
6
CONTINUOUS
10
115.941
20
-128.617
11
115.889
21
-128.607
0
LINE
8
BLACK
6
CONTINUOUS
10
115.889
20
-128.607
11
115.815
21
-128.576
0
LINE
8
BLACK
6
CONTINUOUS
10
115.815
20
-128.576
11
115.748
21
-128.532
0
LINE
8
BLACK
6
CONTINUOUS
10
115.748
20
-128.532
11
115.691
21
-128.475
0
LINE
8
BLACK
6
CONTINUOUS
10
115.691
20
-128.475
11
115.647
21
-128.408
0
LINE
8
BLACK
6
CONTINUOUS
10
115.647
20
-128.408
11
115.616
21
-128.334
0
LINE
8
BLACK
6
CONTINUOUS
10
115.616
20
-128.334
11
115.6
21
-128.255
0
LINE
8
BLACK
6
CONTINUOUS
10
115.6
20
-128.255
11
115.6
21
-128.175
0
LINE
8
BLACK
6
CONTINUOUS
10
115.6
20
-128.175
11
115.616
21
-128.096
0
LINE
8
BLACK
6
CONTINUOUS
10
115.616
20
-128.096
11
115.647
21
-128.022
0
LINE
8
BLACK
6
CONTINUOUS
10
115.647
20
-128.022
11
115.691
21
-127.956
0
LINE
8
BLACK
6
CONTINUOUS
10
115.691
20
-127.956
11
115.748
21
-127.899
0
LINE
8
BLACK
6
CONTINUOUS
10
115.748
20
-127.899
11
115.815
21
-127.854
0
LINE
8
BLACK
6
CONTINUOUS
10
115.815
20
-127.854
11
115.889
21
-127.824
0
LINE
8
BLACK
6
CONTINUOUS
10
115.889
20
-127.824
11
115.941
21
-127.813
0
LINE
8
BLACK
6
CONTINUOUS
10
115.941
20
-127.813
11
115.968
21
-127.808
0
LINE
8
BLACK
6
CONTINUOUS
10
115.968
20
-127.808
11
116.048
21
-127.808
0
LINE
8
BLACK
6
CONTINUOUS
10
116.048
20
-127.808
11
116.074
21
-127.813
0
LINE
8
BLACK
6
CONTINUOUS
10
114.059
20
-127.813
11
114.111
21
-127.824
0
LINE
8
BLACK
6
CONTINUOUS
10
114.111
20
-127.824
11
114.185
21
-127.854
0
LINE
8
BLACK
6
CONTINUOUS
10
114.185
20
-127.854
11
114.252
21
-127.899
0
LINE
8
BLACK
6
CONTINUOUS
10
114.252
20
-127.899
11
114.309
21
-127.956
0
LINE
8
BLACK
6
CONTINUOUS
10
114.309
20
-127.956
11
114.353
21
-128.022
0
LINE
8
BLACK
6
CONTINUOUS
10
114.353
20
-128.022
11
114.384
21
-128.096
0
LINE
8
BLACK
6
CONTINUOUS
10
114.384
20
-128.096
11
114.4
21
-128.175
0
LINE
8
BLACK
6
CONTINUOUS
10
114.4
20
-128.175
11
114.4
21
-128.255
0
LINE
8
BLACK
6
CONTINUOUS
10
114.4
20
-128.255
11
114.384
21
-128.334
0
LINE
8
BLACK
6
CONTINUOUS
10
114.384
20
-128.334
11
114.353
21
-128.408
0
LINE
8
BLACK
6
CONTINUOUS
10
114.353
20
-128.408
11
114.309
21
-128.475
0
LINE
8
BLACK
6
CONTINUOUS
10
114.309
20
-128.475
11
114.252
21
-128.532
0
LINE
8
BLACK
6
CONTINUOUS
10
114.252
20
-128.532
11
114.185
21
-128.576
0
LINE
8
BLACK
6
CONTINUOUS
10
114.185
20
-128.576
11
114.111
21
-128.607
0
LINE
8
BLACK
6
CONTINUOUS
10
114.111
20
-128.607
11
114.059
21
-128.617
0
LINE
8
BLACK
6
CONTINUOUS
10
114.059
20
-128.617
11
114.032
21
-128.623
0
LINE
8
BLACK
6
CONTINUOUS
10
114.032
20
-128.623
11
113.952
21
-128.623
0
LINE
8
BLACK
6
CONTINUOUS
10
113.952
20
-128.623
11
113.926
21
-128.617
0
LINE
8
BLACK
6
CONTINUOUS
10
113.926
20
-128.617
11
113.874
21
-128.607
0
LINE
8
BLACK
6
CONTINUOUS
10
113.874
20
-128.607
11
113.799
21
-128.576
0
LINE
8
BLACK
6
CONTINUOUS
10
113.799
20
-128.576
11
113.733
21
-128.532
0
LINE
8
BLACK
6
CONTINUOUS
10
113.733
20
-128.532
11
113.676
21
-128.475
0
LINE
8
BLACK
6
CONTINUOUS
10
113.676
20
-128.475
11
113.631
21
-128.408
0
LINE
8
BLACK
6
CONTINUOUS
10
113.631
20
-128.408
11
113.601
21
-128.334
0
LINE
8
BLACK
6
CONTINUOUS
10
113.601
20
-128.334
11
113.585
21
-128.255
0
LINE
8
BLACK
6
CONTINUOUS
10
113.585
20
-128.255
11
113.585
21
-128.175
0
LINE
8
BLACK
6
CONTINUOUS
10
113.585
20
-128.175
11
113.601
21
-128.096
0
LINE
8
BLACK
6
CONTINUOUS
10
113.601
20
-128.096
11
113.631
21
-128.022
0
LINE
8
BLACK
6
CONTINUOUS
10
113.631
20
-128.022
11
113.676
21
-127.956
0
LINE
8
BLACK
6
CONTINUOUS
10
113.676
20
-127.956
11
113.733
21
-127.899
0
LINE
8
BLACK
6
CONTINUOUS
10
113.733
20
-127.899
11
113.799
21
-127.854
0
LINE
8
BLACK
6
CONTINUOUS
10
113.799
20
-127.854
11
113.874
21
-127.824
0
LINE
8
BLACK
6
CONTINUOUS
10
113.874
20
-127.824
11
113.926
21
-127.813
0
LINE
8
BLACK
6
CONTINUOUS
10
113.926
20
-127.813
11
113.952
21
-127.808
0
LINE
8
BLACK
6
CONTINUOUS
10
113.952
20
-127.808
11
114.032
21
-127.808
0
LINE
8
BLACK
6
CONTINUOUS
10
114.032
20
-127.808
11
114.059
21
-127.813
0
LINE
8
BLACK
6
CONTINUOUS
10
115.066
20
-126.806
11
115.119
21
-126.816
0
LINE
8
BLACK
6
CONTINUOUS
10
115.119
20
-126.816
11
115.193
21
-126.847
0
LINE
8
BLACK
6
CONTINUOUS
10
115.193
20
-126.847
11
115.26
21
-126.891
0
LINE
8
BLACK
6
CONTINUOUS
10
115.26
20
-126.891
11
115.316
21
-126.948
0
LINE
8
BLACK
6
CONTINUOUS
10
115.316
20
-126.948
11
115.361
21
-127.015
0
LINE
8
BLACK
6
CONTINUOUS
10
115.361
20
-127.015
11
115.392
21
-127.089
0
LINE
8
BLACK
6
CONTINUOUS
10
115.392
20
-127.089
11
115.392
21
-127.089
0
LINE
8
BLACK
6
CONTINUOUS
10
115.392
20
-127.089
11
115.407
21
-127.168
0
LINE
8
BLACK
6
CONTINUOUS
10
115.407
20
-127.168
11
115.407
21
-127.248
0
LINE
8
BLACK
6
CONTINUOUS
10
115.407
20
-127.248
11
115.402
21
-127.274
0
LINE
8
BLACK
6
CONTINUOUS
10
115.402
20
-127.274
11
115.392
21
-127.326
0
LINE
8
BLACK
6
CONTINUOUS
10
115.392
20
-127.326
11
115.361
21
-127.401
0
LINE
8
BLACK
6
CONTINUOUS
10
115.361
20
-127.401
11
115.316
21
-127.467
0
LINE
8
BLACK
6
CONTINUOUS
10
115.316
20
-127.467
11
115.26
21
-127.524
0
LINE
8
BLACK
6
CONTINUOUS
10
115.26
20
-127.524
11
115.193
21
-127.569
0
LINE
8
BLACK
6
CONTINUOUS
10
115.193
20
-127.569
11
115.119
21
-127.599
0
LINE
8
BLACK
6
CONTINUOUS
10
115.119
20
-127.599
11
115.066
21
-127.61
0
LINE
8
BLACK
6
CONTINUOUS
10
115.066
20
-127.61
11
115.04
21
-127.615
0
LINE
8
BLACK
6
CONTINUOUS
10
115.04
20
-127.615
11
114.96
21
-127.615
0
LINE
8
BLACK
6
CONTINUOUS
10
114.96
20
-127.615
11
114.934
21
-127.61
0
LINE
8
BLACK
6
CONTINUOUS
10
114.934
20
-127.61
11
114.881
21
-127.599
0
LINE
8
BLACK
6
CONTINUOUS
10
114.881
20
-127.599
11
114.807
21
-127.569
0
LINE
8
BLACK
6
CONTINUOUS
10
114.807
20
-127.569
11
114.74
21
-127.524
0
LINE
8
BLACK
6
CONTINUOUS
10
114.74
20
-127.524
11
114.684
21
-127.467
0
LINE
8
BLACK
6
CONTINUOUS
10
114.684
20
-127.467
11
114.639
21
-127.401
0
LINE
8
BLACK
6
CONTINUOUS
10
114.639
20
-127.401
11
114.608
21
-127.326
0
LINE
8
BLACK
6
CONTINUOUS
10
114.608
20
-127.326
11
114.598
21
-127.274
0
LINE
8
BLACK
6
CONTINUOUS
10
114.598
20
-127.274
11
114.593
21
-127.248
0
LINE
8
BLACK
6
CONTINUOUS
10
114.593
20
-127.248
11
114.593
21
-127.168
0
LINE
8
BLACK
6
CONTINUOUS
10
114.593
20
-127.168
11
114.608
21
-127.089
0
LINE
8
BLACK
6
CONTINUOUS
10
114.608
20
-127.089
11
114.608
21
-127.089
0
LINE
8
BLACK
6
CONTINUOUS
10
114.608
20
-127.089
11
114.639
21
-127.015
0
LINE
8
BLACK
6
CONTINUOUS
10
114.639
20
-127.015
11
114.684
21
-126.948
0
LINE
8
BLACK
6
CONTINUOUS
10
114.684
20
-126.948
11
114.74
21
-126.891
0
LINE
8
BLACK
6
CONTINUOUS
10
114.74
20
-126.891
11
114.807
21
-126.847
0
LINE
8
BLACK
6
CONTINUOUS
10
114.807
20
-126.847
11
114.881
21
-126.816
0
LINE
8
BLACK
6
CONTINUOUS
10
114.881
20
-126.816
11
114.934
21
-126.806
0
LINE
8
BLACK
6
CONTINUOUS
10
114.934
20
-126.806
11
114.96
21
-126.8
0
LINE
8
BLACK
6
CONTINUOUS
10
114.96
20
-126.8
11
115.04
21
-126.8
0
LINE
8
BLACK
6
CONTINUOUS
10
115.04
20
-126.8
11
115.066
21
-126.806
0
LINE
8
BLACK
6
CONTINUOUS
10
117.082
20
-126.806
11
117.134
21
-126.816
0
LINE
8
BLACK
6
CONTINUOUS
10
117.134
20
-126.816
11
117.208
21
-126.847
0
LINE
8
BLACK
6
CONTINUOUS
10
117.208
20
-126.847
11
117.275
21
-126.891
0
LINE
8
BLACK
6
CONTINUOUS
10
117.275
20
-126.891
11
117.332
21
-126.948
0
LINE
8
BLACK
6
CONTINUOUS
10
117.332
20
-126.948
11
117.376
21
-127.015
0
LINE
8
BLACK
6
CONTINUOUS
10
117.376
20
-127.015
11
117.407
21
-127.089
0
LINE
8
BLACK
6
CONTINUOUS
10
117.407
20
-127.089
11
117.407
21
-127.089
0
LINE
8
BLACK
6
CONTINUOUS
10
117.407
20
-127.089
11
117.423
21
-127.168
0
LINE
8
BLACK
6
CONTINUOUS
10
117.423
20
-127.168
11
117.423
21
-127.248
0
LINE
8
BLACK
6
CONTINUOUS
10
117.423
20
-127.248
11
117.417
21
-127.274
0
LINE
8
BLACK
6
CONTINUOUS
10
117.417
20
-127.274
11
117.407
21
-127.326
0
LINE
8
BLACK
6
CONTINUOUS
10
117.407
20
-127.326
11
117.376
21
-127.401
0
LINE
8
BLACK
6
CONTINUOUS
10
117.376
20
-127.401
11
117.332
21
-127.467
0
LINE
8
BLACK
6
CONTINUOUS
10
117.332
20
-127.467
11
117.275
21
-127.524
0
LINE
8
BLACK
6
CONTINUOUS
10
117.275
20
-127.524
11
117.208
21
-127.569
0
LINE
8
BLACK
6
CONTINUOUS
10
117.208
20
-127.569
11
117.134
21
-127.599
0
LINE
8
BLACK
6
CONTINUOUS
10
117.134
20
-127.599
11
117.082
21
-127.61
0
LINE
8
BLACK
6
CONTINUOUS
10
117.082
20
-127.61
11
117.055
21
-127.615
0
LINE
8
BLACK
6
CONTINUOUS
10
117.055
20
-127.615
11
116.975
21
-127.615
0
LINE
8
BLACK
6
CONTINUOUS
10
116.975
20
-127.615
11
116.949
21
-127.61
0
LINE
8
BLACK
6
CONTINUOUS
10
116.949
20
-127.61
11
116.896
21
-127.599
0
LINE
8
BLACK
6
CONTINUOUS
10
116.896
20
-127.599
11
116.822
21
-127.569
0
LINE
8
BLACK
6
CONTINUOUS
10
116.822
20
-127.569
11
116.756
21
-127.524
0
LINE
8
BLACK
6
CONTINUOUS
10
116.756
20
-127.524
11
116.699
21
-127.467
0
LINE
8
BLACK
6
CONTINUOUS
10
116.699
20
-127.467
11
116.654
21
-127.401
0
LINE
8
BLACK
6
CONTINUOUS
10
116.654
20
-127.401
11
116.624
21
-127.326
0
LINE
8
BLACK
6
CONTINUOUS
10
116.624
20
-127.326
11
116.613
21
-127.274
0
LINE
8
BLACK
6
CONTINUOUS
10
116.613
20
-127.274
11
116.608
21
-127.248
0
LINE
8
BLACK
6
CONTINUOUS
10
116.608
20
-127.248
11
116.608
21
-127.168
0
LINE
8
BLACK
6
CONTINUOUS
10
116.608
20
-127.168
11
116.624
21
-127.089
0
LINE
8
BLACK
6
CONTINUOUS
10
116.624
20
-127.089
11
116.624
21
-127.089
0
LINE
8
BLACK
6
CONTINUOUS
10
116.624
20
-127.089
11
116.654
21
-127.015
0
LINE
8
BLACK
6
CONTINUOUS
10
116.654
20
-127.015
11
116.699
21
-126.948
0
LINE
8
BLACK
6
CONTINUOUS
10
116.699
20
-126.948
11
116.756
21
-126.891
0
LINE
8
BLACK
6
CONTINUOUS
10
116.756
20
-126.891
11
116.822
21
-126.847
0
LINE
8
BLACK
6
CONTINUOUS
10
116.822
20
-126.847
11
116.896
21
-126.816
0
LINE
8
BLACK
6
CONTINUOUS
10
116.896
20
-126.816
11
116.949
21
-126.806
0
LINE
8
BLACK
6
CONTINUOUS
10
116.949
20
-126.806
11
116.975
21
-126.8
0
LINE
8
BLACK
6
CONTINUOUS
10
116.975
20
-126.8
11
117.055
21
-126.8
0
LINE
8
BLACK
6
CONTINUOUS
10
117.055
20
-126.8
11
117.082
21
-126.806
0
LINE
8
BLACK
6
CONTINUOUS
10
113.051
20
-126.806
11
113.104
21
-126.816
0
LINE
8
BLACK
6
CONTINUOUS
10
113.104
20
-126.816
11
113.178
21
-126.847
0
LINE
8
BLACK
6
CONTINUOUS
10
113.178
20
-126.847
11
113.244
21
-126.891
0
LINE
8
BLACK
6
CONTINUOUS
10
113.244
20
-126.891
11
113.301
21
-126.948
0
LINE
8
BLACK
6
CONTINUOUS
10
113.301
20
-126.948
11
113.346
21
-127.015
0
LINE
8
BLACK
6
CONTINUOUS
10
113.346
20
-127.015
11
113.376
21
-127.089
0
LINE
8
BLACK
6
CONTINUOUS
10
113.376
20
-127.089
11
113.376
21
-127.089
0
LINE
8
BLACK
6
CONTINUOUS
10
113.376
20
-127.089
11
113.392
21
-127.168
0
LINE
8
BLACK
6
CONTINUOUS
10
113.392
20
-127.168
11
113.392
21
-127.248
0
LINE
8
BLACK
6
CONTINUOUS
10
113.392
20
-127.248
11
113.387
21
-127.274
0
LINE
8
BLACK
6
CONTINUOUS
10
113.387
20
-127.274
11
113.376
21
-127.326
0
LINE
8
BLACK
6
CONTINUOUS
10
113.376
20
-127.326
11
113.346
21
-127.401
0
LINE
8
BLACK
6
CONTINUOUS
10
113.346
20
-127.401
11
113.301
21
-127.467
0
LINE
8
BLACK
6
CONTINUOUS
10
113.301
20
-127.467
11
113.244
21
-127.524
0
LINE
8
BLACK
6
CONTINUOUS
10
113.244
20
-127.524
11
113.178
21
-127.569
0
LINE
8
BLACK
6
CONTINUOUS
10
113.178
20
-127.569
11
113.104
21
-127.599
0
LINE
8
BLACK
6
CONTINUOUS
10
113.104
20
-127.599
11
113.051
21
-127.61
0
LINE
8
BLACK
6
CONTINUOUS
10
113.051
20
-127.61
11
113.025
21
-127.615
0
LINE
8
BLACK
6
CONTINUOUS
10
113.025
20
-127.615
11
112.945
21
-127.615
0
LINE
8
BLACK
6
CONTINUOUS
10
112.945
20
-127.615
11
112.918
21
-127.61
0
LINE
8
BLACK
6
CONTINUOUS
10
112.918
20
-127.61
11
112.866
21
-127.599
0
LINE
8
BLACK
6
CONTINUOUS
10
112.866
20
-127.599
11
112.792
21
-127.569
0
LINE
8
BLACK
6
CONTINUOUS
10
112.792
20
-127.569
11
112.725
21
-127.524
0
LINE
8
BLACK
6
CONTINUOUS
10
112.725
20
-127.524
11
112.668
21
-127.467
0
LINE
8
BLACK
6
CONTINUOUS
10
112.668
20
-127.467
11
112.624
21
-127.401
0
LINE
8
BLACK
6
CONTINUOUS
10
112.624
20
-127.401
11
112.593
21
-127.326
0
LINE
8
BLACK
6
CONTINUOUS
10
112.593
20
-127.326
11
112.583
21
-127.274
0
LINE
8
BLACK
6
CONTINUOUS
10
112.583
20
-127.274
11
112.577
21
-127.248
0
LINE
8
BLACK
6
CONTINUOUS
10
112.577
20
-127.248
11
112.577
21
-127.168
0
LINE
8
BLACK
6
CONTINUOUS
10
112.577
20
-127.168
11
112.593
21
-127.089
0
LINE
8
BLACK
6
CONTINUOUS
10
112.593
20
-127.089
11
112.593
21
-127.089
0
LINE
8
BLACK
6
CONTINUOUS
10
112.593
20
-127.089
11
112.624
21
-127.015
0
LINE
8
BLACK
6
CONTINUOUS
10
112.624
20
-127.015
11
112.668
21
-126.948
0
LINE
8
BLACK
6
CONTINUOUS
10
112.668
20
-126.948
11
112.725
21
-126.891
0
LINE
8
BLACK
6
CONTINUOUS
10
112.725
20
-126.891
11
112.792
21
-126.847
0
LINE
8
BLACK
6
CONTINUOUS
10
112.792
20
-126.847
11
112.866
21
-126.816
0
LINE
8
BLACK
6
CONTINUOUS
10
112.866
20
-126.816
11
112.918
21
-126.806
0
LINE
8
BLACK
6
CONTINUOUS
10
112.918
20
-126.806
11
112.945
21
-126.8
0
LINE
8
BLACK
6
CONTINUOUS
10
112.945
20
-126.8
11
113.025
21
-126.8
0
LINE
8
BLACK
6
CONTINUOUS
10
113.025
20
-126.8
11
113.051
21
-126.806
0
LINE
8
BLACK
6
CONTINUOUS
10
116.074
20
-125.798
11
116.126
21
-125.808
0
LINE
8
BLACK
6
CONTINUOUS
10
116.126
20
-125.808
11
116.201
21
-125.839
0
LINE
8
BLACK
6
CONTINUOUS
10
116.201
20
-125.839
11
116.267
21
-125.884
0
LINE
8
BLACK
6
CONTINUOUS
10
116.267
20
-125.884
11
116.324
21
-125.94
0
LINE
8
BLACK
6
CONTINUOUS
10
116.324
20
-125.94
11
116.369
21
-126.007
0
LINE
8
BLACK
6
CONTINUOUS
10
116.369
20
-126.007
11
116.399
21
-126.081
0
LINE
8
BLACK
6
CONTINUOUS
10
116.399
20
-126.081
11
116.415
21
-126.16
0
LINE
8
BLACK
6
CONTINUOUS
10
116.415
20
-126.16
11
116.415
21
-126.24
0
LINE
8
BLACK
6
CONTINUOUS
10
116.415
20
-126.24
11
116.399
21
-126.319
0
LINE
8
BLACK
6
CONTINUOUS
10
116.399
20
-126.319
11
116.369
21
-126.393
0
LINE
8
BLACK
6
CONTINUOUS
10
116.369
20
-126.393
11
116.324
21
-126.46
0
LINE
8
BLACK
6
CONTINUOUS
10
116.324
20
-126.46
11
116.267
21
-126.516
0
LINE
8
BLACK
6
CONTINUOUS
10
116.267
20
-126.516
11
116.201
21
-126.561
0
LINE
8
BLACK
6
CONTINUOUS
10
116.201
20
-126.561
11
116.126
21
-126.592
0
LINE
8
BLACK
6
CONTINUOUS
10
116.126
20
-126.592
11
116.074
21
-126.602
0
LINE
8
BLACK
6
CONTINUOUS
10
116.074
20
-126.602
11
116.048
21
-126.607
0
LINE
8
BLACK
6
CONTINUOUS
10
116.048
20
-126.607
11
115.968
21
-126.607
0
LINE
8
BLACK
6
CONTINUOUS
10
115.968
20
-126.607
11
115.941
21
-126.602
0
LINE
8
BLACK
6
CONTINUOUS
10
115.941
20
-126.602
11
115.889
21
-126.592
0
LINE
8
BLACK
6
CONTINUOUS
10
115.889
20
-126.592
11
115.815
21
-126.561
0
LINE
8
BLACK
6
CONTINUOUS
10
115.815
20
-126.561
11
115.748
21
-126.516
0
LINE
8
BLACK
6
CONTINUOUS
10
115.748
20
-126.516
11
115.691
21
-126.46
0
LINE
8
BLACK
6
CONTINUOUS
10
115.691
20
-126.46
11
115.647
21
-126.393
0
LINE
8
BLACK
6
CONTINUOUS
10
115.647
20
-126.393
11
115.616
21
-126.319
0
LINE
8
BLACK
6
CONTINUOUS
10
115.616
20
-126.319
11
115.6
21
-126.24
0
LINE
8
BLACK
6
CONTINUOUS
10
115.6
20
-126.24
11
115.6
21
-126.16
0
LINE
8
BLACK
6
CONTINUOUS
10
115.6
20
-126.16
11
115.616
21
-126.081
0
LINE
8
BLACK
6
CONTINUOUS
10
115.616
20
-126.081
11
115.647
21
-126.007
0
LINE
8
BLACK
6
CONTINUOUS
10
115.647
20
-126.007
11
115.691
21
-125.94
0
LINE
8
BLACK
6
CONTINUOUS
10
115.691
20
-125.94
11
115.748
21
-125.884
0
LINE
8
BLACK
6
CONTINUOUS
10
115.748
20
-125.884
11
115.815
21
-125.839
0
LINE
8
BLACK
6
CONTINUOUS
10
115.815
20
-125.839
11
115.889
21
-125.808
0
LINE
8
BLACK
6
CONTINUOUS
10
115.889
20
-125.808
11
115.941
21
-125.798
0
LINE
8
BLACK
6
CONTINUOUS
10
115.941
20
-125.798
11
115.968
21
-125.793
0
LINE
8
BLACK
6
CONTINUOUS
10
115.968
20
-125.793
11
116.048
21
-125.793
0
LINE
8
BLACK
6
CONTINUOUS
10
116.048
20
-125.793
11
116.074
21
-125.798
0
LINE
8
BLACK
6
CONTINUOUS
10
118.089
20
-125.798
11
118.142
21
-125.808
0
LINE
8
BLACK
6
CONTINUOUS
10
118.142
20
-125.808
11
118.216
21
-125.839
0
LINE
8
BLACK
6
CONTINUOUS
10
118.216
20
-125.839
11
118.282
21
-125.884
0
LINE
8
BLACK
6
CONTINUOUS
10
118.282
20
-125.884
11
118.339
21
-125.94
0
LINE
8
BLACK
6
CONTINUOUS
10
118.339
20
-125.94
11
118.384
21
-126.007
0
LINE
8
BLACK
6
CONTINUOUS
10
118.384
20
-126.007
11
118.414
21
-126.081
0
LINE
8
BLACK
6
CONTINUOUS
10
118.414
20
-126.081
11
118.43
21
-126.16
0
LINE
8
BLACK
6
CONTINUOUS
10
118.43
20
-126.16
11
118.43
21
-126.24
0
LINE
8
BLACK
6
CONTINUOUS
10
118.43
20
-126.24
11
118.414
21
-126.319
0
LINE
8
BLACK
6
CONTINUOUS
10
118.414
20
-126.319
11
118.384
21
-126.393
0
LINE
8
BLACK
6
CONTINUOUS
10
118.384
20
-126.393
11
118.339
21
-126.46
0
LINE
8
BLACK
6
CONTINUOUS
10
118.339
20
-126.46
11
118.282
21
-126.516
0
LINE
8
BLACK
6
CONTINUOUS
10
118.282
20
-126.516
11
118.216
21
-126.561
0
LINE
8
BLACK
6
CONTINUOUS
10
118.216
20
-126.561
11
118.142
21
-126.592
0
LINE
8
BLACK
6
CONTINUOUS
10
118.142
20
-126.592
11
118.089
21
-126.602
0
LINE
8
BLACK
6
CONTINUOUS
10
118.089
20
-126.602
11
118.063
21
-126.607
0
LINE
8
BLACK
6
CONTINUOUS
10
118.063
20
-126.607
11
117.983
21
-126.607
0
LINE
8
BLACK
6
CONTINUOUS
10
117.983
20
-126.607
11
117.957
21
-126.602
0
LINE
8
BLACK
6
CONTINUOUS
10
117.957
20
-126.602
11
117.904
21
-126.592
0
LINE
8
BLACK
6
CONTINUOUS
10
117.904
20
-126.592
11
117.83
21
-126.561
0
LINE
8
BLACK
6
CONTINUOUS
10
117.83
20
-126.561
11
117.763
21
-126.516
0
LINE
8
BLACK
6
CONTINUOUS
10
117.763
20
-126.516
11
117.707
21
-126.46
0
LINE
8
BLACK
6
CONTINUOUS
10
117.707
20
-126.46
11
117.662
21
-126.393
0
LINE
8
BLACK
6
CONTINUOUS
10
117.662
20
-126.393
11
117.631
21
-126.319
0
LINE
8
BLACK
6
CONTINUOUS
10
117.631
20
-126.319
11
117.616
21
-126.24
0
LINE
8
BLACK
6
CONTINUOUS
10
117.616
20
-126.24
11
117.616
21
-126.16
0
LINE
8
BLACK
6
CONTINUOUS
10
117.616
20
-126.16
11
117.631
21
-126.081
0
LINE
8
BLACK
6
CONTINUOUS
10
117.631
20
-126.081
11
117.662
21
-126.007
0
LINE
8
BLACK
6
CONTINUOUS
10
117.662
20
-126.007
11
117.707
21
-125.94
0
LINE
8
BLACK
6
CONTINUOUS
10
117.707
20
-125.94
11
117.763
21
-125.884
0
LINE
8
BLACK
6
CONTINUOUS
10
117.763
20
-125.884
11
117.83
21
-125.839
0
LINE
8
BLACK
6
CONTINUOUS
10
117.83
20
-125.839
11
117.904
21
-125.808
0
LINE
8
BLACK
6
CONTINUOUS
10
117.904
20
-125.808
11
117.957
21
-125.798
0
LINE
8
BLACK
6
CONTINUOUS
10
117.957
20
-125.798
11
117.983
21
-125.793
0
LINE
8
BLACK
6
CONTINUOUS
10
117.983
20
-125.793
11
118.063
21
-125.793
0
LINE
8
BLACK
6
CONTINUOUS
10
118.063
20
-125.793
11
118.089
21
-125.798
0
LINE
8
BLACK
6
CONTINUOUS
10
114.059
20
-125.798
11
114.111
21
-125.808
0
LINE
8
BLACK
6
CONTINUOUS
10
114.111
20
-125.808
11
114.185
21
-125.839
0
LINE
8
BLACK
6
CONTINUOUS
10
114.185
20
-125.839
11
114.252
21
-125.884
0
LINE
8
BLACK
6
CONTINUOUS
10
114.252
20
-125.884
11
114.309
21
-125.94
0
LINE
8
BLACK
6
CONTINUOUS
10
114.309
20
-125.94
11
114.353
21
-126.007
0
LINE
8
BLACK
6
CONTINUOUS
10
114.353
20
-126.007
11
114.384
21
-126.081
0
LINE
8
BLACK
6
CONTINUOUS
10
114.384
20
-126.081
11
114.4
21
-126.16
0
LINE
8
BLACK
6
CONTINUOUS
10
114.4
20
-126.16
11
114.4
21
-126.24
0
LINE
8
BLACK
6
CONTINUOUS
10
114.4
20
-126.24
11
114.384
21
-126.319
0
LINE
8
BLACK
6
CONTINUOUS
10
114.384
20
-126.319
11
114.353
21
-126.393
0
LINE
8
BLACK
6
CONTINUOUS
10
114.353
20
-126.393
11
114.309
21
-126.46
0
LINE
8
BLACK
6
CONTINUOUS
10
114.309
20
-126.46
11
114.252
21
-126.516
0
LINE
8
BLACK
6
CONTINUOUS
10
114.252
20
-126.516
11
114.185
21
-126.561
0
LINE
8
BLACK
6
CONTINUOUS
10
114.185
20
-126.561
11
114.111
21
-126.592
0
LINE
8
BLACK
6
CONTINUOUS
10
114.111
20
-126.592
11
114.059
21
-126.602
0
LINE
8
BLACK
6
CONTINUOUS
10
114.059
20
-126.602
11
114.032
21
-126.607
0
LINE
8
BLACK
6
CONTINUOUS
10
114.032
20
-126.607
11
113.952
21
-126.607
0
LINE
8
BLACK
6
CONTINUOUS
10
113.952
20
-126.607
11
113.926
21
-126.602
0
LINE
8
BLACK
6
CONTINUOUS
10
113.926
20
-126.602
11
113.874
21
-126.592
0
LINE
8
BLACK
6
CONTINUOUS
10
113.874
20
-126.592
11
113.799
21
-126.561
0
LINE
8
BLACK
6
CONTINUOUS
10
113.799
20
-126.561
11
113.733
21
-126.516
0
LINE
8
BLACK
6
CONTINUOUS
10
113.733
20
-126.516
11
113.676
21
-126.46
0
LINE
8
BLACK
6
CONTINUOUS
10
113.676
20
-126.46
11
113.631
21
-126.393
0
LINE
8
BLACK
6
CONTINUOUS
10
113.631
20
-126.393
11
113.601
21
-126.319
0
LINE
8
BLACK
6
CONTINUOUS
10
113.601
20
-126.319
11
113.585
21
-126.24
0
LINE
8
BLACK
6
CONTINUOUS
10
113.585
20
-126.24
11
113.585
21
-126.16
0
LINE
8
BLACK
6
CONTINUOUS
10
113.585
20
-126.16
11
113.601
21
-126.081
0
LINE
8
BLACK
6
CONTINUOUS
10
113.601
20
-126.081
11
113.631
21
-126.007
0
LINE
8
BLACK
6
CONTINUOUS
10
113.631
20
-126.007
11
113.676
21
-125.94
0
LINE
8
BLACK
6
CONTINUOUS
10
113.676
20
-125.94
11
113.733
21
-125.884
0
LINE
8
BLACK
6
CONTINUOUS
10
113.733
20
-125.884
11
113.799
21
-125.839
0
LINE
8
BLACK
6
CONTINUOUS
10
113.799
20
-125.839
11
113.874
21
-125.808
0
LINE
8
BLACK
6
CONTINUOUS
10
113.874
20
-125.808
11
113.926
21
-125.798
0
LINE
8
BLACK
6
CONTINUOUS
10
113.926
20
-125.798
11
113.952
21
-125.793
0
LINE
8
BLACK
6
CONTINUOUS
10
113.952
20
-125.793
11
114.032
21
-125.793
0
LINE
8
BLACK
6
CONTINUOUS
10
114.032
20
-125.793
11
114.059
21
-125.798
0
LINE
8
BLACK
6
CONTINUOUS
10
112.043
20
-125.798
11
112.096
21
-125.808
0
LINE
8
BLACK
6
CONTINUOUS
10
112.096
20
-125.808
11
112.17
21
-125.839
0
LINE
8
BLACK
6
CONTINUOUS
10
112.17
20
-125.839
11
112.237
21
-125.884
0
LINE
8
BLACK
6
CONTINUOUS
10
112.237
20
-125.884
11
112.293
21
-125.94
0
LINE
8
BLACK
6
CONTINUOUS
10
112.293
20
-125.94
11
112.338
21
-126.007
0
LINE
8
BLACK
6
CONTINUOUS
10
112.338
20
-126.007
11
112.369
21
-126.081
0
LINE
8
BLACK
6
CONTINUOUS
10
112.369
20
-126.081
11
112.384
21
-126.16
0
LINE
8
BLACK
6
CONTINUOUS
10
112.384
20
-126.16
11
112.384
21
-126.24
0
LINE
8
BLACK
6
CONTINUOUS
10
112.384
20
-126.24
11
112.369
21
-126.319
0
LINE
8
BLACK
6
CONTINUOUS
10
112.369
20
-126.319
11
112.338
21
-126.393
0
LINE
8
BLACK
6
CONTINUOUS
10
112.338
20
-126.393
11
112.293
21
-126.46
0
LINE
8
BLACK
6
CONTINUOUS
10
112.293
20
-126.46
11
112.237
21
-126.516
0
LINE
8
BLACK
6
CONTINUOUS
10
112.237
20
-126.516
11
112.17
21
-126.561
0
LINE
8
BLACK
6
CONTINUOUS
10
112.17
20
-126.561
11
112.096
21
-126.592
0
LINE
8
BLACK
6
CONTINUOUS
10
112.096
20
-126.592
11
112.043
21
-126.602
0
LINE
8
BLACK
6
CONTINUOUS
10
112.043
20
-126.602
11
112.017
21
-126.607
0
LINE
8
BLACK
6
CONTINUOUS
10
112.017
20
-126.607
11
111.937
21
-126.607
0
LINE
8
BLACK
6
CONTINUOUS
10
111.937
20
-126.607
11
111.911
21
-126.602
0
LINE
8
BLACK
6
CONTINUOUS
10
111.911
20
-126.602
11
111.858
21
-126.592
0
LINE
8
BLACK
6
CONTINUOUS
10
111.858
20
-126.592
11
111.784
21
-126.561
0
LINE
8
BLACK
6
CONTINUOUS
10
111.784
20
-126.561
11
111.718
21
-126.516
0
LINE
8
BLACK
6
CONTINUOUS
10
111.718
20
-126.516
11
111.661
21
-126.46
0
LINE
8
BLACK
6
CONTINUOUS
10
111.661
20
-126.46
11
111.616
21
-126.393
0
LINE
8
BLACK
6
CONTINUOUS
10
111.616
20
-126.393
11
111.586
21
-126.319
0
LINE
8
BLACK
6
CONTINUOUS
10
111.586
20
-126.319
11
111.57
21
-126.24
0
LINE
8
BLACK
6
CONTINUOUS
10
111.57
20
-126.24
11
111.57
21
-126.16
0
LINE
8
BLACK
6
CONTINUOUS
10
111.57
20
-126.16
11
111.586
21
-126.081
0
LINE
8
BLACK
6
CONTINUOUS
10
111.586
20
-126.081
11
111.616
21
-126.007
0
LINE
8
BLACK
6
CONTINUOUS
10
111.616
20
-126.007
11
111.661
21
-125.94
0
LINE
8
BLACK
6
CONTINUOUS
10
111.661
20
-125.94
11
111.718
21
-125.884
0
LINE
8
BLACK
6
CONTINUOUS
10
111.718
20
-125.884
11
111.784
21
-125.839
0
LINE
8
BLACK
6
CONTINUOUS
10
111.784
20
-125.839
11
111.858
21
-125.808
0
LINE
8
BLACK
6
CONTINUOUS
10
111.858
20
-125.808
11
111.911
21
-125.798
0
LINE
8
BLACK
6
CONTINUOUS
10
111.911
20
-125.798
11
111.937
21
-125.793
0
LINE
8
BLACK
6
CONTINUOUS
10
111.937
20
-125.793
11
112.017
21
-125.793
0
LINE
8
BLACK
6
CONTINUOUS
10
112.017
20
-125.793
11
112.043
21
-125.798
0
LINE
8
BLACK
6
CONTINUOUS
10
103.277
20
-124.586
11
103.45
21
-124.657
0
LINE
8
BLACK
6
CONTINUOUS
10
103.45
20
-124.657
11
103.45
21
-124.657
0
LINE
8
BLACK
6
CONTINUOUS
10
103.45
20
-124.657
11
103.606
21
-124.761
0
LINE
8
BLACK
6
CONTINUOUS
10
103.606
20
-124.761
11
103.739
21
-124.894
0
LINE
8
BLACK
6
CONTINUOUS
10
103.739
20
-124.894
11
103.739
21
-124.894
0
LINE
8
BLACK
6
CONTINUOUS
10
103.739
20
-124.894
11
103.843
21
-125.05
0
LINE
8
BLACK
6
CONTINUOUS
10
103.843
20
-125.05
11
103.914
21
-125.223
0
LINE
8
BLACK
6
CONTINUOUS
10
103.914
20
-125.223
11
103.951
21
-125.406
0
LINE
8
BLACK
6
CONTINUOUS
10
103.951
20
-125.406
11
103.951
21
-125.594
0
LINE
8
BLACK
6
CONTINUOUS
10
103.951
20
-125.594
11
103.914
21
-125.777
0
LINE
8
BLACK
6
CONTINUOUS
10
103.914
20
-125.777
11
103.843
21
-125.95
0
LINE
8
BLACK
6
CONTINUOUS
10
103.843
20
-125.95
11
103.843
21
-125.95
0
LINE
8
BLACK
6
CONTINUOUS
10
103.843
20
-125.95
11
103.739
21
-126.106
0
LINE
8
BLACK
6
CONTINUOUS
10
103.739
20
-126.106
11
103.606
21
-126.239
0
LINE
8
BLACK
6
CONTINUOUS
10
103.606
20
-126.239
11
103.528
21
-126.291
0
LINE
8
BLACK
6
CONTINUOUS
10
103.528
20
-126.291
11
103.45
21
-126.343
0
LINE
8
BLACK
6
CONTINUOUS
10
103.45
20
-126.343
11
103.277
21
-126.414
0
LINE
8
BLACK
6
CONTINUOUS
10
103.277
20
-126.414
11
103.094
21
-126.451
0
LINE
8
BLACK
6
CONTINUOUS
10
103.094
20
-126.451
11
102.906
21
-126.451
0
LINE
8
BLACK
6
CONTINUOUS
10
102.906
20
-126.451
11
102.723
21
-126.414
0
LINE
8
BLACK
6
CONTINUOUS
10
102.723
20
-126.414
11
102.55
21
-126.343
0
LINE
8
BLACK
6
CONTINUOUS
10
102.55
20
-126.343
11
102.472
21
-126.291
0
LINE
8
BLACK
6
CONTINUOUS
10
102.472
20
-126.291
11
102.394
21
-126.239
0
LINE
8
BLACK
6
CONTINUOUS
10
102.394
20
-126.239
11
102.261
21
-126.106
0
LINE
8
BLACK
6
CONTINUOUS
10
102.261
20
-126.106
11
102.157
21
-125.95
0
LINE
8
BLACK
6
CONTINUOUS
10
102.157
20
-125.95
11
102.157
21
-125.95
0
LINE
8
BLACK
6
CONTINUOUS
10
102.157
20
-125.95
11
102.086
21
-125.777
0
LINE
8
BLACK
6
CONTINUOUS
10
102.086
20
-125.777
11
102.049
21
-125.594
0
LINE
8
BLACK
6
CONTINUOUS
10
102.049
20
-125.594
11
102.049
21
-125.406
0
LINE
8
BLACK
6
CONTINUOUS
10
102.049
20
-125.406
11
102.086
21
-125.223
0
LINE
8
BLACK
6
CONTINUOUS
10
102.086
20
-125.223
11
102.157
21
-125.05
0
LINE
8
BLACK
6
CONTINUOUS
10
102.157
20
-125.05
11
102.261
21
-124.894
0
LINE
8
BLACK
6
CONTINUOUS
10
102.261
20
-124.894
11
102.261
21
-124.894
0
LINE
8
BLACK
6
CONTINUOUS
10
102.261
20
-124.894
11
102.394
21
-124.761
0
LINE
8
BLACK
6
CONTINUOUS
10
102.394
20
-124.761
11
102.55
21
-124.657
0
LINE
8
BLACK
6
CONTINUOUS
10
102.55
20
-124.657
11
102.55
21
-124.657
0
LINE
8
BLACK
6
CONTINUOUS
10
102.55
20
-124.657
11
102.723
21
-124.586
0
LINE
8
BLACK
6
CONTINUOUS
10
102.723
20
-124.586
11
102.906
21
-124.549
0
LINE
8
BLACK
6
CONTINUOUS
10
102.906
20
-124.549
11
103.094
21
-124.549
0
LINE
8
BLACK
6
CONTINUOUS
10
103.094
20
-124.549
11
103.277
21
-124.586
0
LINE
8
BLACK
6
CONTINUOUS
10
113.051
20
-124.79
11
113.104
21
-124.801
0
LINE
8
BLACK
6
CONTINUOUS
10
113.104
20
-124.801
11
113.178
21
-124.831
0
LINE
8
BLACK
6
CONTINUOUS
10
113.178
20
-124.831
11
113.244
21
-124.876
0
LINE
8
BLACK
6
CONTINUOUS
10
113.244
20
-124.876
11
113.301
21
-124.933
0
LINE
8
BLACK
6
CONTINUOUS
10
113.301
20
-124.933
11
113.346
21
-124.999
0
LINE
8
BLACK
6
CONTINUOUS
10
113.346
20
-124.999
11
113.376
21
-125.074
0
LINE
8
BLACK
6
CONTINUOUS
10
113.376
20
-125.074
11
113.392
21
-125.152
0
LINE
8
BLACK
6
CONTINUOUS
10
113.392
20
-125.152
11
113.392
21
-125.232
0
LINE
8
BLACK
6
CONTINUOUS
10
113.392
20
-125.232
11
113.376
21
-125.311
0
LINE
8
BLACK
6
CONTINUOUS
10
113.376
20
-125.311
11
113.346
21
-125.385
0
LINE
8
BLACK
6
CONTINUOUS
10
113.346
20
-125.385
11
113.301
21
-125.452
0
LINE
8
BLACK
6
CONTINUOUS
10
113.301
20
-125.452
11
113.244
21
-125.509
0
LINE
8
BLACK
6
CONTINUOUS
10
113.244
20
-125.509
11
113.178
21
-125.553
0
LINE
8
BLACK
6
CONTINUOUS
10
113.178
20
-125.553
11
113.104
21
-125.584
0
LINE
8
BLACK
6
CONTINUOUS
10
113.104
20
-125.584
11
113.055
21
-125.594
0
LINE
8
BLACK
6
CONTINUOUS
10
113.055
20
-125.594
11
113.025
21
-125.6
0
LINE
8
BLACK
6
CONTINUOUS
10
113.025
20
-125.6
11
112.945
21
-125.6
0
LINE
8
BLACK
6
CONTINUOUS
10
112.945
20
-125.6
11
112.915
21
-125.594
0
LINE
8
BLACK
6
CONTINUOUS
10
112.915
20
-125.594
11
112.866
21
-125.584
0
LINE
8
BLACK
6
CONTINUOUS
10
112.866
20
-125.584
11
112.792
21
-125.553
0
LINE
8
BLACK
6
CONTINUOUS
10
112.792
20
-125.553
11
112.725
21
-125.509
0
LINE
8
BLACK
6
CONTINUOUS
10
112.725
20
-125.509
11
112.668
21
-125.452
0
LINE
8
BLACK
6
CONTINUOUS
10
112.668
20
-125.452
11
112.624
21
-125.385
0
LINE
8
BLACK
6
CONTINUOUS
10
112.624
20
-125.385
11
112.593
21
-125.311
0
LINE
8
BLACK
6
CONTINUOUS
10
112.593
20
-125.311
11
112.577
21
-125.232
0
LINE
8
BLACK
6
CONTINUOUS
10
112.577
20
-125.232
11
112.577
21
-125.152
0
LINE
8
BLACK
6
CONTINUOUS
10
112.577
20
-125.152
11
112.593
21
-125.074
0
LINE
8
BLACK
6
CONTINUOUS
10
112.593
20
-125.074
11
112.624
21
-124.999
0
LINE
8
BLACK
6
CONTINUOUS
10
112.624
20
-124.999
11
112.668
21
-124.933
0
LINE
8
BLACK
6
CONTINUOUS
10
112.668
20
-124.933
11
112.725
21
-124.876
0
LINE
8
BLACK
6
CONTINUOUS
10
112.725
20
-124.876
11
112.792
21
-124.831
0
LINE
8
BLACK
6
CONTINUOUS
10
112.792
20
-124.831
11
112.866
21
-124.801
0
LINE
8
BLACK
6
CONTINUOUS
10
112.866
20
-124.801
11
112.918
21
-124.79
0
LINE
8
BLACK
6
CONTINUOUS
10
112.918
20
-124.79
11
112.945
21
-124.785
0
LINE
8
BLACK
6
CONTINUOUS
10
112.945
20
-124.785
11
113.025
21
-124.785
0
LINE
8
BLACK
6
CONTINUOUS
10
113.025
20
-124.785
11
113.051
21
-124.79
0
LINE
8
BLACK
6
CONTINUOUS
10
117.082
20
-124.79
11
117.134
21
-124.801
0
LINE
8
BLACK
6
CONTINUOUS
10
117.134
20
-124.801
11
117.208
21
-124.831
0
LINE
8
BLACK
6
CONTINUOUS
10
117.208
20
-124.831
11
117.275
21
-124.876
0
LINE
8
BLACK
6
CONTINUOUS
10
117.275
20
-124.876
11
117.332
21
-124.933
0
LINE
8
BLACK
6
CONTINUOUS
10
117.332
20
-124.933
11
117.376
21
-124.999
0
LINE
8
BLACK
6
CONTINUOUS
10
117.376
20
-124.999
11
117.407
21
-125.074
0
LINE
8
BLACK
6
CONTINUOUS
10
117.407
20
-125.074
11
117.423
21
-125.152
0
LINE
8
BLACK
6
CONTINUOUS
10
117.423
20
-125.152
11
117.423
21
-125.232
0
LINE
8
BLACK
6
CONTINUOUS
10
117.423
20
-125.232
11
117.407
21
-125.311
0
LINE
8
BLACK
6
CONTINUOUS
10
117.407
20
-125.311
11
117.376
21
-125.385
0
LINE
8
BLACK
6
CONTINUOUS
10
117.376
20
-125.385
11
117.332
21
-125.452
0
LINE
8
BLACK
6
CONTINUOUS
10
117.332
20
-125.452
11
117.275
21
-125.509
0
LINE
8
BLACK
6
CONTINUOUS
10
117.275
20
-125.509
11
117.208
21
-125.553
0
LINE
8
BLACK
6
CONTINUOUS
10
117.208
20
-125.553
11
117.134
21
-125.584
0
LINE
8
BLACK
6
CONTINUOUS
10
117.134
20
-125.584
11
117.085
21
-125.594
0
LINE
8
BLACK
6
CONTINUOUS
10
117.085
20
-125.594
11
117.055
21
-125.6
0
LINE
8
BLACK
6
CONTINUOUS
10
117.055
20
-125.6
11
116.975
21
-125.6
0
LINE
8
BLACK
6
CONTINUOUS
10
116.975
20
-125.6
11
116.945
21
-125.594
0
LINE
8
BLACK
6
CONTINUOUS
10
116.945
20
-125.594
11
116.896
21
-125.584
0
LINE
8
BLACK
6
CONTINUOUS
10
116.896
20
-125.584
11
116.822
21
-125.553
0
LINE
8
BLACK
6
CONTINUOUS
10
116.822
20
-125.553
11
116.756
21
-125.509
0
LINE
8
BLACK
6
CONTINUOUS
10
116.756
20
-125.509
11
116.699
21
-125.452
0
LINE
8
BLACK
6
CONTINUOUS
10
116.699
20
-125.452
11
116.654
21
-125.385
0
LINE
8
BLACK
6
CONTINUOUS
10
116.654
20
-125.385
11
116.624
21
-125.311
0
LINE
8
BLACK
6
CONTINUOUS
10
116.624
20
-125.311
11
116.608
21
-125.232
0
LINE
8
BLACK
6
CONTINUOUS
10
116.608
20
-125.232
11
116.608
21
-125.152
0
LINE
8
BLACK
6
CONTINUOUS
10
116.608
20
-125.152
11
116.624
21
-125.074
0
LINE
8
BLACK
6
CONTINUOUS
10
116.624
20
-125.074
11
116.654
21
-124.999
0
LINE
8
BLACK
6
CONTINUOUS
10
116.654
20
-124.999
11
116.699
21
-124.933
0
LINE
8
BLACK
6
CONTINUOUS
10
116.699
20
-124.933
11
116.756
21
-124.876
0
LINE
8
BLACK
6
CONTINUOUS
10
116.756
20
-124.876
11
116.822
21
-124.831
0
LINE
8
BLACK
6
CONTINUOUS
10
116.822
20
-124.831
11
116.896
21
-124.801
0
LINE
8
BLACK
6
CONTINUOUS
10
116.896
20
-124.801
11
116.949
21
-124.79
0
LINE
8
BLACK
6
CONTINUOUS
10
116.949
20
-124.79
11
116.975
21
-124.785
0
LINE
8
BLACK
6
CONTINUOUS
10
116.975
20
-124.785
11
117.055
21
-124.785
0
LINE
8
BLACK
6
CONTINUOUS
10
117.055
20
-124.785
11
117.082
21
-124.79
0
LINE
8
BLACK
6
CONTINUOUS
10
115.066
20
-124.79
11
115.119
21
-124.801
0
LINE
8
BLACK
6
CONTINUOUS
10
115.119
20
-124.801
11
115.193
21
-124.831
0
LINE
8
BLACK
6
CONTINUOUS
10
115.193
20
-124.831
11
115.26
21
-124.876
0
LINE
8
BLACK
6
CONTINUOUS
10
115.26
20
-124.876
11
115.316
21
-124.933
0
LINE
8
BLACK
6
CONTINUOUS
10
115.316
20
-124.933
11
115.361
21
-124.999
0
LINE
8
BLACK
6
CONTINUOUS
10
115.361
20
-124.999
11
115.392
21
-125.074
0
LINE
8
BLACK
6
CONTINUOUS
10
115.392
20
-125.074
11
115.407
21
-125.152
0
LINE
8
BLACK
6
CONTINUOUS
10
115.407
20
-125.152
11
115.407
21
-125.232
0
LINE
8
BLACK
6
CONTINUOUS
10
115.407
20
-125.232
11
115.392
21
-125.311
0
LINE
8
BLACK
6
CONTINUOUS
10
115.392
20
-125.311
11
115.361
21
-125.385
0
LINE
8
BLACK
6
CONTINUOUS
10
115.361
20
-125.385
11
115.316
21
-125.452
0
LINE
8
BLACK
6
CONTINUOUS
10
115.316
20
-125.452
11
115.26
21
-125.509
0
LINE
8
BLACK
6
CONTINUOUS
10
115.26
20
-125.509
11
115.193
21
-125.553
0
LINE
8
BLACK
6
CONTINUOUS
10
115.193
20
-125.553
11
115.119
21
-125.584
0
LINE
8
BLACK
6
CONTINUOUS
10
115.119
20
-125.584
11
115.07
21
-125.594
0
LINE
8
BLACK
6
CONTINUOUS
10
115.07
20
-125.594
11
115.04
21
-125.6
0
LINE
8
BLACK
6
CONTINUOUS
10
115.04
20
-125.6
11
114.96
21
-125.6
0
LINE
8
BLACK
6
CONTINUOUS
10
114.96
20
-125.6
11
114.93
21
-125.594
0
LINE
8
BLACK
6
CONTINUOUS
10
114.93
20
-125.594
11
114.881
21
-125.584
0
LINE
8
BLACK
6
CONTINUOUS
10
114.881
20
-125.584
11
114.807
21
-125.553
0
LINE
8
BLACK
6
CONTINUOUS
10
114.807
20
-125.553
11
114.74
21
-125.509
0
LINE
8
BLACK
6
CONTINUOUS
10
114.74
20
-125.509
11
114.684
21
-125.452
0
LINE
8
BLACK
6
CONTINUOUS
10
114.684
20
-125.452
11
114.639
21
-125.385
0
LINE
8
BLACK
6
CONTINUOUS
10
114.639
20
-125.385
11
114.608
21
-125.311
0
LINE
8
BLACK
6
CONTINUOUS
10
114.608
20
-125.311
11
114.593
21
-125.232
0
LINE
8
BLACK
6
CONTINUOUS
10
114.593
20
-125.232
11
114.593
21
-125.152
0
LINE
8
BLACK
6
CONTINUOUS
10
114.593
20
-125.152
11
114.608
21
-125.074
0
LINE
8
BLACK
6
CONTINUOUS
10
114.608
20
-125.074
11
114.639
21
-124.999
0
LINE
8
BLACK
6
CONTINUOUS
10
114.639
20
-124.999
11
114.684
21
-124.933
0
LINE
8
BLACK
6
CONTINUOUS
10
114.684
20
-124.933
11
114.74
21
-124.876
0
LINE
8
BLACK
6
CONTINUOUS
10
114.74
20
-124.876
11
114.807
21
-124.831
0
LINE
8
BLACK
6
CONTINUOUS
10
114.807
20
-124.831
11
114.881
21
-124.801
0
LINE
8
BLACK
6
CONTINUOUS
10
114.881
20
-124.801
11
114.934
21
-124.79
0
LINE
8
BLACK
6
CONTINUOUS
10
114.934
20
-124.79
11
114.96
21
-124.785
0
LINE
8
BLACK
6
CONTINUOUS
10
114.96
20
-124.785
11
115.04
21
-124.785
0
LINE
8
BLACK
6
CONTINUOUS
10
115.04
20
-124.785
11
115.066
21
-124.79
0
LINE
8
BLACK
6
CONTINUOUS
10
116.074
20
-123.783
11
116.126
21
-123.793
0
LINE
8
BLACK
6
CONTINUOUS
10
116.126
20
-123.793
11
116.201
21
-123.824
0
LINE
8
BLACK
6
CONTINUOUS
10
116.201
20
-123.824
11
116.267
21
-123.868
0
LINE
8
BLACK
6
CONTINUOUS
10
116.267
20
-123.868
11
116.324
21
-123.925
0
LINE
8
BLACK
6
CONTINUOUS
10
116.324
20
-123.925
11
116.369
21
-123.992
0
LINE
8
BLACK
6
CONTINUOUS
10
116.369
20
-123.992
11
116.399
21
-124.066
0
LINE
8
BLACK
6
CONTINUOUS
10
116.399
20
-124.066
11
116.415
21
-124.145
0
LINE
8
BLACK
6
CONTINUOUS
10
116.415
20
-124.145
11
116.415
21
-124.225
0
LINE
8
BLACK
6
CONTINUOUS
10
116.415
20
-124.225
11
116.399
21
-124.304
0
LINE
8
BLACK
6
CONTINUOUS
10
116.399
20
-124.304
11
116.369
21
-124.378
0
LINE
8
BLACK
6
CONTINUOUS
10
116.369
20
-124.378
11
116.324
21
-124.444
0
LINE
8
BLACK
6
CONTINUOUS
10
116.324
20
-124.444
11
116.267
21
-124.501
0
LINE
8
BLACK
6
CONTINUOUS
10
116.267
20
-124.501
11
116.201
21
-124.546
0
LINE
8
BLACK
6
CONTINUOUS
10
116.201
20
-124.546
11
116.126
21
-124.576
0
LINE
8
BLACK
6
CONTINUOUS
10
116.126
20
-124.576
11
116.08
21
-124.586
0
LINE
8
BLACK
6
CONTINUOUS
10
116.08
20
-124.586
11
116.048
21
-124.592
0
LINE
8
BLACK
6
CONTINUOUS
10
116.048
20
-124.592
11
115.968
21
-124.592
0
LINE
8
BLACK
6
CONTINUOUS
10
115.968
20
-124.592
11
115.935
21
-124.586
0
LINE
8
BLACK
6
CONTINUOUS
10
115.935
20
-124.586
11
115.889
21
-124.576
0
LINE
8
BLACK
6
CONTINUOUS
10
115.889
20
-124.576
11
115.815
21
-124.546
0
LINE
8
BLACK
6
CONTINUOUS
10
115.815
20
-124.546
11
115.748
21
-124.501
0
LINE
8
BLACK
6
CONTINUOUS
10
115.748
20
-124.501
11
115.691
21
-124.444
0
LINE
8
BLACK
6
CONTINUOUS
10
115.691
20
-124.444
11
115.647
21
-124.378
0
LINE
8
BLACK
6
CONTINUOUS
10
115.647
20
-124.378
11
115.616
21
-124.304
0
LINE
8
BLACK
6
CONTINUOUS
10
115.616
20
-124.304
11
115.6
21
-124.225
0
LINE
8
BLACK
6
CONTINUOUS
10
115.6
20
-124.225
11
115.6
21
-124.145
0
LINE
8
BLACK
6
CONTINUOUS
10
115.6
20
-124.145
11
115.616
21
-124.066
0
LINE
8
BLACK
6
CONTINUOUS
10
115.616
20
-124.066
11
115.647
21
-123.992
0
LINE
8
BLACK
6
CONTINUOUS
10
115.647
20
-123.992
11
115.691
21
-123.925
0
LINE
8
BLACK
6
CONTINUOUS
10
115.691
20
-123.925
11
115.748
21
-123.868
0
LINE
8
BLACK
6
CONTINUOUS
10
115.748
20
-123.868
11
115.815
21
-123.824
0
LINE
8
BLACK
6
CONTINUOUS
10
115.815
20
-123.824
11
115.889
21
-123.793
0
LINE
8
BLACK
6
CONTINUOUS
10
115.889
20
-123.793
11
115.941
21
-123.783
0
LINE
8
BLACK
6
CONTINUOUS
10
115.941
20
-123.783
11
115.968
21
-123.777
0
LINE
8
BLACK
6
CONTINUOUS
10
115.968
20
-123.777
11
116.048
21
-123.777
0
LINE
8
BLACK
6
CONTINUOUS
10
116.048
20
-123.777
11
116.074
21
-123.783
0
LINE
8
BLACK
6
CONTINUOUS
10
114.059
20
-123.783
11
114.111
21
-123.793
0
LINE
8
BLACK
6
CONTINUOUS
10
114.111
20
-123.793
11
114.185
21
-123.824
0
LINE
8
BLACK
6
CONTINUOUS
10
114.185
20
-123.824
11
114.252
21
-123.868
0
LINE
8
BLACK
6
CONTINUOUS
10
114.252
20
-123.868
11
114.309
21
-123.925
0
LINE
8
BLACK
6
CONTINUOUS
10
114.309
20
-123.925
11
114.353
21
-123.992
0
LINE
8
BLACK
6
CONTINUOUS
10
114.353
20
-123.992
11
114.384
21
-124.066
0
LINE
8
BLACK
6
CONTINUOUS
10
114.384
20
-124.066
11
114.4
21
-124.145
0
LINE
8
BLACK
6
CONTINUOUS
10
114.4
20
-124.145
11
114.4
21
-124.225
0
LINE
8
BLACK
6
CONTINUOUS
10
114.4
20
-124.225
11
114.384
21
-124.304
0
LINE
8
BLACK
6
CONTINUOUS
10
114.384
20
-124.304
11
114.353
21
-124.378
0
LINE
8
BLACK
6
CONTINUOUS
10
114.353
20
-124.378
11
114.309
21
-124.444
0
LINE
8
BLACK
6
CONTINUOUS
10
114.309
20
-124.444
11
114.252
21
-124.501
0
LINE
8
BLACK
6
CONTINUOUS
10
114.252
20
-124.501
11
114.185
21
-124.546
0
LINE
8
BLACK
6
CONTINUOUS
10
114.185
20
-124.546
11
114.111
21
-124.576
0
LINE
8
BLACK
6
CONTINUOUS
10
114.111
20
-124.576
11
114.065
21
-124.586
0
LINE
8
BLACK
6
CONTINUOUS
10
114.065
20
-124.586
11
114.032
21
-124.592
0
LINE
8
BLACK
6
CONTINUOUS
10
114.032
20
-124.592
11
113.952
21
-124.592
0
LINE
8
BLACK
6
CONTINUOUS
10
113.952
20
-124.592
11
113.92
21
-124.586
0
LINE
8
BLACK
6
CONTINUOUS
10
113.92
20
-124.586
11
113.874
21
-124.576
0
LINE
8
BLACK
6
CONTINUOUS
10
113.874
20
-124.576
11
113.799
21
-124.546
0
LINE
8
BLACK
6
CONTINUOUS
10
113.799
20
-124.546
11
113.733
21
-124.501
0
LINE
8
BLACK
6
CONTINUOUS
10
113.733
20
-124.501
11
113.676
21
-124.444
0
LINE
8
BLACK
6
CONTINUOUS
10
113.676
20
-124.444
11
113.631
21
-124.378
0
LINE
8
BLACK
6
CONTINUOUS
10
113.631
20
-124.378
11
113.601
21
-124.304
0
LINE
8
BLACK
6
CONTINUOUS
10
113.601
20
-124.304
11
113.585
21
-124.225
0
LINE
8
BLACK
6
CONTINUOUS
10
113.585
20
-124.225
11
113.585
21
-124.145
0
LINE
8
BLACK
6
CONTINUOUS
10
113.585
20
-124.145
11
113.601
21
-124.066
0
LINE
8
BLACK
6
CONTINUOUS
10
113.601
20
-124.066
11
113.631
21
-123.992
0
LINE
8
BLACK
6
CONTINUOUS
10
113.631
20
-123.992
11
113.676
21
-123.925
0
LINE
8
BLACK
6
CONTINUOUS
10
113.676
20
-123.925
11
113.733
21
-123.868
0
LINE
8
BLACK
6
CONTINUOUS
10
113.733
20
-123.868
11
113.799
21
-123.824
0
LINE
8
BLACK
6
CONTINUOUS
10
113.799
20
-123.824
11
113.874
21
-123.793
0
LINE
8
BLACK
6
CONTINUOUS
10
113.874
20
-123.793
11
113.926
21
-123.783
0
LINE
8
BLACK
6
CONTINUOUS
10
113.926
20
-123.783
11
113.952
21
-123.777
0
LINE
8
BLACK
6
CONTINUOUS
10
113.952
20
-123.777
11
114.032
21
-123.777
0
LINE
8
BLACK
6
CONTINUOUS
10
114.032
20
-123.777
11
114.059
21
-123.783
0
LINE
8
BLACK
6
CONTINUOUS
10
103.277
20
-122.086
11
103.45
21
-122.157
0
LINE
8
BLACK
6
CONTINUOUS
10
103.45
20
-122.157
11
103.45
21
-122.157
0
LINE
8
BLACK
6
CONTINUOUS
10
103.45
20
-122.157
11
103.606
21
-122.261
0
LINE
8
BLACK
6
CONTINUOUS
10
103.606
20
-122.261
11
103.739
21
-122.394
0
LINE
8
BLACK
6
CONTINUOUS
10
103.739
20
-122.394
11
103.739
21
-122.394
0
LINE
8
BLACK
6
CONTINUOUS
10
103.739
20
-122.394
11
103.843
21
-122.55
0
LINE
8
BLACK
6
CONTINUOUS
10
103.843
20
-122.55
11
103.914
21
-122.723
0
LINE
8
BLACK
6
CONTINUOUS
10
103.914
20
-122.723
11
103.951
21
-122.906
0
LINE
8
BLACK
6
CONTINUOUS
10
103.951
20
-122.906
11
103.951
21
-123.094
0
LINE
8
BLACK
6
CONTINUOUS
10
103.951
20
-123.094
11
103.914
21
-123.277
0
LINE
8
BLACK
6
CONTINUOUS
10
103.914
20
-123.277
11
103.843
21
-123.45
0
LINE
8
BLACK
6
CONTINUOUS
10
103.843
20
-123.45
11
103.843
21
-123.45
0
LINE
8
BLACK
6
CONTINUOUS
10
103.843
20
-123.45
11
103.739
21
-123.606
0
LINE
8
BLACK
6
CONTINUOUS
10
103.739
20
-123.606
11
103.606
21
-123.739
0
LINE
8
BLACK
6
CONTINUOUS
10
103.606
20
-123.739
11
103.548
21
-123.777
0
LINE
8
BLACK
6
CONTINUOUS
10
103.548
20
-123.777
11
103.45
21
-123.843
0
LINE
8
BLACK
6
CONTINUOUS
10
103.45
20
-123.843
11
103.277
21
-123.914
0
LINE
8
BLACK
6
CONTINUOUS
10
103.277
20
-123.914
11
103.094
21
-123.951
0
LINE
8
BLACK
6
CONTINUOUS
10
103.094
20
-123.951
11
102.906
21
-123.951
0
LINE
8
BLACK
6
CONTINUOUS
10
102.906
20
-123.951
11
102.723
21
-123.914
0
LINE
8
BLACK
6
CONTINUOUS
10
102.723
20
-123.914
11
102.55
21
-123.843
0
LINE
8
BLACK
6
CONTINUOUS
10
102.55
20
-123.843
11
102.452
21
-123.777
0
LINE
8
BLACK
6
CONTINUOUS
10
102.452
20
-123.777
11
102.394
21
-123.739
0
LINE
8
BLACK
6
CONTINUOUS
10
102.394
20
-123.739
11
102.261
21
-123.606
0
LINE
8
BLACK
6
CONTINUOUS
10
102.261
20
-123.606
11
102.157
21
-123.45
0
LINE
8
BLACK
6
CONTINUOUS
10
102.157
20
-123.45
11
102.157
21
-123.45
0
LINE
8
BLACK
6
CONTINUOUS
10
102.157
20
-123.45
11
102.086
21
-123.277
0
LINE
8
BLACK
6
CONTINUOUS
10
102.086
20
-123.277
11
102.049
21
-123.094
0
LINE
8
BLACK
6
CONTINUOUS
10
102.049
20
-123.094
11
102.049
21
-122.906
0
LINE
8
BLACK
6
CONTINUOUS
10
102.049
20
-122.906
11
102.086
21
-122.723
0
LINE
8
BLACK
6
CONTINUOUS
10
102.086
20
-122.723
11
102.157
21
-122.55
0
LINE
8
BLACK
6
CONTINUOUS
10
102.157
20
-122.55
11
102.261
21
-122.394
0
LINE
8
BLACK
6
CONTINUOUS
10
102.261
20
-122.394
11
102.261
21
-122.394
0
LINE
8
BLACK
6
CONTINUOUS
10
102.261
20
-122.394
11
102.394
21
-122.261
0
LINE
8
BLACK
6
CONTINUOUS
10
102.394
20
-122.261
11
102.55
21
-122.157
0
LINE
8
BLACK
6
CONTINUOUS
10
102.55
20
-122.157
11
102.55
21
-122.157
0
LINE
8
BLACK
6
CONTINUOUS
10
102.55
20
-122.157
11
102.723
21
-122.086
0
LINE
8
BLACK
6
CONTINUOUS
10
102.723
20
-122.086
11
102.906
21
-122.049
0
LINE
8
BLACK
6
CONTINUOUS
10
102.906
20
-122.049
11
103.094
21
-122.049
0
LINE
8
BLACK
6
CONTINUOUS
10
103.094
20
-122.049
11
103.277
21
-122.086
0
LINE
8
BLACK
6
CONTINUOUS
10
115.066
20
-122.775
11
115.119
21
-122.786
0
LINE
8
BLACK
6
CONTINUOUS
10
115.119
20
-122.786
11
115.193
21
-122.816
0
LINE
8
BLACK
6
CONTINUOUS
10
115.193
20
-122.816
11
115.26
21
-122.861
0
LINE
8
BLACK
6
CONTINUOUS
10
115.26
20
-122.861
11
115.316
21
-122.918
0
LINE
8
BLACK
6
CONTINUOUS
10
115.316
20
-122.918
11
115.361
21
-122.984
0
LINE
8
BLACK
6
CONTINUOUS
10
115.361
20
-122.984
11
115.392
21
-123.058
0
LINE
8
BLACK
6
CONTINUOUS
10
115.392
20
-123.058
11
115.407
21
-123.137
0
LINE
8
BLACK
6
CONTINUOUS
10
115.407
20
-123.137
11
115.407
21
-123.217
0
LINE
8
BLACK
6
CONTINUOUS
10
115.407
20
-123.217
11
115.392
21
-123.296
0
LINE
8
BLACK
6
CONTINUOUS
10
115.392
20
-123.296
11
115.361
21
-123.37
0
LINE
8
BLACK
6
CONTINUOUS
10
115.361
20
-123.37
11
115.316
21
-123.437
0
LINE
8
BLACK
6
CONTINUOUS
10
115.316
20
-123.437
11
115.26
21
-123.493
0
LINE
8
BLACK
6
CONTINUOUS
10
115.26
20
-123.493
11
115.193
21
-123.538
0
LINE
8
BLACK
6
CONTINUOUS
10
115.193
20
-123.538
11
115.119
21
-123.569
0
LINE
8
BLACK
6
CONTINUOUS
10
115.119
20
-123.569
11
115.066
21
-123.579
0
LINE
8
BLACK
6
CONTINUOUS
10
115.066
20
-123.579
11
115.04
21
-123.584
0
LINE
8
BLACK
6
CONTINUOUS
10
115.04
20
-123.584
11
114.96
21
-123.584
0
LINE
8
BLACK
6
CONTINUOUS
10
114.96
20
-123.584
11
114.934
21
-123.579
0
LINE
8
BLACK
6
CONTINUOUS
10
114.934
20
-123.579
11
114.881
21
-123.569
0
LINE
8
BLACK
6
CONTINUOUS
10
114.881
20
-123.569
11
114.807
21
-123.538
0
LINE
8
BLACK
6
CONTINUOUS
10
114.807
20
-123.538
11
114.74
21
-123.493
0
LINE
8
BLACK
6
CONTINUOUS
10
114.74
20
-123.493
11
114.684
21
-123.437
0
LINE
8
BLACK
6
CONTINUOUS
10
114.684
20
-123.437
11
114.639
21
-123.37
0
LINE
8
BLACK
6
CONTINUOUS
10
114.639
20
-123.37
11
114.608
21
-123.296
0
LINE
8
BLACK
6
CONTINUOUS
10
114.608
20
-123.296
11
114.593
21
-123.217
0
LINE
8
BLACK
6
CONTINUOUS
10
114.593
20
-123.217
11
114.593
21
-123.137
0
LINE
8
BLACK
6
CONTINUOUS
10
114.593
20
-123.137
11
114.608
21
-123.058
0
LINE
8
BLACK
6
CONTINUOUS
10
114.608
20
-123.058
11
114.639
21
-122.984
0
LINE
8
BLACK
6
CONTINUOUS
10
114.639
20
-122.984
11
114.684
21
-122.918
0
LINE
8
BLACK
6
CONTINUOUS
10
114.684
20
-122.918
11
114.74
21
-122.861
0
LINE
8
BLACK
6
CONTINUOUS
10
114.74
20
-122.861
11
114.807
21
-122.816
0
LINE
8
BLACK
6
CONTINUOUS
10
114.807
20
-122.816
11
114.881
21
-122.786
0
LINE
8
BLACK
6
CONTINUOUS
10
114.881
20
-122.786
11
114.934
21
-122.775
0
LINE
8
BLACK
6
CONTINUOUS
10
114.934
20
-122.775
11
114.96
21
-122.77
0
LINE
8
BLACK
6
CONTINUOUS
10
114.96
20
-122.77
11
115.04
21
-122.77
0
LINE
8
BLACK
6
CONTINUOUS
10
115.04
20
-122.77
11
115.066
21
-122.775
0
LINE
8
BLACK
6
CONTINUOUS
10
109.742
20
-122.032
11
109.763
21
-122.038
0
LINE
8
BLACK
6
CONTINUOUS
10
109.763
20
-122.038
11
109.782
21
-122.048
0
LINE
8
BLACK
6
CONTINUOUS
10
109.782
20
-122.048
11
109.798
21
-122.062
0
LINE
8
BLACK
6
CONTINUOUS
10
109.798
20
-122.062
11
109.812
21
-122.078
0
LINE
8
BLACK
6
CONTINUOUS
10
109.812
20
-122.078
11
109.822
21
-122.097
0
LINE
8
BLACK
6
CONTINUOUS
10
109.822
20
-122.097
11
109.828
21
-122.118
0
LINE
8
BLACK
6
CONTINUOUS
10
109.828
20
-122.118
11
109.831
21
-122.146
0
LINE
8
BLACK
6
CONTINUOUS
10
109.831
20
-122.146
11
109.831
21
-122.654
0
LINE
8
BLACK
6
CONTINUOUS
10
109.831
20
-122.654
11
109.828
21
-122.682
0
LINE
8
BLACK
6
CONTINUOUS
10
109.828
20
-122.682
11
109.822
21
-122.703
0
LINE
8
BLACK
6
CONTINUOUS
10
109.822
20
-122.703
11
109.812
21
-122.722
0
LINE
8
BLACK
6
CONTINUOUS
10
109.812
20
-122.722
11
109.798
21
-122.738
0
LINE
8
BLACK
6
CONTINUOUS
10
109.798
20
-122.738
11
109.782
21
-122.752
0
LINE
8
BLACK
6
CONTINUOUS
10
109.782
20
-122.752
11
109.763
21
-122.762
0
LINE
8
BLACK
6
CONTINUOUS
10
109.763
20
-122.762
11
109.742
21
-122.768
0
LINE
8
BLACK
6
CONTINUOUS
10
109.742
20
-122.768
11
109.714
21
-122.771
0
LINE
8
BLACK
6
CONTINUOUS
10
109.714
20
-122.771
11
109.256
21
-122.771
0
LINE
8
BLACK
6
CONTINUOUS
10
109.256
20
-122.771
11
109.228
21
-122.768
0
LINE
8
BLACK
6
CONTINUOUS
10
109.228
20
-122.768
11
109.207
21
-122.762
0
LINE
8
BLACK
6
CONTINUOUS
10
109.207
20
-122.762
11
109.188
21
-122.752
0
LINE
8
BLACK
6
CONTINUOUS
10
109.188
20
-122.752
11
109.172
21
-122.738
0
LINE
8
BLACK
6
CONTINUOUS
10
109.172
20
-122.738
11
109.158
21
-122.722
0
LINE
8
BLACK
6
CONTINUOUS
10
109.158
20
-122.722
11
109.148
21
-122.703
0
LINE
8
BLACK
6
CONTINUOUS
10
109.148
20
-122.703
11
109.142
21
-122.682
0
LINE
8
BLACK
6
CONTINUOUS
10
109.142
20
-122.682
11
109.139
21
-122.654
0
LINE
8
BLACK
6
CONTINUOUS
10
109.139
20
-122.654
11
109.139
21
-122.146
0
LINE
8
BLACK
6
CONTINUOUS
10
109.139
20
-122.146
11
109.142
21
-122.118
0
LINE
8
BLACK
6
CONTINUOUS
10
109.142
20
-122.118
11
109.148
21
-122.097
0
LINE
8
BLACK
6
CONTINUOUS
10
109.148
20
-122.097
11
109.158
21
-122.078
0
LINE
8
BLACK
6
CONTINUOUS
10
109.158
20
-122.078
11
109.172
21
-122.062
0
LINE
8
BLACK
6
CONTINUOUS
10
109.172
20
-122.062
11
109.188
21
-122.048
0
LINE
8
BLACK
6
CONTINUOUS
10
109.188
20
-122.048
11
109.207
21
-122.038
0
LINE
8
BLACK
6
CONTINUOUS
10
109.207
20
-122.038
11
109.228
21
-122.032
0
LINE
8
BLACK
6
CONTINUOUS
10
109.228
20
-122.032
11
109.256
21
-122.029
0
LINE
8
BLACK
6
CONTINUOUS
10
109.256
20
-122.029
11
109.714
21
-122.029
0
LINE
8
BLACK
6
CONTINUOUS
10
109.714
20
-122.029
11
109.742
21
-122.032
0
LINE
8
BLACK
6
CONTINUOUS
10
108.772
20
-122.032
11
108.793
21
-122.038
0
LINE
8
BLACK
6
CONTINUOUS
10
108.793
20
-122.038
11
108.812
21
-122.048
0
LINE
8
BLACK
6
CONTINUOUS
10
108.812
20
-122.048
11
108.828
21
-122.062
0
LINE
8
BLACK
6
CONTINUOUS
10
108.828
20
-122.062
11
108.842
21
-122.078
0
LINE
8
BLACK
6
CONTINUOUS
10
108.842
20
-122.078
11
108.852
21
-122.097
0
LINE
8
BLACK
6
CONTINUOUS
10
108.852
20
-122.097
11
108.858
21
-122.118
0
LINE
8
BLACK
6
CONTINUOUS
10
108.858
20
-122.118
11
108.861
21
-122.146
0
LINE
8
BLACK
6
CONTINUOUS
10
108.861
20
-122.146
11
108.861
21
-122.654
0
LINE
8
BLACK
6
CONTINUOUS
10
108.861
20
-122.654
11
108.858
21
-122.682
0
LINE
8
BLACK
6
CONTINUOUS
10
108.858
20
-122.682
11
108.852
21
-122.703
0
LINE
8
BLACK
6
CONTINUOUS
10
108.852
20
-122.703
11
108.842
21
-122.722
0
LINE
8
BLACK
6
CONTINUOUS
10
108.842
20
-122.722
11
108.828
21
-122.738
0
LINE
8
BLACK
6
CONTINUOUS
10
108.828
20
-122.738
11
108.812
21
-122.752
0
LINE
8
BLACK
6
CONTINUOUS
10
108.812
20
-122.752
11
108.793
21
-122.762
0
LINE
8
BLACK
6
CONTINUOUS
10
108.793
20
-122.762
11
108.772
21
-122.768
0
LINE
8
BLACK
6
CONTINUOUS
10
108.772
20
-122.768
11
108.744
21
-122.771
0
LINE
8
BLACK
6
CONTINUOUS
10
108.744
20
-122.771
11
108.286
21
-122.771
0
LINE
8
BLACK
6
CONTINUOUS
10
108.286
20
-122.771
11
108.258
21
-122.768
0
LINE
8
BLACK
6
CONTINUOUS
10
108.258
20
-122.768
11
108.237
21
-122.762
0
LINE
8
BLACK
6
CONTINUOUS
10
108.237
20
-122.762
11
108.218
21
-122.752
0
LINE
8
BLACK
6
CONTINUOUS
10
108.218
20
-122.752
11
108.202
21
-122.738
0
LINE
8
BLACK
6
CONTINUOUS
10
108.202
20
-122.738
11
108.188
21
-122.722
0
LINE
8
BLACK
6
CONTINUOUS
10
108.188
20
-122.722
11
108.178
21
-122.703
0
LINE
8
BLACK
6
CONTINUOUS
10
108.178
20
-122.703
11
108.172
21
-122.682
0
LINE
8
BLACK
6
CONTINUOUS
10
108.172
20
-122.682
11
108.169
21
-122.654
0
LINE
8
BLACK
6
CONTINUOUS
10
108.169
20
-122.654
11
108.169
21
-122.146
0
LINE
8
BLACK
6
CONTINUOUS
10
108.169
20
-122.146
11
108.172
21
-122.118
0
LINE
8
BLACK
6
CONTINUOUS
10
108.172
20
-122.118
11
108.178
21
-122.097
0
LINE
8
BLACK
6
CONTINUOUS
10
108.178
20
-122.097
11
108.188
21
-122.078
0
LINE
8
BLACK
6
CONTINUOUS
10
108.188
20
-122.078
11
108.202
21
-122.062
0
LINE
8
BLACK
6
CONTINUOUS
10
108.202
20
-122.062
11
108.218
21
-122.048
0
LINE
8
BLACK
6
CONTINUOUS
10
108.218
20
-122.048
11
108.237
21
-122.038
0
LINE
8
BLACK
6
CONTINUOUS
10
108.237
20
-122.038
11
108.258
21
-122.032
0
LINE
8
BLACK
6
CONTINUOUS
10
108.258
20
-122.032
11
108.286
21
-122.029
0
LINE
8
BLACK
6
CONTINUOUS
10
108.286
20
-122.029
11
108.744
21
-122.029
0
LINE
8
BLACK
6
CONTINUOUS
10
108.744
20
-122.029
11
108.772
21
-122.032
0
LINE
8
BLACK
6
CONTINUOUS
10
110.201
20
-121.538
11
107.799
21
-121.538
0
LINE
8
BLACK
6
CONTINUOUS
10
107.799
20
-121.538
11
107.799
21
-120.786
0
LINE
8
BLACK
6
CONTINUOUS
10
107.799
20
-120.786
11
110.201
21
-120.786
0
LINE
8
BLACK
6
CONTINUOUS
10
110.201
20
-120.786
11
110.201
21
-121.538
0
LINE
8
BLACK
6
CONTINUOUS
10
103.277
20
-119.586
11
103.45
21
-119.657
0
LINE
8
BLACK
6
CONTINUOUS
10
103.45
20
-119.657
11
103.45
21
-119.657
0
LINE
8
BLACK
6
CONTINUOUS
10
103.45
20
-119.657
11
103.606
21
-119.761
0
LINE
8
BLACK
6
CONTINUOUS
10
103.606
20
-119.761
11
103.739
21
-119.894
0
LINE
8
BLACK
6
CONTINUOUS
10
103.739
20
-119.894
11
103.739
21
-119.894
0
LINE
8
BLACK
6
CONTINUOUS
10
103.739
20
-119.894
11
103.843
21
-120.05
0
LINE
8
BLACK
6
CONTINUOUS
10
103.843
20
-120.05
11
103.914
21
-120.223
0
LINE
8
BLACK
6
CONTINUOUS
10
103.914
20
-120.223
11
103.951
21
-120.406
0
LINE
8
BLACK
6
CONTINUOUS
10
103.951
20
-120.406
11
103.951
21
-120.594
0
LINE
8
BLACK
6
CONTINUOUS
10
103.951
20
-120.594
11
103.914
21
-120.777
0
LINE
8
BLACK
6
CONTINUOUS
10
103.914
20
-120.777
11
103.843
21
-120.95
0
LINE
8
BLACK
6
CONTINUOUS
10
103.843
20
-120.95
11
103.843
21
-120.95
0
LINE
8
BLACK
6
CONTINUOUS
10
103.843
20
-120.95
11
103.739
21
-121.106
0
LINE
8
BLACK
6
CONTINUOUS
10
103.739
20
-121.106
11
103.606
21
-121.239
0
LINE
8
BLACK
6
CONTINUOUS
10
103.606
20
-121.239
11
103.528
21
-121.291
0
LINE
8
BLACK
6
CONTINUOUS
10
103.528
20
-121.291
11
103.45
21
-121.343
0
LINE
8
BLACK
6
CONTINUOUS
10
103.45
20
-121.343
11
103.277
21
-121.414
0
LINE
8
BLACK
6
CONTINUOUS
10
103.277
20
-121.414
11
103.094
21
-121.451
0
LINE
8
BLACK
6
CONTINUOUS
10
103.094
20
-121.451
11
102.906
21
-121.451
0
LINE
8
BLACK
6
CONTINUOUS
10
102.906
20
-121.451
11
102.723
21
-121.414
0
LINE
8
BLACK
6
CONTINUOUS
10
102.723
20
-121.414
11
102.55
21
-121.343
0
LINE
8
BLACK
6
CONTINUOUS
10
102.55
20
-121.343
11
102.472
21
-121.291
0
LINE
8
BLACK
6
CONTINUOUS
10
102.472
20
-121.291
11
102.394
21
-121.239
0
LINE
8
BLACK
6
CONTINUOUS
10
102.394
20
-121.239
11
102.261
21
-121.106
0
LINE
8
BLACK
6
CONTINUOUS
10
102.261
20
-121.106
11
102.157
21
-120.95
0
LINE
8
BLACK
6
CONTINUOUS
10
102.157
20
-120.95
11
102.157
21
-120.95
0
LINE
8
BLACK
6
CONTINUOUS
10
102.157
20
-120.95
11
102.086
21
-120.777
0
LINE
8
BLACK
6
CONTINUOUS
10
102.086
20
-120.777
11
102.049
21
-120.594
0
LINE
8
BLACK
6
CONTINUOUS
10
102.049
20
-120.594
11
102.049
21
-120.406
0
LINE
8
BLACK
6
CONTINUOUS
10
102.049
20
-120.406
11
102.086
21
-120.223
0
LINE
8
BLACK
6
CONTINUOUS
10
102.086
20
-120.223
11
102.157
21
-120.05
0
LINE
8
BLACK
6
CONTINUOUS
10
102.157
20
-120.05
11
102.261
21
-119.894
0
LINE
8
BLACK
6
CONTINUOUS
10
102.261
20
-119.894
11
102.261
21
-119.894
0
LINE
8
BLACK
6
CONTINUOUS
10
102.261
20
-119.894
11
102.394
21
-119.761
0
LINE
8
BLACK
6
CONTINUOUS
10
102.394
20
-119.761
11
102.55
21
-119.657
0
LINE
8
BLACK
6
CONTINUOUS
10
102.55
20
-119.657
11
102.55
21
-119.657
0
LINE
8
BLACK
6
CONTINUOUS
10
102.55
20
-119.657
11
102.723
21
-119.586
0
LINE
8
BLACK
6
CONTINUOUS
10
102.723
20
-119.586
11
102.906
21
-119.549
0
LINE
8
BLACK
6
CONTINUOUS
10
102.906
20
-119.549
11
103.094
21
-119.549
0
LINE
8
BLACK
6
CONTINUOUS
10
103.094
20
-119.549
11
103.277
21
-119.586
0
LINE
8
BLACK
6
CONTINUOUS
10
128.001
20
-121.351
11
125.999
21
-121.351
0
LINE
8
BLACK
6
CONTINUOUS
10
125.999
20
-121.351
11
125.999
21
-119.149
0
LINE
8
BLACK
6
CONTINUOUS
10
125.999
20
-119.149
11
128.001
21
-119.149
0
LINE
8
BLACK
6
CONTINUOUS
10
128.001
20
-119.149
11
128.001
21
-121.351
0
LINE
8
BLACK
6
CONTINUOUS
10
110.251
20
-120.438
11
107.749
21
-120.438
0
LINE
8
BLACK
6
CONTINUOUS
10
107.749
20
-120.438
11
107.749
21
-118.786
0
LINE
8
BLACK
6
CONTINUOUS
10
107.749
20
-118.786
11
110.251
21
-118.786
0
LINE
8
BLACK
6
CONTINUOUS
10
110.251
20
-118.786
11
110.251
21
-120.438
0
LINE
8
BLACK
6
CONTINUOUS
10
124.213
20
-118.457
11
124.321
21
-118.49
0
LINE
8
BLACK
6
CONTINUOUS
10
124.321
20
-118.49
11
124.321
21
-118.49
0
LINE
8
BLACK
6
CONTINUOUS
10
124.321
20
-118.49
11
124.358
21
-118.51
0
LINE
8
BLACK
6
CONTINUOUS
10
124.358
20
-118.51
11
124.422
21
-118.544
0
LINE
8
BLACK
6
CONTINUOUS
10
124.422
20
-118.544
11
124.509
21
-118.616
0
LINE
8
BLACK
6
CONTINUOUS
10
124.509
20
-118.616
11
124.581
21
-118.703
0
LINE
8
BLACK
6
CONTINUOUS
10
124.581
20
-118.703
11
124.6
21
-118.739
0
LINE
8
BLACK
6
CONTINUOUS
10
124.6
20
-118.739
11
124.635
21
-118.804
0
LINE
8
BLACK
6
CONTINUOUS
10
124.635
20
-118.804
11
124.635
21
-118.804
0
LINE
8
BLACK
6
CONTINUOUS
10
124.635
20
-118.804
11
124.668
21
-118.912
0
LINE
8
BLACK
6
CONTINUOUS
10
124.668
20
-118.912
11
124.679
21
-119.025
0
LINE
8
BLACK
6
CONTINUOUS
10
124.679
20
-119.025
11
124.668
21
-119.138
0
LINE
8
BLACK
6
CONTINUOUS
10
124.668
20
-119.138
11
124.635
21
-119.246
0
LINE
8
BLACK
6
CONTINUOUS
10
124.635
20
-119.246
11
124.635
21
-119.246
0
LINE
8
BLACK
6
CONTINUOUS
10
124.635
20
-119.246
11
124.629
21
-119.258
0
LINE
8
BLACK
6
CONTINUOUS
10
124.629
20
-119.258
11
124.581
21
-119.347
0
LINE
8
BLACK
6
CONTINUOUS
10
124.581
20
-119.347
11
124.509
21
-119.434
0
LINE
8
BLACK
6
CONTINUOUS
10
124.509
20
-119.434
11
124.422
21
-119.506
0
LINE
8
BLACK
6
CONTINUOUS
10
124.422
20
-119.506
11
124.358
21
-119.54
0
LINE
8
BLACK
6
CONTINUOUS
10
124.358
20
-119.54
11
124.321
21
-119.56
0
LINE
8
BLACK
6
CONTINUOUS
10
124.321
20
-119.56
11
124.321
21
-119.56
0
LINE
8
BLACK
6
CONTINUOUS
10
124.321
20
-119.56
11
124.213
21
-119.593
0
LINE
8
BLACK
6
CONTINUOUS
10
124.213
20
-119.593
11
124.128
21
-119.601
0
LINE
8
BLACK
6
CONTINUOUS
10
124.128
20
-119.601
11
123.872
21
-119.601
0
LINE
8
BLACK
6
CONTINUOUS
10
123.872
20
-119.601
11
123.787
21
-119.593
0
LINE
8
BLACK
6
CONTINUOUS
10
123.787
20
-119.593
11
123.679
21
-119.56
0
LINE
8
BLACK
6
CONTINUOUS
10
123.679
20
-119.56
11
123.679
21
-119.56
0
LINE
8
BLACK
6
CONTINUOUS
10
123.679
20
-119.56
11
123.642
21
-119.54
0
LINE
8
BLACK
6
CONTINUOUS
10
123.642
20
-119.54
11
123.578
21
-119.506
0
LINE
8
BLACK
6
CONTINUOUS
10
123.578
20
-119.506
11
123.491
21
-119.434
0
LINE
8
BLACK
6
CONTINUOUS
10
123.491
20
-119.434
11
123.419
21
-119.347
0
LINE
8
BLACK
6
CONTINUOUS
10
123.419
20
-119.347
11
123.371
21
-119.258
0
LINE
8
BLACK
6
CONTINUOUS
10
123.371
20
-119.258
11
123.365
21
-119.246
0
LINE
8
BLACK
6
CONTINUOUS
10
123.365
20
-119.246
11
123.365
21
-119.246
0
LINE
8
BLACK
6
CONTINUOUS
10
123.365
20
-119.246
11
123.332
21
-119.138
0
LINE
8
BLACK
6
CONTINUOUS
10
123.332
20
-119.138
11
123.321
21
-119.025
0
LINE
8
BLACK
6
CONTINUOUS
10
123.321
20
-119.025
11
123.332
21
-118.912
0
LINE
8
BLACK
6
CONTINUOUS
10
123.332
20
-118.912
11
123.365
21
-118.804
0
LINE
8
BLACK
6
CONTINUOUS
10
123.365
20
-118.804
11
123.365
21
-118.804
0
LINE
8
BLACK
6
CONTINUOUS
10
123.365
20
-118.804
11
123.4
21
-118.739
0
LINE
8
BLACK
6
CONTINUOUS
10
123.4
20
-118.739
11
123.419
21
-118.703
0
LINE
8
BLACK
6
CONTINUOUS
10
123.419
20
-118.703
11
123.491
21
-118.616
0
LINE
8
BLACK
6
CONTINUOUS
10
123.491
20
-118.616
11
123.578
21
-118.544
0
LINE
8
BLACK
6
CONTINUOUS
10
123.578
20
-118.544
11
123.642
21
-118.51
0
LINE
8
BLACK
6
CONTINUOUS
10
123.642
20
-118.51
11
123.679
21
-118.49
0
LINE
8
BLACK
6
CONTINUOUS
10
123.679
20
-118.49
11
123.679
21
-118.49
0
LINE
8
BLACK
6
CONTINUOUS
10
123.679
20
-118.49
11
123.787
21
-118.457
0
LINE
8
BLACK
6
CONTINUOUS
10
123.787
20
-118.457
11
123.872
21
-118.449
0
LINE
8
BLACK
6
CONTINUOUS
10
123.872
20
-118.449
11
124.128
21
-118.449
0
LINE
8
BLACK
6
CONTINUOUS
10
124.128
20
-118.449
11
124.213
21
-118.457
0
LINE
8
BLACK
6
CONTINUOUS
10
111.682
20
-118.742
11
111.703
21
-118.748
0
LINE
8
BLACK
6
CONTINUOUS
10
111.703
20
-118.748
11
111.722
21
-118.758
0
LINE
8
BLACK
6
CONTINUOUS
10
111.722
20
-118.758
11
111.738
21
-118.772
0
LINE
8
BLACK
6
CONTINUOUS
10
111.738
20
-118.772
11
111.752
21
-118.788
0
LINE
8
BLACK
6
CONTINUOUS
10
111.752
20
-118.788
11
111.762
21
-118.807
0
LINE
8
BLACK
6
CONTINUOUS
10
111.762
20
-118.807
11
111.768
21
-118.828
0
LINE
8
BLACK
6
CONTINUOUS
10
111.768
20
-118.828
11
111.771
21
-118.856
0
LINE
8
BLACK
6
CONTINUOUS
10
111.771
20
-118.856
11
111.771
21
-119.314
0
LINE
8
BLACK
6
CONTINUOUS
10
111.771
20
-119.314
11
111.768
21
-119.342
0
LINE
8
BLACK
6
CONTINUOUS
10
111.768
20
-119.342
11
111.762
21
-119.363
0
LINE
8
BLACK
6
CONTINUOUS
10
111.762
20
-119.363
11
111.752
21
-119.382
0
LINE
8
BLACK
6
CONTINUOUS
10
111.752
20
-119.382
11
111.738
21
-119.398
0
LINE
8
BLACK
6
CONTINUOUS
10
111.738
20
-119.398
11
111.722
21
-119.412
0
LINE
8
BLACK
6
CONTINUOUS
10
111.722
20
-119.412
11
111.703
21
-119.422
0
LINE
8
BLACK
6
CONTINUOUS
10
111.703
20
-119.422
11
111.682
21
-119.428
0
LINE
8
BLACK
6
CONTINUOUS
10
111.682
20
-119.428
11
111.654
21
-119.431
0
LINE
8
BLACK
6
CONTINUOUS
10
111.654
20
-119.431
11
111.146
21
-119.431
0
LINE
8
BLACK
6
CONTINUOUS
10
111.146
20
-119.431
11
111.118
21
-119.428
0
LINE
8
BLACK
6
CONTINUOUS
10
111.118
20
-119.428
11
111.097
21
-119.422
0
LINE
8
BLACK
6
CONTINUOUS
10
111.097
20
-119.422
11
111.078
21
-119.412
0
LINE
8
BLACK
6
CONTINUOUS
10
111.078
20
-119.412
11
111.062
21
-119.398
0
LINE
8
BLACK
6
CONTINUOUS
10
111.062
20
-119.398
11
111.048
21
-119.382
0
LINE
8
BLACK
6
CONTINUOUS
10
111.048
20
-119.382
11
111.038
21
-119.363
0
LINE
8
BLACK
6
CONTINUOUS
10
111.038
20
-119.363
11
111.032
21
-119.342
0
LINE
8
BLACK
6
CONTINUOUS
10
111.032
20
-119.342
11
111.029
21
-119.314
0
LINE
8
BLACK
6
CONTINUOUS
10
111.029
20
-119.314
11
111.029
21
-118.856
0
LINE
8
BLACK
6
CONTINUOUS
10
111.029
20
-118.856
11
111.032
21
-118.828
0
LINE
8
BLACK
6
CONTINUOUS
10
111.032
20
-118.828
11
111.038
21
-118.807
0
LINE
8
BLACK
6
CONTINUOUS
10
111.038
20
-118.807
11
111.048
21
-118.788
0
LINE
8
BLACK
6
CONTINUOUS
10
111.048
20
-118.788
11
111.062
21
-118.772
0
LINE
8
BLACK
6
CONTINUOUS
10
111.062
20
-118.772
11
111.078
21
-118.758
0
LINE
8
BLACK
6
CONTINUOUS
10
111.078
20
-118.758
11
111.097
21
-118.748
0
LINE
8
BLACK
6
CONTINUOUS
10
111.097
20
-118.748
11
111.118
21
-118.742
0
LINE
8
BLACK
6
CONTINUOUS
10
111.118
20
-118.742
11
111.146
21
-118.739
0
LINE
8
BLACK
6
CONTINUOUS
10
111.146
20
-118.739
11
111.654
21
-118.739
0
LINE
8
BLACK
6
CONTINUOUS
10
111.654
20
-118.739
11
111.682
21
-118.742
0
LINE
8
BLACK
6
CONTINUOUS
10
128.001
20
-118.701
11
125.999
21
-118.701
0
LINE
8
BLACK
6
CONTINUOUS
10
125.999
20
-118.701
11
125.999
21
-116.799
0
LINE
8
BLACK
6
CONTINUOUS
10
125.999
20
-116.799
11
128.001
21
-116.799
0
LINE
8
BLACK
6
CONTINUOUS
10
128.001
20
-116.799
11
128.001
21
-118.701
0
LINE
8
BLACK
6
CONTINUOUS
10
111.682
20
-117.772
11
111.703
21
-117.778
0
LINE
8
BLACK
6
CONTINUOUS
10
111.703
20
-117.778
11
111.722
21
-117.788
0
LINE
8
BLACK
6
CONTINUOUS
10
111.722
20
-117.788
11
111.738
21
-117.802
0
LINE
8
BLACK
6
CONTINUOUS
10
111.738
20
-117.802
11
111.752
21
-117.818
0
LINE
8
BLACK
6
CONTINUOUS
10
111.752
20
-117.818
11
111.762
21
-117.837
0
LINE
8
BLACK
6
CONTINUOUS
10
111.762
20
-117.837
11
111.768
21
-117.858
0
LINE
8
BLACK
6
CONTINUOUS
10
111.768
20
-117.858
11
111.771
21
-117.886
0
LINE
8
BLACK
6
CONTINUOUS
10
111.771
20
-117.886
11
111.771
21
-118.344
0
LINE
8
BLACK
6
CONTINUOUS
10
111.771
20
-118.344
11
111.768
21
-118.372
0
LINE
8
BLACK
6
CONTINUOUS
10
111.768
20
-118.372
11
111.762
21
-118.393
0
LINE
8
BLACK
6
CONTINUOUS
10
111.762
20
-118.393
11
111.752
21
-118.412
0
LINE
8
BLACK
6
CONTINUOUS
10
111.752
20
-118.412
11
111.738
21
-118.428
0
LINE
8
BLACK
6
CONTINUOUS
10
111.738
20
-118.428
11
111.722
21
-118.442
0
LINE
8
BLACK
6
CONTINUOUS
10
111.722
20
-118.442
11
111.703
21
-118.452
0
LINE
8
BLACK
6
CONTINUOUS
10
111.703
20
-118.452
11
111.682
21
-118.458
0
LINE
8
BLACK
6
CONTINUOUS
10
111.682
20
-118.458
11
111.654
21
-118.461
0
LINE
8
BLACK
6
CONTINUOUS
10
111.654
20
-118.461
11
111.146
21
-118.461
0
LINE
8
BLACK
6
CONTINUOUS
10
111.146
20
-118.461
11
111.118
21
-118.458
0
LINE
8
BLACK
6
CONTINUOUS
10
111.118
20
-118.458
11
111.097
21
-118.452
0
LINE
8
BLACK
6
CONTINUOUS
10
111.097
20
-118.452
11
111.078
21
-118.442
0
LINE
8
BLACK
6
CONTINUOUS
10
111.078
20
-118.442
11
111.062
21
-118.428
0
LINE
8
BLACK
6
CONTINUOUS
10
111.062
20
-118.428
11
111.048
21
-118.412
0
LINE
8
BLACK
6
CONTINUOUS
10
111.048
20
-118.412
11
111.038
21
-118.393
0
LINE
8
BLACK
6
CONTINUOUS
10
111.038
20
-118.393
11
111.032
21
-118.372
0
LINE
8
BLACK
6
CONTINUOUS
10
111.032
20
-118.372
11
111.029
21
-118.344
0
LINE
8
BLACK
6
CONTINUOUS
10
111.029
20
-118.344
11
111.029
21
-117.886
0
LINE
8
BLACK
6
CONTINUOUS
10
111.029
20
-117.886
11
111.032
21
-117.858
0
LINE
8
BLACK
6
CONTINUOUS
10
111.032
20
-117.858
11
111.038
21
-117.837
0
LINE
8
BLACK
6
CONTINUOUS
10
111.038
20
-117.837
11
111.048
21
-117.818
0
LINE
8
BLACK
6
CONTINUOUS
10
111.048
20
-117.818
11
111.062
21
-117.802
0
LINE
8
BLACK
6
CONTINUOUS
10
111.062
20
-117.802
11
111.078
21
-117.788
0
LINE
8
BLACK
6
CONTINUOUS
10
111.078
20
-117.788
11
111.097
21
-117.778
0
LINE
8
BLACK
6
CONTINUOUS
10
111.097
20
-117.778
11
111.118
21
-117.772
0
LINE
8
BLACK
6
CONTINUOUS
10
111.118
20
-117.772
11
111.146
21
-117.769
0
LINE
8
BLACK
6
CONTINUOUS
10
111.146
20
-117.769
11
111.654
21
-117.769
0
LINE
8
BLACK
6
CONTINUOUS
10
111.654
20
-117.769
11
111.682
21
-117.772
0
LINE
8
BLACK
6
CONTINUOUS
10
110.201
20
-118.438
11
107.799
21
-118.438
0
LINE
8
BLACK
6
CONTINUOUS
10
107.799
20
-118.438
11
107.799
21
-117.686
0
LINE
8
BLACK
6
CONTINUOUS
10
107.799
20
-117.686
11
110.201
21
-117.686
0
LINE
8
BLACK
6
CONTINUOUS
10
110.201
20
-117.686
11
110.201
21
-118.438
0
LINE
8
BLACK
6
CONTINUOUS
10
125.051
20
-118.151
11
123.599
21
-118.151
0
LINE
8
BLACK
6
CONTINUOUS
10
123.599
20
-118.151
11
123.599
21
-115.049
0
LINE
8
BLACK
6
CONTINUOUS
10
123.599
20
-115.049
11
125.051
21
-115.049
0
LINE
8
BLACK
6
CONTINUOUS
10
125.051
20
-115.049
11
125.051
21
-118.151
0
LINE
8
BLACK
6
CONTINUOUS
10
121.772
20
-117.232
11
121.793
21
-117.238
0
LINE
8
BLACK
6
CONTINUOUS
10
121.793
20
-117.238
11
121.812
21
-117.248
0
LINE
8
BLACK
6
CONTINUOUS
10
121.812
20
-117.248
11
121.828
21
-117.262
0
LINE
8
BLACK
6
CONTINUOUS
10
121.828
20
-117.262
11
121.842
21
-117.278
0
LINE
8
BLACK
6
CONTINUOUS
10
121.842
20
-117.278
11
121.852
21
-117.297
0
LINE
8
BLACK
6
CONTINUOUS
10
121.852
20
-117.297
11
121.858
21
-117.318
0
LINE
8
BLACK
6
CONTINUOUS
10
121.858
20
-117.318
11
121.861
21
-117.346
0
LINE
8
BLACK
6
CONTINUOUS
10
121.861
20
-117.346
11
121.861
21
-117.854
0
LINE
8
BLACK
6
CONTINUOUS
10
121.861
20
-117.854
11
121.858
21
-117.882
0
LINE
8
BLACK
6
CONTINUOUS
10
121.858
20
-117.882
11
121.852
21
-117.903
0
LINE
8
BLACK
6
CONTINUOUS
10
121.852
20
-117.903
11
121.842
21
-117.922
0
LINE
8
BLACK
6
CONTINUOUS
10
121.842
20
-117.922
11
121.828
21
-117.938
0
LINE
8
BLACK
6
CONTINUOUS
10
121.828
20
-117.938
11
121.812
21
-117.952
0
LINE
8
BLACK
6
CONTINUOUS
10
121.812
20
-117.952
11
121.793
21
-117.962
0
LINE
8
BLACK
6
CONTINUOUS
10
121.793
20
-117.962
11
121.772
21
-117.968
0
LINE
8
BLACK
6
CONTINUOUS
10
121.772
20
-117.968
11
121.744
21
-117.971
0
LINE
8
BLACK
6
CONTINUOUS
10
121.744
20
-117.971
11
121.286
21
-117.971
0
LINE
8
BLACK
6
CONTINUOUS
10
121.286
20
-117.971
11
121.258
21
-117.968
0
LINE
8
BLACK
6
CONTINUOUS
10
121.258
20
-117.968
11
121.237
21
-117.962
0
LINE
8
BLACK
6
CONTINUOUS
10
121.237
20
-117.962
11
121.218
21
-117.952
0
LINE
8
BLACK
6
CONTINUOUS
10
121.218
20
-117.952
11
121.202
21
-117.938
0
LINE
8
BLACK
6
CONTINUOUS
10
121.202
20
-117.938
11
121.188
21
-117.922
0
LINE
8
BLACK
6
CONTINUOUS
10
121.188
20
-117.922
11
121.178
21
-117.903
0
LINE
8
BLACK
6
CONTINUOUS
10
121.178
20
-117.903
11
121.172
21
-117.882
0
LINE
8
BLACK
6
CONTINUOUS
10
121.172
20
-117.882
11
121.169
21
-117.854
0
LINE
8
BLACK
6
CONTINUOUS
10
121.169
20
-117.854
11
121.169
21
-117.346
0
LINE
8
BLACK
6
CONTINUOUS
10
121.169
20
-117.346
11
121.172
21
-117.318
0
LINE
8
BLACK
6
CONTINUOUS
10
121.172
20
-117.318
11
121.178
21
-117.297
0
LINE
8
BLACK
6
CONTINUOUS
10
121.178
20
-117.297
11
121.188
21
-117.278
0
LINE
8
BLACK
6
CONTINUOUS
10
121.188
20
-117.278
11
121.202
21
-117.262
0
LINE
8
BLACK
6
CONTINUOUS
10
121.202
20
-117.262
11
121.218
21
-117.248
0
LINE
8
BLACK
6
CONTINUOUS
10
121.218
20
-117.248
11
121.237
21
-117.238
0
LINE
8
BLACK
6
CONTINUOUS
10
121.237
20
-117.238
11
121.258
21
-117.232
0
LINE
8
BLACK
6
CONTINUOUS
10
121.258
20
-117.232
11
121.286
21
-117.229
0
LINE
8
BLACK
6
CONTINUOUS
10
121.286
20
-117.229
11
121.744
21
-117.229
0
LINE
8
BLACK
6
CONTINUOUS
10
121.744
20
-117.229
11
121.772
21
-117.232
0
LINE
8
BLACK
6
CONTINUOUS
10
122.742
20
-117.232
11
122.763
21
-117.238
0
LINE
8
BLACK
6
CONTINUOUS
10
122.763
20
-117.238
11
122.782
21
-117.248
0
LINE
8
BLACK
6
CONTINUOUS
10
122.782
20
-117.248
11
122.798
21
-117.262
0
LINE
8
BLACK
6
CONTINUOUS
10
122.798
20
-117.262
11
122.812
21
-117.278
0
LINE
8
BLACK
6
CONTINUOUS
10
122.812
20
-117.278
11
122.822
21
-117.297
0
LINE
8
BLACK
6
CONTINUOUS
10
122.822
20
-117.297
11
122.828
21
-117.318
0
LINE
8
BLACK
6
CONTINUOUS
10
122.828
20
-117.318
11
122.831
21
-117.346
0
LINE
8
BLACK
6
CONTINUOUS
10
122.831
20
-117.346
11
122.831
21
-117.854
0
LINE
8
BLACK
6
CONTINUOUS
10
122.831
20
-117.854
11
122.828
21
-117.882
0
LINE
8
BLACK
6
CONTINUOUS
10
122.828
20
-117.882
11
122.822
21
-117.903
0
LINE
8
BLACK
6
CONTINUOUS
10
122.822
20
-117.903
11
122.812
21
-117.922
0
LINE
8
BLACK
6
CONTINUOUS
10
122.812
20
-117.922
11
122.798
21
-117.938
0
LINE
8
BLACK
6
CONTINUOUS
10
122.798
20
-117.938
11
122.782
21
-117.952
0
LINE
8
BLACK
6
CONTINUOUS
10
122.782
20
-117.952
11
122.763
21
-117.962
0
LINE
8
BLACK
6
CONTINUOUS
10
122.763
20
-117.962
11
122.742
21
-117.968
0
LINE
8
BLACK
6
CONTINUOUS
10
122.742
20
-117.968
11
122.714
21
-117.971
0
LINE
8
BLACK
6
CONTINUOUS
10
122.714
20
-117.971
11
122.256
21
-117.971
0
LINE
8
BLACK
6
CONTINUOUS
10
122.256
20
-117.971
11
122.228
21
-117.968
0
LINE
8
BLACK
6
CONTINUOUS
10
122.228
20
-117.968
11
122.207
21
-117.962
0
LINE
8
BLACK
6
CONTINUOUS
10
122.207
20
-117.962
11
122.188
21
-117.952
0
LINE
8
BLACK
6
CONTINUOUS
10
122.188
20
-117.952
11
122.172
21
-117.938
0
LINE
8
BLACK
6
CONTINUOUS
10
122.172
20
-117.938
11
122.158
21
-117.922
0
LINE
8
BLACK
6
CONTINUOUS
10
122.158
20
-117.922
11
122.148
21
-117.903
0
LINE
8
BLACK
6
CONTINUOUS
10
122.148
20
-117.903
11
122.142
21
-117.882
0
LINE
8
BLACK
6
CONTINUOUS
10
122.142
20
-117.882
11
122.139
21
-117.854
0
LINE
8
BLACK
6
CONTINUOUS
10
122.139
20
-117.854
11
122.139
21
-117.346
0
LINE
8
BLACK
6
CONTINUOUS
10
122.139
20
-117.346
11
122.142
21
-117.318
0
LINE
8
BLACK
6
CONTINUOUS
10
122.142
20
-117.318
11
122.148
21
-117.297
0
LINE
8
BLACK
6
CONTINUOUS
10
122.148
20
-117.297
11
122.158
21
-117.278
0
LINE
8
BLACK
6
CONTINUOUS
10
122.158
20
-117.278
11
122.172
21
-117.262
0
LINE
8
BLACK
6
CONTINUOUS
10
122.172
20
-117.262
11
122.188
21
-117.248
0
LINE
8
BLACK
6
CONTINUOUS
10
122.188
20
-117.248
11
122.207
21
-117.238
0
LINE
8
BLACK
6
CONTINUOUS
10
122.207
20
-117.238
11
122.228
21
-117.232
0
LINE
8
BLACK
6
CONTINUOUS
10
122.228
20
-117.232
11
122.256
21
-117.229
0
LINE
8
BLACK
6
CONTINUOUS
10
122.256
20
-117.229
11
122.714
21
-117.229
0
LINE
8
BLACK
6
CONTINUOUS
10
122.714
20
-117.229
11
122.742
21
-117.232
0
LINE
8
BLACK
6
CONTINUOUS
10
110.782
20
-116.042
11
110.803
21
-116.048
0
LINE
8
BLACK
6
CONTINUOUS
10
110.803
20
-116.048
11
110.822
21
-116.058
0
LINE
8
BLACK
6
CONTINUOUS
10
110.822
20
-116.058
11
110.838
21
-116.072
0
LINE
8
BLACK
6
CONTINUOUS
10
110.838
20
-116.072
11
110.852
21
-116.088
0
LINE
8
BLACK
6
CONTINUOUS
10
110.852
20
-116.088
11
110.862
21
-116.107
0
LINE
8
BLACK
6
CONTINUOUS
10
110.862
20
-116.107
11
110.868
21
-116.128
0
LINE
8
BLACK
6
CONTINUOUS
10
110.868
20
-116.128
11
110.871
21
-116.156
0
LINE
8
BLACK
6
CONTINUOUS
10
110.871
20
-116.156
11
110.871
21
-116.614
0
LINE
8
BLACK
6
CONTINUOUS
10
110.871
20
-116.614
11
110.868
21
-116.642
0
LINE
8
BLACK
6
CONTINUOUS
10
110.868
20
-116.642
11
110.862
21
-116.663
0
LINE
8
BLACK
6
CONTINUOUS
10
110.862
20
-116.663
11
110.852
21
-116.682
0
LINE
8
BLACK
6
CONTINUOUS
10
110.852
20
-116.682
11
110.838
21
-116.698
0
LINE
8
BLACK
6
CONTINUOUS
10
110.838
20
-116.698
11
110.822
21
-116.712
0
LINE
8
BLACK
6
CONTINUOUS
10
110.822
20
-116.712
11
110.803
21
-116.722
0
LINE
8
BLACK
6
CONTINUOUS
10
110.803
20
-116.722
11
110.782
21
-116.728
0
LINE
8
BLACK
6
CONTINUOUS
10
110.782
20
-116.728
11
110.754
21
-116.731
0
LINE
8
BLACK
6
CONTINUOUS
10
110.754
20
-116.731
11
110.246
21
-116.731
0
LINE
8
BLACK
6
CONTINUOUS
10
110.246
20
-116.731
11
110.218
21
-116.728
0
LINE
8
BLACK
6
CONTINUOUS
10
110.218
20
-116.728
11
110.197
21
-116.722
0
LINE
8
BLACK
6
CONTINUOUS
10
110.197
20
-116.722
11
110.178
21
-116.712
0
LINE
8
BLACK
6
CONTINUOUS
10
110.178
20
-116.712
11
110.162
21
-116.698
0
LINE
8
BLACK
6
CONTINUOUS
10
110.162
20
-116.698
11
110.148
21
-116.682
0
LINE
8
BLACK
6
CONTINUOUS
10
110.148
20
-116.682
11
110.138
21
-116.663
0
LINE
8
BLACK
6
CONTINUOUS
10
110.138
20
-116.663
11
110.132
21
-116.642
0
LINE
8
BLACK
6
CONTINUOUS
10
110.132
20
-116.642
11
110.129
21
-116.614
0
LINE
8
BLACK
6
CONTINUOUS
10
110.129
20
-116.614
11
110.129
21
-116.156
0
LINE
8
BLACK
6
CONTINUOUS
10
110.129
20
-116.156
11
110.132
21
-116.128
0
LINE
8
BLACK
6
CONTINUOUS
10
110.132
20
-116.128
11
110.138
21
-116.107
0
LINE
8
BLACK
6
CONTINUOUS
10
110.138
20
-116.107
11
110.148
21
-116.088
0
LINE
8
BLACK
6
CONTINUOUS
10
110.148
20
-116.088
11
110.162
21
-116.072
0
LINE
8
BLACK
6
CONTINUOUS
10
110.162
20
-116.072
11
110.178
21
-116.058
0
LINE
8
BLACK
6
CONTINUOUS
10
110.178
20
-116.058
11
110.197
21
-116.048
0
LINE
8
BLACK
6
CONTINUOUS
10
110.197
20
-116.048
11
110.218
21
-116.042
0
LINE
8
BLACK
6
CONTINUOUS
10
110.218
20
-116.042
11
110.246
21
-116.039
0
LINE
8
BLACK
6
CONTINUOUS
10
110.246
20
-116.039
11
110.754
21
-116.039
0
LINE
8
BLACK
6
CONTINUOUS
10
110.754
20
-116.039
11
110.782
21
-116.042
0
LINE
8
BLACK
6
CONTINUOUS
10
109.282
20
-116.042
11
109.303
21
-116.048
0
LINE
8
BLACK
6
CONTINUOUS
10
109.303
20
-116.048
11
109.322
21
-116.058
0
LINE
8
BLACK
6
CONTINUOUS
10
109.322
20
-116.058
11
109.338
21
-116.072
0
LINE
8
BLACK
6
CONTINUOUS
10
109.338
20
-116.072
11
109.352
21
-116.088
0
LINE
8
BLACK
6
CONTINUOUS
10
109.352
20
-116.088
11
109.362
21
-116.107
0
LINE
8
BLACK
6
CONTINUOUS
10
109.362
20
-116.107
11
109.368
21
-116.128
0
LINE
8
BLACK
6
CONTINUOUS
10
109.368
20
-116.128
11
109.371
21
-116.156
0
LINE
8
BLACK
6
CONTINUOUS
10
109.371
20
-116.156
11
109.371
21
-116.614
0
LINE
8
BLACK
6
CONTINUOUS
10
109.371
20
-116.614
11
109.368
21
-116.642
0
LINE
8
BLACK
6
CONTINUOUS
10
109.368
20
-116.642
11
109.362
21
-116.663
0
LINE
8
BLACK
6
CONTINUOUS
10
109.362
20
-116.663
11
109.352
21
-116.682
0
LINE
8
BLACK
6
CONTINUOUS
10
109.352
20
-116.682
11
109.338
21
-116.698
0
LINE
8
BLACK
6
CONTINUOUS
10
109.338
20
-116.698
11
109.322
21
-116.712
0
LINE
8
BLACK
6
CONTINUOUS
10
109.322
20
-116.712
11
109.303
21
-116.722
0
LINE
8
BLACK
6
CONTINUOUS
10
109.303
20
-116.722
11
109.282
21
-116.728
0
LINE
8
BLACK
6
CONTINUOUS
10
109.282
20
-116.728
11
109.254
21
-116.731
0
LINE
8
BLACK
6
CONTINUOUS
10
109.254
20
-116.731
11
108.746
21
-116.731
0
LINE
8
BLACK
6
CONTINUOUS
10
108.746
20
-116.731
11
108.718
21
-116.728
0
LINE
8
BLACK
6
CONTINUOUS
10
108.718
20
-116.728
11
108.697
21
-116.722
0
LINE
8
BLACK
6
CONTINUOUS
10
108.697
20
-116.722
11
108.678
21
-116.712
0
LINE
8
BLACK
6
CONTINUOUS
10
108.678
20
-116.712
11
108.662
21
-116.698
0
LINE
8
BLACK
6
CONTINUOUS
10
108.662
20
-116.698
11
108.648
21
-116.682
0
LINE
8
BLACK
6
CONTINUOUS
10
108.648
20
-116.682
11
108.638
21
-116.663
0
LINE
8
BLACK
6
CONTINUOUS
10
108.638
20
-116.663
11
108.632
21
-116.642
0
LINE
8
BLACK
6
CONTINUOUS
10
108.632
20
-116.642
11
108.629
21
-116.614
0
LINE
8
BLACK
6
CONTINUOUS
10
108.629
20
-116.614
11
108.629
21
-116.156
0
LINE
8
BLACK
6
CONTINUOUS
10
108.629
20
-116.156
11
108.632
21
-116.128
0
LINE
8
BLACK
6
CONTINUOUS
10
108.632
20
-116.128
11
108.638
21
-116.107
0
LINE
8
BLACK
6
CONTINUOUS
10
108.638
20
-116.107
11
108.648
21
-116.088
0
LINE
8
BLACK
6
CONTINUOUS
10
108.648
20
-116.088
11
108.662
21
-116.072
0
LINE
8
BLACK
6
CONTINUOUS
10
108.662
20
-116.072
11
108.678
21
-116.058
0
LINE
8
BLACK
6
CONTINUOUS
10
108.678
20
-116.058
11
108.697
21
-116.048
0
LINE
8
BLACK
6
CONTINUOUS
10
108.697
20
-116.048
11
108.718
21
-116.042
0
LINE
8
BLACK
6
CONTINUOUS
10
108.718
20
-116.042
11
108.746
21
-116.039
0
LINE
8
BLACK
6
CONTINUOUS
10
108.746
20
-116.039
11
109.254
21
-116.039
0
LINE
8
BLACK
6
CONTINUOUS
10
109.254
20
-116.039
11
109.282
21
-116.042
0
LINE
8
BLACK
6
CONTINUOUS
10
107.782
20
-116.042
11
107.803
21
-116.048
0
LINE
8
BLACK
6
CONTINUOUS
10
107.803
20
-116.048
11
107.822
21
-116.058
0
LINE
8
BLACK
6
CONTINUOUS
10
107.822
20
-116.058
11
107.838
21
-116.072
0
LINE
8
BLACK
6
CONTINUOUS
10
107.838
20
-116.072
11
107.852
21
-116.088
0
LINE
8
BLACK
6
CONTINUOUS
10
107.852
20
-116.088
11
107.862
21
-116.107
0
LINE
8
BLACK
6
CONTINUOUS
10
107.862
20
-116.107
11
107.868
21
-116.128
0
LINE
8
BLACK
6
CONTINUOUS
10
107.868
20
-116.128
11
107.871
21
-116.156
0
LINE
8
BLACK
6
CONTINUOUS
10
107.871
20
-116.156
11
107.871
21
-116.614
0
LINE
8
BLACK
6
CONTINUOUS
10
107.871
20
-116.614
11
107.868
21
-116.642
0
LINE
8
BLACK
6
CONTINUOUS
10
107.868
20
-116.642
11
107.862
21
-116.663
0
LINE
8
BLACK
6
CONTINUOUS
10
107.862
20
-116.663
11
107.852
21
-116.682
0
LINE
8
BLACK
6
CONTINUOUS
10
107.852
20
-116.682
11
107.838
21
-116.698
0
LINE
8
BLACK
6
CONTINUOUS
10
107.838
20
-116.698
11
107.822
21
-116.712
0
LINE
8
BLACK
6
CONTINUOUS
10
107.822
20
-116.712
11
107.803
21
-116.722
0
LINE
8
BLACK
6
CONTINUOUS
10
107.803
20
-116.722
11
107.782
21
-116.728
0
LINE
8
BLACK
6
CONTINUOUS
10
107.782
20
-116.728
11
107.754
21
-116.731
0
LINE
8
BLACK
6
CONTINUOUS
10
107.754
20
-116.731
11
107.246
21
-116.731
0
LINE
8
BLACK
6
CONTINUOUS
10
107.246
20
-116.731
11
107.218
21
-116.728
0
LINE
8
BLACK
6
CONTINUOUS
10
107.218
20
-116.728
11
107.197
21
-116.722
0
LINE
8
BLACK
6
CONTINUOUS
10
107.197
20
-116.722
11
107.178
21
-116.712
0
LINE
8
BLACK
6
CONTINUOUS
10
107.178
20
-116.712
11
107.162
21
-116.698
0
LINE
8
BLACK
6
CONTINUOUS
10
107.162
20
-116.698
11
107.148
21
-116.682
0
LINE
8
BLACK
6
CONTINUOUS
10
107.148
20
-116.682
11
107.138
21
-116.663
0
LINE
8
BLACK
6
CONTINUOUS
10
107.138
20
-116.663
11
107.132
21
-116.642
0
LINE
8
BLACK
6
CONTINUOUS
10
107.132
20
-116.642
11
107.129
21
-116.614
0
LINE
8
BLACK
6
CONTINUOUS
10
107.129
20
-116.614
11
107.129
21
-116.156
0
LINE
8
BLACK
6
CONTINUOUS
10
107.129
20
-116.156
11
107.132
21
-116.128
0
LINE
8
BLACK
6
CONTINUOUS
10
107.132
20
-116.128
11
107.138
21
-116.107
0
LINE
8
BLACK
6
CONTINUOUS
10
107.138
20
-116.107
11
107.148
21
-116.088
0
LINE
8
BLACK
6
CONTINUOUS
10
107.148
20
-116.088
11
107.162
21
-116.072
0
LINE
8
BLACK
6
CONTINUOUS
10
107.162
20
-116.072
11
107.178
21
-116.058
0
LINE
8
BLACK
6
CONTINUOUS
10
107.178
20
-116.058
11
107.197
21
-116.048
0
LINE
8
BLACK
6
CONTINUOUS
10
107.197
20
-116.048
11
107.218
21
-116.042
0
LINE
8
BLACK
6
CONTINUOUS
10
107.218
20
-116.042
11
107.246
21
-116.039
0
LINE
8
BLACK
6
CONTINUOUS
10
107.246
20
-116.039
11
107.754
21
-116.039
0
LINE
8
BLACK
6
CONTINUOUS
10
107.754
20
-116.039
11
107.782
21
-116.042
0
LINE
8
BLACK
6
CONTINUOUS
10
122.742
20
-115.932
11
122.763
21
-115.938
0
LINE
8
BLACK
6
CONTINUOUS
10
122.763
20
-115.938
11
122.782
21
-115.948
0
LINE
8
BLACK
6
CONTINUOUS
10
122.782
20
-115.948
11
122.798
21
-115.962
0
LINE
8
BLACK
6
CONTINUOUS
10
122.798
20
-115.962
11
122.812
21
-115.978
0
LINE
8
BLACK
6
CONTINUOUS
10
122.812
20
-115.978
11
122.822
21
-115.997
0
LINE
8
BLACK
6
CONTINUOUS
10
122.822
20
-115.997
11
122.828
21
-116.018
0
LINE
8
BLACK
6
CONTINUOUS
10
122.828
20
-116.018
11
122.831
21
-116.046
0
LINE
8
BLACK
6
CONTINUOUS
10
122.831
20
-116.046
11
122.831
21
-116.554
0
LINE
8
BLACK
6
CONTINUOUS
10
122.831
20
-116.554
11
122.828
21
-116.582
0
LINE
8
BLACK
6
CONTINUOUS
10
122.828
20
-116.582
11
122.822
21
-116.603
0
LINE
8
BLACK
6
CONTINUOUS
10
122.822
20
-116.603
11
122.812
21
-116.622
0
LINE
8
BLACK
6
CONTINUOUS
10
122.812
20
-116.622
11
122.798
21
-116.638
0
LINE
8
BLACK
6
CONTINUOUS
10
122.798
20
-116.638
11
122.782
21
-116.652
0
LINE
8
BLACK
6
CONTINUOUS
10
122.782
20
-116.652
11
122.763
21
-116.662
0
LINE
8
BLACK
6
CONTINUOUS
10
122.763
20
-116.662
11
122.742
21
-116.668
0
LINE
8
BLACK
6
CONTINUOUS
10
122.742
20
-116.668
11
122.714
21
-116.671
0
LINE
8
BLACK
6
CONTINUOUS
10
122.714
20
-116.671
11
122.256
21
-116.671
0
LINE
8
BLACK
6
CONTINUOUS
10
122.256
20
-116.671
11
122.228
21
-116.668
0
LINE
8
BLACK
6
CONTINUOUS
10
122.228
20
-116.668
11
122.207
21
-116.662
0
LINE
8
BLACK
6
CONTINUOUS
10
122.207
20
-116.662
11
122.188
21
-116.652
0
LINE
8
BLACK
6
CONTINUOUS
10
122.188
20
-116.652
11
122.172
21
-116.638
0
LINE
8
BLACK
6
CONTINUOUS
10
122.172
20
-116.638
11
122.158
21
-116.622
0
LINE
8
BLACK
6
CONTINUOUS
10
122.158
20
-116.622
11
122.148
21
-116.603
0
LINE
8
BLACK
6
CONTINUOUS
10
122.148
20
-116.603
11
122.142
21
-116.582
0
LINE
8
BLACK
6
CONTINUOUS
10
122.142
20
-116.582
11
122.139
21
-116.554
0
LINE
8
BLACK
6
CONTINUOUS
10
122.139
20
-116.554
11
122.139
21
-116.046
0
LINE
8
BLACK
6
CONTINUOUS
10
122.139
20
-116.046
11
122.142
21
-116.018
0
LINE
8
BLACK
6
CONTINUOUS
10
122.142
20
-116.018
11
122.148
21
-115.997
0
LINE
8
BLACK
6
CONTINUOUS
10
122.148
20
-115.997
11
122.158
21
-115.978
0
LINE
8
BLACK
6
CONTINUOUS
10
122.158
20
-115.978
11
122.172
21
-115.962
0
LINE
8
BLACK
6
CONTINUOUS
10
122.172
20
-115.962
11
122.188
21
-115.948
0
LINE
8
BLACK
6
CONTINUOUS
10
122.188
20
-115.948
11
122.207
21
-115.938
0
LINE
8
BLACK
6
CONTINUOUS
10
122.207
20
-115.938
11
122.228
21
-115.932
0
LINE
8
BLACK
6
CONTINUOUS
10
122.228
20
-115.932
11
122.256
21
-115.929
0
LINE
8
BLACK
6
CONTINUOUS
10
122.256
20
-115.929
11
122.714
21
-115.929
0
LINE
8
BLACK
6
CONTINUOUS
10
122.714
20
-115.929
11
122.742
21
-115.932
0
LINE
8
BLACK
6
CONTINUOUS
10
121.772
20
-115.932
11
121.793
21
-115.938
0
LINE
8
BLACK
6
CONTINUOUS
10
121.793
20
-115.938
11
121.812
21
-115.948
0
LINE
8
BLACK
6
CONTINUOUS
10
121.812
20
-115.948
11
121.828
21
-115.962
0
LINE
8
BLACK
6
CONTINUOUS
10
121.828
20
-115.962
11
121.842
21
-115.978
0
LINE
8
BLACK
6
CONTINUOUS
10
121.842
20
-115.978
11
121.852
21
-115.997
0
LINE
8
BLACK
6
CONTINUOUS
10
121.852
20
-115.997
11
121.858
21
-116.018
0
LINE
8
BLACK
6
CONTINUOUS
10
121.858
20
-116.018
11
121.861
21
-116.046
0
LINE
8
BLACK
6
CONTINUOUS
10
121.861
20
-116.046
11
121.861
21
-116.554
0
LINE
8
BLACK
6
CONTINUOUS
10
121.861
20
-116.554
11
121.858
21
-116.582
0
LINE
8
BLACK
6
CONTINUOUS
10
121.858
20
-116.582
11
121.852
21
-116.603
0
LINE
8
BLACK
6
CONTINUOUS
10
121.852
20
-116.603
11
121.842
21
-116.622
0
LINE
8
BLACK
6
CONTINUOUS
10
121.842
20
-116.622
11
121.828
21
-116.638
0
LINE
8
BLACK
6
CONTINUOUS
10
121.828
20
-116.638
11
121.812
21
-116.652
0
LINE
8
BLACK
6
CONTINUOUS
10
121.812
20
-116.652
11
121.793
21
-116.662
0
LINE
8
BLACK
6
CONTINUOUS
10
121.793
20
-116.662
11
121.772
21
-116.668
0
LINE
8
BLACK
6
CONTINUOUS
10
121.772
20
-116.668
11
121.744
21
-116.671
0
LINE
8
BLACK
6
CONTINUOUS
10
121.744
20
-116.671
11
121.286
21
-116.671
0
LINE
8
BLACK
6
CONTINUOUS
10
121.286
20
-116.671
11
121.258
21
-116.668
0
LINE
8
BLACK
6
CONTINUOUS
10
121.258
20
-116.668
11
121.237
21
-116.662
0
LINE
8
BLACK
6
CONTINUOUS
10
121.237
20
-116.662
11
121.218
21
-116.652
0
LINE
8
BLACK
6
CONTINUOUS
10
121.218
20
-116.652
11
121.202
21
-116.638
0
LINE
8
BLACK
6
CONTINUOUS
10
121.202
20
-116.638
11
121.188
21
-116.622
0
LINE
8
BLACK
6
CONTINUOUS
10
121.188
20
-116.622
11
121.178
21
-116.603
0
LINE
8
BLACK
6
CONTINUOUS
10
121.178
20
-116.603
11
121.172
21
-116.582
0
LINE
8
BLACK
6
CONTINUOUS
10
121.172
20
-116.582
11
121.169
21
-116.554
0
LINE
8
BLACK
6
CONTINUOUS
10
121.169
20
-116.554
11
121.169
21
-116.046
0
LINE
8
BLACK
6
CONTINUOUS
10
121.169
20
-116.046
11
121.172
21
-116.018
0
LINE
8
BLACK
6
CONTINUOUS
10
121.172
20
-116.018
11
121.178
21
-115.997
0
LINE
8
BLACK
6
CONTINUOUS
10
121.178
20
-115.997
11
121.188
21
-115.978
0
LINE
8
BLACK
6
CONTINUOUS
10
121.188
20
-115.978
11
121.202
21
-115.962
0
LINE
8
BLACK
6
CONTINUOUS
10
121.202
20
-115.962
11
121.218
21
-115.948
0
LINE
8
BLACK
6
CONTINUOUS
10
121.218
20
-115.948
11
121.237
21
-115.938
0
LINE
8
BLACK
6
CONTINUOUS
10
121.237
20
-115.938
11
121.258
21
-115.932
0
LINE
8
BLACK
6
CONTINUOUS
10
121.258
20
-115.932
11
121.286
21
-115.929
0
LINE
8
BLACK
6
CONTINUOUS
10
121.286
20
-115.929
11
121.744
21
-115.929
0
LINE
8
BLACK
6
CONTINUOUS
10
121.744
20
-115.929
11
121.772
21
-115.932
0
LINE
8
BLACK
6
CONTINUOUS
10
128.001
20
-116.401
11
125.999
21
-116.401
0
LINE
8
BLACK
6
CONTINUOUS
10
125.999
20
-116.401
11
125.999
21
-114.499
0
LINE
8
BLACK
6
CONTINUOUS
10
125.999
20
-114.499
11
128.001
21
-114.499
0
LINE
8
BLACK
6
CONTINUOUS
10
128.001
20
-114.499
11
128.001
21
-116.401
0
LINE
8
BLACK
6
CONTINUOUS
10
110.782
20
-115.072
11
110.803
21
-115.078
0
LINE
8
BLACK
6
CONTINUOUS
10
110.803
20
-115.078
11
110.822
21
-115.088
0
LINE
8
BLACK
6
CONTINUOUS
10
110.822
20
-115.088
11
110.838
21
-115.102
0
LINE
8
BLACK
6
CONTINUOUS
10
110.838
20
-115.102
11
110.852
21
-115.118
0
LINE
8
BLACK
6
CONTINUOUS
10
110.852
20
-115.118
11
110.862
21
-115.137
0
LINE
8
BLACK
6
CONTINUOUS
10
110.862
20
-115.137
11
110.868
21
-115.158
0
LINE
8
BLACK
6
CONTINUOUS
10
110.868
20
-115.158
11
110.871
21
-115.186
0
LINE
8
BLACK
6
CONTINUOUS
10
110.871
20
-115.186
11
110.871
21
-115.644
0
LINE
8
BLACK
6
CONTINUOUS
10
110.871
20
-115.644
11
110.868
21
-115.672
0
LINE
8
BLACK
6
CONTINUOUS
10
110.868
20
-115.672
11
110.862
21
-115.693
0
LINE
8
BLACK
6
CONTINUOUS
10
110.862
20
-115.693
11
110.852
21
-115.712
0
LINE
8
BLACK
6
CONTINUOUS
10
110.852
20
-115.712
11
110.838
21
-115.728
0
LINE
8
BLACK
6
CONTINUOUS
10
110.838
20
-115.728
11
110.822
21
-115.742
0
LINE
8
BLACK
6
CONTINUOUS
10
110.822
20
-115.742
11
110.803
21
-115.752
0
LINE
8
BLACK
6
CONTINUOUS
10
110.803
20
-115.752
11
110.782
21
-115.758
0
LINE
8
BLACK
6
CONTINUOUS
10
110.782
20
-115.758
11
110.754
21
-115.761
0
LINE
8
BLACK
6
CONTINUOUS
10
110.754
20
-115.761
11
110.246
21
-115.761
0
LINE
8
BLACK
6
CONTINUOUS
10
110.246
20
-115.761
11
110.218
21
-115.758
0
LINE
8
BLACK
6
CONTINUOUS
10
110.218
20
-115.758
11
110.197
21
-115.752
0
LINE
8
BLACK
6
CONTINUOUS
10
110.197
20
-115.752
11
110.178
21
-115.742
0
LINE
8
BLACK
6
CONTINUOUS
10
110.178
20
-115.742
11
110.162
21
-115.728
0
LINE
8
BLACK
6
CONTINUOUS
10
110.162
20
-115.728
11
110.148
21
-115.712
0
LINE
8
BLACK
6
CONTINUOUS
10
110.148
20
-115.712
11
110.138
21
-115.693
0
LINE
8
BLACK
6
CONTINUOUS
10
110.138
20
-115.693
11
110.132
21
-115.672
0
LINE
8
BLACK
6
CONTINUOUS
10
110.132
20
-115.672
11
110.129
21
-115.644
0
LINE
8
BLACK
6
CONTINUOUS
10
110.129
20
-115.644
11
110.129
21
-115.186
0
LINE
8
BLACK
6
CONTINUOUS
10
110.129
20
-115.186
11
110.132
21
-115.158
0
LINE
8
BLACK
6
CONTINUOUS
10
110.132
20
-115.158
11
110.138
21
-115.137
0
LINE
8
BLACK
6
CONTINUOUS
10
110.138
20
-115.137
11
110.148
21
-115.118
0
LINE
8
BLACK
6
CONTINUOUS
10
110.148
20
-115.118
11
110.162
21
-115.102
0
LINE
8
BLACK
6
CONTINUOUS
10
110.162
20
-115.102
11
110.178
21
-115.088
0
LINE
8
BLACK
6
CONTINUOUS
10
110.178
20
-115.088
11
110.197
21
-115.078
0
LINE
8
BLACK
6
CONTINUOUS
10
110.197
20
-115.078
11
110.218
21
-115.072
0
LINE
8
BLACK
6
CONTINUOUS
10
110.218
20
-115.072
11
110.246
21
-115.069
0
LINE
8
BLACK
6
CONTINUOUS
10
110.246
20
-115.069
11
110.754
21
-115.069
0
LINE
8
BLACK
6
CONTINUOUS
10
110.754
20
-115.069
11
110.782
21
-115.072
0
LINE
8
BLACK
6
CONTINUOUS
10
107.782
20
-115.072
11
107.803
21
-115.078
0
LINE
8
BLACK
6
CONTINUOUS
10
107.803
20
-115.078
11
107.822
21
-115.088
0
LINE
8
BLACK
6
CONTINUOUS
10
107.822
20
-115.088
11
107.838
21
-115.102
0
LINE
8
BLACK
6
CONTINUOUS
10
107.838
20
-115.102
11
107.852
21
-115.118
0
LINE
8
BLACK
6
CONTINUOUS
10
107.852
20
-115.118
11
107.862
21
-115.137
0
LINE
8
BLACK
6
CONTINUOUS
10
107.862
20
-115.137
11
107.868
21
-115.158
0
LINE
8
BLACK
6
CONTINUOUS
10
107.868
20
-115.158
11
107.871
21
-115.186
0
LINE
8
BLACK
6
CONTINUOUS
10
107.871
20
-115.186
11
107.871
21
-115.644
0
LINE
8
BLACK
6
CONTINUOUS
10
107.871
20
-115.644
11
107.868
21
-115.672
0
LINE
8
BLACK
6
CONTINUOUS
10
107.868
20
-115.672
11
107.862
21
-115.693
0
LINE
8
BLACK
6
CONTINUOUS
10
107.862
20
-115.693
11
107.852
21
-115.712
0
LINE
8
BLACK
6
CONTINUOUS
10
107.852
20
-115.712
11
107.838
21
-115.728
0
LINE
8
BLACK
6
CONTINUOUS
10
107.838
20
-115.728
11
107.822
21
-115.742
0
LINE
8
BLACK
6
CONTINUOUS
10
107.822
20
-115.742
11
107.803
21
-115.752
0
LINE
8
BLACK
6
CONTINUOUS
10
107.803
20
-115.752
11
107.782
21
-115.758
0
LINE
8
BLACK
6
CONTINUOUS
10
107.782
20
-115.758
11
107.754
21
-115.761
0
LINE
8
BLACK
6
CONTINUOUS
10
107.754
20
-115.761
11
107.246
21
-115.761
0
LINE
8
BLACK
6
CONTINUOUS
10
107.246
20
-115.761
11
107.218
21
-115.758
0
LINE
8
BLACK
6
CONTINUOUS
10
107.218
20
-115.758
11
107.197
21
-115.752
0
LINE
8
BLACK
6
CONTINUOUS
10
107.197
20
-115.752
11
107.178
21
-115.742
0
LINE
8
BLACK
6
CONTINUOUS
10
107.178
20
-115.742
11
107.162
21
-115.728
0
LINE
8
BLACK
6
CONTINUOUS
10
107.162
20
-115.728
11
107.148
21
-115.712
0
LINE
8
BLACK
6
CONTINUOUS
10
107.148
20
-115.712
11
107.138
21
-115.693
0
LINE
8
BLACK
6
CONTINUOUS
10
107.138
20
-115.693
11
107.132
21
-115.672
0
LINE
8
BLACK
6
CONTINUOUS
10
107.132
20
-115.672
11
107.129
21
-115.644
0
LINE
8
BLACK
6
CONTINUOUS
10
107.129
20
-115.644
11
107.129
21
-115.186
0
LINE
8
BLACK
6
CONTINUOUS
10
107.129
20
-115.186
11
107.132
21
-115.158
0
LINE
8
BLACK
6
CONTINUOUS
10
107.132
20
-115.158
11
107.138
21
-115.137
0
LINE
8
BLACK
6
CONTINUOUS
10
107.138
20
-115.137
11
107.148
21
-115.118
0
LINE
8
BLACK
6
CONTINUOUS
10
107.148
20
-115.118
11
107.162
21
-115.102
0
LINE
8
BLACK
6
CONTINUOUS
10
107.162
20
-115.102
11
107.178
21
-115.088
0
LINE
8
BLACK
6
CONTINUOUS
10
107.178
20
-115.088
11
107.197
21
-115.078
0
LINE
8
BLACK
6
CONTINUOUS
10
107.197
20
-115.078
11
107.218
21
-115.072
0
LINE
8
BLACK
6
CONTINUOUS
10
107.218
20
-115.072
11
107.246
21
-115.069
0
LINE
8
BLACK
6
CONTINUOUS
10
107.246
20
-115.069
11
107.754
21
-115.069
0
LINE
8
BLACK
6
CONTINUOUS
10
107.754
20
-115.069
11
107.782
21
-115.072
0
LINE
8
BLACK
6
CONTINUOUS
10
109.282
20
-115.072
11
109.303
21
-115.078
0
LINE
8
BLACK
6
CONTINUOUS
10
109.303
20
-115.078
11
109.322
21
-115.088
0
LINE
8
BLACK
6
CONTINUOUS
10
109.322
20
-115.088
11
109.338
21
-115.102
0
LINE
8
BLACK
6
CONTINUOUS
10
109.338
20
-115.102
11
109.352
21
-115.118
0
LINE
8
BLACK
6
CONTINUOUS
10
109.352
20
-115.118
11
109.362
21
-115.137
0
LINE
8
BLACK
6
CONTINUOUS
10
109.362
20
-115.137
11
109.368
21
-115.158
0
LINE
8
BLACK
6
CONTINUOUS
10
109.368
20
-115.158
11
109.371
21
-115.186
0
LINE
8
BLACK
6
CONTINUOUS
10
109.371
20
-115.186
11
109.371
21
-115.644
0
LINE
8
BLACK
6
CONTINUOUS
10
109.371
20
-115.644
11
109.368
21
-115.672
0
LINE
8
BLACK
6
CONTINUOUS
10
109.368
20
-115.672
11
109.362
21
-115.693
0
LINE
8
BLACK
6
CONTINUOUS
10
109.362
20
-115.693
11
109.352
21
-115.712
0
LINE
8
BLACK
6
CONTINUOUS
10
109.352
20
-115.712
11
109.338
21
-115.728
0
LINE
8
BLACK
6
CONTINUOUS
10
109.338
20
-115.728
11
109.322
21
-115.742
0
LINE
8
BLACK
6
CONTINUOUS
10
109.322
20
-115.742
11
109.303
21
-115.752
0
LINE
8
BLACK
6
CONTINUOUS
10
109.303
20
-115.752
11
109.282
21
-115.758
0
LINE
8
BLACK
6
CONTINUOUS
10
109.282
20
-115.758
11
109.254
21
-115.761
0
LINE
8
BLACK
6
CONTINUOUS
10
109.254
20
-115.761
11
108.746
21
-115.761
0
LINE
8
BLACK
6
CONTINUOUS
10
108.746
20
-115.761
11
108.718
21
-115.758
0
LINE
8
BLACK
6
CONTINUOUS
10
108.718
20
-115.758
11
108.697
21
-115.752
0
LINE
8
BLACK
6
CONTINUOUS
10
108.697
20
-115.752
11
108.678
21
-115.742
0
LINE
8
BLACK
6
CONTINUOUS
10
108.678
20
-115.742
11
108.662
21
-115.728
0
LINE
8
BLACK
6
CONTINUOUS
10
108.662
20
-115.728
11
108.648
21
-115.712
0
LINE
8
BLACK
6
CONTINUOUS
10
108.648
20
-115.712
11
108.638
21
-115.693
0
LINE
8
BLACK
6
CONTINUOUS
10
108.638
20
-115.693
11
108.632
21
-115.672
0
LINE
8
BLACK
6
CONTINUOUS
10
108.632
20
-115.672
11
108.629
21
-115.644
0
LINE
8
BLACK
6
CONTINUOUS
10
108.629
20
-115.644
11
108.629
21
-115.186
0
LINE
8
BLACK
6
CONTINUOUS
10
108.629
20
-115.186
11
108.632
21
-115.158
0
LINE
8
BLACK
6
CONTINUOUS
10
108.632
20
-115.158
11
108.638
21
-115.137
0
LINE
8
BLACK
6
CONTINUOUS
10
108.638
20
-115.137
11
108.648
21
-115.118
0
LINE
8
BLACK
6
CONTINUOUS
10
108.648
20
-115.118
11
108.662
21
-115.102
0
LINE
8
BLACK
6
CONTINUOUS
10
108.662
20
-115.102
11
108.678
21
-115.088
0
LINE
8
BLACK
6
CONTINUOUS
10
108.678
20
-115.088
11
108.697
21
-115.078
0
LINE
8
BLACK
6
CONTINUOUS
10
108.697
20
-115.078
11
108.718
21
-115.072
0
LINE
8
BLACK
6
CONTINUOUS
10
108.718
20
-115.072
11
108.746
21
-115.069
0
LINE
8
BLACK
6
CONTINUOUS
10
108.746
20
-115.069
11
109.254
21
-115.069
0
LINE
8
BLACK
6
CONTINUOUS
10
109.254
20
-115.069
11
109.282
21
-115.072
0
LINE
8
BLACK
6
CONTINUOUS
10
124.213
20
-113.607
11
124.321
21
-113.64
0
LINE
8
BLACK
6
CONTINUOUS
10
124.321
20
-113.64
11
124.321
21
-113.64
0
LINE
8
BLACK
6
CONTINUOUS
10
124.321
20
-113.64
11
124.358
21
-113.66
0
LINE
8
BLACK
6
CONTINUOUS
10
124.358
20
-113.66
11
124.422
21
-113.694
0
LINE
8
BLACK
6
CONTINUOUS
10
124.422
20
-113.694
11
124.509
21
-113.766
0
LINE
8
BLACK
6
CONTINUOUS
10
124.509
20
-113.766
11
124.581
21
-113.853
0
LINE
8
BLACK
6
CONTINUOUS
10
124.581
20
-113.853
11
124.615
21
-113.917
0
LINE
8
BLACK
6
CONTINUOUS
10
124.615
20
-113.917
11
124.635
21
-113.954
0
LINE
8
BLACK
6
CONTINUOUS
10
124.635
20
-113.954
11
124.635
21
-113.954
0
LINE
8
BLACK
6
CONTINUOUS
10
124.635
20
-113.954
11
124.668
21
-114.062
0
LINE
8
BLACK
6
CONTINUOUS
10
124.668
20
-114.062
11
124.679
21
-114.175
0
LINE
8
BLACK
6
CONTINUOUS
10
124.679
20
-114.175
11
124.668
21
-114.288
0
LINE
8
BLACK
6
CONTINUOUS
10
124.668
20
-114.288
11
124.635
21
-114.396
0
LINE
8
BLACK
6
CONTINUOUS
10
124.635
20
-114.396
11
124.635
21
-114.396
0
LINE
8
BLACK
6
CONTINUOUS
10
124.635
20
-114.396
11
124.615
21
-114.433
0
LINE
8
BLACK
6
CONTINUOUS
10
124.615
20
-114.433
11
124.581
21
-114.497
0
LINE
8
BLACK
6
CONTINUOUS
10
124.581
20
-114.497
11
124.509
21
-114.584
0
LINE
8
BLACK
6
CONTINUOUS
10
124.509
20
-114.584
11
124.422
21
-114.656
0
LINE
8
BLACK
6
CONTINUOUS
10
124.422
20
-114.656
11
124.358
21
-114.69
0
LINE
8
BLACK
6
CONTINUOUS
10
124.358
20
-114.69
11
124.321
21
-114.71
0
LINE
8
BLACK
6
CONTINUOUS
10
124.321
20
-114.71
11
124.321
21
-114.71
0
LINE
8
BLACK
6
CONTINUOUS
10
124.321
20
-114.71
11
124.213
21
-114.743
0
LINE
8
BLACK
6
CONTINUOUS
10
124.213
20
-114.743
11
124.128
21
-114.751
0
LINE
8
BLACK
6
CONTINUOUS
10
124.128
20
-114.751
11
123.872
21
-114.751
0
LINE
8
BLACK
6
CONTINUOUS
10
123.872
20
-114.751
11
123.787
21
-114.743
0
LINE
8
BLACK
6
CONTINUOUS
10
123.787
20
-114.743
11
123.679
21
-114.71
0
LINE
8
BLACK
6
CONTINUOUS
10
123.679
20
-114.71
11
123.679
21
-114.71
0
LINE
8
BLACK
6
CONTINUOUS
10
123.679
20
-114.71
11
123.642
21
-114.69
0
LINE
8
BLACK
6
CONTINUOUS
10
123.642
20
-114.69
11
123.578
21
-114.656
0
LINE
8
BLACK
6
CONTINUOUS
10
123.578
20
-114.656
11
123.491
21
-114.584
0
LINE
8
BLACK
6
CONTINUOUS
10
123.491
20
-114.584
11
123.419
21
-114.497
0
LINE
8
BLACK
6
CONTINUOUS
10
123.419
20
-114.497
11
123.385
21
-114.433
0
LINE
8
BLACK
6
CONTINUOUS
10
123.385
20
-114.433
11
123.365
21
-114.396
0
LINE
8
BLACK
6
CONTINUOUS
10
123.365
20
-114.396
11
123.365
21
-114.396
0
LINE
8
BLACK
6
CONTINUOUS
10
123.365
20
-114.396
11
123.332
21
-114.288
0
LINE
8
BLACK
6
CONTINUOUS
10
123.332
20
-114.288
11
123.321
21
-114.175
0
LINE
8
BLACK
6
CONTINUOUS
10
123.321
20
-114.175
11
123.332
21
-114.062
0
LINE
8
BLACK
6
CONTINUOUS
10
123.332
20
-114.062
11
123.365
21
-113.954
0
LINE
8
BLACK
6
CONTINUOUS
10
123.365
20
-113.954
11
123.365
21
-113.954
0
LINE
8
BLACK
6
CONTINUOUS
10
123.365
20
-113.954
11
123.385
21
-113.917
0
LINE
8
BLACK
6
CONTINUOUS
10
123.385
20
-113.917
11
123.419
21
-113.853
0
LINE
8
BLACK
6
CONTINUOUS
10
123.419
20
-113.853
11
123.491
21
-113.766
0
LINE
8
BLACK
6
CONTINUOUS
10
123.491
20
-113.766
11
123.578
21
-113.694
0
LINE
8
BLACK
6
CONTINUOUS
10
123.578
20
-113.694
11
123.642
21
-113.66
0
LINE
8
BLACK
6
CONTINUOUS
10
123.642
20
-113.66
11
123.679
21
-113.64
0
LINE
8
BLACK
6
CONTINUOUS
10
123.679
20
-113.64
11
123.679
21
-113.64
0
LINE
8
BLACK
6
CONTINUOUS
10
123.679
20
-113.64
11
123.787
21
-113.607
0
LINE
8
BLACK
6
CONTINUOUS
10
123.787
20
-113.607
11
123.872
21
-113.599
0
LINE
8
BLACK
6
CONTINUOUS
10
123.872
20
-113.599
11
124.128
21
-113.599
0
LINE
8
BLACK
6
CONTINUOUS
10
124.128
20
-113.599
11
124.213
21
-113.607
0
LINE
8
BLACK
6
CONTINUOUS
10
120.351
20
-114.726
11
119.649
21
-114.726
0
LINE
8
BLACK
6
CONTINUOUS
10
119.649
20
-114.726
11
119.649
21
-113.274
0
LINE
8
BLACK
6
CONTINUOUS
10
119.649
20
-113.274
11
120.351
21
-113.274
0
LINE
8
BLACK
6
CONTINUOUS
10
120.351
20
-113.274
11
120.351
21
-114.726
0
LINE
8
BLACK
6
CONTINUOUS
10
121.751
20
-114.726
11
121.049
21
-114.726
0
LINE
8
BLACK
6
CONTINUOUS
10
121.049
20
-114.726
11
121.049
21
-113.274
0
LINE
8
BLACK
6
CONTINUOUS
10
121.049
20
-113.274
11
121.751
21
-113.274
0
LINE
8
BLACK
6
CONTINUOUS
10
121.751
20
-113.274
11
121.751
21
-114.726
0
LINE
8
BLACK
6
CONTINUOUS
10
128.001
20
-114.051
11
125.999
21
-114.051
0
LINE
8
BLACK
6
CONTINUOUS
10
125.999
20
-114.051
11
125.999
21
-111.849
0
LINE
8
BLACK
6
CONTINUOUS
10
125.999
20
-111.849
11
128.001
21
-111.849
0
LINE
8
BLACK
6
CONTINUOUS
10
128.001
20
-111.849
11
128.001
21
-114.051
0
LINE
8
BLACK
6
CONTINUOUS
10
118.709
20
-110.854
11
118.748
21
-110.865
0
LINE
8
BLACK
6
CONTINUOUS
10
118.748
20
-110.865
11
118.784
21
-110.884
0
LINE
8
BLACK
6
CONTINUOUS
10
118.784
20
-110.884
11
118.815
21
-110.91
0
LINE
8
BLACK
6
CONTINUOUS
10
118.815
20
-110.91
11
118.841
21
-110.941
0
LINE
8
BLACK
6
CONTINUOUS
10
118.841
20
-110.941
11
118.86
21
-110.977
0
LINE
8
BLACK
6
CONTINUOUS
10
118.86
20
-110.977
11
118.871
21
-111.016
0
LINE
8
BLACK
6
CONTINUOUS
10
118.871
20
-111.016
11
118.876
21
-111.062
0
LINE
8
BLACK
6
CONTINUOUS
10
118.876
20
-111.062
11
118.876
21
-112.138
0
LINE
8
BLACK
6
CONTINUOUS
10
118.876
20
-112.138
11
118.871
21
-112.184
0
LINE
8
BLACK
6
CONTINUOUS
10
118.871
20
-112.184
11
118.86
21
-112.223
0
LINE
8
BLACK
6
CONTINUOUS
10
118.86
20
-112.223
11
118.841
21
-112.259
0
LINE
8
BLACK
6
CONTINUOUS
10
118.841
20
-112.259
11
118.815
21
-112.29
0
LINE
8
BLACK
6
CONTINUOUS
10
118.815
20
-112.29
11
118.784
21
-112.316
0
LINE
8
BLACK
6
CONTINUOUS
10
118.784
20
-112.316
11
118.748
21
-112.335
0
LINE
8
BLACK
6
CONTINUOUS
10
118.748
20
-112.335
11
118.709
21
-112.346
0
LINE
8
BLACK
6
CONTINUOUS
10
118.709
20
-112.346
11
118.663
21
-112.351
0
LINE
8
BLACK
6
CONTINUOUS
10
118.663
20
-112.351
11
118.012
21
-112.351
0
LINE
8
BLACK
6
CONTINUOUS
10
118.012
20
-112.351
11
117.966
21
-112.346
0
LINE
8
BLACK
6
CONTINUOUS
10
117.966
20
-112.346
11
117.927
21
-112.335
0
LINE
8
BLACK
6
CONTINUOUS
10
117.927
20
-112.335
11
117.891
21
-112.316
0
LINE
8
BLACK
6
CONTINUOUS
10
117.891
20
-112.316
11
117.86
21
-112.29
0
LINE
8
BLACK
6
CONTINUOUS
10
117.86
20
-112.29
11
117.834
21
-112.259
0
LINE
8
BLACK
6
CONTINUOUS
10
117.834
20
-112.259
11
117.815
21
-112.223
0
LINE
8
BLACK
6
CONTINUOUS
10
117.815
20
-112.223
11
117.804
21
-112.184
0
LINE
8
BLACK
6
CONTINUOUS
10
117.804
20
-112.184
11
117.799
21
-112.138
0
LINE
8
BLACK
6
CONTINUOUS
10
117.799
20
-112.138
11
117.799
21
-111.062
0
LINE
8
BLACK
6
CONTINUOUS
10
117.799
20
-111.062
11
117.804
21
-111.016
0
LINE
8
BLACK
6
CONTINUOUS
10
117.804
20
-111.016
11
117.815
21
-110.977
0
LINE
8
BLACK
6
CONTINUOUS
10
117.815
20
-110.977
11
117.834
21
-110.941
0
LINE
8
BLACK
6
CONTINUOUS
10
117.834
20
-110.941
11
117.86
21
-110.91
0
LINE
8
BLACK
6
CONTINUOUS
10
117.86
20
-110.91
11
117.891
21
-110.884
0
LINE
8
BLACK
6
CONTINUOUS
10
117.891
20
-110.884
11
117.927
21
-110.865
0
LINE
8
BLACK
6
CONTINUOUS
10
117.927
20
-110.865
11
117.966
21
-110.854
0
LINE
8
BLACK
6
CONTINUOUS
10
117.966
20
-110.854
11
118.012
21
-110.849
0
LINE
8
BLACK
6
CONTINUOUS
10
118.012
20
-110.849
11
118.663
21
-110.849
0
LINE
8
BLACK
6
CONTINUOUS
10
118.663
20
-110.849
11
118.709
21
-110.854
0
LINE
8
BLACK
6
CONTINUOUS
10
116.834
20
-110.854
11
116.873
21
-110.865
0
LINE
8
BLACK
6
CONTINUOUS
10
116.873
20
-110.865
11
116.909
21
-110.884
0
LINE
8
BLACK
6
CONTINUOUS
10
116.909
20
-110.884
11
116.94
21
-110.91
0
LINE
8
BLACK
6
CONTINUOUS
10
116.94
20
-110.91
11
116.966
21
-110.941
0
LINE
8
BLACK
6
CONTINUOUS
10
116.966
20
-110.941
11
116.985
21
-110.977
0
LINE
8
BLACK
6
CONTINUOUS
10
116.985
20
-110.977
11
116.996
21
-111.016
0
LINE
8
BLACK
6
CONTINUOUS
10
116.996
20
-111.016
11
117.001
21
-111.062
0
LINE
8
BLACK
6
CONTINUOUS
10
117.001
20
-111.062
11
117.001
21
-112.138
0
LINE
8
BLACK
6
CONTINUOUS
10
117.001
20
-112.138
11
116.996
21
-112.184
0
LINE
8
BLACK
6
CONTINUOUS
10
116.996
20
-112.184
11
116.985
21
-112.223
0
LINE
8
BLACK
6
CONTINUOUS
10
116.985
20
-112.223
11
116.966
21
-112.259
0
LINE
8
BLACK
6
CONTINUOUS
10
116.966
20
-112.259
11
116.94
21
-112.29
0
LINE
8
BLACK
6
CONTINUOUS
10
116.94
20
-112.29
11
116.909
21
-112.316
0
LINE
8
BLACK
6
CONTINUOUS
10
116.909
20
-112.316
11
116.873
21
-112.335
0
LINE
8
BLACK
6
CONTINUOUS
10
116.873
20
-112.335
11
116.834
21
-112.346
0
LINE
8
BLACK
6
CONTINUOUS
10
116.834
20
-112.346
11
116.788
21
-112.351
0
LINE
8
BLACK
6
CONTINUOUS
10
116.788
20
-112.351
11
116.137
21
-112.351
0
LINE
8
BLACK
6
CONTINUOUS
10
116.137
20
-112.351
11
116.091
21
-112.346
0
LINE
8
BLACK
6
CONTINUOUS
10
116.091
20
-112.346
11
116.052
21
-112.335
0
LINE
8
BLACK
6
CONTINUOUS
10
116.052
20
-112.335
11
116.016
21
-112.316
0
LINE
8
BLACK
6
CONTINUOUS
10
116.016
20
-112.316
11
115.985
21
-112.29
0
LINE
8
BLACK
6
CONTINUOUS
10
115.985
20
-112.29
11
115.959
21
-112.259
0
LINE
8
BLACK
6
CONTINUOUS
10
115.959
20
-112.259
11
115.94
21
-112.223
0
LINE
8
BLACK
6
CONTINUOUS
10
115.94
20
-112.223
11
115.929
21
-112.184
0
LINE
8
BLACK
6
CONTINUOUS
10
115.929
20
-112.184
11
115.924
21
-112.138
0
LINE
8
BLACK
6
CONTINUOUS
10
115.924
20
-112.138
11
115.924
21
-111.062
0
LINE
8
BLACK
6
CONTINUOUS
10
115.924
20
-111.062
11
115.929
21
-111.016
0
LINE
8
BLACK
6
CONTINUOUS
10
115.929
20
-111.016
11
115.94
21
-110.977
0
LINE
8
BLACK
6
CONTINUOUS
10
115.94
20
-110.977
11
115.959
21
-110.941
0
LINE
8
BLACK
6
CONTINUOUS
10
115.959
20
-110.941
11
115.985
21
-110.91
0
LINE
8
BLACK
6
CONTINUOUS
10
115.985
20
-110.91
11
116.016
21
-110.884
0
LINE
8
BLACK
6
CONTINUOUS
10
116.016
20
-110.884
11
116.052
21
-110.865
0
LINE
8
BLACK
6
CONTINUOUS
10
116.052
20
-110.865
11
116.091
21
-110.854
0
LINE
8
BLACK
6
CONTINUOUS
10
116.091
20
-110.854
11
116.137
21
-110.849
0
LINE
8
BLACK
6
CONTINUOUS
10
116.137
20
-110.849
11
116.788
21
-110.849
0
LINE
8
BLACK
6
CONTINUOUS
10
116.788
20
-110.849
11
116.834
21
-110.854
0
LINE
8
BLACK
6
CONTINUOUS
10
113.927
20
-108.087
11
114.096
21
-108.139
0
LINE
8
BLACK
6
CONTINUOUS
10
114.096
20
-108.139
11
114.253
21
-108.222
0
LINE
8
BLACK
6
CONTINUOUS
10
114.253
20
-108.222
11
114.275
21
-108.24
0
LINE
8
BLACK
6
CONTINUOUS
10
114.275
20
-108.24
11
114.39
21
-108.335
0
LINE
8
BLACK
6
CONTINUOUS
10
114.39
20
-108.335
11
114.473
21
-108.436
0
LINE
8
BLACK
6
CONTINUOUS
10
114.473
20
-108.436
11
114.503
21
-108.472
0
LINE
8
BLACK
6
CONTINUOUS
10
114.503
20
-108.472
11
114.586
21
-108.629
0
LINE
8
BLACK
6
CONTINUOUS
10
114.586
20
-108.629
11
114.638
21
-108.798
0
LINE
8
BLACK
6
CONTINUOUS
10
114.638
20
-108.798
11
114.638
21
-108.798
0
LINE
8
BLACK
6
CONTINUOUS
10
114.638
20
-108.798
11
114.651
21
-108.931
0
LINE
8
BLACK
6
CONTINUOUS
10
114.651
20
-108.931
11
114.651
21
-109.269
0
LINE
8
BLACK
6
CONTINUOUS
10
114.651
20
-109.269
11
114.645
21
-109.328
0
LINE
8
BLACK
6
CONTINUOUS
10
114.645
20
-109.328
11
114.638
21
-109.402
0
LINE
8
BLACK
6
CONTINUOUS
10
114.638
20
-109.402
11
114.586
21
-109.571
0
LINE
8
BLACK
6
CONTINUOUS
10
114.586
20
-109.571
11
114.503
21
-109.728
0
LINE
8
BLACK
6
CONTINUOUS
10
114.503
20
-109.728
11
114.473
21
-109.764
0
LINE
8
BLACK
6
CONTINUOUS
10
114.473
20
-109.764
11
114.39
21
-109.865
0
LINE
8
BLACK
6
CONTINUOUS
10
114.39
20
-109.865
11
114.253
21
-109.978
0
LINE
8
BLACK
6
CONTINUOUS
10
114.253
20
-109.978
11
114.096
21
-110.061
0
LINE
8
BLACK
6
CONTINUOUS
10
114.096
20
-110.061
11
114.096
21
-110.061
0
LINE
8
BLACK
6
CONTINUOUS
10
114.096
20
-110.061
11
113.927
21
-110.113
0
LINE
8
BLACK
6
CONTINUOUS
10
113.927
20
-110.113
11
113.75
21
-110.13
0
LINE
8
BLACK
6
CONTINUOUS
10
113.75
20
-110.13
11
113.573
21
-110.113
0
LINE
8
BLACK
6
CONTINUOUS
10
113.573
20
-110.113
11
113.404
21
-110.061
0
LINE
8
BLACK
6
CONTINUOUS
10
113.404
20
-110.061
11
113.247
21
-109.978
0
LINE
8
BLACK
6
CONTINUOUS
10
113.247
20
-109.978
11
113.205
21
-109.943
0
LINE
8
BLACK
6
CONTINUOUS
10
113.205
20
-109.943
11
113.11
21
-109.865
0
LINE
8
BLACK
6
CONTINUOUS
10
113.11
20
-109.865
11
112.997
21
-109.728
0
LINE
8
BLACK
6
CONTINUOUS
10
112.997
20
-109.728
11
112.914
21
-109.571
0
LINE
8
BLACK
6
CONTINUOUS
10
112.914
20
-109.571
11
112.914
21
-109.571
0
LINE
8
BLACK
6
CONTINUOUS
10
112.914
20
-109.571
11
112.862
21
-109.402
0
LINE
8
BLACK
6
CONTINUOUS
10
112.862
20
-109.402
11
112.849
21
-109.269
0
LINE
8
BLACK
6
CONTINUOUS
10
112.849
20
-109.269
11
112.849
21
-108.931
0
LINE
8
BLACK
6
CONTINUOUS
10
112.849
20
-108.931
11
112.862
21
-108.798
0
LINE
8
BLACK
6
CONTINUOUS
10
112.862
20
-108.798
11
112.914
21
-108.629
0
LINE
8
BLACK
6
CONTINUOUS
10
112.914
20
-108.629
11
112.997
21
-108.472
0
LINE
8
BLACK
6
CONTINUOUS
10
112.997
20
-108.472
11
113.11
21
-108.335
0
LINE
8
BLACK
6
CONTINUOUS
10
113.11
20
-108.335
11
113.247
21
-108.222
0
LINE
8
BLACK
6
CONTINUOUS
10
113.247
20
-108.222
11
113.404
21
-108.139
0
LINE
8
BLACK
6
CONTINUOUS
10
113.404
20
-108.139
11
113.573
21
-108.087
0
LINE
8
BLACK
6
CONTINUOUS
10
113.573
20
-108.087
11
113.75
21
-108.07
0
LINE
8
BLACK
6
CONTINUOUS
10
113.75
20
-108.07
11
113.927
21
-108.087
0
LINE
8
BLACK
6
CONTINUOUS
10
116.427
20
-108.087
11
116.596
21
-108.139
0
LINE
8
BLACK
6
CONTINUOUS
10
116.596
20
-108.139
11
116.753
21
-108.222
0
LINE
8
BLACK
6
CONTINUOUS
10
116.753
20
-108.222
11
116.775
21
-108.24
0
LINE
8
BLACK
6
CONTINUOUS
10
116.775
20
-108.24
11
116.89
21
-108.335
0
LINE
8
BLACK
6
CONTINUOUS
10
116.89
20
-108.335
11
116.973
21
-108.436
0
LINE
8
BLACK
6
CONTINUOUS
10
116.973
20
-108.436
11
117.003
21
-108.472
0
LINE
8
BLACK
6
CONTINUOUS
10
117.003
20
-108.472
11
117.086
21
-108.629
0
LINE
8
BLACK
6
CONTINUOUS
10
117.086
20
-108.629
11
117.138
21
-108.798
0
LINE
8
BLACK
6
CONTINUOUS
10
117.138
20
-108.798
11
117.138
21
-108.798
0
LINE
8
BLACK
6
CONTINUOUS
10
117.138
20
-108.798
11
117.151
21
-108.931
0
LINE
8
BLACK
6
CONTINUOUS
10
117.151
20
-108.931
11
117.151
21
-109.269
0
LINE
8
BLACK
6
CONTINUOUS
10
117.151
20
-109.269
11
117.145
21
-109.328
0
LINE
8
BLACK
6
CONTINUOUS
10
117.145
20
-109.328
11
117.138
21
-109.402
0
LINE
8
BLACK
6
CONTINUOUS
10
117.138
20
-109.402
11
117.086
21
-109.571
0
LINE
8
BLACK
6
CONTINUOUS
10
117.086
20
-109.571
11
117.003
21
-109.728
0
LINE
8
BLACK
6
CONTINUOUS
10
117.003
20
-109.728
11
116.973
21
-109.764
0
LINE
8
BLACK
6
CONTINUOUS
10
116.973
20
-109.764
11
116.89
21
-109.865
0
LINE
8
BLACK
6
CONTINUOUS
10
116.89
20
-109.865
11
116.753
21
-109.978
0
LINE
8
BLACK
6
CONTINUOUS
10
116.753
20
-109.978
11
116.596
21
-110.061
0
LINE
8
BLACK
6
CONTINUOUS
10
116.596
20
-110.061
11
116.596
21
-110.061
0
LINE
8
BLACK
6
CONTINUOUS
10
116.596
20
-110.061
11
116.427
21
-110.113
0
LINE
8
BLACK
6
CONTINUOUS
10
116.427
20
-110.113
11
116.25
21
-110.13
0
LINE
8
BLACK
6
CONTINUOUS
10
116.25
20
-110.13
11
116.073
21
-110.113
0
LINE
8
BLACK
6
CONTINUOUS
10
116.073
20
-110.113
11
115.904
21
-110.061
0
LINE
8
BLACK
6
CONTINUOUS
10
115.904
20
-110.061
11
115.747
21
-109.978
0
LINE
8
BLACK
6
CONTINUOUS
10
115.747
20
-109.978
11
115.705
21
-109.943
0
LINE
8
BLACK
6
CONTINUOUS
10
115.705
20
-109.943
11
115.61
21
-109.865
0
LINE
8
BLACK
6
CONTINUOUS
10
115.61
20
-109.865
11
115.497
21
-109.728
0
LINE
8
BLACK
6
CONTINUOUS
10
115.497
20
-109.728
11
115.414
21
-109.571
0
LINE
8
BLACK
6
CONTINUOUS
10
115.414
20
-109.571
11
115.414
21
-109.571
0
LINE
8
BLACK
6
CONTINUOUS
10
115.414
20
-109.571
11
115.362
21
-109.402
0
LINE
8
BLACK
6
CONTINUOUS
10
115.362
20
-109.402
11
115.349
21
-109.269
0
LINE
8
BLACK
6
CONTINUOUS
10
115.349
20
-109.269
11
115.349
21
-108.931
0
LINE
8
BLACK
6
CONTINUOUS
10
115.349
20
-108.931
11
115.362
21
-108.798
0
LINE
8
BLACK
6
CONTINUOUS
10
115.362
20
-108.798
11
115.414
21
-108.629
0
LINE
8
BLACK
6
CONTINUOUS
10
115.414
20
-108.629
11
115.497
21
-108.472
0
LINE
8
BLACK
6
CONTINUOUS
10
115.497
20
-108.472
11
115.61
21
-108.335
0
LINE
8
BLACK
6
CONTINUOUS
10
115.61
20
-108.335
11
115.747
21
-108.222
0
LINE
8
BLACK
6
CONTINUOUS
10
115.747
20
-108.222
11
115.904
21
-108.139
0
LINE
8
BLACK
6
CONTINUOUS
10
115.904
20
-108.139
11
116.073
21
-108.087
0
LINE
8
BLACK
6
CONTINUOUS
10
116.073
20
-108.087
11
116.25
21
-108.07
0
LINE
8
BLACK
6
CONTINUOUS
10
116.25
20
-108.07
11
116.427
21
-108.087
0
LINE
8
BLACK
6
CONTINUOUS
10
111.427
20
-108.087
11
111.596
21
-108.139
0
LINE
8
BLACK
6
CONTINUOUS
10
111.596
20
-108.139
11
111.753
21
-108.222
0
LINE
8
BLACK
6
CONTINUOUS
10
111.753
20
-108.222
11
111.775
21
-108.24
0
LINE
8
BLACK
6
CONTINUOUS
10
111.775
20
-108.24
11
111.89
21
-108.335
0
LINE
8
BLACK
6
CONTINUOUS
10
111.89
20
-108.335
11
111.973
21
-108.436
0
LINE
8
BLACK
6
CONTINUOUS
10
111.973
20
-108.436
11
112.003
21
-108.472
0
LINE
8
BLACK
6
CONTINUOUS
10
112.003
20
-108.472
11
112.086
21
-108.629
0
LINE
8
BLACK
6
CONTINUOUS
10
112.086
20
-108.629
11
112.138
21
-108.798
0
LINE
8
BLACK
6
CONTINUOUS
10
112.138
20
-108.798
11
112.138
21
-108.798
0
LINE
8
BLACK
6
CONTINUOUS
10
112.138
20
-108.798
11
112.151
21
-108.931
0
LINE
8
BLACK
6
CONTINUOUS
10
112.151
20
-108.931
11
112.151
21
-109.269
0
LINE
8
BLACK
6
CONTINUOUS
10
112.151
20
-109.269
11
112.145
21
-109.328
0
LINE
8
BLACK
6
CONTINUOUS
10
112.145
20
-109.328
11
112.138
21
-109.402
0
LINE
8
BLACK
6
CONTINUOUS
10
112.138
20
-109.402
11
112.086
21
-109.571
0
LINE
8
BLACK
6
CONTINUOUS
10
112.086
20
-109.571
11
112.003
21
-109.728
0
LINE
8
BLACK
6
CONTINUOUS
10
112.003
20
-109.728
11
111.973
21
-109.764
0
LINE
8
BLACK
6
CONTINUOUS
10
111.973
20
-109.764
11
111.89
21
-109.865
0
LINE
8
BLACK
6
CONTINUOUS
10
111.89
20
-109.865
11
111.753
21
-109.978
0
LINE
8
BLACK
6
CONTINUOUS
10
111.753
20
-109.978
11
111.596
21
-110.061
0
LINE
8
BLACK
6
CONTINUOUS
10
111.596
20
-110.061
11
111.596
21
-110.061
0
LINE
8
BLACK
6
CONTINUOUS
10
111.596
20
-110.061
11
111.427
21
-110.113
0
LINE
8
BLACK
6
CONTINUOUS
10
111.427
20
-110.113
11
111.25
21
-110.13
0
LINE
8
BLACK
6
CONTINUOUS
10
111.25
20
-110.13
11
111.073
21
-110.113
0
LINE
8
BLACK
6
CONTINUOUS
10
111.073
20
-110.113
11
110.904
21
-110.061
0
LINE
8
BLACK
6
CONTINUOUS
10
110.904
20
-110.061
11
110.747
21
-109.978
0
LINE
8
BLACK
6
CONTINUOUS
10
110.747
20
-109.978
11
110.705
21
-109.943
0
LINE
8
BLACK
6
CONTINUOUS
10
110.705
20
-109.943
11
110.61
21
-109.865
0
LINE
8
BLACK
6
CONTINUOUS
10
110.61
20
-109.865
11
110.497
21
-109.728
0
LINE
8
BLACK
6
CONTINUOUS
10
110.497
20
-109.728
11
110.414
21
-109.571
0
LINE
8
BLACK
6
CONTINUOUS
10
110.414
20
-109.571
11
110.414
21
-109.571
0
LINE
8
BLACK
6
CONTINUOUS
10
110.414
20
-109.571
11
110.362
21
-109.402
0
LINE
8
BLACK
6
CONTINUOUS
10
110.362
20
-109.402
11
110.349
21
-109.269
0
LINE
8
BLACK
6
CONTINUOUS
10
110.349
20
-109.269
11
110.349
21
-108.931
0
LINE
8
BLACK
6
CONTINUOUS
10
110.349
20
-108.931
11
110.362
21
-108.798
0
LINE
8
BLACK
6
CONTINUOUS
10
110.362
20
-108.798
11
110.414
21
-108.629
0
LINE
8
BLACK
6
CONTINUOUS
10
110.414
20
-108.629
11
110.497
21
-108.472
0
LINE
8
BLACK
6
CONTINUOUS
10
110.497
20
-108.472
11
110.61
21
-108.335
0
LINE
8
BLACK
6
CONTINUOUS
10
110.61
20
-108.335
11
110.747
21
-108.222
0
LINE
8
BLACK
6
CONTINUOUS
10
110.747
20
-108.222
11
110.904
21
-108.139
0
LINE
8
BLACK
6
CONTINUOUS
10
110.904
20
-108.139
11
111.073
21
-108.087
0
LINE
8
BLACK
6
CONTINUOUS
10
111.073
20
-108.087
11
111.25
21
-108.07
0
LINE
8
BLACK
6
CONTINUOUS
10
111.25
20
-108.07
11
111.427
21
-108.087
0
LINE
8
BLACK
6
CONTINUOUS
10
119.509
20
-108.078
11
119.542
21
-108.088
0
LINE
8
BLACK
6
CONTINUOUS
10
119.542
20
-108.088
11
119.572
21
-108.104
0
LINE
8
BLACK
6
CONTINUOUS
10
119.572
20
-108.104
11
119.599
21
-108.126
0
LINE
8
BLACK
6
CONTINUOUS
10
119.599
20
-108.126
11
119.621
21
-108.153
0
LINE
8
BLACK
6
CONTINUOUS
10
119.621
20
-108.153
11
119.637
21
-108.183
0
LINE
8
BLACK
6
CONTINUOUS
10
119.637
20
-108.183
11
119.647
21
-108.216
0
LINE
8
BLACK
6
CONTINUOUS
10
119.647
20
-108.216
11
119.651
21
-108.257
0
LINE
8
BLACK
6
CONTINUOUS
10
119.651
20
-108.257
11
119.651
21
-109.943
0
LINE
8
BLACK
6
CONTINUOUS
10
119.651
20
-109.943
11
119.647
21
-109.984
0
LINE
8
BLACK
6
CONTINUOUS
10
119.647
20
-109.984
11
119.637
21
-110.017
0
LINE
8
BLACK
6
CONTINUOUS
10
119.637
20
-110.017
11
119.621
21
-110.047
0
LINE
8
BLACK
6
CONTINUOUS
10
119.621
20
-110.047
11
119.599
21
-110.074
0
LINE
8
BLACK
6
CONTINUOUS
10
119.599
20
-110.074
11
119.572
21
-110.096
0
LINE
8
BLACK
6
CONTINUOUS
10
119.572
20
-110.096
11
119.542
21
-110.112
0
LINE
8
BLACK
6
CONTINUOUS
10
119.542
20
-110.112
11
119.509
21
-110.122
0
LINE
8
BLACK
6
CONTINUOUS
10
119.509
20
-110.122
11
119.468
21
-110.126
0
LINE
8
BLACK
6
CONTINUOUS
10
119.468
20
-110.126
11
118.032
21
-110.126
0
LINE
8
BLACK
6
CONTINUOUS
10
118.032
20
-110.126
11
117.991
21
-110.122
0
LINE
8
BLACK
6
CONTINUOUS
10
117.991
20
-110.122
11
117.958
21
-110.112
0
LINE
8
BLACK
6
CONTINUOUS
10
117.958
20
-110.112
11
117.928
21
-110.096
0
LINE
8
BLACK
6
CONTINUOUS
10
117.928
20
-110.096
11
117.901
21
-110.074
0
LINE
8
BLACK
6
CONTINUOUS
10
117.901
20
-110.074
11
117.879
21
-110.047
0
LINE
8
BLACK
6
CONTINUOUS
10
117.879
20
-110.047
11
117.863
21
-110.017
0
LINE
8
BLACK
6
CONTINUOUS
10
117.863
20
-110.017
11
117.853
21
-109.984
0
LINE
8
BLACK
6
CONTINUOUS
10
117.853
20
-109.984
11
117.849
21
-109.943
0
LINE
8
BLACK
6
CONTINUOUS
10
117.849
20
-109.943
11
117.849
21
-108.257
0
LINE
8
BLACK
6
CONTINUOUS
10
117.849
20
-108.257
11
117.853
21
-108.216
0
LINE
8
BLACK
6
CONTINUOUS
10
117.853
20
-108.216
11
117.863
21
-108.183
0
LINE
8
BLACK
6
CONTINUOUS
10
117.863
20
-108.183
11
117.879
21
-108.153
0
LINE
8
BLACK
6
CONTINUOUS
10
117.879
20
-108.153
11
117.901
21
-108.126
0
LINE
8
BLACK
6
CONTINUOUS
10
117.901
20
-108.126
11
117.928
21
-108.104
0
LINE
8
BLACK
6
CONTINUOUS
10
117.928
20
-108.104
11
117.958
21
-108.088
0
LINE
8
BLACK
6
CONTINUOUS
10
117.958
20
-108.088
11
117.991
21
-108.078
0
LINE
8
BLACK
6
CONTINUOUS
10
117.991
20
-108.078
11
118.032
21
-108.074
0
LINE
8
BLACK
6
CONTINUOUS
10
118.032
20
-108.074
11
119.468
21
-108.074
0
LINE
8
BLACK
6
CONTINUOUS
10
119.468
20
-108.074
11
119.509
21
-108.078
0
LINE
8
BLACK
6
CONTINUOUS
10
126.681
20
-107.349
11
126.683
21
-107.373
0
LINE
8
BLACK
6
CONTINUOUS
10
126.683
20
-107.373
11
126.691
21
-107.397
0
LINE
8
BLACK
6
CONTINUOUS
10
126.691
20
-107.397
11
126.702
21
-107.418
0
LINE
8
BLACK
6
CONTINUOUS
10
126.702
20
-107.418
11
126.718
21
-107.437
0
LINE
8
BLACK
6
CONTINUOUS
10
126.718
20
-107.437
11
126.737
21
-107.453
0
LINE
8
BLACK
6
CONTINUOUS
10
126.737
20
-107.453
11
126.758
21
-107.464
0
LINE
8
BLACK
6
CONTINUOUS
10
126.758
20
-107.464
11
126.782
21
-107.472
0
LINE
8
BLACK
6
CONTINUOUS
10
126.782
20
-107.472
11
126.806
21
-107.474
0
LINE
8
BLACK
6
CONTINUOUS
10
126.806
20
-107.474
11
127.601
21
-107.474
0
LINE
8
BLACK
6
CONTINUOUS
10
127.601
20
-107.474
11
127.601
21
-109.326
0
LINE
8
BLACK
6
CONTINUOUS
10
127.601
20
-109.326
11
126.806
21
-109.326
0
LINE
8
BLACK
6
CONTINUOUS
10
126.806
20
-109.326
11
126.782
21
-109.328
0
LINE
8
BLACK
6
CONTINUOUS
10
126.782
20
-109.328
11
126.758
21
-109.336
0
LINE
8
BLACK
6
CONTINUOUS
10
126.758
20
-109.336
11
126.737
21
-109.347
0
LINE
8
BLACK
6
CONTINUOUS
10
126.737
20
-109.347
11
126.718
21
-109.363
0
LINE
8
BLACK
6
CONTINUOUS
10
126.718
20
-109.363
11
126.702
21
-109.382
0
LINE
8
BLACK
6
CONTINUOUS
10
126.702
20
-109.382
11
126.691
21
-109.403
0
LINE
8
BLACK
6
CONTINUOUS
10
126.691
20
-109.403
11
126.683
21
-109.427
0
LINE
8
BLACK
6
CONTINUOUS
10
126.683
20
-109.427
11
126.681
21
-109.451
0
LINE
8
BLACK
6
CONTINUOUS
10
126.681
20
-109.451
11
126.681
21
-109.641
0
LINE
8
BLACK
6
CONTINUOUS
10
126.681
20
-109.641
11
124.919
21
-109.641
0
LINE
8
BLACK
6
CONTINUOUS
10
124.919
20
-109.641
11
124.919
21
-109.451
0
LINE
8
BLACK
6
CONTINUOUS
10
124.919
20
-109.451
11
124.917
21
-109.427
0
LINE
8
BLACK
6
CONTINUOUS
10
124.917
20
-109.427
11
124.909
21
-109.403
0
LINE
8
BLACK
6
CONTINUOUS
10
124.909
20
-109.403
11
124.898
21
-109.382
0
LINE
8
BLACK
6
CONTINUOUS
10
124.898
20
-109.382
11
124.882
21
-109.363
0
LINE
8
BLACK
6
CONTINUOUS
10
124.882
20
-109.363
11
124.863
21
-109.347
0
LINE
8
BLACK
6
CONTINUOUS
10
124.863
20
-109.347
11
124.842
21
-109.336
0
LINE
8
BLACK
6
CONTINUOUS
10
124.842
20
-109.336
11
124.818
21
-109.328
0
LINE
8
BLACK
6
CONTINUOUS
10
124.818
20
-109.328
11
124.794
21
-109.326
0
LINE
8
BLACK
6
CONTINUOUS
10
124.794
20
-109.326
11
123.999
21
-109.326
0
LINE
8
BLACK
6
CONTINUOUS
10
123.999
20
-109.326
11
123.999
21
-107.474
0
LINE
8
BLACK
6
CONTINUOUS
10
123.999
20
-107.474
11
124.794
21
-107.474
0
LINE
8
BLACK
6
CONTINUOUS
10
124.794
20
-107.474
11
124.818
21
-107.472
0
LINE
8
BLACK
6
CONTINUOUS
10
124.818
20
-107.472
11
124.842
21
-107.464
0
LINE
8
BLACK
6
CONTINUOUS
10
124.842
20
-107.464
11
124.863
21
-107.453
0
LINE
8
BLACK
6
CONTINUOUS
10
124.863
20
-107.453
11
124.882
21
-107.437
0
LINE
8
BLACK
6
CONTINUOUS
10
124.882
20
-107.437
11
124.898
21
-107.418
0
LINE
8
BLACK
6
CONTINUOUS
10
124.898
20
-107.418
11
124.909
21
-107.397
0
LINE
8
BLACK
6
CONTINUOUS
10
124.909
20
-107.397
11
124.917
21
-107.373
0
LINE
8
BLACK
6
CONTINUOUS
10
124.917
20
-107.373
11
124.919
21
-107.349
0
LINE
8
BLACK
6
CONTINUOUS
10
124.919
20
-107.349
11
124.919
21
-107.159
0
LINE
8
BLACK
6
CONTINUOUS
10
124.919
20
-107.159
11
126.681
21
-107.159
0
LINE
8
BLACK
6
CONTINUOUS
10
126.681
20
-107.159
11
126.681
21
-107.349
0
LINE
8
BLACK
6
CONTINUOUS
10
101.48
20
-108.203
11
101.514
21
-108.213
0
LINE
8
BLACK
6
CONTINUOUS
10
101.514
20
-108.213
11
101.545
21
-108.23
0
LINE
8
BLACK
6
CONTINUOUS
10
101.545
20
-108.23
11
101.572
21
-108.253
0
LINE
8
BLACK
6
CONTINUOUS
10
101.572
20
-108.253
11
101.595
21
-108.28
0
LINE
8
BLACK
6
CONTINUOUS
10
101.595
20
-108.28
11
101.612
21
-108.311
0
LINE
8
BLACK
6
CONTINUOUS
10
101.612
20
-108.311
11
101.622
21
-108.345
0
LINE
8
BLACK
6
CONTINUOUS
10
101.622
20
-108.345
11
101.626
21
-108.387
0
LINE
8
BLACK
6
CONTINUOUS
10
101.626
20
-108.387
11
101.626
21
-108.988
0
LINE
8
BLACK
6
CONTINUOUS
10
101.626
20
-108.988
11
101.622
21
-109.03
0
LINE
8
BLACK
6
CONTINUOUS
10
101.622
20
-109.03
11
101.612
21
-109.064
0
LINE
8
BLACK
6
CONTINUOUS
10
101.612
20
-109.064
11
101.595
21
-109.095
0
LINE
8
BLACK
6
CONTINUOUS
10
101.595
20
-109.095
11
101.572
21
-109.122
0
LINE
8
BLACK
6
CONTINUOUS
10
101.572
20
-109.122
11
101.545
21
-109.145
0
LINE
8
BLACK
6
CONTINUOUS
10
101.545
20
-109.145
11
101.514
21
-109.162
0
LINE
8
BLACK
6
CONTINUOUS
10
101.514
20
-109.162
11
101.48
21
-109.172
0
LINE
8
BLACK
6
CONTINUOUS
10
101.48
20
-109.172
11
101.438
21
-109.176
0
LINE
8
BLACK
6
CONTINUOUS
10
101.438
20
-109.176
11
100.762
21
-109.176
0
LINE
8
BLACK
6
CONTINUOUS
10
100.762
20
-109.176
11
100.72
21
-109.172
0
LINE
8
BLACK
6
CONTINUOUS
10
100.72
20
-109.172
11
100.686
21
-109.162
0
LINE
8
BLACK
6
CONTINUOUS
10
100.686
20
-109.162
11
100.655
21
-109.145
0
LINE
8
BLACK
6
CONTINUOUS
10
100.655
20
-109.145
11
100.628
21
-109.122
0
LINE
8
BLACK
6
CONTINUOUS
10
100.628
20
-109.122
11
100.605
21
-109.095
0
LINE
8
BLACK
6
CONTINUOUS
10
100.605
20
-109.095
11
100.588
21
-109.064
0
LINE
8
BLACK
6
CONTINUOUS
10
100.588
20
-109.064
11
100.578
21
-109.03
0
LINE
8
BLACK
6
CONTINUOUS
10
100.578
20
-109.03
11
100.574
21
-108.988
0
LINE
8
BLACK
6
CONTINUOUS
10
100.574
20
-108.988
11
100.574
21
-108.387
0
LINE
8
BLACK
6
CONTINUOUS
10
100.574
20
-108.387
11
100.578
21
-108.345
0
LINE
8
BLACK
6
CONTINUOUS
10
100.578
20
-108.345
11
100.588
21
-108.311
0
LINE
8
BLACK
6
CONTINUOUS
10
100.588
20
-108.311
11
100.605
21
-108.28
0
LINE
8
BLACK
6
CONTINUOUS
10
100.605
20
-108.28
11
100.628
21
-108.253
0
LINE
8
BLACK
6
CONTINUOUS
10
100.628
20
-108.253
11
100.655
21
-108.23
0
LINE
8
BLACK
6
CONTINUOUS
10
100.655
20
-108.23
11
100.686
21
-108.213
0
LINE
8
BLACK
6
CONTINUOUS
10
100.686
20
-108.213
11
100.72
21
-108.203
0
LINE
8
BLACK
6
CONTINUOUS
10
100.72
20
-108.203
11
100.762
21
-108.199
0
LINE
8
BLACK
6
CONTINUOUS
10
100.762
20
-108.199
11
101.438
21
-108.199
0
LINE
8
BLACK
6
CONTINUOUS
10
101.438
20
-108.199
11
101.48
21
-108.203
0
LINE
8
BLACK
6
CONTINUOUS
10
107.68
20
-108.203
11
107.714
21
-108.213
0
LINE
8
BLACK
6
CONTINUOUS
10
107.714
20
-108.213
11
107.745
21
-108.23
0
LINE
8
BLACK
6
CONTINUOUS
10
107.745
20
-108.23
11
107.772
21
-108.253
0
LINE
8
BLACK
6
CONTINUOUS
10
107.772
20
-108.253
11
107.795
21
-108.28
0
LINE
8
BLACK
6
CONTINUOUS
10
107.795
20
-108.28
11
107.812
21
-108.311
0
LINE
8
BLACK
6
CONTINUOUS
10
107.812
20
-108.311
11
107.822
21
-108.345
0
LINE
8
BLACK
6
CONTINUOUS
10
107.822
20
-108.345
11
107.826
21
-108.387
0
LINE
8
BLACK
6
CONTINUOUS
10
107.826
20
-108.387
11
107.826
21
-108.988
0
LINE
8
BLACK
6
CONTINUOUS
10
107.826
20
-108.988
11
107.822
21
-109.03
0
LINE
8
BLACK
6
CONTINUOUS
10
107.822
20
-109.03
11
107.812
21
-109.064
0
LINE
8
BLACK
6
CONTINUOUS
10
107.812
20
-109.064
11
107.795
21
-109.095
0
LINE
8
BLACK
6
CONTINUOUS
10
107.795
20
-109.095
11
107.772
21
-109.122
0
LINE
8
BLACK
6
CONTINUOUS
10
107.772
20
-109.122
11
107.745
21
-109.145
0
LINE
8
BLACK
6
CONTINUOUS
10
107.745
20
-109.145
11
107.714
21
-109.162
0
LINE
8
BLACK
6
CONTINUOUS
10
107.714
20
-109.162
11
107.68
21
-109.172
0
LINE
8
BLACK
6
CONTINUOUS
10
107.68
20
-109.172
11
107.638
21
-109.176
0
LINE
8
BLACK
6
CONTINUOUS
10
107.638
20
-109.176
11
106.962
21
-109.176
0
LINE
8
BLACK
6
CONTINUOUS
10
106.962
20
-109.176
11
106.92
21
-109.172
0
LINE
8
BLACK
6
CONTINUOUS
10
106.92
20
-109.172
11
106.886
21
-109.162
0
LINE
8
BLACK
6
CONTINUOUS
10
106.886
20
-109.162
11
106.855
21
-109.145
0
LINE
8
BLACK
6
CONTINUOUS
10
106.855
20
-109.145
11
106.828
21
-109.122
0
LINE
8
BLACK
6
CONTINUOUS
10
106.828
20
-109.122
11
106.805
21
-109.095
0
LINE
8
BLACK
6
CONTINUOUS
10
106.805
20
-109.095
11
106.788
21
-109.064
0
LINE
8
BLACK
6
CONTINUOUS
10
106.788
20
-109.064
11
106.778
21
-109.03
0
LINE
8
BLACK
6
CONTINUOUS
10
106.778
20
-109.03
11
106.774
21
-108.988
0
LINE
8
BLACK
6
CONTINUOUS
10
106.774
20
-108.988
11
106.774
21
-108.387
0
LINE
8
BLACK
6
CONTINUOUS
10
106.774
20
-108.387
11
106.778
21
-108.345
0
LINE
8
BLACK
6
CONTINUOUS
10
106.778
20
-108.345
11
106.788
21
-108.311
0
LINE
8
BLACK
6
CONTINUOUS
10
106.788
20
-108.311
11
106.805
21
-108.28
0
LINE
8
BLACK
6
CONTINUOUS
10
106.805
20
-108.28
11
106.828
21
-108.253
0
LINE
8
BLACK
6
CONTINUOUS
10
106.828
20
-108.253
11
106.855
21
-108.23
0
LINE
8
BLACK
6
CONTINUOUS
10
106.855
20
-108.23
11
106.886
21
-108.213
0
LINE
8
BLACK
6
CONTINUOUS
10
106.886
20
-108.213
11
106.92
21
-108.203
0
LINE
8
BLACK
6
CONTINUOUS
10
106.92
20
-108.203
11
106.962
21
-108.199
0
LINE
8
BLACK
6
CONTINUOUS
10
106.962
20
-108.199
11
107.638
21
-108.199
0
LINE
8
BLACK
6
CONTINUOUS
10
107.638
20
-108.199
11
107.68
21
-108.203
0
LINE
8
BLACK
6
CONTINUOUS
10
129.18
20
-108.203
11
129.214
21
-108.213
0
LINE
8
BLACK
6
CONTINUOUS
10
129.214
20
-108.213
11
129.245
21
-108.23
0
LINE
8
BLACK
6
CONTINUOUS
10
129.245
20
-108.23
11
129.272
21
-108.253
0
LINE
8
BLACK
6
CONTINUOUS
10
129.272
20
-108.253
11
129.295
21
-108.28
0
LINE
8
BLACK
6
CONTINUOUS
10
129.295
20
-108.28
11
129.312
21
-108.311
0
LINE
8
BLACK
6
CONTINUOUS
10
129.312
20
-108.311
11
129.322
21
-108.345
0
LINE
8
BLACK
6
CONTINUOUS
10
129.322
20
-108.345
11
129.326
21
-108.387
0
LINE
8
BLACK
6
CONTINUOUS
10
129.326
20
-108.387
11
129.326
21
-108.988
0
LINE
8
BLACK
6
CONTINUOUS
10
129.326
20
-108.988
11
129.322
21
-109.03
0
LINE
8
BLACK
6
CONTINUOUS
10
129.322
20
-109.03
11
129.312
21
-109.064
0
LINE
8
BLACK
6
CONTINUOUS
10
129.312
20
-109.064
11
129.295
21
-109.095
0
LINE
8
BLACK
6
CONTINUOUS
10
129.295
20
-109.095
11
129.272
21
-109.122
0
LINE
8
BLACK
6
CONTINUOUS
10
129.272
20
-109.122
11
129.245
21
-109.145
0
LINE
8
BLACK
6
CONTINUOUS
10
129.245
20
-109.145
11
129.214
21
-109.162
0
LINE
8
BLACK
6
CONTINUOUS
10
129.214
20
-109.162
11
129.18
21
-109.172
0
LINE
8
BLACK
6
CONTINUOUS
10
129.18
20
-109.172
11
129.138
21
-109.176
0
LINE
8
BLACK
6
CONTINUOUS
10
129.138
20
-109.176
11
128.462
21
-109.176
0
LINE
8
BLACK
6
CONTINUOUS
10
128.462
20
-109.176
11
128.42
21
-109.172
0
LINE
8
BLACK
6
CONTINUOUS
10
128.42
20
-109.172
11
128.386
21
-109.162
0
LINE
8
BLACK
6
CONTINUOUS
10
128.386
20
-109.162
11
128.355
21
-109.145
0
LINE
8
BLACK
6
CONTINUOUS
10
128.355
20
-109.145
11
128.328
21
-109.122
0
LINE
8
BLACK
6
CONTINUOUS
10
128.328
20
-109.122
11
128.305
21
-109.095
0
LINE
8
BLACK
6
CONTINUOUS
10
128.305
20
-109.095
11
128.288
21
-109.064
0
LINE
8
BLACK
6
CONTINUOUS
10
128.288
20
-109.064
11
128.278
21
-109.03
0
LINE
8
BLACK
6
CONTINUOUS
10
128.278
20
-109.03
11
128.274
21
-108.988
0
LINE
8
BLACK
6
CONTINUOUS
10
128.274
20
-108.988
11
128.274
21
-108.387
0
LINE
8
BLACK
6
CONTINUOUS
10
128.274
20
-108.387
11
128.278
21
-108.345
0
LINE
8
BLACK
6
CONTINUOUS
10
128.278
20
-108.345
11
128.288
21
-108.311
0
LINE
8
BLACK
6
CONTINUOUS
10
128.288
20
-108.311
11
128.305
21
-108.28
0
LINE
8
BLACK
6
CONTINUOUS
10
128.305
20
-108.28
11
128.328
21
-108.253
0
LINE
8
BLACK
6
CONTINUOUS
10
128.328
20
-108.253
11
128.355
21
-108.23
0
LINE
8
BLACK
6
CONTINUOUS
10
128.355
20
-108.23
11
128.386
21
-108.213
0
LINE
8
BLACK
6
CONTINUOUS
10
128.386
20
-108.213
11
128.42
21
-108.203
0
LINE
8
BLACK
6
CONTINUOUS
10
128.42
20
-108.203
11
128.462
21
-108.199
0
LINE
8
BLACK
6
CONTINUOUS
10
128.462
20
-108.199
11
129.138
21
-108.199
0
LINE
8
BLACK
6
CONTINUOUS
10
129.138
20
-108.199
11
129.18
21
-108.203
0
LINE
8
BLACK
6
CONTINUOUS
10
123.18
20
-108.203
11
123.214
21
-108.213
0
LINE
8
BLACK
6
CONTINUOUS
10
123.214
20
-108.213
11
123.245
21
-108.23
0
LINE
8
BLACK
6
CONTINUOUS
10
123.245
20
-108.23
11
123.272
21
-108.253
0
LINE
8
BLACK
6
CONTINUOUS
10
123.272
20
-108.253
11
123.295
21
-108.28
0
LINE
8
BLACK
6
CONTINUOUS
10
123.295
20
-108.28
11
123.312
21
-108.311
0
LINE
8
BLACK
6
CONTINUOUS
10
123.312
20
-108.311
11
123.322
21
-108.345
0
LINE
8
BLACK
6
CONTINUOUS
10
123.322
20
-108.345
11
123.326
21
-108.387
0
LINE
8
BLACK
6
CONTINUOUS
10
123.326
20
-108.387
11
123.326
21
-108.988
0
LINE
8
BLACK
6
CONTINUOUS
10
123.326
20
-108.988
11
123.322
21
-109.03
0
LINE
8
BLACK
6
CONTINUOUS
10
123.322
20
-109.03
11
123.312
21
-109.064
0
LINE
8
BLACK
6
CONTINUOUS
10
123.312
20
-109.064
11
123.295
21
-109.095
0
LINE
8
BLACK
6
CONTINUOUS
10
123.295
20
-109.095
11
123.272
21
-109.122
0
LINE
8
BLACK
6
CONTINUOUS
10
123.272
20
-109.122
11
123.245
21
-109.145
0
LINE
8
BLACK
6
CONTINUOUS
10
123.245
20
-109.145
11
123.214
21
-109.162
0
LINE
8
BLACK
6
CONTINUOUS
10
123.214
20
-109.162
11
123.18
21
-109.172
0
LINE
8
BLACK
6
CONTINUOUS
10
123.18
20
-109.172
11
123.138
21
-109.176
0
LINE
8
BLACK
6
CONTINUOUS
10
123.138
20
-109.176
11
122.462
21
-109.176
0
LINE
8
BLACK
6
CONTINUOUS
10
122.462
20
-109.176
11
122.42
21
-109.172
0
LINE
8
BLACK
6
CONTINUOUS
10
122.42
20
-109.172
11
122.386
21
-109.162
0
LINE
8
BLACK
6
CONTINUOUS
10
122.386
20
-109.162
11
122.355
21
-109.145
0
LINE
8
BLACK
6
CONTINUOUS
10
122.355
20
-109.145
11
122.328
21
-109.122
0
LINE
8
BLACK
6
CONTINUOUS
10
122.328
20
-109.122
11
122.305
21
-109.095
0
LINE
8
BLACK
6
CONTINUOUS
10
122.305
20
-109.095
11
122.288
21
-109.064
0
LINE
8
BLACK
6
CONTINUOUS
10
122.288
20
-109.064
11
122.278
21
-109.03
0
LINE
8
BLACK
6
CONTINUOUS
10
122.278
20
-109.03
11
122.274
21
-108.988
0
LINE
8
BLACK
6
CONTINUOUS
10
122.274
20
-108.988
11
122.274
21
-108.387
0
LINE
8
BLACK
6
CONTINUOUS
10
122.274
20
-108.387
11
122.278
21
-108.345
0
LINE
8
BLACK
6
CONTINUOUS
10
122.278
20
-108.345
11
122.288
21
-108.311
0
LINE
8
BLACK
6
CONTINUOUS
10
122.288
20
-108.311
11
122.305
21
-108.28
0
LINE
8
BLACK
6
CONTINUOUS
10
122.305
20
-108.28
11
122.328
21
-108.253
0
LINE
8
BLACK
6
CONTINUOUS
10
122.328
20
-108.253
11
122.355
21
-108.23
0
LINE
8
BLACK
6
CONTINUOUS
10
122.355
20
-108.23
11
122.386
21
-108.213
0
LINE
8
BLACK
6
CONTINUOUS
10
122.386
20
-108.213
11
122.42
21
-108.203
0
LINE
8
BLACK
6
CONTINUOUS
10
122.42
20
-108.203
11
122.462
21
-108.199
0
LINE
8
BLACK
6
CONTINUOUS
10
122.462
20
-108.199
11
123.138
21
-108.199
0
LINE
8
BLACK
6
CONTINUOUS
10
123.138
20
-108.199
11
123.18
21
-108.203
0
LINE
8
BLACK
6
CONTINUOUS
10
106.171
20
-109.126
11
104.849
21
-109.126
0
LINE
8
BLACK
6
CONTINUOUS
10
104.849
20
-109.126
11
104.849
21
-106.474
0
LINE
8
BLACK
6
CONTINUOUS
10
104.849
20
-106.474
11
106.171
21
-106.474
0
LINE
8
BLACK
6
CONTINUOUS
10
106.171
20
-106.474
11
106.171
21
-109.126
0
LINE
8
BLACK
6
CONTINUOUS
10
103.551
20
-109.126
11
102.229
21
-109.126
0
LINE
8
BLACK
6
CONTINUOUS
10
102.229
20
-109.126
11
102.229
21
-108.374
0
LINE
8
BLACK
6
CONTINUOUS
10
102.229
20
-108.374
11
103.551
21
-108.374
0
LINE
8
BLACK
6
CONTINUOUS
10
103.551
20
-108.374
11
103.551
21
-109.126
0
LINE
8
BLACK
6
CONTINUOUS
10
107.68
20
-106.628
11
107.714
21
-106.638
0
LINE
8
BLACK
6
CONTINUOUS
10
107.714
20
-106.638
11
107.745
21
-106.655
0
LINE
8
BLACK
6
CONTINUOUS
10
107.745
20
-106.655
11
107.772
21
-106.678
0
LINE
8
BLACK
6
CONTINUOUS
10
107.772
20
-106.678
11
107.795
21
-106.705
0
LINE
8
BLACK
6
CONTINUOUS
10
107.795
20
-106.705
11
107.812
21
-106.736
0
LINE
8
BLACK
6
CONTINUOUS
10
107.812
20
-106.736
11
107.822
21
-106.77
0
LINE
8
BLACK
6
CONTINUOUS
10
107.822
20
-106.77
11
107.826
21
-106.812
0
LINE
8
BLACK
6
CONTINUOUS
10
107.826
20
-106.812
11
107.826
21
-107.413
0
LINE
8
BLACK
6
CONTINUOUS
10
107.826
20
-107.413
11
107.822
21
-107.455
0
LINE
8
BLACK
6
CONTINUOUS
10
107.822
20
-107.455
11
107.812
21
-107.489
0
LINE
8
BLACK
6
CONTINUOUS
10
107.812
20
-107.489
11
107.795
21
-107.52
0
LINE
8
BLACK
6
CONTINUOUS
10
107.795
20
-107.52
11
107.772
21
-107.547
0
LINE
8
BLACK
6
CONTINUOUS
10
107.772
20
-107.547
11
107.745
21
-107.57
0
LINE
8
BLACK
6
CONTINUOUS
10
107.745
20
-107.57
11
107.714
21
-107.587
0
LINE
8
BLACK
6
CONTINUOUS
10
107.714
20
-107.587
11
107.68
21
-107.597
0
LINE
8
BLACK
6
CONTINUOUS
10
107.68
20
-107.597
11
107.638
21
-107.601
0
LINE
8
BLACK
6
CONTINUOUS
10
107.638
20
-107.601
11
106.962
21
-107.601
0
LINE
8
BLACK
6
CONTINUOUS
10
106.962
20
-107.601
11
106.92
21
-107.597
0
LINE
8
BLACK
6
CONTINUOUS
10
106.92
20
-107.597
11
106.886
21
-107.587
0
LINE
8
BLACK
6
CONTINUOUS
10
106.886
20
-107.587
11
106.855
21
-107.57
0
LINE
8
BLACK
6
CONTINUOUS
10
106.855
20
-107.57
11
106.828
21
-107.547
0
LINE
8
BLACK
6
CONTINUOUS
10
106.828
20
-107.547
11
106.805
21
-107.52
0
LINE
8
BLACK
6
CONTINUOUS
10
106.805
20
-107.52
11
106.788
21
-107.489
0
LINE
8
BLACK
6
CONTINUOUS
10
106.788
20
-107.489
11
106.778
21
-107.455
0
LINE
8
BLACK
6
CONTINUOUS
10
106.778
20
-107.455
11
106.774
21
-107.413
0
LINE
8
BLACK
6
CONTINUOUS
10
106.774
20
-107.413
11
106.774
21
-106.812
0
LINE
8
BLACK
6
CONTINUOUS
10
106.774
20
-106.812
11
106.778
21
-106.77
0
LINE
8
BLACK
6
CONTINUOUS
10
106.778
20
-106.77
11
106.788
21
-106.736
0
LINE
8
BLACK
6
CONTINUOUS
10
106.788
20
-106.736
11
106.805
21
-106.705
0
LINE
8
BLACK
6
CONTINUOUS
10
106.805
20
-106.705
11
106.828
21
-106.678
0
LINE
8
BLACK
6
CONTINUOUS
10
106.828
20
-106.678
11
106.855
21
-106.655
0
LINE
8
BLACK
6
CONTINUOUS
10
106.855
20
-106.655
11
106.886
21
-106.638
0
LINE
8
BLACK
6
CONTINUOUS
10
106.886
20
-106.638
11
106.92
21
-106.628
0
LINE
8
BLACK
6
CONTINUOUS
10
106.92
20
-106.628
11
106.962
21
-106.624
0
LINE
8
BLACK
6
CONTINUOUS
10
106.962
20
-106.624
11
107.638
21
-106.624
0
LINE
8
BLACK
6
CONTINUOUS
10
107.638
20
-106.624
11
107.68
21
-106.628
0
LINE
8
BLACK
6
CONTINUOUS
10
129.18
20
-106.628
11
129.214
21
-106.638
0
LINE
8
BLACK
6
CONTINUOUS
10
129.214
20
-106.638
11
129.245
21
-106.655
0
LINE
8
BLACK
6
CONTINUOUS
10
129.245
20
-106.655
11
129.272
21
-106.678
0
LINE
8
BLACK
6
CONTINUOUS
10
129.272
20
-106.678
11
129.295
21
-106.705
0
LINE
8
BLACK
6
CONTINUOUS
10
129.295
20
-106.705
11
129.312
21
-106.736
0
LINE
8
BLACK
6
CONTINUOUS
10
129.312
20
-106.736
11
129.322
21
-106.77
0
LINE
8
BLACK
6
CONTINUOUS
10
129.322
20
-106.77
11
129.326
21
-106.812
0
LINE
8
BLACK
6
CONTINUOUS
10
129.326
20
-106.812
11
129.326
21
-107.413
0
LINE
8
BLACK
6
CONTINUOUS
10
129.326
20
-107.413
11
129.322
21
-107.455
0
LINE
8
BLACK
6
CONTINUOUS
10
129.322
20
-107.455
11
129.312
21
-107.489
0
LINE
8
BLACK
6
CONTINUOUS
10
129.312
20
-107.489
11
129.295
21
-107.52
0
LINE
8
BLACK
6
CONTINUOUS
10
129.295
20
-107.52
11
129.272
21
-107.547
0
LINE
8
BLACK
6
CONTINUOUS
10
129.272
20
-107.547
11
129.245
21
-107.57
0
LINE
8
BLACK
6
CONTINUOUS
10
129.245
20
-107.57
11
129.214
21
-107.587
0
LINE
8
BLACK
6
CONTINUOUS
10
129.214
20
-107.587
11
129.18
21
-107.597
0
LINE
8
BLACK
6
CONTINUOUS
10
129.18
20
-107.597
11
129.138
21
-107.601
0
LINE
8
BLACK
6
CONTINUOUS
10
129.138
20
-107.601
11
128.462
21
-107.601
0
LINE
8
BLACK
6
CONTINUOUS
10
128.462
20
-107.601
11
128.42
21
-107.597
0
LINE
8
BLACK
6
CONTINUOUS
10
128.42
20
-107.597
11
128.386
21
-107.587
0
LINE
8
BLACK
6
CONTINUOUS
10
128.386
20
-107.587
11
128.355
21
-107.57
0
LINE
8
BLACK
6
CONTINUOUS
10
128.355
20
-107.57
11
128.328
21
-107.547
0
LINE
8
BLACK
6
CONTINUOUS
10
128.328
20
-107.547
11
128.305
21
-107.52
0
LINE
8
BLACK
6
CONTINUOUS
10
128.305
20
-107.52
11
128.288
21
-107.489
0
LINE
8
BLACK
6
CONTINUOUS
10
128.288
20
-107.489
11
128.278
21
-107.455
0
LINE
8
BLACK
6
CONTINUOUS
10
128.278
20
-107.455
11
128.274
21
-107.413
0
LINE
8
BLACK
6
CONTINUOUS
10
128.274
20
-107.413
11
128.274
21
-106.812
0
LINE
8
BLACK
6
CONTINUOUS
10
128.274
20
-106.812
11
128.278
21
-106.77
0
LINE
8
BLACK
6
CONTINUOUS
10
128.278
20
-106.77
11
128.288
21
-106.736
0
LINE
8
BLACK
6
CONTINUOUS
10
128.288
20
-106.736
11
128.305
21
-106.705
0
LINE
8
BLACK
6
CONTINUOUS
10
128.305
20
-106.705
11
128.328
21
-106.678
0
LINE
8
BLACK
6
CONTINUOUS
10
128.328
20
-106.678
11
128.355
21
-106.655
0
LINE
8
BLACK
6
CONTINUOUS
10
128.355
20
-106.655
11
128.386
21
-106.638
0
LINE
8
BLACK
6
CONTINUOUS
10
128.386
20
-106.638
11
128.42
21
-106.628
0
LINE
8
BLACK
6
CONTINUOUS
10
128.42
20
-106.628
11
128.462
21
-106.624
0
LINE
8
BLACK
6
CONTINUOUS
10
128.462
20
-106.624
11
129.138
21
-106.624
0
LINE
8
BLACK
6
CONTINUOUS
10
129.138
20
-106.624
11
129.18
21
-106.628
0
LINE
8
BLACK
6
CONTINUOUS
10
123.18
20
-106.628
11
123.214
21
-106.638
0
LINE
8
BLACK
6
CONTINUOUS
10
123.214
20
-106.638
11
123.245
21
-106.655
0
LINE
8
BLACK
6
CONTINUOUS
10
123.245
20
-106.655
11
123.272
21
-106.678
0
LINE
8
BLACK
6
CONTINUOUS
10
123.272
20
-106.678
11
123.295
21
-106.705
0
LINE
8
BLACK
6
CONTINUOUS
10
123.295
20
-106.705
11
123.312
21
-106.736
0
LINE
8
BLACK
6
CONTINUOUS
10
123.312
20
-106.736
11
123.322
21
-106.77
0
LINE
8
BLACK
6
CONTINUOUS
10
123.322
20
-106.77
11
123.326
21
-106.812
0
LINE
8
BLACK
6
CONTINUOUS
10
123.326
20
-106.812
11
123.326
21
-107.413
0
LINE
8
BLACK
6
CONTINUOUS
10
123.326
20
-107.413
11
123.322
21
-107.455
0
LINE
8
BLACK
6
CONTINUOUS
10
123.322
20
-107.455
11
123.312
21
-107.489
0
LINE
8
BLACK
6
CONTINUOUS
10
123.312
20
-107.489
11
123.295
21
-107.52
0
LINE
8
BLACK
6
CONTINUOUS
10
123.295
20
-107.52
11
123.272
21
-107.547
0
LINE
8
BLACK
6
CONTINUOUS
10
123.272
20
-107.547
11
123.245
21
-107.57
0
LINE
8
BLACK
6
CONTINUOUS
10
123.245
20
-107.57
11
123.214
21
-107.587
0
LINE
8
BLACK
6
CONTINUOUS
10
123.214
20
-107.587
11
123.18
21
-107.597
0
LINE
8
BLACK
6
CONTINUOUS
10
123.18
20
-107.597
11
123.138
21
-107.601
0
LINE
8
BLACK
6
CONTINUOUS
10
123.138
20
-107.601
11
122.462
21
-107.601
0
LINE
8
BLACK
6
CONTINUOUS
10
122.462
20
-107.601
11
122.42
21
-107.597
0
LINE
8
BLACK
6
CONTINUOUS
10
122.42
20
-107.597
11
122.386
21
-107.587
0
LINE
8
BLACK
6
CONTINUOUS
10
122.386
20
-107.587
11
122.355
21
-107.57
0
LINE
8
BLACK
6
CONTINUOUS
10
122.355
20
-107.57
11
122.328
21
-107.547
0
LINE
8
BLACK
6
CONTINUOUS
10
122.328
20
-107.547
11
122.305
21
-107.52
0
LINE
8
BLACK
6
CONTINUOUS
10
122.305
20
-107.52
11
122.288
21
-107.489
0
LINE
8
BLACK
6
CONTINUOUS
10
122.288
20
-107.489
11
122.278
21
-107.455
0
LINE
8
BLACK
6
CONTINUOUS
10
122.278
20
-107.455
11
122.274
21
-107.413
0
LINE
8
BLACK
6
CONTINUOUS
10
122.274
20
-107.413
11
122.274
21
-106.812
0
LINE
8
BLACK
6
CONTINUOUS
10
122.274
20
-106.812
11
122.278
21
-106.77
0
LINE
8
BLACK
6
CONTINUOUS
10
122.278
20
-106.77
11
122.288
21
-106.736
0
LINE
8
BLACK
6
CONTINUOUS
10
122.288
20
-106.736
11
122.305
21
-106.705
0
LINE
8
BLACK
6
CONTINUOUS
10
122.305
20
-106.705
11
122.328
21
-106.678
0
LINE
8
BLACK
6
CONTINUOUS
10
122.328
20
-106.678
11
122.355
21
-106.655
0
LINE
8
BLACK
6
CONTINUOUS
10
122.355
20
-106.655
11
122.386
21
-106.638
0
LINE
8
BLACK
6
CONTINUOUS
10
122.386
20
-106.638
11
122.42
21
-106.628
0
LINE
8
BLACK
6
CONTINUOUS
10
122.42
20
-106.628
11
122.462
21
-106.624
0
LINE
8
BLACK
6
CONTINUOUS
10
122.462
20
-106.624
11
123.138
21
-106.624
0
LINE
8
BLACK
6
CONTINUOUS
10
123.138
20
-106.624
11
123.18
21
-106.628
0
LINE
8
BLACK
6
CONTINUOUS
10
101.48
20
-106.628
11
101.514
21
-106.638
0
LINE
8
BLACK
6
CONTINUOUS
10
101.514
20
-106.638
11
101.545
21
-106.655
0
LINE
8
BLACK
6
CONTINUOUS
10
101.545
20
-106.655
11
101.572
21
-106.678
0
LINE
8
BLACK
6
CONTINUOUS
10
101.572
20
-106.678
11
101.595
21
-106.705
0
LINE
8
BLACK
6
CONTINUOUS
10
101.595
20
-106.705
11
101.612
21
-106.736
0
LINE
8
BLACK
6
CONTINUOUS
10
101.612
20
-106.736
11
101.622
21
-106.77
0
LINE
8
BLACK
6
CONTINUOUS
10
101.622
20
-106.77
11
101.626
21
-106.812
0
LINE
8
BLACK
6
CONTINUOUS
10
101.626
20
-106.812
11
101.626
21
-107.413
0
LINE
8
BLACK
6
CONTINUOUS
10
101.626
20
-107.413
11
101.622
21
-107.455
0
LINE
8
BLACK
6
CONTINUOUS
10
101.622
20
-107.455
11
101.612
21
-107.489
0
LINE
8
BLACK
6
CONTINUOUS
10
101.612
20
-107.489
11
101.595
21
-107.52
0
LINE
8
BLACK
6
CONTINUOUS
10
101.595
20
-107.52
11
101.572
21
-107.547
0
LINE
8
BLACK
6
CONTINUOUS
10
101.572
20
-107.547
11
101.545
21
-107.57
0
LINE
8
BLACK
6
CONTINUOUS
10
101.545
20
-107.57
11
101.514
21
-107.587
0
LINE
8
BLACK
6
CONTINUOUS
10
101.514
20
-107.587
11
101.48
21
-107.597
0
LINE
8
BLACK
6
CONTINUOUS
10
101.48
20
-107.597
11
101.438
21
-107.601
0
LINE
8
BLACK
6
CONTINUOUS
10
101.438
20
-107.601
11
100.762
21
-107.601
0
LINE
8
BLACK
6
CONTINUOUS
10
100.762
20
-107.601
11
100.72
21
-107.597
0
LINE
8
BLACK
6
CONTINUOUS
10
100.72
20
-107.597
11
100.686
21
-107.587
0
LINE
8
BLACK
6
CONTINUOUS
10
100.686
20
-107.587
11
100.655
21
-107.57
0
LINE
8
BLACK
6
CONTINUOUS
10
100.655
20
-107.57
11
100.628
21
-107.547
0
LINE
8
BLACK
6
CONTINUOUS
10
100.628
20
-107.547
11
100.605
21
-107.52
0
LINE
8
BLACK
6
CONTINUOUS
10
100.605
20
-107.52
11
100.588
21
-107.489
0
LINE
8
BLACK
6
CONTINUOUS
10
100.588
20
-107.489
11
100.578
21
-107.455
0
LINE
8
BLACK
6
CONTINUOUS
10
100.578
20
-107.455
11
100.574
21
-107.413
0
LINE
8
BLACK
6
CONTINUOUS
10
100.574
20
-107.413
11
100.574
21
-106.812
0
LINE
8
BLACK
6
CONTINUOUS
10
100.574
20
-106.812
11
100.578
21
-106.77
0
LINE
8
BLACK
6
CONTINUOUS
10
100.578
20
-106.77
11
100.588
21
-106.736
0
LINE
8
BLACK
6
CONTINUOUS
10
100.588
20
-106.736
11
100.605
21
-106.705
0
LINE
8
BLACK
6
CONTINUOUS
10
100.605
20
-106.705
11
100.628
21
-106.678
0
LINE
8
BLACK
6
CONTINUOUS
10
100.628
20
-106.678
11
100.655
21
-106.655
0
LINE
8
BLACK
6
CONTINUOUS
10
100.655
20
-106.655
11
100.686
21
-106.638
0
LINE
8
BLACK
6
CONTINUOUS
10
100.686
20
-106.638
11
100.72
21
-106.628
0
LINE
8
BLACK
6
CONTINUOUS
10
100.72
20
-106.628
11
100.762
21
-106.624
0
LINE
8
BLACK
6
CONTINUOUS
10
100.762
20
-106.624
11
101.438
21
-106.624
0
LINE
8
BLACK
6
CONTINUOUS
10
101.438
20
-106.624
11
101.48
21
-106.628
0
LINE
8
BLACK
6
CONTINUOUS
10
103.551
20
-107.226
11
102.229
21
-107.226
0
LINE
8
BLACK
6
CONTINUOUS
10
102.229
20
-107.226
11
102.229
21
-106.474
0
LINE
8
BLACK
6
CONTINUOUS
10
102.229
20
-106.474
11
103.551
21
-106.474
0
LINE
8
BLACK
6
CONTINUOUS
10
103.551
20
-106.474
11
103.551
21
-107.226
0
LINE
8
BLACK
6
CONTINUOUS
10
105.375
20
-98.3913
11
105.482
21
-98.4124
0
LINE
8
BLACK
6
CONTINUOUS
10
105.482
20
-98.4124
11
105.782
21
-98.5369
0
LINE
8
BLACK
6
CONTINUOUS
10
105.782
20
-98.5369
11
106.052
21
-98.7176
0
LINE
8
BLACK
6
CONTINUOUS
10
106.052
20
-98.7176
11
106.282
21
-98.9475
0
LINE
8
BLACK
6
CONTINUOUS
10
106.282
20
-98.9475
11
106.463
21
-99.218
0
LINE
8
BLACK
6
CONTINUOUS
10
106.463
20
-99.218
11
106.588
21
-99.5184
0
LINE
8
BLACK
6
CONTINUOUS
10
106.588
20
-99.5184
11
106.651
21
-99.8374
0
LINE
8
BLACK
6
CONTINUOUS
10
106.651
20
-99.8374
11
106.651
21
-100.163
0
LINE
8
BLACK
6
CONTINUOUS
10
106.651
20
-100.163
11
106.588
21
-100.482
0
LINE
8
BLACK
6
CONTINUOUS
10
106.588
20
-100.482
11
106.463
21
-100.782
0
LINE
8
BLACK
6
CONTINUOUS
10
106.463
20
-100.782
11
106.282
21
-101.052
0
LINE
8
BLACK
6
CONTINUOUS
10
106.282
20
-101.052
11
106.052
21
-101.282
0
LINE
8
BLACK
6
CONTINUOUS
10
106.052
20
-101.282
11
105.782
21
-101.463
0
LINE
8
BLACK
6
CONTINUOUS
10
105.782
20
-101.463
11
105.482
21
-101.588
0
LINE
8
BLACK
6
CONTINUOUS
10
105.482
20
-101.588
11
105.375
21
-101.609
0
LINE
8
BLACK
6
CONTINUOUS
10
105.375
20
-101.609
11
105.163
21
-101.651
0
LINE
8
BLACK
6
CONTINUOUS
10
105.163
20
-101.651
11
104.837
21
-101.651
0
LINE
8
BLACK
6
CONTINUOUS
10
104.837
20
-101.651
11
104.625
21
-101.609
0
LINE
8
BLACK
6
CONTINUOUS
10
104.625
20
-101.609
11
104.518
21
-101.588
0
LINE
8
BLACK
6
CONTINUOUS
10
104.518
20
-101.588
11
104.218
21
-101.463
0
LINE
8
BLACK
6
CONTINUOUS
10
104.218
20
-101.463
11
103.948
21
-101.282
0
LINE
8
BLACK
6
CONTINUOUS
10
103.948
20
-101.282
11
103.718
21
-101.052
0
LINE
8
BLACK
6
CONTINUOUS
10
103.718
20
-101.052
11
103.537
21
-100.782
0
LINE
8
BLACK
6
CONTINUOUS
10
103.537
20
-100.782
11
103.412
21
-100.482
0
LINE
8
BLACK
6
CONTINUOUS
10
103.412
20
-100.482
11
103.349
21
-100.163
0
LINE
8
BLACK
6
CONTINUOUS
10
103.349
20
-100.163
11
103.349
21
-99.8374
0
LINE
8
BLACK
6
CONTINUOUS
10
103.349
20
-99.8374
11
103.412
21
-99.5184
0
LINE
8
BLACK
6
CONTINUOUS
10
103.412
20
-99.5184
11
103.537
21
-99.218
0
LINE
8
BLACK
6
CONTINUOUS
10
103.537
20
-99.218
11
103.718
21
-98.9475
0
LINE
8
BLACK
6
CONTINUOUS
10
103.718
20
-98.9475
11
103.948
21
-98.7176
0
LINE
8
BLACK
6
CONTINUOUS
10
103.948
20
-98.7176
11
104.218
21
-98.5369
0
LINE
8
BLACK
6
CONTINUOUS
10
104.218
20
-98.5369
11
104.518
21
-98.4124
0
LINE
8
BLACK
6
CONTINUOUS
10
104.518
20
-98.4124
11
104.625
21
-98.3913
0
LINE
8
BLACK
6
CONTINUOUS
10
104.625
20
-98.3913
11
104.837
21
-98.349
0
LINE
8
BLACK
6
CONTINUOUS
10
104.837
20
-98.349
11
105.163
21
-98.349
0
LINE
8
BLACK
6
CONTINUOUS
10
105.163
20
-98.349
11
105.375
21
-98.3913
0
LINE
8
BLACK
6
CONTINUOUS
10
125.375
20
-98.3913
11
125.482
21
-98.4124
0
LINE
8
BLACK
6
CONTINUOUS
10
125.482
20
-98.4124
11
125.782
21
-98.5369
0
LINE
8
BLACK
6
CONTINUOUS
10
125.782
20
-98.5369
11
126.052
21
-98.7176
0
LINE
8
BLACK
6
CONTINUOUS
10
126.052
20
-98.7176
11
126.282
21
-98.9475
0
LINE
8
BLACK
6
CONTINUOUS
10
126.282
20
-98.9475
11
126.463
21
-99.218
0
LINE
8
BLACK
6
CONTINUOUS
10
126.463
20
-99.218
11
126.588
21
-99.5184
0
LINE
8
BLACK
6
CONTINUOUS
10
126.588
20
-99.5184
11
126.651
21
-99.8374
0
LINE
8
BLACK
6
CONTINUOUS
10
126.651
20
-99.8374
11
126.651
21
-100.163
0
LINE
8
BLACK
6
CONTINUOUS
10
126.651
20
-100.163
11
126.588
21
-100.482
0
LINE
8
BLACK
6
CONTINUOUS
10
126.588
20
-100.482
11
126.463
21
-100.782
0
LINE
8
BLACK
6
CONTINUOUS
10
126.463
20
-100.782
11
126.282
21
-101.052
0
LINE
8
BLACK
6
CONTINUOUS
10
126.282
20
-101.052
11
126.052
21
-101.282
0
LINE
8
BLACK
6
CONTINUOUS
10
126.052
20
-101.282
11
125.782
21
-101.463
0
LINE
8
BLACK
6
CONTINUOUS
10
125.782
20
-101.463
11
125.482
21
-101.588
0
LINE
8
BLACK
6
CONTINUOUS
10
125.482
20
-101.588
11
125.375
21
-101.609
0
LINE
8
BLACK
6
CONTINUOUS
10
125.375
20
-101.609
11
125.163
21
-101.651
0
LINE
8
BLACK
6
CONTINUOUS
10
125.163
20
-101.651
11
124.837
21
-101.651
0
LINE
8
BLACK
6
CONTINUOUS
10
124.837
20
-101.651
11
124.625
21
-101.609
0
LINE
8
BLACK
6
CONTINUOUS
10
124.625
20
-101.609
11
124.518
21
-101.588
0
LINE
8
BLACK
6
CONTINUOUS
10
124.518
20
-101.588
11
124.218
21
-101.463
0
LINE
8
BLACK
6
CONTINUOUS
10
124.218
20
-101.463
11
123.948
21
-101.282
0
LINE
8
BLACK
6
CONTINUOUS
10
123.948
20
-101.282
11
123.718
21
-101.052
0
LINE
8
BLACK
6
CONTINUOUS
10
123.718
20
-101.052
11
123.537
21
-100.782
0
LINE
8
BLACK
6
CONTINUOUS
10
123.537
20
-100.782
11
123.412
21
-100.482
0
LINE
8
BLACK
6
CONTINUOUS
10
123.412
20
-100.482
11
123.349
21
-100.163
0
LINE
8
BLACK
6
CONTINUOUS
10
123.349
20
-100.163
11
123.349
21
-99.8374
0
LINE
8
BLACK
6
CONTINUOUS
10
123.349
20
-99.8374
11
123.412
21
-99.5184
0
LINE
8
BLACK
6
CONTINUOUS
10
123.412
20
-99.5184
11
123.537
21
-99.218
0
LINE
8
BLACK
6
CONTINUOUS
10
123.537
20
-99.218
11
123.718
21
-98.9475
0
LINE
8
BLACK
6
CONTINUOUS
10
123.718
20
-98.9475
11
123.948
21
-98.7176
0
LINE
8
BLACK
6
CONTINUOUS
10
123.948
20
-98.7176
11
124.218
21
-98.5369
0
LINE
8
BLACK
6
CONTINUOUS
10
124.218
20
-98.5369
11
124.518
21
-98.4124
0
LINE
8
BLACK
6
CONTINUOUS
10
124.518
20
-98.4124
11
124.625
21
-98.3913
0
LINE
8
BLACK
6
CONTINUOUS
10
124.625
20
-98.3913
11
124.837
21
-98.349
0
LINE
8
BLACK
6
CONTINUOUS
10
124.837
20
-98.349
11
125.163
21
-98.349
0
LINE
8
BLACK
6
CONTINUOUS
10
125.163
20
-98.349
11
125.375
21
-98.3913
  0
ENDSEC
  0
EOF
