  0
SECTION
  2
HEADER
  9
$ANGBASE
  50
0.0
  9
$ANGDIR
  70
1
  9
$MEASUREMENT
  70
1
  0
ENDSEC
  0
SECTION
  2
TABLES
  0
TABLE
  2
LTYPE
  70
4
  0
LTYPE
  5
40F
  2
CONTINUOUS
  70
0
  3
Solid line
  72
65
  73
0
  40
0.0
  0
LTYPE
  5
410
  2
DASHDOT
 70
0
  3
Dash Dot ____ _ ____ _
 72
65
 73
4
 40
2.0
 49
1.25
 49
-0.25
 49
0.25
 49
-0.25
  0
LTYPE
  5
411
  2
DASHED
 70
0
  3
Dashed __ __ __ __ __
 72
65
 73
2
 40
0.75
 49
0.5
 49
-0.25
  0
LTYPE
  5
43B
  2
DOTTED
 70
0
  3
Dotted .  .  .  .
 72
65
 73
2
 40
0.2
 49
0.0
 49
-0.2
  0
ENDTAB
  0
TABLE
  2
STYLE
  70
4
  0
STYLE
  2
KICAD
  70
0
  40
0
  41
1
  42
1
  50
0
  71
0
  3
isocp.shx
  0
STYLE
  2
KICADB
  70
0
  40
0
  41
1
  42
1
  50
0
  71
0
  3
isocp.shx
  0
STYLE
  2
KICADI
  70
0
  40
0
  41
1
  42
1
  50
15
  71
0
  3
isocp.shx
  0
STYLE
  2
KICADBI
  70
0
  40
0
  41
1
  42
1
  50
15
  71
0
  3
isocp.shx
  0
ENDTAB
  0
TABLE
  2
LAYER
  70
1
  0
LAYER
  2
BLACK
  70
0
  62
7
  6
CONTINUOUS
  0
ENDTAB
  0
ENDSEC
  0
SECTION
  2
ENTITIES
0
LINE
8
BLACK
6
CONTINUOUS
10
104.112
20
-164.946
11
104.11
21
-164.945
0
LINE
8
BLACK
6
CONTINUOUS
10
104.11
20
-164.945
11
104.109
21
-164.945
0
LINE
8
BLACK
6
CONTINUOUS
10
104.109
20
-164.945
11
104.108
21
-164.945
0
LINE
8
BLACK
6
CONTINUOUS
10
104.108
20
-164.945
11
103.251
21
-164.711
0
LINE
8
BLACK
6
CONTINUOUS
10
103.251
20
-164.711
11
103.248
21
-164.71
0
LINE
8
BLACK
6
CONTINUOUS
10
103.248
20
-164.71
11
103.247
21
-164.709
0
LINE
8
BLACK
6
CONTINUOUS
10
103.247
20
-164.709
11
103.246
21
-164.709
0
LINE
8
BLACK
6
CONTINUOUS
10
103.246
20
-164.709
11
102.444
21
-164.326
0
LINE
8
BLACK
6
CONTINUOUS
10
102.444
20
-164.326
11
102.442
21
-164.325
0
LINE
8
BLACK
6
CONTINUOUS
10
102.442
20
-164.325
11
102.441
21
-164.324
0
LINE
8
BLACK
6
CONTINUOUS
10
102.441
20
-164.324
11
102.44
21
-164.324
0
LINE
8
BLACK
6
CONTINUOUS
10
102.44
20
-164.324
11
101.718
21
-163.805
0
LINE
8
BLACK
6
CONTINUOUS
10
101.718
20
-163.805
11
101.716
21
-163.803
0
LINE
8
BLACK
6
CONTINUOUS
10
101.716
20
-163.803
11
101.716
21
-163.803
0
LINE
8
BLACK
6
CONTINUOUS
10
101.716
20
-163.803
11
101.715
21
-163.802
0
LINE
8
BLACK
6
CONTINUOUS
10
101.715
20
-163.802
11
101.096
21
-163.164
0
LINE
8
BLACK
6
CONTINUOUS
10
101.096
20
-163.164
11
101.094
21
-163.162
0
LINE
8
BLACK
6
CONTINUOUS
10
101.094
20
-163.162
11
101.094
21
-163.161
0
LINE
8
BLACK
6
CONTINUOUS
10
101.094
20
-163.161
11
101.094
21
-163.161
0
LINE
8
BLACK
6
CONTINUOUS
10
101.094
20
-163.161
11
100.598
21
-162.423
0
LINE
8
BLACK
6
CONTINUOUS
10
100.598
20
-162.423
11
100.596
21
-162.42
0
LINE
8
BLACK
6
CONTINUOUS
10
100.596
20
-162.42
11
100.596
21
-162.42
0
LINE
8
BLACK
6
CONTINUOUS
10
100.596
20
-162.42
11
100.596
21
-162.419
0
LINE
8
BLACK
6
CONTINUOUS
10
100.596
20
-162.419
11
100.238
21
-161.605
0
LINE
8
BLACK
6
CONTINUOUS
10
100.238
20
-161.605
11
100.237
21
-161.602
0
LINE
8
BLACK
6
CONTINUOUS
10
100.237
20
-161.602
11
100.237
21
-161.601
0
LINE
8
BLACK
6
CONTINUOUS
10
100.237
20
-161.601
11
100.237
21
-161.601
0
LINE
8
BLACK
6
CONTINUOUS
10
100.237
20
-161.601
11
100.029
21
-160.736
0
LINE
8
BLACK
6
CONTINUOUS
10
100.029
20
-160.736
11
100.029
21
-160.733
0
LINE
8
BLACK
6
CONTINUOUS
10
100.029
20
-160.733
11
100.029
21
-160.733
0
LINE
8
BLACK
6
CONTINUOUS
10
100.029
20
-160.733
11
100.029
21
-160.732
0
LINE
8
BLACK
6
CONTINUOUS
10
100.029
20
-160.732
11
99.9751
21
-160.002
0
LINE
8
BLACK
6
CONTINUOUS
10
99.9751
20
-160.002
11
99.975
21
-160.001
0
LINE
8
BLACK
6
CONTINUOUS
10
99.975
20
-160.001
11
99.975
21
-99.9988
0
LINE
8
BLACK
6
CONTINUOUS
10
99.975
20
-99.9988
11
99.9751
21
-99.9978
0
LINE
8
BLACK
6
CONTINUOUS
10
99.9751
20
-99.9978
11
100.054
21
-99.1124
0
LINE
8
BLACK
6
CONTINUOUS
10
100.054
20
-99.1124
11
100.055
21
-99.1095
0
LINE
8
BLACK
6
CONTINUOUS
10
100.055
20
-99.1095
11
100.055
21
-99.1088
0
LINE
8
BLACK
6
CONTINUOUS
10
100.055
20
-99.1088
11
100.055
21
-99.108
0
LINE
8
BLACK
6
CONTINUOUS
10
100.055
20
-99.108
11
100.289
21
-98.2505
0
LINE
8
BLACK
6
CONTINUOUS
10
100.289
20
-98.2505
11
100.29
21
-98.2478
0
LINE
8
BLACK
6
CONTINUOUS
10
100.29
20
-98.2478
11
100.291
21
-98.2471
0
LINE
8
BLACK
6
CONTINUOUS
10
100.291
20
-98.2471
11
100.291
21
-98.2464
0
LINE
8
BLACK
6
CONTINUOUS
10
100.291
20
-98.2464
11
100.674
21
-97.444
0
LINE
8
BLACK
6
CONTINUOUS
10
100.674
20
-97.444
11
100.675
21
-97.4415
0
LINE
8
BLACK
6
CONTINUOUS
10
100.675
20
-97.4415
11
100.676
21
-97.4409
0
LINE
8
BLACK
6
CONTINUOUS
10
100.676
20
-97.4409
11
100.676
21
-97.4402
0
LINE
8
BLACK
6
CONTINUOUS
10
100.676
20
-97.4402
11
101.195
21
-96.7183
0
LINE
8
BLACK
6
CONTINUOUS
10
101.195
20
-96.7183
11
101.195
21
-96.7183
0
LINE
8
BLACK
6
CONTINUOUS
10
101.195
20
-96.7183
11
101.195
21
-96.7183
0
LINE
8
BLACK
6
CONTINUOUS
10
101.195
20
-96.7183
11
101.197
21
-96.7161
0
LINE
8
BLACK
6
CONTINUOUS
10
101.197
20
-96.7161
11
101.197
21
-96.7155
0
LINE
8
BLACK
6
CONTINUOUS
10
101.197
20
-96.7155
11
101.198
21
-96.7149
0
LINE
8
BLACK
6
CONTINUOUS
10
101.198
20
-96.7149
11
101.836
21
-96.0963
0
LINE
8
BLACK
6
CONTINUOUS
10
101.836
20
-96.0963
11
101.838
21
-96.0944
0
LINE
8
BLACK
6
CONTINUOUS
10
101.838
20
-96.0944
11
101.839
21
-96.094
0
LINE
8
BLACK
6
CONTINUOUS
10
101.839
20
-96.094
11
101.839
21
-96.0935
0
LINE
8
BLACK
6
CONTINUOUS
10
101.839
20
-96.0935
11
102.577
21
-95.5977
0
LINE
8
BLACK
6
CONTINUOUS
10
102.577
20
-95.5977
11
102.58
21
-95.5963
0
LINE
8
BLACK
6
CONTINUOUS
10
102.58
20
-95.5963
11
102.58
21
-95.596
0
LINE
8
BLACK
6
CONTINUOUS
10
102.58
20
-95.596
11
102.581
21
-95.5956
0
LINE
8
BLACK
6
CONTINUOUS
10
102.581
20
-95.5956
11
103.395
21
-95.2383
0
LINE
8
BLACK
6
CONTINUOUS
10
103.395
20
-95.2383
11
103.395
21
-95.2383
0
LINE
8
BLACK
6
CONTINUOUS
10
103.395
20
-95.2383
11
103.395
21
-95.2383
0
LINE
8
BLACK
6
CONTINUOUS
10
103.395
20
-95.2383
11
103.398
21
-95.2373
0
LINE
8
BLACK
6
CONTINUOUS
10
103.398
20
-95.2373
11
103.399
21
-95.2371
0
LINE
8
BLACK
6
CONTINUOUS
10
103.399
20
-95.2371
11
103.399
21
-95.2368
0
LINE
8
BLACK
6
CONTINUOUS
10
103.399
20
-95.2368
11
104.264
21
-95.0293
0
LINE
8
BLACK
6
CONTINUOUS
10
104.264
20
-95.0293
11
104.267
21
-95.0288
0
LINE
8
BLACK
6
CONTINUOUS
10
104.267
20
-95.0288
11
104.267
21
-95.0288
0
LINE
8
BLACK
6
CONTINUOUS
10
104.267
20
-95.0288
11
104.268
21
-95.0287
0
LINE
8
BLACK
6
CONTINUOUS
10
104.268
20
-95.0287
11
104.998
21
-94.9751
0
LINE
8
BLACK
6
CONTINUOUS
10
104.998
20
-94.9751
11
104.999
21
-94.975
0
LINE
8
BLACK
6
CONTINUOUS
10
104.999
20
-94.975
11
125.001
21
-94.975
0
LINE
8
BLACK
6
CONTINUOUS
10
125.001
20
-94.975
11
125.002
21
-94.9751
0
LINE
8
BLACK
6
CONTINUOUS
10
125.002
20
-94.9751
11
125.888
21
-95.0541
0
LINE
8
BLACK
6
CONTINUOUS
10
125.888
20
-95.0541
11
125.888
21
-95.0541
0
LINE
8
BLACK
6
CONTINUOUS
10
125.888
20
-95.0541
11
125.888
21
-95.0541
0
LINE
8
BLACK
6
CONTINUOUS
10
125.888
20
-95.0541
11
125.89
21
-95.0545
0
LINE
8
BLACK
6
CONTINUOUS
10
125.89
20
-95.0545
11
125.891
21
-95.0548
0
LINE
8
BLACK
6
CONTINUOUS
10
125.891
20
-95.0548
11
125.892
21
-95.0549
0
LINE
8
BLACK
6
CONTINUOUS
10
125.892
20
-95.0549
11
126.749
21
-95.2895
0
LINE
8
BLACK
6
CONTINUOUS
10
126.749
20
-95.2895
11
126.749
21
-95.2895
0
LINE
8
BLACK
6
CONTINUOUS
10
126.749
20
-95.2895
11
126.749
21
-95.2895
0
LINE
8
BLACK
6
CONTINUOUS
10
126.749
20
-95.2895
11
126.752
21
-95.2904
0
LINE
8
BLACK
6
CONTINUOUS
10
126.752
20
-95.2904
11
126.753
21
-95.2907
0
LINE
8
BLACK
6
CONTINUOUS
10
126.753
20
-95.2907
11
126.754
21
-95.291
0
LINE
8
BLACK
6
CONTINUOUS
10
126.754
20
-95.291
11
127.556
21
-95.6737
0
LINE
8
BLACK
6
CONTINUOUS
10
127.556
20
-95.6737
11
127.558
21
-95.6751
0
LINE
8
BLACK
6
CONTINUOUS
10
127.558
20
-95.6751
11
127.559
21
-95.6756
0
LINE
8
BLACK
6
CONTINUOUS
10
127.559
20
-95.6756
11
127.56
21
-95.676
0
LINE
8
BLACK
6
CONTINUOUS
10
127.56
20
-95.676
11
128.282
21
-96.1947
0
LINE
8
BLACK
6
CONTINUOUS
10
128.282
20
-96.1947
11
128.282
21
-96.1947
0
LINE
8
BLACK
6
CONTINUOUS
10
128.282
20
-96.1947
11
128.282
21
-96.1947
0
LINE
8
BLACK
6
CONTINUOUS
10
128.282
20
-96.1947
11
128.284
21
-96.1965
0
LINE
8
BLACK
6
CONTINUOUS
10
128.284
20
-96.1965
11
128.284
21
-96.1971
0
LINE
8
BLACK
6
CONTINUOUS
10
128.284
20
-96.1971
11
128.285
21
-96.1976
0
LINE
8
BLACK
6
CONTINUOUS
10
128.285
20
-96.1976
11
128.904
21
-96.836
0
LINE
8
BLACK
6
CONTINUOUS
10
128.904
20
-96.836
11
128.906
21
-96.8382
0
LINE
8
BLACK
6
CONTINUOUS
10
128.906
20
-96.8382
11
128.906
21
-96.8388
0
LINE
8
BLACK
6
CONTINUOUS
10
128.906
20
-96.8388
11
128.906
21
-96.8395
0
LINE
8
BLACK
6
CONTINUOUS
10
128.906
20
-96.8395
11
129.402
21
-97.5773
0
LINE
8
BLACK
6
CONTINUOUS
10
129.402
20
-97.5773
11
129.404
21
-97.5798
0
LINE
8
BLACK
6
CONTINUOUS
10
129.404
20
-97.5798
11
129.404
21
-97.5805
0
LINE
8
BLACK
6
CONTINUOUS
10
129.404
20
-97.5805
11
129.404
21
-97.5812
0
LINE
8
BLACK
6
CONTINUOUS
10
129.404
20
-97.5812
11
129.762
21
-98.3951
0
LINE
8
BLACK
6
CONTINUOUS
10
129.762
20
-98.3951
11
129.762
21
-98.3952
0
LINE
8
BLACK
6
CONTINUOUS
10
129.762
20
-98.3952
11
129.762
21
-98.3952
0
LINE
8
BLACK
6
CONTINUOUS
10
129.762
20
-98.3952
11
129.763
21
-98.3979
0
LINE
8
BLACK
6
CONTINUOUS
10
129.763
20
-98.3979
11
129.763
21
-98.3986
0
LINE
8
BLACK
6
CONTINUOUS
10
129.763
20
-98.3986
11
129.763
21
-98.3994
0
LINE
8
BLACK
6
CONTINUOUS
10
129.763
20
-98.3994
11
129.971
21
-99.2637
0
LINE
8
BLACK
6
CONTINUOUS
10
129.971
20
-99.2637
11
129.971
21
-99.2666
0
LINE
8
BLACK
6
CONTINUOUS
10
129.971
20
-99.2666
11
129.971
21
-99.2672
0
LINE
8
BLACK
6
CONTINUOUS
10
129.971
20
-99.2672
11
129.971
21
-99.2678
0
LINE
8
BLACK
6
CONTINUOUS
10
129.971
20
-99.2678
11
130.025
21
-99.9979
0
LINE
8
BLACK
6
CONTINUOUS
10
130.025
20
-99.9979
11
130.025
21
-99.9988
0
LINE
8
BLACK
6
CONTINUOUS
10
130.025
20
-99.9988
11
130.025
21
-112.399
0
LINE
8
BLACK
6
CONTINUOUS
10
130.025
20
-112.399
11
130.025
21
-112.4
0
LINE
8
BLACK
6
CONTINUOUS
10
130.025
20
-112.4
11
130.025
21
-112.405
0
LINE
8
BLACK
6
CONTINUOUS
10
130.025
20
-112.405
11
130.023
21
-112.41
0
LINE
8
BLACK
6
CONTINUOUS
10
130.023
20
-112.41
11
130.021
21
-112.414
0
LINE
8
BLACK
6
CONTINUOUS
10
130.021
20
-112.414
11
130.018
21
-112.418
0
LINE
8
BLACK
6
CONTINUOUS
10
130.018
20
-112.418
11
130.014
21
-112.421
0
LINE
8
BLACK
6
CONTINUOUS
10
130.014
20
-112.421
11
130.01
21
-112.423
0
LINE
8
BLACK
6
CONTINUOUS
10
130.01
20
-112.423
11
130.005
21
-112.425
0
LINE
8
BLACK
6
CONTINUOUS
10
130.005
20
-112.425
11
130.001
21
-112.425
0
LINE
8
BLACK
6
CONTINUOUS
10
130.001
20
-112.425
11
130.001
21
-112.425
0
LINE
8
BLACK
6
CONTINUOUS
10
130.001
20
-112.425
11
130
21
-112.425
0
LINE
8
BLACK
6
CONTINUOUS
10
130
20
-112.425
11
129.999
21
-112.425
0
LINE
8
BLACK
6
CONTINUOUS
10
129.999
20
-112.425
11
129.225
21
-112.425
0
LINE
8
BLACK
6
CONTINUOUS
10
129.225
20
-112.425
11
129.225
21
-120.775
0
LINE
8
BLACK
6
CONTINUOUS
10
129.225
20
-120.775
11
129.999
21
-120.775
0
LINE
8
BLACK
6
CONTINUOUS
10
129.999
20
-120.775
11
130
21
-120.775
0
LINE
8
BLACK
6
CONTINUOUS
10
130
20
-120.775
11
130.001
21
-120.775
0
LINE
8
BLACK
6
CONTINUOUS
10
130.001
20
-120.775
11
130.001
21
-120.775
0
LINE
8
BLACK
6
CONTINUOUS
10
130.001
20
-120.775
11
130.005
21
-120.775
0
LINE
8
BLACK
6
CONTINUOUS
10
130.005
20
-120.775
11
130.01
21
-120.777
0
LINE
8
BLACK
6
CONTINUOUS
10
130.01
20
-120.777
11
130.014
21
-120.779
0
LINE
8
BLACK
6
CONTINUOUS
10
130.014
20
-120.779
11
130.018
21
-120.782
0
LINE
8
BLACK
6
CONTINUOUS
10
130.018
20
-120.782
11
130.021
21
-120.786
0
LINE
8
BLACK
6
CONTINUOUS
10
130.021
20
-120.786
11
130.023
21
-120.79
0
LINE
8
BLACK
6
CONTINUOUS
10
130.023
20
-120.79
11
130.025
21
-120.795
0
LINE
8
BLACK
6
CONTINUOUS
10
130.025
20
-120.795
11
130.025
21
-120.8
0
LINE
8
BLACK
6
CONTINUOUS
10
130.025
20
-120.8
11
130.025
21
-120.801
0
LINE
8
BLACK
6
CONTINUOUS
10
130.025
20
-120.801
11
130.025
21
-160.001
0
LINE
8
BLACK
6
CONTINUOUS
10
130.025
20
-160.001
11
130.025
21
-160.002
0
LINE
8
BLACK
6
CONTINUOUS
10
130.025
20
-160.002
11
130.025
21
-160.002
0
LINE
8
BLACK
6
CONTINUOUS
10
130.025
20
-160.002
11
129.946
21
-160.888
0
LINE
8
BLACK
6
CONTINUOUS
10
129.946
20
-160.888
11
129.945
21
-160.89
0
LINE
8
BLACK
6
CONTINUOUS
10
129.945
20
-160.89
11
129.945
21
-160.891
0
LINE
8
BLACK
6
CONTINUOUS
10
129.945
20
-160.891
11
129.945
21
-160.892
0
LINE
8
BLACK
6
CONTINUOUS
10
129.945
20
-160.892
11
129.711
21
-161.749
0
LINE
8
BLACK
6
CONTINUOUS
10
129.711
20
-161.749
11
129.71
21
-161.752
0
LINE
8
BLACK
6
CONTINUOUS
10
129.71
20
-161.752
11
129.709
21
-161.753
0
LINE
8
BLACK
6
CONTINUOUS
10
129.709
20
-161.753
11
129.709
21
-161.754
0
LINE
8
BLACK
6
CONTINUOUS
10
129.709
20
-161.754
11
129.326
21
-162.556
0
LINE
8
BLACK
6
CONTINUOUS
10
129.326
20
-162.556
11
129.325
21
-162.558
0
LINE
8
BLACK
6
CONTINUOUS
10
129.325
20
-162.558
11
129.324
21
-162.559
0
LINE
8
BLACK
6
CONTINUOUS
10
129.324
20
-162.559
11
129.324
21
-162.56
0
LINE
8
BLACK
6
CONTINUOUS
10
129.324
20
-162.56
11
128.805
21
-163.282
0
LINE
8
BLACK
6
CONTINUOUS
10
128.805
20
-163.282
11
128.803
21
-163.284
0
LINE
8
BLACK
6
CONTINUOUS
10
128.803
20
-163.284
11
128.803
21
-163.284
0
LINE
8
BLACK
6
CONTINUOUS
10
128.803
20
-163.284
11
128.802
21
-163.285
0
LINE
8
BLACK
6
CONTINUOUS
10
128.802
20
-163.285
11
128.164
21
-163.904
0
LINE
8
BLACK
6
CONTINUOUS
10
128.164
20
-163.904
11
128.162
21
-163.906
0
LINE
8
BLACK
6
CONTINUOUS
10
128.162
20
-163.906
11
128.161
21
-163.906
0
LINE
8
BLACK
6
CONTINUOUS
10
128.161
20
-163.906
11
128.161
21
-163.906
0
LINE
8
BLACK
6
CONTINUOUS
10
128.161
20
-163.906
11
127.423
21
-164.402
0
LINE
8
BLACK
6
CONTINUOUS
10
127.423
20
-164.402
11
127.423
21
-164.402
0
LINE
8
BLACK
6
CONTINUOUS
10
127.423
20
-164.402
11
127.423
21
-164.402
0
LINE
8
BLACK
6
CONTINUOUS
10
127.423
20
-164.402
11
127.42
21
-164.404
0
LINE
8
BLACK
6
CONTINUOUS
10
127.42
20
-164.404
11
127.42
21
-164.404
0
LINE
8
BLACK
6
CONTINUOUS
10
127.42
20
-164.404
11
127.419
21
-164.404
0
LINE
8
BLACK
6
CONTINUOUS
10
127.419
20
-164.404
11
126.605
21
-164.762
0
LINE
8
BLACK
6
CONTINUOUS
10
126.605
20
-164.762
11
126.602
21
-164.763
0
LINE
8
BLACK
6
CONTINUOUS
10
126.602
20
-164.763
11
126.601
21
-164.763
0
LINE
8
BLACK
6
CONTINUOUS
10
126.601
20
-164.763
11
126.601
21
-164.763
0
LINE
8
BLACK
6
CONTINUOUS
10
126.601
20
-164.763
11
125.736
21
-164.971
0
LINE
8
BLACK
6
CONTINUOUS
10
125.736
20
-164.971
11
125.733
21
-164.971
0
LINE
8
BLACK
6
CONTINUOUS
10
125.733
20
-164.971
11
125.733
21
-164.971
0
LINE
8
BLACK
6
CONTINUOUS
10
125.733
20
-164.971
11
125.732
21
-164.971
0
LINE
8
BLACK
6
CONTINUOUS
10
125.732
20
-164.971
11
125.002
21
-165.025
0
LINE
8
BLACK
6
CONTINUOUS
10
125.002
20
-165.025
11
125.001
21
-165.025
0
LINE
8
BLACK
6
CONTINUOUS
10
125.001
20
-165.025
11
104.999
21
-165.025
0
LINE
8
BLACK
6
CONTINUOUS
10
104.999
20
-165.025
11
104.998
21
-165.025
0
LINE
8
BLACK
6
CONTINUOUS
10
104.998
20
-165.025
11
104.998
21
-165.025
0
LINE
8
BLACK
6
CONTINUOUS
10
104.998
20
-165.025
11
104.112
21
-164.946
0
LINE
8
BLACK
6
CONTINUOUS
10
104.112
20
-164.946
11
104.112
21
-164.946
0
LINE
8
BLACK
6
CONTINUOUS
10
104.112
20
-164.946
11
104.112
21
-164.946
0
LINE
8
BLACK
6
CONTINUOUS
10
105.001
20
-95.025
11
104.273
21
-95.0784
0
LINE
8
BLACK
6
CONTINUOUS
10
104.273
20
-95.0784
11
103.413
21
-95.2849
0
LINE
8
BLACK
6
CONTINUOUS
10
103.413
20
-95.2849
11
102.603
21
-95.6405
0
LINE
8
BLACK
6
CONTINUOUS
10
102.603
20
-95.6405
11
101.869
21
-96.1338
0
LINE
8
BLACK
6
CONTINUOUS
10
101.869
20
-96.1338
11
101.234
21
-96.7493
0
LINE
8
BLACK
6
CONTINUOUS
10
101.234
20
-96.7493
11
100.718
21
-97.4676
0
LINE
8
BLACK
6
CONTINUOUS
10
100.718
20
-97.4676
11
100.337
21
-98.2659
0
LINE
8
BLACK
6
CONTINUOUS
10
100.337
20
-98.2659
11
100.104
21
-99.119
0
LINE
8
BLACK
6
CONTINUOUS
10
100.104
20
-99.119
11
100.025
21
-100.001
0
LINE
8
BLACK
6
CONTINUOUS
10
100.025
20
-100.001
11
100.025
21
-159.999
0
LINE
8
BLACK
6
CONTINUOUS
10
100.025
20
-159.999
11
100.078
21
-160.727
0
LINE
8
BLACK
6
CONTINUOUS
10
100.078
20
-160.727
11
100.285
21
-161.587
0
LINE
8
BLACK
6
CONTINUOUS
10
100.285
20
-161.587
11
100.64
21
-162.397
0
LINE
8
BLACK
6
CONTINUOUS
10
100.64
20
-162.397
11
101.134
21
-163.131
0
LINE
8
BLACK
6
CONTINUOUS
10
101.134
20
-163.131
11
101.749
21
-163.766
0
LINE
8
BLACK
6
CONTINUOUS
10
101.749
20
-163.766
11
102.468
21
-164.282
0
LINE
8
BLACK
6
CONTINUOUS
10
102.468
20
-164.282
11
103.266
21
-164.663
0
LINE
8
BLACK
6
CONTINUOUS
10
103.266
20
-164.663
11
104.119
21
-164.896
0
LINE
8
BLACK
6
CONTINUOUS
10
104.119
20
-164.896
11
105.001
21
-164.975
0
LINE
8
BLACK
6
CONTINUOUS
10
105.001
20
-164.975
11
124.999
21
-164.975
0
LINE
8
BLACK
6
CONTINUOUS
10
124.999
20
-164.975
11
125.727
21
-164.922
0
LINE
8
BLACK
6
CONTINUOUS
10
125.727
20
-164.922
11
126.587
21
-164.715
0
LINE
8
BLACK
6
CONTINUOUS
10
126.587
20
-164.715
11
127.397
21
-164.36
0
LINE
8
BLACK
6
CONTINUOUS
10
127.397
20
-164.36
11
128.131
21
-163.866
0
LINE
8
BLACK
6
CONTINUOUS
10
128.131
20
-163.866
11
128.766
21
-163.251
0
LINE
8
BLACK
6
CONTINUOUS
10
128.766
20
-163.251
11
129.282
21
-162.532
0
LINE
8
BLACK
6
CONTINUOUS
10
129.282
20
-162.532
11
129.663
21
-161.734
0
LINE
8
BLACK
6
CONTINUOUS
10
129.663
20
-161.734
11
129.896
21
-160.881
0
LINE
8
BLACK
6
CONTINUOUS
10
129.896
20
-160.881
11
129.975
21
-159.999
0
LINE
8
BLACK
6
CONTINUOUS
10
129.975
20
-159.999
11
129.975
21
-120.825
0
LINE
8
BLACK
6
CONTINUOUS
10
129.975
20
-120.825
11
129.201
21
-120.825
0
LINE
8
BLACK
6
CONTINUOUS
10
129.201
20
-120.825
11
129.2
21
-120.825
0
LINE
8
BLACK
6
CONTINUOUS
10
129.2
20
-120.825
11
129.199
21
-120.825
0
LINE
8
BLACK
6
CONTINUOUS
10
129.199
20
-120.825
11
129.199
21
-120.825
0
LINE
8
BLACK
6
CONTINUOUS
10
129.199
20
-120.825
11
129.195
21
-120.825
0
LINE
8
BLACK
6
CONTINUOUS
10
129.195
20
-120.825
11
129.19
21
-120.823
0
LINE
8
BLACK
6
CONTINUOUS
10
129.19
20
-120.823
11
129.186
21
-120.821
0
LINE
8
BLACK
6
CONTINUOUS
10
129.186
20
-120.821
11
129.182
21
-120.818
0
LINE
8
BLACK
6
CONTINUOUS
10
129.182
20
-120.818
11
129.179
21
-120.814
0
LINE
8
BLACK
6
CONTINUOUS
10
129.179
20
-120.814
11
129.177
21
-120.81
0
LINE
8
BLACK
6
CONTINUOUS
10
129.177
20
-120.81
11
129.175
21
-120.805
0
LINE
8
BLACK
6
CONTINUOUS
10
129.175
20
-120.805
11
129.175
21
-120.8
0
LINE
8
BLACK
6
CONTINUOUS
10
129.175
20
-120.8
11
129.175
21
-120.799
0
LINE
8
BLACK
6
CONTINUOUS
10
129.175
20
-120.799
11
129.175
21
-112.401
0
LINE
8
BLACK
6
CONTINUOUS
10
129.175
20
-112.401
11
129.175
21
-112.4
0
LINE
8
BLACK
6
CONTINUOUS
10
129.175
20
-112.4
11
129.175
21
-112.395
0
LINE
8
BLACK
6
CONTINUOUS
10
129.175
20
-112.395
11
129.177
21
-112.39
0
LINE
8
BLACK
6
CONTINUOUS
10
129.177
20
-112.39
11
129.179
21
-112.386
0
LINE
8
BLACK
6
CONTINUOUS
10
129.179
20
-112.386
11
129.182
21
-112.382
0
LINE
8
BLACK
6
CONTINUOUS
10
129.182
20
-112.382
11
129.186
21
-112.379
0
LINE
8
BLACK
6
CONTINUOUS
10
129.186
20
-112.379
11
129.19
21
-112.377
0
LINE
8
BLACK
6
CONTINUOUS
10
129.19
20
-112.377
11
129.195
21
-112.375
0
LINE
8
BLACK
6
CONTINUOUS
10
129.195
20
-112.375
11
129.199
21
-112.375
0
LINE
8
BLACK
6
CONTINUOUS
10
129.199
20
-112.375
11
129.2
21
-112.375
0
LINE
8
BLACK
6
CONTINUOUS
10
129.2
20
-112.375
11
129.201
21
-112.375
0
LINE
8
BLACK
6
CONTINUOUS
10
129.201
20
-112.375
11
129.975
21
-112.375
0
LINE
8
BLACK
6
CONTINUOUS
10
129.975
20
-112.375
11
129.975
21
-100.001
0
LINE
8
BLACK
6
CONTINUOUS
10
129.975
20
-100.001
11
129.922
21
-99.2734
0
LINE
8
BLACK
6
CONTINUOUS
10
129.922
20
-99.2734
11
129.715
21
-98.4132
0
LINE
8
BLACK
6
CONTINUOUS
10
129.715
20
-98.4132
11
129.36
21
-97.6033
0
LINE
8
BLACK
6
CONTINUOUS
10
129.36
20
-97.6033
11
128.866
21
-96.8692
0
LINE
8
BLACK
6
CONTINUOUS
10
128.866
20
-96.8692
11
128.251
21
-96.234
0
LINE
8
BLACK
6
CONTINUOUS
10
128.251
20
-96.234
11
127.532
21
-95.7179
0
LINE
8
BLACK
6
CONTINUOUS
10
127.532
20
-95.7179
11
126.734
21
-95.3371
0
LINE
8
BLACK
6
CONTINUOUS
10
126.734
20
-95.3371
11
125.881
21
-95.1037
0
LINE
8
BLACK
6
CONTINUOUS
10
125.881
20
-95.1037
11
124.999
21
-95.025
0
LINE
8
BLACK
6
CONTINUOUS
10
124.999
20
-95.025
11
105.001
21
-95.025
  0
ENDSEC
  0
EOF
